%TF.GenerationSoftware,KiCad,Pcbnew,6.0.11-2627ca5db0~126~ubuntu22.04.1*%
%TF.CreationDate,2023-09-22T10:59:18+02:00*%
%TF.ProjectId,nucleo_f302r8_extension,6e75636c-656f-45f6-9633-303272385f65,0.1*%
%TF.SameCoordinates,Original*%
%TF.FileFunction,Legend,Bot*%
%TF.FilePolarity,Positive*%
%FSLAX46Y46*%
G04 Gerber Fmt 4.6, Leading zero omitted, Abs format (unit mm)*
G04 Created by KiCad (PCBNEW 6.0.11-2627ca5db0~126~ubuntu22.04.1) date 2023-09-22 10:59:18*
%MOMM*%
%LPD*%
G01*
G04 APERTURE LIST*
%ADD10C,0.150000*%
G04 APERTURE END LIST*
D10*
X93295238Y-71752380D02*
X93295238Y-70752380D01*
X92723809Y-71752380D01*
X92723809Y-70752380D01*
X91819047Y-71085714D02*
X91819047Y-71752380D01*
X92247619Y-71085714D02*
X92247619Y-71609523D01*
X92200000Y-71704761D01*
X92104761Y-71752380D01*
X91961904Y-71752380D01*
X91866666Y-71704761D01*
X91819047Y-71657142D01*
X90914285Y-71704761D02*
X91009523Y-71752380D01*
X91200000Y-71752380D01*
X91295238Y-71704761D01*
X91342857Y-71657142D01*
X91390476Y-71561904D01*
X91390476Y-71276190D01*
X91342857Y-71180952D01*
X91295238Y-71133333D01*
X91200000Y-71085714D01*
X91009523Y-71085714D01*
X90914285Y-71133333D01*
X90342857Y-71752380D02*
X90438095Y-71704761D01*
X90485714Y-71609523D01*
X90485714Y-70752380D01*
X89580952Y-71704761D02*
X89676190Y-71752380D01*
X89866666Y-71752380D01*
X89961904Y-71704761D01*
X90009523Y-71609523D01*
X90009523Y-71228571D01*
X89961904Y-71133333D01*
X89866666Y-71085714D01*
X89676190Y-71085714D01*
X89580952Y-71133333D01*
X89533333Y-71228571D01*
X89533333Y-71323809D01*
X90009523Y-71419047D01*
X88961904Y-71752380D02*
X89057142Y-71704761D01*
X89104761Y-71657142D01*
X89152380Y-71561904D01*
X89152380Y-71276190D01*
X89104761Y-71180952D01*
X89057142Y-71133333D01*
X88961904Y-71085714D01*
X88819047Y-71085714D01*
X88723809Y-71133333D01*
X88676190Y-71180952D01*
X88628571Y-71276190D01*
X88628571Y-71561904D01*
X88676190Y-71657142D01*
X88723809Y-71704761D01*
X88819047Y-71752380D01*
X88961904Y-71752380D01*
X87104761Y-71228571D02*
X87438095Y-71228571D01*
X87438095Y-71752380D02*
X87438095Y-70752380D01*
X86961904Y-70752380D01*
X86676190Y-70752380D02*
X86057142Y-70752380D01*
X86390476Y-71133333D01*
X86247619Y-71133333D01*
X86152380Y-71180952D01*
X86104761Y-71228571D01*
X86057142Y-71323809D01*
X86057142Y-71561904D01*
X86104761Y-71657142D01*
X86152380Y-71704761D01*
X86247619Y-71752380D01*
X86533333Y-71752380D01*
X86628571Y-71704761D01*
X86676190Y-71657142D01*
X85438095Y-70752380D02*
X85342857Y-70752380D01*
X85247619Y-70800000D01*
X85200000Y-70847619D01*
X85152380Y-70942857D01*
X85104761Y-71133333D01*
X85104761Y-71371428D01*
X85152380Y-71561904D01*
X85200000Y-71657142D01*
X85247619Y-71704761D01*
X85342857Y-71752380D01*
X85438095Y-71752380D01*
X85533333Y-71704761D01*
X85580952Y-71657142D01*
X85628571Y-71561904D01*
X85676190Y-71371428D01*
X85676190Y-71133333D01*
X85628571Y-70942857D01*
X85580952Y-70847619D01*
X85533333Y-70800000D01*
X85438095Y-70752380D01*
X84723809Y-70847619D02*
X84676190Y-70800000D01*
X84580952Y-70752380D01*
X84342857Y-70752380D01*
X84247619Y-70800000D01*
X84200000Y-70847619D01*
X84152380Y-70942857D01*
X84152380Y-71038095D01*
X84200000Y-71180952D01*
X84771428Y-71752380D01*
X84152380Y-71752380D01*
X83152380Y-71752380D02*
X83485714Y-71276190D01*
X83723809Y-71752380D02*
X83723809Y-70752380D01*
X83342857Y-70752380D01*
X83247619Y-70800000D01*
X83200000Y-70847619D01*
X83152380Y-70942857D01*
X83152380Y-71085714D01*
X83200000Y-71180952D01*
X83247619Y-71228571D01*
X83342857Y-71276190D01*
X83723809Y-71276190D01*
X82580952Y-71180952D02*
X82676190Y-71133333D01*
X82723809Y-71085714D01*
X82771428Y-70990476D01*
X82771428Y-70942857D01*
X82723809Y-70847619D01*
X82676190Y-70800000D01*
X82580952Y-70752380D01*
X82390476Y-70752380D01*
X82295238Y-70800000D01*
X82247619Y-70847619D01*
X82200000Y-70942857D01*
X82200000Y-70990476D01*
X82247619Y-71085714D01*
X82295238Y-71133333D01*
X82390476Y-71180952D01*
X82580952Y-71180952D01*
X82676190Y-71228571D01*
X82723809Y-71276190D01*
X82771428Y-71371428D01*
X82771428Y-71561904D01*
X82723809Y-71657142D01*
X82676190Y-71704761D01*
X82580952Y-71752380D01*
X82390476Y-71752380D01*
X82295238Y-71704761D01*
X82247619Y-71657142D01*
X82200000Y-71561904D01*
X82200000Y-71371428D01*
X82247619Y-71276190D01*
X82295238Y-71228571D01*
X82390476Y-71180952D01*
X81009523Y-71752380D02*
X81009523Y-70752380D01*
X80676190Y-71466666D01*
X80342857Y-70752380D01*
X80342857Y-71752380D01*
X79723809Y-71752380D02*
X79819047Y-71704761D01*
X79866666Y-71657142D01*
X79914285Y-71561904D01*
X79914285Y-71276190D01*
X79866666Y-71180952D01*
X79819047Y-71133333D01*
X79723809Y-71085714D01*
X79580952Y-71085714D01*
X79485714Y-71133333D01*
X79438095Y-71180952D01*
X79390476Y-71276190D01*
X79390476Y-71561904D01*
X79438095Y-71657142D01*
X79485714Y-71704761D01*
X79580952Y-71752380D01*
X79723809Y-71752380D01*
X78533333Y-71752380D02*
X78533333Y-70752380D01*
X78533333Y-71704761D02*
X78628571Y-71752380D01*
X78819047Y-71752380D01*
X78914285Y-71704761D01*
X78961904Y-71657142D01*
X79009523Y-71561904D01*
X79009523Y-71276190D01*
X78961904Y-71180952D01*
X78914285Y-71133333D01*
X78819047Y-71085714D01*
X78628571Y-71085714D01*
X78533333Y-71133333D01*
X78057142Y-71752380D02*
X78057142Y-70752380D01*
X78057142Y-71133333D02*
X77961904Y-71085714D01*
X77771428Y-71085714D01*
X77676190Y-71133333D01*
X77628571Y-71180952D01*
X77580952Y-71276190D01*
X77580952Y-71561904D01*
X77628571Y-71657142D01*
X77676190Y-71704761D01*
X77771428Y-71752380D01*
X77961904Y-71752380D01*
X78057142Y-71704761D01*
X76723809Y-71085714D02*
X76723809Y-71752380D01*
X77152380Y-71085714D02*
X77152380Y-71609523D01*
X77104761Y-71704761D01*
X77009523Y-71752380D01*
X76866666Y-71752380D01*
X76771428Y-71704761D01*
X76723809Y-71657142D01*
X76295238Y-71704761D02*
X76200000Y-71752380D01*
X76009523Y-71752380D01*
X75914285Y-71704761D01*
X75866666Y-71609523D01*
X75866666Y-71561904D01*
X75914285Y-71466666D01*
X76009523Y-71419047D01*
X76152380Y-71419047D01*
X76247619Y-71371428D01*
X76295238Y-71276190D01*
X76295238Y-71228571D01*
X76247619Y-71133333D01*
X76152380Y-71085714D01*
X76009523Y-71085714D01*
X75914285Y-71133333D01*
X74676190Y-71228571D02*
X74342857Y-71228571D01*
X74200000Y-71752380D02*
X74676190Y-71752380D01*
X74676190Y-70752380D01*
X74200000Y-70752380D01*
X73866666Y-71752380D02*
X73342857Y-71085714D01*
X73866666Y-71085714D02*
X73342857Y-71752380D01*
X73104761Y-71085714D02*
X72723809Y-71085714D01*
X72961904Y-70752380D02*
X72961904Y-71609523D01*
X72914285Y-71704761D01*
X72819047Y-71752380D01*
X72723809Y-71752380D01*
X72009523Y-71704761D02*
X72104761Y-71752380D01*
X72295238Y-71752380D01*
X72390476Y-71704761D01*
X72438095Y-71609523D01*
X72438095Y-71228571D01*
X72390476Y-71133333D01*
X72295238Y-71085714D01*
X72104761Y-71085714D01*
X72009523Y-71133333D01*
X71961904Y-71228571D01*
X71961904Y-71323809D01*
X72438095Y-71419047D01*
X71533333Y-71085714D02*
X71533333Y-71752380D01*
X71533333Y-71180952D02*
X71485714Y-71133333D01*
X71390476Y-71085714D01*
X71247619Y-71085714D01*
X71152380Y-71133333D01*
X71104761Y-71228571D01*
X71104761Y-71752380D01*
X70676190Y-71704761D02*
X70580952Y-71752380D01*
X70390476Y-71752380D01*
X70295238Y-71704761D01*
X70247619Y-71609523D01*
X70247619Y-71561904D01*
X70295238Y-71466666D01*
X70390476Y-71419047D01*
X70533333Y-71419047D01*
X70628571Y-71371428D01*
X70676190Y-71276190D01*
X70676190Y-71228571D01*
X70628571Y-71133333D01*
X70533333Y-71085714D01*
X70390476Y-71085714D01*
X70295238Y-71133333D01*
X69819047Y-71752380D02*
X69819047Y-71085714D01*
X69819047Y-70752380D02*
X69866666Y-70800000D01*
X69819047Y-70847619D01*
X69771428Y-70800000D01*
X69819047Y-70752380D01*
X69819047Y-70847619D01*
X69200000Y-71752380D02*
X69295238Y-71704761D01*
X69342857Y-71657142D01*
X69390476Y-71561904D01*
X69390476Y-71276190D01*
X69342857Y-71180952D01*
X69295238Y-71133333D01*
X69200000Y-71085714D01*
X69057142Y-71085714D01*
X68961904Y-71133333D01*
X68914285Y-71180952D01*
X68866666Y-71276190D01*
X68866666Y-71561904D01*
X68914285Y-71657142D01*
X68961904Y-71704761D01*
X69057142Y-71752380D01*
X69200000Y-71752380D01*
X68438095Y-71085714D02*
X68438095Y-71752380D01*
X68438095Y-71180952D02*
X68390476Y-71133333D01*
X68295238Y-71085714D01*
X68152380Y-71085714D01*
X68057142Y-71133333D01*
X68009523Y-71228571D01*
X68009523Y-71752380D01*
X66866666Y-71085714D02*
X66628571Y-71752380D01*
X66390476Y-71085714D01*
X65819047Y-70752380D02*
X65723809Y-70752380D01*
X65628571Y-70800000D01*
X65580952Y-70847619D01*
X65533333Y-70942857D01*
X65485714Y-71133333D01*
X65485714Y-71371428D01*
X65533333Y-71561904D01*
X65580952Y-71657142D01*
X65628571Y-71704761D01*
X65723809Y-71752380D01*
X65819047Y-71752380D01*
X65914285Y-71704761D01*
X65961904Y-71657142D01*
X66009523Y-71561904D01*
X66057142Y-71371428D01*
X66057142Y-71133333D01*
X66009523Y-70942857D01*
X65961904Y-70847619D01*
X65914285Y-70800000D01*
X65819047Y-70752380D01*
X65057142Y-71657142D02*
X65009523Y-71704761D01*
X65057142Y-71752380D01*
X65104761Y-71704761D01*
X65057142Y-71657142D01*
X65057142Y-71752380D01*
X64057142Y-71752380D02*
X64628571Y-71752380D01*
X64342857Y-71752380D02*
X64342857Y-70752380D01*
X64438095Y-70895238D01*
X64533333Y-70990476D01*
X64628571Y-71038095D01*
%TO.C,TP2*%
X78714285Y-102952380D02*
X78714285Y-101952380D01*
X78380952Y-102666666D01*
X78047619Y-101952380D01*
X78047619Y-102952380D01*
X77142857Y-102952380D02*
X77142857Y-102428571D01*
X77190476Y-102333333D01*
X77285714Y-102285714D01*
X77476190Y-102285714D01*
X77571428Y-102333333D01*
X77142857Y-102904761D02*
X77238095Y-102952380D01*
X77476190Y-102952380D01*
X77571428Y-102904761D01*
X77619047Y-102809523D01*
X77619047Y-102714285D01*
X77571428Y-102619047D01*
X77476190Y-102571428D01*
X77238095Y-102571428D01*
X77142857Y-102523809D01*
X76714285Y-102904761D02*
X76619047Y-102952380D01*
X76428571Y-102952380D01*
X76333333Y-102904761D01*
X76285714Y-102809523D01*
X76285714Y-102761904D01*
X76333333Y-102666666D01*
X76428571Y-102619047D01*
X76571428Y-102619047D01*
X76666666Y-102571428D01*
X76714285Y-102476190D01*
X76714285Y-102428571D01*
X76666666Y-102333333D01*
X76571428Y-102285714D01*
X76428571Y-102285714D01*
X76333333Y-102333333D01*
X76000000Y-102285714D02*
X75619047Y-102285714D01*
X75857142Y-101952380D02*
X75857142Y-102809523D01*
X75809523Y-102904761D01*
X75714285Y-102952380D01*
X75619047Y-102952380D01*
X74904761Y-102904761D02*
X75000000Y-102952380D01*
X75190476Y-102952380D01*
X75285714Y-102904761D01*
X75333333Y-102809523D01*
X75333333Y-102428571D01*
X75285714Y-102333333D01*
X75190476Y-102285714D01*
X75000000Y-102285714D01*
X74904761Y-102333333D01*
X74857142Y-102428571D01*
X74857142Y-102523809D01*
X75333333Y-102619047D01*
X74428571Y-102952380D02*
X74428571Y-102285714D01*
X74428571Y-102476190D02*
X74380952Y-102380952D01*
X74333333Y-102333333D01*
X74238095Y-102285714D01*
X74142857Y-102285714D01*
X73476190Y-102428571D02*
X73333333Y-102476190D01*
X73285714Y-102523809D01*
X73238095Y-102619047D01*
X73238095Y-102761904D01*
X73285714Y-102857142D01*
X73333333Y-102904761D01*
X73428571Y-102952380D01*
X73809523Y-102952380D01*
X73809523Y-101952380D01*
X73476190Y-101952380D01*
X73380952Y-102000000D01*
X73333333Y-102047619D01*
X73285714Y-102142857D01*
X73285714Y-102238095D01*
X73333333Y-102333333D01*
X73380952Y-102380952D01*
X73476190Y-102428571D01*
X73809523Y-102428571D01*
%TO.C,TP9*%
X92804166Y-117704761D02*
X92661309Y-117752380D01*
X92423214Y-117752380D01*
X92327976Y-117704761D01*
X92280357Y-117657142D01*
X92232738Y-117561904D01*
X92232738Y-117466666D01*
X92280357Y-117371428D01*
X92327976Y-117323809D01*
X92423214Y-117276190D01*
X92613690Y-117228571D01*
X92708928Y-117180952D01*
X92756547Y-117133333D01*
X92804166Y-117038095D01*
X92804166Y-116942857D01*
X92756547Y-116847619D01*
X92708928Y-116800000D01*
X92613690Y-116752380D01*
X92375595Y-116752380D01*
X92232738Y-116800000D01*
X91661309Y-117752380D02*
X91756547Y-117704761D01*
X91804166Y-117609523D01*
X91804166Y-116752380D01*
X90851785Y-117752380D02*
X90851785Y-117228571D01*
X90899404Y-117133333D01*
X90994642Y-117085714D01*
X91185119Y-117085714D01*
X91280357Y-117133333D01*
X90851785Y-117704761D02*
X90947023Y-117752380D01*
X91185119Y-117752380D01*
X91280357Y-117704761D01*
X91327976Y-117609523D01*
X91327976Y-117514285D01*
X91280357Y-117419047D01*
X91185119Y-117371428D01*
X90947023Y-117371428D01*
X90851785Y-117323809D01*
X90470833Y-117085714D02*
X90232738Y-117752380D01*
X89994642Y-117085714D01*
X89232738Y-117704761D02*
X89327976Y-117752380D01*
X89518452Y-117752380D01*
X89613690Y-117704761D01*
X89661309Y-117609523D01*
X89661309Y-117228571D01*
X89613690Y-117133333D01*
X89518452Y-117085714D01*
X89327976Y-117085714D01*
X89232738Y-117133333D01*
X89185119Y-117228571D01*
X89185119Y-117323809D01*
X89661309Y-117419047D01*
X88899404Y-116752380D02*
X88327976Y-116752380D01*
X88613690Y-117752380D02*
X88613690Y-116752380D01*
X88089880Y-116752380D02*
X87423214Y-117752380D01*
X87423214Y-116752380D02*
X88089880Y-117752380D01*
%TO.C,TP13*%
X80961904Y-87100000D02*
X81057142Y-87052380D01*
X81200000Y-87052380D01*
X81342857Y-87100000D01*
X81438095Y-87195238D01*
X81485714Y-87290476D01*
X81533333Y-87480952D01*
X81533333Y-87623809D01*
X81485714Y-87814285D01*
X81438095Y-87909523D01*
X81342857Y-88004761D01*
X81200000Y-88052380D01*
X81104761Y-88052380D01*
X80961904Y-88004761D01*
X80914285Y-87957142D01*
X80914285Y-87623809D01*
X81104761Y-87623809D01*
X80485714Y-88052380D02*
X80485714Y-87052380D01*
X79914285Y-88052380D01*
X79914285Y-87052380D01*
X79438095Y-88052380D02*
X79438095Y-87052380D01*
X79200000Y-87052380D01*
X79057142Y-87100000D01*
X78961904Y-87195238D01*
X78914285Y-87290476D01*
X78866666Y-87480952D01*
X78866666Y-87623809D01*
X78914285Y-87814285D01*
X78961904Y-87909523D01*
X79057142Y-88004761D01*
X79200000Y-88052380D01*
X79438095Y-88052380D01*
%TO.C,TP7*%
X106038095Y-117304761D02*
X105895238Y-117352380D01*
X105657142Y-117352380D01*
X105561904Y-117304761D01*
X105514285Y-117257142D01*
X105466666Y-117161904D01*
X105466666Y-117066666D01*
X105514285Y-116971428D01*
X105561904Y-116923809D01*
X105657142Y-116876190D01*
X105847619Y-116828571D01*
X105942857Y-116780952D01*
X105990476Y-116733333D01*
X106038095Y-116638095D01*
X106038095Y-116542857D01*
X105990476Y-116447619D01*
X105942857Y-116400000D01*
X105847619Y-116352380D01*
X105609523Y-116352380D01*
X105466666Y-116400000D01*
X104895238Y-117352380D02*
X104990476Y-117304761D01*
X105038095Y-117209523D01*
X105038095Y-116352380D01*
X104085714Y-117352380D02*
X104085714Y-116828571D01*
X104133333Y-116733333D01*
X104228571Y-116685714D01*
X104419047Y-116685714D01*
X104514285Y-116733333D01*
X104085714Y-117304761D02*
X104180952Y-117352380D01*
X104419047Y-117352380D01*
X104514285Y-117304761D01*
X104561904Y-117209523D01*
X104561904Y-117114285D01*
X104514285Y-117019047D01*
X104419047Y-116971428D01*
X104180952Y-116971428D01*
X104085714Y-116923809D01*
X103704761Y-116685714D02*
X103466666Y-117352380D01*
X103228571Y-116685714D01*
X102466666Y-117304761D02*
X102561904Y-117352380D01*
X102752380Y-117352380D01*
X102847619Y-117304761D01*
X102895238Y-117209523D01*
X102895238Y-116828571D01*
X102847619Y-116733333D01*
X102752380Y-116685714D01*
X102561904Y-116685714D01*
X102466666Y-116733333D01*
X102419047Y-116828571D01*
X102419047Y-116923809D01*
X102895238Y-117019047D01*
X102038095Y-117066666D02*
X101561904Y-117066666D01*
X102133333Y-117352380D02*
X101800000Y-116352380D01*
X101466666Y-117352380D01*
%TO.C,TP4*%
X65290476Y-102752380D02*
X65290476Y-101752380D01*
X64957142Y-102466666D01*
X64623809Y-101752380D01*
X64623809Y-102752380D01*
X63719047Y-102752380D02*
X63719047Y-102228571D01*
X63766666Y-102133333D01*
X63861904Y-102085714D01*
X64052380Y-102085714D01*
X64147619Y-102133333D01*
X63719047Y-102704761D02*
X63814285Y-102752380D01*
X64052380Y-102752380D01*
X64147619Y-102704761D01*
X64195238Y-102609523D01*
X64195238Y-102514285D01*
X64147619Y-102419047D01*
X64052380Y-102371428D01*
X63814285Y-102371428D01*
X63719047Y-102323809D01*
X63290476Y-102704761D02*
X63195238Y-102752380D01*
X63004761Y-102752380D01*
X62909523Y-102704761D01*
X62861904Y-102609523D01*
X62861904Y-102561904D01*
X62909523Y-102466666D01*
X63004761Y-102419047D01*
X63147619Y-102419047D01*
X63242857Y-102371428D01*
X63290476Y-102276190D01*
X63290476Y-102228571D01*
X63242857Y-102133333D01*
X63147619Y-102085714D01*
X63004761Y-102085714D01*
X62909523Y-102133333D01*
X62576190Y-102085714D02*
X62195238Y-102085714D01*
X62433333Y-101752380D02*
X62433333Y-102609523D01*
X62385714Y-102704761D01*
X62290476Y-102752380D01*
X62195238Y-102752380D01*
X61480952Y-102704761D02*
X61576190Y-102752380D01*
X61766666Y-102752380D01*
X61861904Y-102704761D01*
X61909523Y-102609523D01*
X61909523Y-102228571D01*
X61861904Y-102133333D01*
X61766666Y-102085714D01*
X61576190Y-102085714D01*
X61480952Y-102133333D01*
X61433333Y-102228571D01*
X61433333Y-102323809D01*
X61909523Y-102419047D01*
X61004761Y-102752380D02*
X61004761Y-102085714D01*
X61004761Y-102276190D02*
X60957142Y-102180952D01*
X60909523Y-102133333D01*
X60814285Y-102085714D01*
X60719047Y-102085714D01*
X59814285Y-102752380D02*
X60147619Y-102276190D01*
X60385714Y-102752380D02*
X60385714Y-101752380D01*
X60004761Y-101752380D01*
X59909523Y-101800000D01*
X59861904Y-101847619D01*
X59814285Y-101942857D01*
X59814285Y-102085714D01*
X59861904Y-102180952D01*
X59909523Y-102228571D01*
X60004761Y-102276190D01*
X60385714Y-102276190D01*
X59480952Y-101752380D02*
X58814285Y-102752380D01*
X58814285Y-101752380D02*
X59480952Y-102752380D01*
%TO.C,TP5*%
X58066666Y-117652380D02*
X58066666Y-116652380D01*
X57733333Y-117366666D01*
X57400000Y-116652380D01*
X57400000Y-117652380D01*
X56495238Y-117652380D02*
X56495238Y-117128571D01*
X56542857Y-117033333D01*
X56638095Y-116985714D01*
X56828571Y-116985714D01*
X56923809Y-117033333D01*
X56495238Y-117604761D02*
X56590476Y-117652380D01*
X56828571Y-117652380D01*
X56923809Y-117604761D01*
X56971428Y-117509523D01*
X56971428Y-117414285D01*
X56923809Y-117319047D01*
X56828571Y-117271428D01*
X56590476Y-117271428D01*
X56495238Y-117223809D01*
X56066666Y-117604761D02*
X55971428Y-117652380D01*
X55780952Y-117652380D01*
X55685714Y-117604761D01*
X55638095Y-117509523D01*
X55638095Y-117461904D01*
X55685714Y-117366666D01*
X55780952Y-117319047D01*
X55923809Y-117319047D01*
X56019047Y-117271428D01*
X56066666Y-117176190D01*
X56066666Y-117128571D01*
X56019047Y-117033333D01*
X55923809Y-116985714D01*
X55780952Y-116985714D01*
X55685714Y-117033333D01*
X55352380Y-116985714D02*
X54971428Y-116985714D01*
X55209523Y-116652380D02*
X55209523Y-117509523D01*
X55161904Y-117604761D01*
X55066666Y-117652380D01*
X54971428Y-117652380D01*
X54257142Y-117604761D02*
X54352380Y-117652380D01*
X54542857Y-117652380D01*
X54638095Y-117604761D01*
X54685714Y-117509523D01*
X54685714Y-117128571D01*
X54638095Y-117033333D01*
X54542857Y-116985714D01*
X54352380Y-116985714D01*
X54257142Y-117033333D01*
X54209523Y-117128571D01*
X54209523Y-117223809D01*
X54685714Y-117319047D01*
X53780952Y-117652380D02*
X53780952Y-116985714D01*
X53780952Y-117176190D02*
X53733333Y-117080952D01*
X53685714Y-117033333D01*
X53590476Y-116985714D01*
X53495238Y-116985714D01*
X53161904Y-117652380D02*
X53161904Y-116652380D01*
X52923809Y-116652380D01*
X52780952Y-116700000D01*
X52685714Y-116795238D01*
X52638095Y-116890476D01*
X52590476Y-117080952D01*
X52590476Y-117223809D01*
X52638095Y-117414285D01*
X52685714Y-117509523D01*
X52780952Y-117604761D01*
X52923809Y-117652380D01*
X53161904Y-117652380D01*
X52161904Y-117128571D02*
X51828571Y-117128571D01*
X51685714Y-117652380D02*
X52161904Y-117652380D01*
X52161904Y-116652380D01*
X51685714Y-116652380D01*
%TO.C,TP1*%
X78742857Y-117752380D02*
X78742857Y-116752380D01*
X78409523Y-117466666D01*
X78076190Y-116752380D01*
X78076190Y-117752380D01*
X77171428Y-117752380D02*
X77171428Y-117228571D01*
X77219047Y-117133333D01*
X77314285Y-117085714D01*
X77504761Y-117085714D01*
X77600000Y-117133333D01*
X77171428Y-117704761D02*
X77266666Y-117752380D01*
X77504761Y-117752380D01*
X77600000Y-117704761D01*
X77647619Y-117609523D01*
X77647619Y-117514285D01*
X77600000Y-117419047D01*
X77504761Y-117371428D01*
X77266666Y-117371428D01*
X77171428Y-117323809D01*
X76742857Y-117704761D02*
X76647619Y-117752380D01*
X76457142Y-117752380D01*
X76361904Y-117704761D01*
X76314285Y-117609523D01*
X76314285Y-117561904D01*
X76361904Y-117466666D01*
X76457142Y-117419047D01*
X76600000Y-117419047D01*
X76695238Y-117371428D01*
X76742857Y-117276190D01*
X76742857Y-117228571D01*
X76695238Y-117133333D01*
X76600000Y-117085714D01*
X76457142Y-117085714D01*
X76361904Y-117133333D01*
X76028571Y-117085714D02*
X75647619Y-117085714D01*
X75885714Y-116752380D02*
X75885714Y-117609523D01*
X75838095Y-117704761D01*
X75742857Y-117752380D01*
X75647619Y-117752380D01*
X74933333Y-117704761D02*
X75028571Y-117752380D01*
X75219047Y-117752380D01*
X75314285Y-117704761D01*
X75361904Y-117609523D01*
X75361904Y-117228571D01*
X75314285Y-117133333D01*
X75219047Y-117085714D01*
X75028571Y-117085714D01*
X74933333Y-117133333D01*
X74885714Y-117228571D01*
X74885714Y-117323809D01*
X75361904Y-117419047D01*
X74457142Y-117752380D02*
X74457142Y-117085714D01*
X74457142Y-117276190D02*
X74409523Y-117180952D01*
X74361904Y-117133333D01*
X74266666Y-117085714D01*
X74171428Y-117085714D01*
X73885714Y-117466666D02*
X73409523Y-117466666D01*
X73980952Y-117752380D02*
X73647619Y-116752380D01*
X73314285Y-117752380D01*
%TO.C,TP10*%
X92985714Y-102704761D02*
X92842857Y-102752380D01*
X92604761Y-102752380D01*
X92509523Y-102704761D01*
X92461904Y-102657142D01*
X92414285Y-102561904D01*
X92414285Y-102466666D01*
X92461904Y-102371428D01*
X92509523Y-102323809D01*
X92604761Y-102276190D01*
X92795238Y-102228571D01*
X92890476Y-102180952D01*
X92938095Y-102133333D01*
X92985714Y-102038095D01*
X92985714Y-101942857D01*
X92938095Y-101847619D01*
X92890476Y-101800000D01*
X92795238Y-101752380D01*
X92557142Y-101752380D01*
X92414285Y-101800000D01*
X91842857Y-102752380D02*
X91938095Y-102704761D01*
X91985714Y-102609523D01*
X91985714Y-101752380D01*
X91033333Y-102752380D02*
X91033333Y-102228571D01*
X91080952Y-102133333D01*
X91176190Y-102085714D01*
X91366666Y-102085714D01*
X91461904Y-102133333D01*
X91033333Y-102704761D02*
X91128571Y-102752380D01*
X91366666Y-102752380D01*
X91461904Y-102704761D01*
X91509523Y-102609523D01*
X91509523Y-102514285D01*
X91461904Y-102419047D01*
X91366666Y-102371428D01*
X91128571Y-102371428D01*
X91033333Y-102323809D01*
X90652380Y-102085714D02*
X90414285Y-102752380D01*
X90176190Y-102085714D01*
X89414285Y-102704761D02*
X89509523Y-102752380D01*
X89700000Y-102752380D01*
X89795238Y-102704761D01*
X89842857Y-102609523D01*
X89842857Y-102228571D01*
X89795238Y-102133333D01*
X89700000Y-102085714D01*
X89509523Y-102085714D01*
X89414285Y-102133333D01*
X89366666Y-102228571D01*
X89366666Y-102323809D01*
X89842857Y-102419047D01*
X88366666Y-102752380D02*
X88700000Y-102276190D01*
X88938095Y-102752380D02*
X88938095Y-101752380D01*
X88557142Y-101752380D01*
X88461904Y-101800000D01*
X88414285Y-101847619D01*
X88366666Y-101942857D01*
X88366666Y-102085714D01*
X88414285Y-102180952D01*
X88461904Y-102228571D01*
X88557142Y-102276190D01*
X88938095Y-102276190D01*
X88033333Y-101752380D02*
X87366666Y-102752380D01*
X87366666Y-101752380D02*
X88033333Y-102752380D01*
%TO.C,TP3*%
X65271428Y-117752380D02*
X65271428Y-116752380D01*
X64938095Y-117466666D01*
X64604761Y-116752380D01*
X64604761Y-117752380D01*
X63700000Y-117752380D02*
X63700000Y-117228571D01*
X63747619Y-117133333D01*
X63842857Y-117085714D01*
X64033333Y-117085714D01*
X64128571Y-117133333D01*
X63700000Y-117704761D02*
X63795238Y-117752380D01*
X64033333Y-117752380D01*
X64128571Y-117704761D01*
X64176190Y-117609523D01*
X64176190Y-117514285D01*
X64128571Y-117419047D01*
X64033333Y-117371428D01*
X63795238Y-117371428D01*
X63700000Y-117323809D01*
X63271428Y-117704761D02*
X63176190Y-117752380D01*
X62985714Y-117752380D01*
X62890476Y-117704761D01*
X62842857Y-117609523D01*
X62842857Y-117561904D01*
X62890476Y-117466666D01*
X62985714Y-117419047D01*
X63128571Y-117419047D01*
X63223809Y-117371428D01*
X63271428Y-117276190D01*
X63271428Y-117228571D01*
X63223809Y-117133333D01*
X63128571Y-117085714D01*
X62985714Y-117085714D01*
X62890476Y-117133333D01*
X62557142Y-117085714D02*
X62176190Y-117085714D01*
X62414285Y-116752380D02*
X62414285Y-117609523D01*
X62366666Y-117704761D01*
X62271428Y-117752380D01*
X62176190Y-117752380D01*
X61461904Y-117704761D02*
X61557142Y-117752380D01*
X61747619Y-117752380D01*
X61842857Y-117704761D01*
X61890476Y-117609523D01*
X61890476Y-117228571D01*
X61842857Y-117133333D01*
X61747619Y-117085714D01*
X61557142Y-117085714D01*
X61461904Y-117133333D01*
X61414285Y-117228571D01*
X61414285Y-117323809D01*
X61890476Y-117419047D01*
X60985714Y-117752380D02*
X60985714Y-117085714D01*
X60985714Y-117276190D02*
X60938095Y-117180952D01*
X60890476Y-117133333D01*
X60795238Y-117085714D01*
X60700000Y-117085714D01*
X60509523Y-116752380D02*
X59938095Y-116752380D01*
X60223809Y-117752380D02*
X60223809Y-116752380D01*
X59700000Y-116752380D02*
X59033333Y-117752380D01*
X59033333Y-116752380D02*
X59700000Y-117752380D01*
%TO.C,TP11*%
X85299404Y-117604761D02*
X85156547Y-117652380D01*
X84918452Y-117652380D01*
X84823214Y-117604761D01*
X84775595Y-117557142D01*
X84727976Y-117461904D01*
X84727976Y-117366666D01*
X84775595Y-117271428D01*
X84823214Y-117223809D01*
X84918452Y-117176190D01*
X85108928Y-117128571D01*
X85204166Y-117080952D01*
X85251785Y-117033333D01*
X85299404Y-116938095D01*
X85299404Y-116842857D01*
X85251785Y-116747619D01*
X85204166Y-116700000D01*
X85108928Y-116652380D01*
X84870833Y-116652380D01*
X84727976Y-116700000D01*
X84156547Y-117652380D02*
X84251785Y-117604761D01*
X84299404Y-117509523D01*
X84299404Y-116652380D01*
X83347023Y-117652380D02*
X83347023Y-117128571D01*
X83394642Y-117033333D01*
X83489880Y-116985714D01*
X83680357Y-116985714D01*
X83775595Y-117033333D01*
X83347023Y-117604761D02*
X83442261Y-117652380D01*
X83680357Y-117652380D01*
X83775595Y-117604761D01*
X83823214Y-117509523D01*
X83823214Y-117414285D01*
X83775595Y-117319047D01*
X83680357Y-117271428D01*
X83442261Y-117271428D01*
X83347023Y-117223809D01*
X82966071Y-116985714D02*
X82727976Y-117652380D01*
X82489880Y-116985714D01*
X81727976Y-117604761D02*
X81823214Y-117652380D01*
X82013690Y-117652380D01*
X82108928Y-117604761D01*
X82156547Y-117509523D01*
X82156547Y-117128571D01*
X82108928Y-117033333D01*
X82013690Y-116985714D01*
X81823214Y-116985714D01*
X81727976Y-117033333D01*
X81680357Y-117128571D01*
X81680357Y-117223809D01*
X82156547Y-117319047D01*
X81251785Y-117652380D02*
X81251785Y-116652380D01*
X81013690Y-116652380D01*
X80870833Y-116700000D01*
X80775595Y-116795238D01*
X80727976Y-116890476D01*
X80680357Y-117080952D01*
X80680357Y-117223809D01*
X80727976Y-117414285D01*
X80775595Y-117509523D01*
X80870833Y-117604761D01*
X81013690Y-117652380D01*
X81251785Y-117652380D01*
X80251785Y-117128571D02*
X79918452Y-117128571D01*
X79775595Y-117652380D02*
X80251785Y-117652380D01*
X80251785Y-116652380D01*
X79775595Y-116652380D01*
%TO.C,TP8*%
X105909523Y-102904761D02*
X105766666Y-102952380D01*
X105528571Y-102952380D01*
X105433333Y-102904761D01*
X105385714Y-102857142D01*
X105338095Y-102761904D01*
X105338095Y-102666666D01*
X105385714Y-102571428D01*
X105433333Y-102523809D01*
X105528571Y-102476190D01*
X105719047Y-102428571D01*
X105814285Y-102380952D01*
X105861904Y-102333333D01*
X105909523Y-102238095D01*
X105909523Y-102142857D01*
X105861904Y-102047619D01*
X105814285Y-102000000D01*
X105719047Y-101952380D01*
X105480952Y-101952380D01*
X105338095Y-102000000D01*
X104766666Y-102952380D02*
X104861904Y-102904761D01*
X104909523Y-102809523D01*
X104909523Y-101952380D01*
X103957142Y-102952380D02*
X103957142Y-102428571D01*
X104004761Y-102333333D01*
X104100000Y-102285714D01*
X104290476Y-102285714D01*
X104385714Y-102333333D01*
X103957142Y-102904761D02*
X104052380Y-102952380D01*
X104290476Y-102952380D01*
X104385714Y-102904761D01*
X104433333Y-102809523D01*
X104433333Y-102714285D01*
X104385714Y-102619047D01*
X104290476Y-102571428D01*
X104052380Y-102571428D01*
X103957142Y-102523809D01*
X103576190Y-102285714D02*
X103338095Y-102952380D01*
X103100000Y-102285714D01*
X102338095Y-102904761D02*
X102433333Y-102952380D01*
X102623809Y-102952380D01*
X102719047Y-102904761D01*
X102766666Y-102809523D01*
X102766666Y-102428571D01*
X102719047Y-102333333D01*
X102623809Y-102285714D01*
X102433333Y-102285714D01*
X102338095Y-102333333D01*
X102290476Y-102428571D01*
X102290476Y-102523809D01*
X102766666Y-102619047D01*
X101528571Y-102428571D02*
X101385714Y-102476190D01*
X101338095Y-102523809D01*
X101290476Y-102619047D01*
X101290476Y-102761904D01*
X101338095Y-102857142D01*
X101385714Y-102904761D01*
X101480952Y-102952380D01*
X101861904Y-102952380D01*
X101861904Y-101952380D01*
X101528571Y-101952380D01*
X101433333Y-102000000D01*
X101385714Y-102047619D01*
X101338095Y-102142857D01*
X101338095Y-102238095D01*
X101385714Y-102333333D01*
X101433333Y-102380952D01*
X101528571Y-102428571D01*
X101861904Y-102428571D01*
%TO.C,TP12*%
X85261904Y-102904761D02*
X85119047Y-102952380D01*
X84880952Y-102952380D01*
X84785714Y-102904761D01*
X84738095Y-102857142D01*
X84690476Y-102761904D01*
X84690476Y-102666666D01*
X84738095Y-102571428D01*
X84785714Y-102523809D01*
X84880952Y-102476190D01*
X85071428Y-102428571D01*
X85166666Y-102380952D01*
X85214285Y-102333333D01*
X85261904Y-102238095D01*
X85261904Y-102142857D01*
X85214285Y-102047619D01*
X85166666Y-102000000D01*
X85071428Y-101952380D01*
X84833333Y-101952380D01*
X84690476Y-102000000D01*
X84119047Y-102952380D02*
X84214285Y-102904761D01*
X84261904Y-102809523D01*
X84261904Y-101952380D01*
X83309523Y-102952380D02*
X83309523Y-102428571D01*
X83357142Y-102333333D01*
X83452380Y-102285714D01*
X83642857Y-102285714D01*
X83738095Y-102333333D01*
X83309523Y-102904761D02*
X83404761Y-102952380D01*
X83642857Y-102952380D01*
X83738095Y-102904761D01*
X83785714Y-102809523D01*
X83785714Y-102714285D01*
X83738095Y-102619047D01*
X83642857Y-102571428D01*
X83404761Y-102571428D01*
X83309523Y-102523809D01*
X82928571Y-102285714D02*
X82690476Y-102952380D01*
X82452380Y-102285714D01*
X81690476Y-102904761D02*
X81785714Y-102952380D01*
X81976190Y-102952380D01*
X82071428Y-102904761D01*
X82119047Y-102809523D01*
X82119047Y-102428571D01*
X82071428Y-102333333D01*
X81976190Y-102285714D01*
X81785714Y-102285714D01*
X81690476Y-102333333D01*
X81642857Y-102428571D01*
X81642857Y-102523809D01*
X82119047Y-102619047D01*
X80642857Y-102952380D02*
X80976190Y-102476190D01*
X81214285Y-102952380D02*
X81214285Y-101952380D01*
X80833333Y-101952380D01*
X80738095Y-102000000D01*
X80690476Y-102047619D01*
X80642857Y-102142857D01*
X80642857Y-102285714D01*
X80690476Y-102380952D01*
X80738095Y-102428571D01*
X80833333Y-102476190D01*
X81214285Y-102476190D01*
X80214285Y-102428571D02*
X79880952Y-102428571D01*
X79738095Y-102952380D02*
X80214285Y-102952380D01*
X80214285Y-101952380D01*
X79738095Y-101952380D01*
%TO.C,TP6*%
X57966666Y-102852380D02*
X57966666Y-101852380D01*
X57633333Y-102566666D01*
X57300000Y-101852380D01*
X57300000Y-102852380D01*
X56395238Y-102852380D02*
X56395238Y-102328571D01*
X56442857Y-102233333D01*
X56538095Y-102185714D01*
X56728571Y-102185714D01*
X56823809Y-102233333D01*
X56395238Y-102804761D02*
X56490476Y-102852380D01*
X56728571Y-102852380D01*
X56823809Y-102804761D01*
X56871428Y-102709523D01*
X56871428Y-102614285D01*
X56823809Y-102519047D01*
X56728571Y-102471428D01*
X56490476Y-102471428D01*
X56395238Y-102423809D01*
X55966666Y-102804761D02*
X55871428Y-102852380D01*
X55680952Y-102852380D01*
X55585714Y-102804761D01*
X55538095Y-102709523D01*
X55538095Y-102661904D01*
X55585714Y-102566666D01*
X55680952Y-102519047D01*
X55823809Y-102519047D01*
X55919047Y-102471428D01*
X55966666Y-102376190D01*
X55966666Y-102328571D01*
X55919047Y-102233333D01*
X55823809Y-102185714D01*
X55680952Y-102185714D01*
X55585714Y-102233333D01*
X55252380Y-102185714D02*
X54871428Y-102185714D01*
X55109523Y-101852380D02*
X55109523Y-102709523D01*
X55061904Y-102804761D01*
X54966666Y-102852380D01*
X54871428Y-102852380D01*
X54157142Y-102804761D02*
X54252380Y-102852380D01*
X54442857Y-102852380D01*
X54538095Y-102804761D01*
X54585714Y-102709523D01*
X54585714Y-102328571D01*
X54538095Y-102233333D01*
X54442857Y-102185714D01*
X54252380Y-102185714D01*
X54157142Y-102233333D01*
X54109523Y-102328571D01*
X54109523Y-102423809D01*
X54585714Y-102519047D01*
X53680952Y-102852380D02*
X53680952Y-102185714D01*
X53680952Y-102376190D02*
X53633333Y-102280952D01*
X53585714Y-102233333D01*
X53490476Y-102185714D01*
X53395238Y-102185714D01*
X52490476Y-102852380D02*
X52823809Y-102376190D01*
X53061904Y-102852380D02*
X53061904Y-101852380D01*
X52680952Y-101852380D01*
X52585714Y-101900000D01*
X52538095Y-101947619D01*
X52490476Y-102042857D01*
X52490476Y-102185714D01*
X52538095Y-102280952D01*
X52585714Y-102328571D01*
X52680952Y-102376190D01*
X53061904Y-102376190D01*
X52061904Y-102328571D02*
X51728571Y-102328571D01*
X51585714Y-102852380D02*
X52061904Y-102852380D01*
X52061904Y-101852380D01*
X51585714Y-101852380D01*
%TO.C,G\u002A\u002A\u002A*%
G36*
X75022767Y-97689504D02*
G01*
X74931011Y-97686810D01*
X74930850Y-97668032D01*
X74978059Y-97668032D01*
X74992138Y-97669121D01*
X75020415Y-97669530D01*
X75031930Y-97669476D01*
X75055403Y-97668803D01*
X75063983Y-97667522D01*
X75055705Y-97665838D01*
X75020461Y-97664316D01*
X74985124Y-97665838D01*
X74980141Y-97666468D01*
X74978059Y-97668032D01*
X74930850Y-97668032D01*
X74928437Y-97385662D01*
X74928087Y-97338381D01*
X74927833Y-97254799D01*
X74928233Y-97188069D01*
X74929323Y-97136875D01*
X74931139Y-97099900D01*
X74933714Y-97075827D01*
X74937086Y-97063339D01*
X74941731Y-97055779D01*
X74950545Y-97048416D01*
X74965646Y-97044318D01*
X74991211Y-97042546D01*
X75031416Y-97042164D01*
X75114523Y-97042164D01*
X75114523Y-97692197D01*
X75022767Y-97689504D01*
G37*
G36*
X88423055Y-96698752D02*
G01*
X88434157Y-96708331D01*
X88449475Y-96725699D01*
X88470003Y-96752197D01*
X88496734Y-96789165D01*
X88530664Y-96837943D01*
X88572786Y-96899870D01*
X88624095Y-96976288D01*
X88662676Y-97033800D01*
X88703649Y-97094437D01*
X88740602Y-97148662D01*
X88772258Y-97194620D01*
X88797337Y-97230458D01*
X88814563Y-97254322D01*
X88822658Y-97264358D01*
X88823370Y-97264981D01*
X88830367Y-97279558D01*
X88834307Y-97308421D01*
X88835505Y-97353761D01*
X88835405Y-97432716D01*
X88794176Y-97477418D01*
X88752948Y-97522120D01*
X88304292Y-97522120D01*
X88191065Y-97521926D01*
X88089067Y-97521318D01*
X88003713Y-97520304D01*
X87935438Y-97518895D01*
X87884676Y-97517097D01*
X87851862Y-97514922D01*
X87837432Y-97512378D01*
X87824891Y-97500441D01*
X87819805Y-97475929D01*
X87829065Y-97446039D01*
X87834748Y-97437293D01*
X87850773Y-97414562D01*
X87875159Y-97380855D01*
X87906257Y-97338432D01*
X87942417Y-97289553D01*
X87981992Y-97236478D01*
X87994052Y-97220357D01*
X88044377Y-97152965D01*
X88098702Y-97080056D01*
X88153202Y-97006771D01*
X88204051Y-96938252D01*
X88247425Y-96879643D01*
X88262696Y-96859084D01*
X88297873Y-96812650D01*
X88329121Y-96772662D01*
X88354663Y-96741322D01*
X88372724Y-96720830D01*
X88381530Y-96713387D01*
X88385823Y-96712471D01*
X88393293Y-96702747D01*
X88398788Y-96696929D01*
X88415887Y-96695689D01*
X88423055Y-96698752D01*
G37*
G36*
X88103395Y-96210103D02*
G01*
X88105052Y-96211244D01*
X88116789Y-96224552D01*
X88135721Y-96249872D01*
X88159620Y-96284130D01*
X88186254Y-96324254D01*
X88189777Y-96329679D01*
X88218723Y-96373770D01*
X88246557Y-96415406D01*
X88270269Y-96450123D01*
X88286847Y-96473453D01*
X88298109Y-96489054D01*
X88309451Y-96509238D01*
X88311821Y-96526654D01*
X88307224Y-96548708D01*
X88300865Y-96565561D01*
X88284076Y-96597286D01*
X88263096Y-96628397D01*
X88261536Y-96630435D01*
X88245556Y-96651834D01*
X88220642Y-96685723D01*
X88188560Y-96729678D01*
X88151076Y-96781271D01*
X88109958Y-96838079D01*
X88066971Y-96897675D01*
X88043728Y-96929959D01*
X87995125Y-96997497D01*
X87955102Y-97053176D01*
X87921943Y-97099398D01*
X87893932Y-97138566D01*
X87869354Y-97173080D01*
X87846491Y-97205343D01*
X87823629Y-97237758D01*
X87799052Y-97272725D01*
X87797602Y-97274789D01*
X87776810Y-97303971D01*
X87759512Y-97327563D01*
X87749325Y-97340627D01*
X87742255Y-97348741D01*
X87726597Y-97367054D01*
X87713479Y-97375862D01*
X87688953Y-97379144D01*
X87677680Y-97375659D01*
X87663862Y-97365322D01*
X87646582Y-97345892D01*
X87623773Y-97315016D01*
X87593367Y-97270342D01*
X87559570Y-97219412D01*
X87525025Y-97166546D01*
X87499244Y-97125780D01*
X87481120Y-97095227D01*
X87469545Y-97073003D01*
X87463413Y-97057219D01*
X87461615Y-97045992D01*
X87462327Y-97040542D01*
X87466524Y-97029418D01*
X87475468Y-97013189D01*
X87490276Y-96990216D01*
X87512064Y-96958861D01*
X87541949Y-96917483D01*
X87581048Y-96864443D01*
X87630478Y-96798102D01*
X87641133Y-96783796D01*
X87665251Y-96751046D01*
X87684995Y-96723746D01*
X87696887Y-96706684D01*
X87697857Y-96705247D01*
X87709009Y-96689570D01*
X87729500Y-96661325D01*
X87757774Y-96622641D01*
X87792271Y-96575647D01*
X87831433Y-96522469D01*
X87873702Y-96465236D01*
X87927097Y-96393574D01*
X87972406Y-96334144D01*
X88009186Y-96287810D01*
X88038530Y-96253360D01*
X88061529Y-96229577D01*
X88079278Y-96215250D01*
X88092869Y-96209163D01*
X88103395Y-96210103D01*
G37*
G36*
X85983905Y-93069780D02*
G01*
X86002351Y-93088513D01*
X86006210Y-93094899D01*
X86019806Y-93115881D01*
X86040786Y-93147488D01*
X86067146Y-93186706D01*
X86096879Y-93230523D01*
X86120196Y-93264859D01*
X86148807Y-93309010D01*
X86167238Y-93343488D01*
X86175740Y-93371904D01*
X86174565Y-93397872D01*
X86163966Y-93425005D01*
X86144196Y-93456915D01*
X86115505Y-93497216D01*
X86115376Y-93497394D01*
X86080411Y-93545677D01*
X86039729Y-93601781D01*
X85994857Y-93663610D01*
X85947319Y-93729067D01*
X85898638Y-93796057D01*
X85850340Y-93862483D01*
X85803948Y-93926251D01*
X85760987Y-93985264D01*
X85722981Y-94037425D01*
X85691455Y-94080640D01*
X85667933Y-94112812D01*
X85653940Y-94131846D01*
X85637009Y-94152576D01*
X85617728Y-94167623D01*
X85597359Y-94171842D01*
X85593647Y-94171747D01*
X85579478Y-94168414D01*
X85565723Y-94158020D01*
X85549159Y-94137455D01*
X85526559Y-94103613D01*
X85523996Y-94099628D01*
X85497826Y-94059091D01*
X85470920Y-94017626D01*
X85448719Y-93983624D01*
X85431903Y-93957546D01*
X85417803Y-93934733D01*
X85410988Y-93922453D01*
X85403567Y-93909742D01*
X85389813Y-93890599D01*
X85382019Y-93879175D01*
X85373245Y-93853371D01*
X85377141Y-93824931D01*
X85394457Y-93790907D01*
X85425940Y-93748352D01*
X85428970Y-93744445D01*
X85442558Y-93726531D01*
X85465514Y-93696078D01*
X85496607Y-93654723D01*
X85534607Y-93604104D01*
X85578284Y-93545858D01*
X85626410Y-93481622D01*
X85677753Y-93413036D01*
X85705497Y-93376063D01*
X85755923Y-93309403D01*
X85802922Y-93247952D01*
X85845201Y-93193363D01*
X85881463Y-93147291D01*
X85910413Y-93111388D01*
X85930757Y-93087307D01*
X85941200Y-93076702D01*
X85959305Y-93068252D01*
X85983905Y-93069780D01*
G37*
G36*
X74770826Y-97417680D02*
G01*
X74769859Y-97460297D01*
X74767671Y-97491522D01*
X74763811Y-97515276D01*
X74757827Y-97535483D01*
X74749270Y-97556069D01*
X74746365Y-97562269D01*
X74709793Y-97618477D01*
X74661400Y-97663151D01*
X74604709Y-97692955D01*
X74587299Y-97698360D01*
X74526683Y-97708225D01*
X74461388Y-97708008D01*
X74398498Y-97698093D01*
X74345095Y-97678863D01*
X74330486Y-97670820D01*
X74283927Y-97635000D01*
X74249019Y-97588678D01*
X74225085Y-97530339D01*
X74211444Y-97458467D01*
X74207419Y-97371545D01*
X74207686Y-97364647D01*
X74402498Y-97364647D01*
X74406359Y-97410896D01*
X74419393Y-97453666D01*
X74442017Y-97488694D01*
X74446115Y-97492906D01*
X74470013Y-97508359D01*
X74502149Y-97512709D01*
X74529290Y-97509364D01*
X74550178Y-97496941D01*
X74564067Y-97473054D01*
X74572297Y-97435330D01*
X74576205Y-97381395D01*
X74576244Y-97380267D01*
X74576910Y-97338456D01*
X74574919Y-97309801D01*
X74569462Y-97288848D01*
X74559731Y-97270144D01*
X74534994Y-97241604D01*
X74503138Y-97227236D01*
X74467394Y-97231017D01*
X74441747Y-97247626D01*
X74420612Y-97278751D01*
X74407389Y-97319178D01*
X74402498Y-97364647D01*
X74207686Y-97364647D01*
X74210029Y-97304102D01*
X74218843Y-97242739D01*
X74233420Y-97197444D01*
X74502815Y-97197444D01*
X74507521Y-97202149D01*
X74512226Y-97197444D01*
X74507521Y-97192738D01*
X74502815Y-97197444D01*
X74233420Y-97197444D01*
X74235131Y-97192129D01*
X74260192Y-97148381D01*
X74295321Y-97107599D01*
X74305086Y-97098184D01*
X74348190Y-97065429D01*
X74395609Y-97044840D01*
X74451576Y-97035045D01*
X74520324Y-97034672D01*
X74568953Y-97039394D01*
X74629776Y-97055018D01*
X74678386Y-97082343D01*
X74717377Y-97123001D01*
X74749347Y-97178622D01*
X74757148Y-97196868D01*
X74757329Y-97197444D01*
X74763341Y-97216605D01*
X74767376Y-97239575D01*
X74769703Y-97269673D01*
X74770770Y-97310795D01*
X74770896Y-97338456D01*
X74771026Y-97366840D01*
X74770826Y-97417680D01*
G37*
G36*
X78921174Y-90896857D02*
G01*
X79023749Y-90897034D01*
X79120201Y-90897438D01*
X79208943Y-90898047D01*
X79288387Y-90898841D01*
X79356947Y-90899798D01*
X79413034Y-90900897D01*
X79455062Y-90902116D01*
X79481442Y-90903434D01*
X79490589Y-90904830D01*
X79491429Y-90905783D01*
X79505274Y-90909255D01*
X79533501Y-90912915D01*
X79572710Y-90916384D01*
X79619499Y-90919279D01*
X79628579Y-90919747D01*
X79703413Y-90924306D01*
X79790096Y-90930566D01*
X79882624Y-90938023D01*
X79974993Y-90946173D01*
X80061198Y-90954512D01*
X80135235Y-90962538D01*
X80181078Y-90967665D01*
X80230345Y-90972813D01*
X80271693Y-90976790D01*
X80302049Y-90980055D01*
X80330623Y-90984314D01*
X80346980Y-90988234D01*
X80347038Y-90988258D01*
X80363233Y-90992306D01*
X80391937Y-90997162D01*
X80426972Y-91001779D01*
X80429361Y-91002053D01*
X80544643Y-91016689D01*
X80663837Y-91034638D01*
X80793997Y-91056960D01*
X80817905Y-91061062D01*
X80858842Y-91067395D01*
X80892812Y-91071887D01*
X80903253Y-91073232D01*
X80933009Y-91078750D01*
X80953982Y-91084977D01*
X80954547Y-91085223D01*
X80977452Y-91092391D01*
X81005742Y-91098079D01*
X81012906Y-91099178D01*
X81046384Y-91105155D01*
X81081030Y-91112274D01*
X81090618Y-91114395D01*
X81124229Y-91121683D01*
X81151611Y-91127424D01*
X81153565Y-91127822D01*
X81200305Y-91137794D01*
X81252219Y-91149528D01*
X81297480Y-91160356D01*
X81308334Y-91163033D01*
X81342153Y-91171177D01*
X81377473Y-91179483D01*
X81392956Y-91183162D01*
X81424829Y-91191226D01*
X81448054Y-91197732D01*
X81460239Y-91201195D01*
X81489730Y-91208631D01*
X81523342Y-91216345D01*
X81543866Y-91220988D01*
X81576022Y-91228897D01*
X81598629Y-91235243D01*
X81605400Y-91237378D01*
X81633064Y-91245599D01*
X81664505Y-91254465D01*
X81679480Y-91258574D01*
X81695598Y-91263074D01*
X81712134Y-91267859D01*
X81732601Y-91273981D01*
X81760513Y-91282495D01*
X81799382Y-91294455D01*
X81852723Y-91310914D01*
X81885411Y-91321081D01*
X81924029Y-91333302D01*
X81953885Y-91342995D01*
X81970359Y-91348675D01*
X81979249Y-91351893D01*
X82005248Y-91360576D01*
X82036235Y-91370354D01*
X82043208Y-91372537D01*
X82077893Y-91384085D01*
X82120467Y-91398982D01*
X82163282Y-91414568D01*
X82178345Y-91420157D01*
X82216106Y-91433988D01*
X82247460Y-91445231D01*
X82266802Y-91451864D01*
X82274878Y-91454585D01*
X82304225Y-91465375D01*
X82342512Y-91480198D01*
X82383783Y-91496722D01*
X82422082Y-91512618D01*
X82436959Y-91518910D01*
X82468242Y-91532056D01*
X82502074Y-91546203D01*
X82523733Y-91555235D01*
X82559040Y-91569962D01*
X82586772Y-91581533D01*
X82617389Y-91594842D01*
X82665304Y-91616707D01*
X82722186Y-91643412D01*
X82784310Y-91673143D01*
X82847951Y-91704088D01*
X82909386Y-91734433D01*
X82964888Y-91762365D01*
X83010735Y-91786070D01*
X83043201Y-91803736D01*
X83065212Y-91816186D01*
X83100908Y-91836080D01*
X83136934Y-91855905D01*
X83165574Y-91872016D01*
X83196647Y-91890507D01*
X83218379Y-91904583D01*
X83219957Y-91905699D01*
X83238576Y-91917700D01*
X83249382Y-91922638D01*
X83254111Y-91925054D01*
X83272330Y-91936312D01*
X83301604Y-91955158D01*
X83339267Y-91979811D01*
X83382650Y-92008494D01*
X83429088Y-92039427D01*
X83475913Y-92070833D01*
X83520457Y-92100933D01*
X83560054Y-92127947D01*
X83592036Y-92150098D01*
X83613736Y-92165607D01*
X83677745Y-92213889D01*
X83769186Y-92286635D01*
X83863540Y-92366507D01*
X83872278Y-92374061D01*
X83907415Y-92403685D01*
X83937266Y-92427689D01*
X83958908Y-92443776D01*
X83969413Y-92449648D01*
X83969543Y-92449651D01*
X83976640Y-92458062D01*
X83979585Y-92477881D01*
X83976406Y-92497761D01*
X83967821Y-92505924D01*
X83961676Y-92503703D01*
X83942104Y-92492325D01*
X83913860Y-92473483D01*
X83880770Y-92449648D01*
X83859391Y-92433941D01*
X83829921Y-92413090D01*
X83808227Y-92398753D01*
X83797909Y-92393373D01*
X83797598Y-92393342D01*
X83785700Y-92387674D01*
X83763273Y-92374156D01*
X83734901Y-92355540D01*
X83733165Y-92354364D01*
X83704589Y-92335947D01*
X83681781Y-92322869D01*
X83669541Y-92317896D01*
X83666873Y-92317589D01*
X83659614Y-92309583D01*
X83657047Y-92304299D01*
X83643145Y-92295880D01*
X83634944Y-92292498D01*
X83611869Y-92280790D01*
X83584327Y-92265122D01*
X83574035Y-92259016D01*
X83513413Y-92224676D01*
X83440695Y-92185582D01*
X83360231Y-92143920D01*
X83276371Y-92101879D01*
X83193464Y-92061644D01*
X83115859Y-92025405D01*
X83047906Y-91995348D01*
X83047787Y-91995297D01*
X83014889Y-91981180D01*
X82982030Y-91966906D01*
X82981617Y-91966725D01*
X82959678Y-91957564D01*
X82925002Y-91943551D01*
X82882270Y-91926562D01*
X82836161Y-91908471D01*
X82823300Y-91903459D01*
X82770213Y-91882721D01*
X82731255Y-91867378D01*
X82703582Y-91856274D01*
X82684351Y-91848253D01*
X82670716Y-91842161D01*
X82659835Y-91836842D01*
X82649726Y-91832855D01*
X82625099Y-91828530D01*
X82614154Y-91827006D01*
X82600889Y-91819119D01*
X82594747Y-91814000D01*
X82576678Y-91809708D01*
X82565835Y-91808666D01*
X82541943Y-91801269D01*
X82531323Y-91796893D01*
X82505027Y-91787585D01*
X82468685Y-91775553D01*
X82426787Y-91762315D01*
X82397938Y-91753395D01*
X82350483Y-91738687D01*
X82307686Y-91725381D01*
X82276213Y-91715549D01*
X82252538Y-91708208D01*
X82227264Y-91700691D01*
X82198640Y-91692611D01*
X82161710Y-91682571D01*
X82111522Y-91669179D01*
X82106088Y-91667734D01*
X82075869Y-91659686D01*
X82043293Y-91650995D01*
X82038482Y-91649714D01*
X82000256Y-91639711D01*
X81963301Y-91630263D01*
X81956191Y-91628464D01*
X81922936Y-91619810D01*
X81895072Y-91612235D01*
X81876825Y-91607433D01*
X81835001Y-91597512D01*
X81780505Y-91585413D01*
X81716920Y-91571882D01*
X81647829Y-91557664D01*
X81576815Y-91543503D01*
X81507461Y-91530145D01*
X81443349Y-91518333D01*
X81402393Y-91510979D01*
X81351555Y-91501779D01*
X81308450Y-91493897D01*
X81276677Y-91487993D01*
X81259837Y-91484726D01*
X81248061Y-91482598D01*
X81218438Y-91478331D01*
X81184549Y-91474325D01*
X81163839Y-91471767D01*
X81135612Y-91466939D01*
X81118673Y-91462268D01*
X81107225Y-91459211D01*
X81080883Y-91455606D01*
X81048091Y-91453262D01*
X81022499Y-91451332D01*
X80996325Y-91447172D01*
X80982686Y-91442080D01*
X80982419Y-91441841D01*
X80968312Y-91437515D01*
X80941280Y-91434441D01*
X80906928Y-91433272D01*
X80905113Y-91433269D01*
X80870995Y-91431994D01*
X80844479Y-91428856D01*
X80831170Y-91424504D01*
X80824325Y-91421177D01*
X80809226Y-91417974D01*
X80784201Y-91414845D01*
X80747474Y-91411637D01*
X80697268Y-91408193D01*
X80631807Y-91404361D01*
X80549314Y-91399986D01*
X80523957Y-91398401D01*
X80484478Y-91394764D01*
X80453582Y-91390459D01*
X80436383Y-91386117D01*
X80430524Y-91384384D01*
X80406729Y-91380818D01*
X80369810Y-91377313D01*
X80323541Y-91374196D01*
X80271693Y-91371797D01*
X80239297Y-91370789D01*
X80173991Y-91369370D01*
X80095579Y-91368238D01*
X80006342Y-91367384D01*
X79908560Y-91366802D01*
X79804515Y-91366483D01*
X79696485Y-91366421D01*
X79586753Y-91366607D01*
X79477597Y-91367036D01*
X79371299Y-91367698D01*
X79270140Y-91368588D01*
X79176399Y-91369697D01*
X79092357Y-91371017D01*
X79020294Y-91372543D01*
X78962492Y-91374266D01*
X78921230Y-91376178D01*
X78895309Y-91377770D01*
X78829384Y-91381665D01*
X78762681Y-91385425D01*
X78701719Y-91388687D01*
X78653019Y-91391089D01*
X78613938Y-91393393D01*
X78573509Y-91396951D01*
X78542646Y-91400984D01*
X78525972Y-91404984D01*
X78520879Y-91406763D01*
X78497292Y-91411370D01*
X78462639Y-91415613D01*
X78422452Y-91418755D01*
X78385024Y-91420927D01*
X78314669Y-91425293D01*
X78260476Y-91429172D01*
X78220620Y-91432742D01*
X78193277Y-91436180D01*
X78176621Y-91439663D01*
X78168829Y-91443367D01*
X78168562Y-91443603D01*
X78154456Y-91447890D01*
X78127423Y-91450935D01*
X78093071Y-91452094D01*
X78091258Y-91452097D01*
X78057139Y-91453324D01*
X78030622Y-91456345D01*
X78017313Y-91460534D01*
X78005553Y-91465217D01*
X77980085Y-91470320D01*
X77947202Y-91474280D01*
X77916897Y-91477225D01*
X77886247Y-91480896D01*
X77867210Y-91484015D01*
X77864779Y-91484550D01*
X77843632Y-91488420D01*
X77811080Y-91493749D01*
X77773101Y-91499550D01*
X77771620Y-91499769D01*
X77722929Y-91507222D01*
X77667778Y-91516035D01*
X77617821Y-91524347D01*
X77611115Y-91525493D01*
X77565532Y-91533175D01*
X77520921Y-91540546D01*
X77486068Y-91546153D01*
X77480984Y-91546959D01*
X77428167Y-91556031D01*
X77361491Y-91568413D01*
X77284970Y-91583279D01*
X77202615Y-91599803D01*
X77118439Y-91617160D01*
X77036455Y-91634522D01*
X76960674Y-91651065D01*
X76895110Y-91665961D01*
X76843775Y-91678385D01*
X76831618Y-91681477D01*
X76785855Y-91693016D01*
X76753398Y-91700935D01*
X76730215Y-91706153D01*
X76712277Y-91709587D01*
X76695553Y-91712157D01*
X76694585Y-91712295D01*
X76666264Y-91717809D01*
X76643794Y-91724521D01*
X76637697Y-91726829D01*
X76612704Y-91734897D01*
X76582623Y-91743396D01*
X76572937Y-91745967D01*
X76539135Y-91755254D01*
X76511373Y-91763291D01*
X76486053Y-91769314D01*
X76462521Y-91772064D01*
X76449914Y-91773807D01*
X76436754Y-91781475D01*
X76436233Y-91782176D01*
X76422354Y-91788350D01*
X76399110Y-91790886D01*
X76396725Y-91790912D01*
X76374004Y-91793887D01*
X76361467Y-91800297D01*
X76357068Y-91804618D01*
X76340269Y-91809708D01*
X76336603Y-91809952D01*
X76322656Y-91812512D01*
X76299788Y-91818212D01*
X76266499Y-91827489D01*
X76221291Y-91840780D01*
X76162662Y-91858521D01*
X76089114Y-91881150D01*
X75999147Y-91909104D01*
X75951462Y-91923956D01*
X75899657Y-91940063D01*
X75854992Y-91953918D01*
X75821076Y-91964402D01*
X75801519Y-91970396D01*
X75799651Y-91970964D01*
X75771772Y-91980160D01*
X75749759Y-91988519D01*
X75733050Y-91994962D01*
X75703925Y-92005260D01*
X75669766Y-92016747D01*
X75637919Y-92027440D01*
X75608223Y-92037900D01*
X75589774Y-92044980D01*
X75573004Y-92051507D01*
X75543900Y-92061971D01*
X75509781Y-92073691D01*
X75478064Y-92085052D01*
X75452664Y-92095490D01*
X75439670Y-92102541D01*
X75433097Y-92106610D01*
X75413662Y-92110856D01*
X75403318Y-92111907D01*
X75380253Y-92119169D01*
X75361058Y-92128164D01*
X75335679Y-92139089D01*
X75311582Y-92149441D01*
X75291105Y-92159009D01*
X75281078Y-92163355D01*
X75264771Y-92167322D01*
X75260358Y-92168090D01*
X75241352Y-92174792D01*
X75215821Y-92186143D01*
X75204229Y-92191584D01*
X75181635Y-92201170D01*
X75169145Y-92204965D01*
X75161205Y-92207463D01*
X75138396Y-92216254D01*
X75104008Y-92230135D01*
X75061138Y-92247804D01*
X75012885Y-92267960D01*
X74962345Y-92289300D01*
X74912614Y-92310522D01*
X74866792Y-92330324D01*
X74827974Y-92347405D01*
X74799259Y-92360461D01*
X74781200Y-92368987D01*
X74746368Y-92385541D01*
X74701484Y-92406944D01*
X74650389Y-92431364D01*
X74596924Y-92456970D01*
X74558056Y-92475603D01*
X74501051Y-92502925D01*
X74446980Y-92528832D01*
X74400522Y-92551084D01*
X74366357Y-92567439D01*
X74354036Y-92573392D01*
X74317510Y-92591676D01*
X74286804Y-92607930D01*
X74267543Y-92619207D01*
X74256617Y-92625949D01*
X74229773Y-92641300D01*
X74194195Y-92660861D01*
X74154612Y-92682002D01*
X74131804Y-92694101D01*
X74085741Y-92718994D01*
X74042385Y-92742944D01*
X74008744Y-92762103D01*
X74005801Y-92763824D01*
X73967934Y-92785851D01*
X73923567Y-92811497D01*
X73881696Y-92835561D01*
X73872909Y-92840631D01*
X73836376Y-92862477D01*
X73804023Y-92882911D01*
X73781994Y-92898080D01*
X73776571Y-92902118D01*
X73757469Y-92915000D01*
X73746608Y-92920193D01*
X73739617Y-92923439D01*
X73719596Y-92935266D01*
X73690255Y-92953721D01*
X73655073Y-92976658D01*
X73626290Y-92995478D01*
X73595528Y-93014970D01*
X73573407Y-93028249D01*
X73563412Y-93033164D01*
X73554673Y-93037516D01*
X73535007Y-93050597D01*
X73509347Y-93069351D01*
X73501078Y-93075543D01*
X73467160Y-93100110D01*
X73426789Y-93128480D01*
X73387005Y-93155683D01*
X73372103Y-93165748D01*
X73335058Y-93191137D01*
X73302249Y-93214096D01*
X73279399Y-93230638D01*
X73277432Y-93232117D01*
X73252285Y-93251012D01*
X73219376Y-93275725D01*
X73185290Y-93301310D01*
X73178744Y-93306253D01*
X73145536Y-93331829D01*
X73103646Y-93364647D01*
X73057777Y-93401005D01*
X73012629Y-93437204D01*
X72995026Y-93451399D01*
X72955040Y-93483541D01*
X72919799Y-93511737D01*
X72892596Y-93533353D01*
X72876726Y-93545759D01*
X72870857Y-93550442D01*
X72848867Y-93569377D01*
X72819906Y-93595483D01*
X72788653Y-93624573D01*
X72775195Y-93637209D01*
X72745580Y-93664330D01*
X72720928Y-93686017D01*
X72705531Y-93698454D01*
X72692066Y-93709631D01*
X72667442Y-93732173D01*
X72634630Y-93763305D01*
X72596050Y-93800626D01*
X72554123Y-93841734D01*
X72511267Y-93884230D01*
X72469905Y-93925712D01*
X72432455Y-93963780D01*
X72401339Y-93996032D01*
X72378976Y-94020068D01*
X72367787Y-94033488D01*
X72366445Y-94035468D01*
X72350708Y-94055761D01*
X72327129Y-94083448D01*
X72300276Y-94113141D01*
X72299745Y-94113710D01*
X72269512Y-94147042D01*
X72239488Y-94181607D01*
X72216098Y-94210011D01*
X72199512Y-94231128D01*
X72175672Y-94261291D01*
X72154686Y-94287483D01*
X72130970Y-94316701D01*
X72129780Y-94318165D01*
X72098132Y-94358559D01*
X72063211Y-94405315D01*
X72031748Y-94449427D01*
X72013962Y-94475180D01*
X71973559Y-94533785D01*
X71942394Y-94579205D01*
X71919366Y-94613084D01*
X71903372Y-94637066D01*
X71893313Y-94652795D01*
X71888085Y-94661915D01*
X71886587Y-94666071D01*
X71886569Y-94666382D01*
X71881118Y-94678363D01*
X71868877Y-94697399D01*
X71850783Y-94725069D01*
X71822423Y-94773659D01*
X71790063Y-94833486D01*
X71755444Y-94901053D01*
X71720306Y-94972864D01*
X71686389Y-95045424D01*
X71655435Y-95115237D01*
X71629183Y-95178807D01*
X71628480Y-95180599D01*
X71604228Y-95245939D01*
X71579823Y-95317804D01*
X71557135Y-95390228D01*
X71538035Y-95457247D01*
X71524395Y-95512894D01*
X71522410Y-95521988D01*
X71513733Y-95558507D01*
X71505686Y-95587909D01*
X71499790Y-95604523D01*
X71498563Y-95607286D01*
X71493417Y-95629636D01*
X71491330Y-95658080D01*
X71491184Y-95665517D01*
X71488639Y-95688393D01*
X71483928Y-95699870D01*
X71480246Y-95708621D01*
X71476535Y-95731514D01*
X71474222Y-95762765D01*
X71472351Y-95790070D01*
X71468405Y-95819244D01*
X71463605Y-95836620D01*
X71461539Y-95847153D01*
X71459505Y-95874072D01*
X71457899Y-95913703D01*
X71456724Y-95962895D01*
X71455984Y-96018493D01*
X71455681Y-96077345D01*
X71455817Y-96136298D01*
X71456396Y-96192200D01*
X71457420Y-96241897D01*
X71458891Y-96282236D01*
X71460813Y-96310065D01*
X71463188Y-96322231D01*
X71467409Y-96334187D01*
X71472183Y-96359840D01*
X71476060Y-96392813D01*
X71476514Y-96397687D01*
X71485666Y-96462512D01*
X71501096Y-96539486D01*
X71521528Y-96623969D01*
X71545685Y-96711319D01*
X71572290Y-96796896D01*
X71600067Y-96876059D01*
X71627739Y-96944167D01*
X71638205Y-96967186D01*
X71661519Y-97016369D01*
X71687506Y-97069176D01*
X71713549Y-97120418D01*
X71737036Y-97164904D01*
X71755350Y-97197444D01*
X71767367Y-97217872D01*
X71781602Y-97243074D01*
X71789628Y-97258615D01*
X71792630Y-97264577D01*
X71806423Y-97287582D01*
X71827709Y-97320404D01*
X71853944Y-97359303D01*
X71882583Y-97400539D01*
X71911083Y-97440374D01*
X71936897Y-97475065D01*
X72008565Y-97564470D01*
X72138832Y-97710008D01*
X72283534Y-97853292D01*
X72439998Y-97991877D01*
X72605553Y-98123314D01*
X72777529Y-98245157D01*
X72804970Y-98263317D01*
X72842545Y-98287762D01*
X72874228Y-98307901D01*
X72895165Y-98320621D01*
X72897834Y-98322155D01*
X72923014Y-98336982D01*
X72956698Y-98357198D01*
X72992367Y-98378895D01*
X73005862Y-98387027D01*
X73049308Y-98412151D01*
X73098199Y-98439309D01*
X73144299Y-98463893D01*
X73168400Y-98476493D01*
X73205184Y-98496107D01*
X73234828Y-98512378D01*
X73252524Y-98522692D01*
X73252740Y-98522829D01*
X73268438Y-98531260D01*
X73297971Y-98545883D01*
X73338118Y-98565185D01*
X73385655Y-98587653D01*
X73437360Y-98611773D01*
X73490010Y-98636032D01*
X73540382Y-98658918D01*
X73585253Y-98678917D01*
X73589854Y-98680906D01*
X73616445Y-98691941D01*
X73654946Y-98707502D01*
X73700924Y-98725807D01*
X73749944Y-98745075D01*
X73766670Y-98751609D01*
X73812230Y-98769442D01*
X73851422Y-98784832D01*
X73880524Y-98796316D01*
X73895813Y-98802428D01*
X73912534Y-98808672D01*
X73941654Y-98818810D01*
X73975805Y-98830234D01*
X73981012Y-98831946D01*
X74031562Y-98849301D01*
X74069601Y-98864106D01*
X74100372Y-98878386D01*
X74110478Y-98882493D01*
X74132193Y-98886699D01*
X74137025Y-98887260D01*
X74158678Y-98892344D01*
X74190934Y-98901588D01*
X74228783Y-98913595D01*
X74241005Y-98917624D01*
X74283835Y-98931434D01*
X74323329Y-98943754D01*
X74352241Y-98952311D01*
X74363634Y-98955570D01*
X74392855Y-98964564D01*
X74413412Y-98971761D01*
X74429204Y-98977201D01*
X74455761Y-98984031D01*
X74458966Y-98984699D01*
X74482317Y-98990221D01*
X74516243Y-98998816D01*
X74554575Y-99008929D01*
X74645170Y-99032465D01*
X74759603Y-99060394D01*
X74879225Y-99087918D01*
X74996887Y-99113348D01*
X75017852Y-99117582D01*
X75061254Y-99125910D01*
X75113645Y-99135607D01*
X75171097Y-99145981D01*
X75229684Y-99156341D01*
X75285480Y-99165994D01*
X75334558Y-99174250D01*
X75372990Y-99180416D01*
X75396850Y-99183801D01*
X75408014Y-99185210D01*
X75435619Y-99189697D01*
X75453316Y-99194006D01*
X75462543Y-99196333D01*
X75487628Y-99200230D01*
X75519192Y-99203515D01*
X75539854Y-99205546D01*
X75568111Y-99209561D01*
X75585068Y-99213609D01*
X75588321Y-99214645D01*
X75608765Y-99218590D01*
X75640840Y-99223093D01*
X75679177Y-99227367D01*
X75683921Y-99227836D01*
X75735144Y-99233077D01*
X75792295Y-99239172D01*
X75843868Y-99244897D01*
X75856810Y-99246312D01*
X75910417Y-99251337D01*
X75969229Y-99255875D01*
X76022675Y-99259086D01*
X76048025Y-99260589D01*
X76087507Y-99264104D01*
X76118406Y-99268320D01*
X76135605Y-99272622D01*
X76138343Y-99273609D01*
X76158859Y-99277339D01*
X76193029Y-99281071D01*
X76236814Y-99284420D01*
X76286180Y-99287000D01*
X76293064Y-99287267D01*
X76344340Y-99288737D01*
X76410476Y-99289956D01*
X76489367Y-99290930D01*
X76578908Y-99291666D01*
X76676994Y-99292170D01*
X76781519Y-99292448D01*
X76890380Y-99292508D01*
X77001470Y-99292356D01*
X77112685Y-99291998D01*
X77221919Y-99291440D01*
X77327068Y-99290689D01*
X77426026Y-99289752D01*
X77516689Y-99288634D01*
X77596950Y-99287343D01*
X77664706Y-99285885D01*
X77717850Y-99284266D01*
X77754279Y-99282493D01*
X77770123Y-99281434D01*
X77834516Y-99277311D01*
X77901141Y-99273282D01*
X77962996Y-99269763D01*
X78013078Y-99267167D01*
X78052848Y-99264698D01*
X78090572Y-99261110D01*
X78117748Y-99257100D01*
X78130244Y-99253161D01*
X78133366Y-99251507D01*
X78152372Y-99247827D01*
X78183364Y-99245271D01*
X78221445Y-99244313D01*
X78237422Y-99244136D01*
X78272487Y-99242376D01*
X78298077Y-99239132D01*
X78309522Y-99234902D01*
X78310215Y-99234147D01*
X78324268Y-99229758D01*
X78351228Y-99226663D01*
X78385983Y-99225491D01*
X78389874Y-99225479D01*
X78426097Y-99224180D01*
X78455657Y-99221166D01*
X78472478Y-99217031D01*
X78486936Y-99212490D01*
X78515193Y-99207340D01*
X78549499Y-99203367D01*
X78579233Y-99200556D01*
X78616223Y-99196377D01*
X78643608Y-99192517D01*
X78644803Y-99192314D01*
X78667975Y-99188553D01*
X78704570Y-99182801D01*
X78749802Y-99175804D01*
X78798888Y-99168307D01*
X78799236Y-99168254D01*
X78850784Y-99160262D01*
X78900811Y-99152211D01*
X78943617Y-99145034D01*
X78973503Y-99139668D01*
X78986761Y-99137280D01*
X79031210Y-99132707D01*
X79060668Y-99136126D01*
X79074071Y-99147453D01*
X79072616Y-99153848D01*
X79058483Y-99165328D01*
X79034502Y-99176330D01*
X79006030Y-99184591D01*
X78978428Y-99187848D01*
X78978341Y-99187848D01*
X78954643Y-99190337D01*
X78939581Y-99196295D01*
X78937211Y-99197983D01*
X78919156Y-99204599D01*
X78892997Y-99209802D01*
X78881569Y-99211490D01*
X78845020Y-99217951D01*
X78808299Y-99225566D01*
X78795541Y-99228326D01*
X78755235Y-99235844D01*
X78718895Y-99241204D01*
X78707123Y-99242853D01*
X78681829Y-99248445D01*
X78667606Y-99254636D01*
X78662798Y-99257209D01*
X78642351Y-99261457D01*
X78614049Y-99263135D01*
X78599812Y-99263608D01*
X78575726Y-99266987D01*
X78563616Y-99272546D01*
X78560636Y-99275017D01*
X78542981Y-99279982D01*
X78516561Y-99281957D01*
X78505526Y-99282288D01*
X78481713Y-99285617D01*
X78469507Y-99291368D01*
X78463795Y-99294865D01*
X78443285Y-99299118D01*
X78414368Y-99300778D01*
X78395828Y-99301366D01*
X78370016Y-99304460D01*
X78356106Y-99309322D01*
X78350342Y-99312488D01*
X78329106Y-99318359D01*
X78300111Y-99322854D01*
X78279620Y-99325261D01*
X78237417Y-99331018D01*
X78196591Y-99337375D01*
X78184866Y-99339352D01*
X78116913Y-99350651D01*
X78059252Y-99359850D01*
X78004744Y-99368026D01*
X77946247Y-99376256D01*
X77876621Y-99385616D01*
X77862087Y-99387534D01*
X77702872Y-99407489D01*
X77541446Y-99425897D01*
X77381949Y-99442352D01*
X77228517Y-99456447D01*
X77085289Y-99467777D01*
X76956401Y-99475935D01*
X76949881Y-99476295D01*
X76904993Y-99479419D01*
X76867765Y-99483095D01*
X76841912Y-99486894D01*
X76831151Y-99490388D01*
X76828631Y-99491080D01*
X76810391Y-99492434D01*
X76776125Y-99493648D01*
X76727668Y-99494722D01*
X76666854Y-99495655D01*
X76595516Y-99496447D01*
X76515489Y-99497097D01*
X76428606Y-99497604D01*
X76336702Y-99497967D01*
X76241611Y-99498187D01*
X76145166Y-99498261D01*
X76049203Y-99498191D01*
X75955554Y-99497973D01*
X75866054Y-99497609D01*
X75782537Y-99497098D01*
X75706836Y-99496437D01*
X75640787Y-99495628D01*
X75586223Y-99494670D01*
X75544978Y-99493560D01*
X75518886Y-99492300D01*
X75509781Y-99490888D01*
X75509685Y-99490636D01*
X75499019Y-99487667D01*
X75472714Y-99484023D01*
X75433635Y-99480002D01*
X75384649Y-99475903D01*
X75328621Y-99472024D01*
X75302035Y-99470286D01*
X75215588Y-99463807D01*
X75121456Y-99455687D01*
X75022043Y-99446212D01*
X74919753Y-99435669D01*
X74816991Y-99424346D01*
X74716160Y-99412531D01*
X74619664Y-99400511D01*
X74529908Y-99388574D01*
X74449297Y-99377007D01*
X74380233Y-99366097D01*
X74325121Y-99356132D01*
X74286365Y-99347399D01*
X74254383Y-99341132D01*
X74223397Y-99338475D01*
X74222595Y-99338470D01*
X74200165Y-99335589D01*
X74187550Y-99329011D01*
X74184571Y-99326540D01*
X74166916Y-99321575D01*
X74140496Y-99319600D01*
X74129461Y-99319269D01*
X74105648Y-99315940D01*
X74093442Y-99310189D01*
X74090861Y-99307922D01*
X74073705Y-99302816D01*
X74047714Y-99300778D01*
X74038341Y-99300552D01*
X74013237Y-99297586D01*
X73998862Y-99292280D01*
X73994868Y-99289800D01*
X73975179Y-99283611D01*
X73947573Y-99278847D01*
X73922731Y-99275494D01*
X73884839Y-99268761D01*
X73838211Y-99258684D01*
X73778177Y-99244313D01*
X73770206Y-99242365D01*
X73732520Y-99233446D01*
X73698184Y-99225687D01*
X73695275Y-99225047D01*
X73658676Y-99216278D01*
X73622897Y-99206754D01*
X73590052Y-99197618D01*
X73527932Y-99181925D01*
X73479294Y-99172012D01*
X73477727Y-99171743D01*
X73455512Y-99165748D01*
X73443447Y-99158575D01*
X73439148Y-99154629D01*
X73422626Y-99150204D01*
X73422522Y-99150203D01*
X73407377Y-99147314D01*
X73377367Y-99139449D01*
X73335448Y-99127529D01*
X73284578Y-99112479D01*
X73227712Y-99095222D01*
X73167808Y-99076682D01*
X73107822Y-99057780D01*
X73050711Y-99039442D01*
X72999431Y-99022589D01*
X72956940Y-99008145D01*
X72926194Y-98997034D01*
X72910149Y-98990178D01*
X72899688Y-98985254D01*
X72881332Y-98980808D01*
X72876396Y-98980080D01*
X72856082Y-98973395D01*
X72829899Y-98961986D01*
X72818849Y-98956900D01*
X72793530Y-98947069D01*
X72776927Y-98943165D01*
X72770678Y-98942335D01*
X72757095Y-98933754D01*
X72749363Y-98928109D01*
X72730189Y-98924343D01*
X72716119Y-98922815D01*
X72700159Y-98916347D01*
X72695386Y-98913116D01*
X72675759Y-98903294D01*
X72648869Y-98892047D01*
X72638362Y-98887960D01*
X72604361Y-98874323D01*
X72575935Y-98862399D01*
X72546544Y-98849671D01*
X72514764Y-98836056D01*
X72507822Y-98833097D01*
X72427849Y-98798041D01*
X72343818Y-98759609D01*
X72258399Y-98719147D01*
X72174263Y-98678003D01*
X72094082Y-98637522D01*
X72020525Y-98599051D01*
X71956264Y-98563937D01*
X71903970Y-98533525D01*
X71866313Y-98509162D01*
X71865166Y-98508353D01*
X71846361Y-98496382D01*
X71835070Y-98491442D01*
X71829634Y-98489332D01*
X71811948Y-98479090D01*
X71787773Y-98463209D01*
X71771848Y-98452748D01*
X71749621Y-98439966D01*
X71736670Y-98434976D01*
X71733849Y-98434598D01*
X71726602Y-98425565D01*
X71726269Y-98423126D01*
X71716877Y-98416155D01*
X71715021Y-98415686D01*
X71699499Y-98407477D01*
X71671299Y-98390067D01*
X71632461Y-98364799D01*
X71585024Y-98333016D01*
X71531026Y-98296059D01*
X71472508Y-98255273D01*
X71450158Y-98239093D01*
X71401040Y-98201539D01*
X71343592Y-98155695D01*
X71281328Y-98104471D01*
X71217762Y-98050774D01*
X71156407Y-97997513D01*
X71100778Y-97947596D01*
X71038105Y-97888364D01*
X70922314Y-97769543D01*
X70811085Y-97643519D01*
X70707538Y-97514088D01*
X70614795Y-97385049D01*
X70535974Y-97260199D01*
X70530953Y-97251375D01*
X70513973Y-97220034D01*
X70492257Y-97178575D01*
X70467731Y-97130825D01*
X70442324Y-97080607D01*
X70417962Y-97031749D01*
X70396572Y-96988076D01*
X70380083Y-96953413D01*
X70370421Y-96931586D01*
X70364162Y-96916063D01*
X70353034Y-96889237D01*
X70349185Y-96879163D01*
X70339808Y-96852236D01*
X70327591Y-96815527D01*
X70314189Y-96773954D01*
X70305152Y-96745729D01*
X70292628Y-96707484D01*
X70282528Y-96677658D01*
X70276448Y-96661023D01*
X70274505Y-96656059D01*
X70264803Y-96624689D01*
X70253501Y-96580206D01*
X70241492Y-96527078D01*
X70229666Y-96469773D01*
X70218916Y-96412760D01*
X70210134Y-96360507D01*
X70204210Y-96317482D01*
X70202037Y-96288155D01*
X70199339Y-96269211D01*
X70192626Y-96261060D01*
X70192530Y-96261047D01*
X70190131Y-96251467D01*
X70188061Y-96226050D01*
X70186333Y-96187668D01*
X70184958Y-96139197D01*
X70183948Y-96083509D01*
X70183315Y-96023478D01*
X70183070Y-95961979D01*
X70183225Y-95901885D01*
X70183793Y-95846070D01*
X70184785Y-95797407D01*
X70186212Y-95758770D01*
X70188087Y-95733033D01*
X70190421Y-95723071D01*
X70190762Y-95722811D01*
X70194968Y-95710951D01*
X70200786Y-95684481D01*
X70207494Y-95647048D01*
X70214368Y-95602298D01*
X70221528Y-95554168D01*
X70228718Y-95509626D01*
X70235074Y-95473825D01*
X70239759Y-95451723D01*
X70242656Y-95440660D01*
X70256913Y-95385199D01*
X70269242Y-95335613D01*
X70278640Y-95295997D01*
X70284106Y-95270448D01*
X70289547Y-95251532D01*
X70297231Y-95239308D01*
X70302431Y-95231152D01*
X70305557Y-95211746D01*
X70307617Y-95196518D01*
X70314968Y-95183513D01*
X70320827Y-95174987D01*
X70324379Y-95155280D01*
X70326438Y-95140053D01*
X70333790Y-95127047D01*
X70339648Y-95118521D01*
X70343201Y-95098815D01*
X70345260Y-95083587D01*
X70352612Y-95070582D01*
X70356328Y-95067169D01*
X70362023Y-95051102D01*
X70363257Y-95043573D01*
X70370399Y-95021045D01*
X70381782Y-94992840D01*
X70388601Y-94977312D01*
X70400772Y-94948937D01*
X70408769Y-94929419D01*
X70409084Y-94928618D01*
X70417155Y-94910628D01*
X70432048Y-94879373D01*
X70452153Y-94838078D01*
X70475860Y-94789970D01*
X70501561Y-94738274D01*
X70527645Y-94686215D01*
X70552503Y-94637020D01*
X70574527Y-94593913D01*
X70592106Y-94560120D01*
X70603631Y-94538867D01*
X70610039Y-94527893D01*
X70632780Y-94490941D01*
X70654934Y-94457178D01*
X70664533Y-94442827D01*
X70677081Y-94422393D01*
X70681993Y-94411782D01*
X70682083Y-94411338D01*
X70688399Y-94399957D01*
X70703217Y-94376691D01*
X70724502Y-94344664D01*
X70750222Y-94306999D01*
X70752040Y-94304366D01*
X70778809Y-94265330D01*
X70802205Y-94230718D01*
X70819766Y-94204203D01*
X70829029Y-94189457D01*
X70830039Y-94187729D01*
X70844786Y-94167299D01*
X70864320Y-94144847D01*
X70868167Y-94140708D01*
X70883018Y-94121817D01*
X70889033Y-94108956D01*
X70891981Y-94100652D01*
X70904718Y-94085943D01*
X70909802Y-94081240D01*
X70927310Y-94061706D01*
X70946546Y-94037044D01*
X70976271Y-93998138D01*
X71019763Y-93944862D01*
X71071692Y-93883948D01*
X71129453Y-93818348D01*
X71190444Y-93751015D01*
X71252062Y-93684900D01*
X71311703Y-93622955D01*
X71330077Y-93604390D01*
X71370881Y-93563964D01*
X71416238Y-93519867D01*
X71464144Y-93473968D01*
X71512594Y-93428132D01*
X71559585Y-93384226D01*
X71603111Y-93344117D01*
X71641168Y-93309672D01*
X71671754Y-93282757D01*
X71692862Y-93265239D01*
X71702489Y-93258985D01*
X71702774Y-93258966D01*
X71713626Y-93252460D01*
X71730408Y-93237811D01*
X71733878Y-93234474D01*
X71759049Y-93211643D01*
X71795620Y-93180300D01*
X71845336Y-93138942D01*
X71848514Y-93136348D01*
X71871132Y-93118508D01*
X71896714Y-93099000D01*
X71902880Y-93094327D01*
X71932628Y-93070789D01*
X71961492Y-93046763D01*
X71963049Y-93045434D01*
X71984824Y-93028030D01*
X72017674Y-93003083D01*
X72059412Y-92972147D01*
X72107848Y-92936777D01*
X72160794Y-92898529D01*
X72216061Y-92858958D01*
X72271461Y-92819618D01*
X72324804Y-92782064D01*
X72373902Y-92747851D01*
X72416566Y-92718534D01*
X72450607Y-92695668D01*
X72473837Y-92680809D01*
X72484068Y-92675510D01*
X72484367Y-92675456D01*
X72495213Y-92669547D01*
X72518153Y-92655269D01*
X72550034Y-92634629D01*
X72587699Y-92609634D01*
X72591781Y-92606897D01*
X72628888Y-92582276D01*
X72659780Y-92562211D01*
X72681335Y-92548704D01*
X72690433Y-92543757D01*
X72695515Y-92541522D01*
X72712700Y-92531273D01*
X72736813Y-92515525D01*
X72753416Y-92504698D01*
X72774628Y-92492172D01*
X72785951Y-92487292D01*
X72792780Y-92485002D01*
X72808114Y-92474529D01*
X72808606Y-92474116D01*
X72824843Y-92463057D01*
X72851883Y-92446877D01*
X72884142Y-92428927D01*
X72918292Y-92410392D01*
X72954806Y-92390207D01*
X72982956Y-92374264D01*
X73011659Y-92357729D01*
X73064241Y-92328063D01*
X73118280Y-92298502D01*
X73176882Y-92267408D01*
X73243156Y-92233141D01*
X73320210Y-92194064D01*
X73411152Y-92148538D01*
X73431740Y-92138284D01*
X73508240Y-92100328D01*
X73572717Y-92068666D01*
X73628999Y-92041486D01*
X73680916Y-92016974D01*
X73732296Y-91993316D01*
X73786967Y-91968702D01*
X73848758Y-91941316D01*
X73875642Y-91929322D01*
X73912497Y-91912684D01*
X73950348Y-91895446D01*
X73955132Y-91893265D01*
X73986277Y-91879534D01*
X74010011Y-91869843D01*
X74021521Y-91866173D01*
X74028766Y-91864113D01*
X74049246Y-91855711D01*
X74076693Y-91843044D01*
X74096056Y-91834102D01*
X74126725Y-91821361D01*
X74149125Y-91813769D01*
X74166555Y-91807629D01*
X74178784Y-91799254D01*
X74181992Y-91795913D01*
X74197619Y-91790886D01*
X74202501Y-91790205D01*
X74223777Y-91783673D01*
X74253773Y-91772093D01*
X74286714Y-91757784D01*
X74316823Y-91743062D01*
X74327027Y-91738886D01*
X74351558Y-91734421D01*
X74362448Y-91733088D01*
X74374971Y-91726301D01*
X74378580Y-91723231D01*
X74396429Y-91714895D01*
X74422823Y-91706188D01*
X74436197Y-91702119D01*
X74459292Y-91693245D01*
X74470675Y-91686075D01*
X74477985Y-91681183D01*
X74496783Y-91677955D01*
X74510856Y-91676366D01*
X74526813Y-91669640D01*
X74539484Y-91662736D01*
X74564727Y-91652334D01*
X74596924Y-91640790D01*
X74628840Y-91629800D01*
X74658493Y-91619050D01*
X74676917Y-91611733D01*
X74679315Y-91610688D01*
X74701403Y-91602265D01*
X74735991Y-91590151D01*
X74779710Y-91575423D01*
X74829187Y-91559160D01*
X74881053Y-91542441D01*
X74931937Y-91526343D01*
X74978468Y-91511946D01*
X75017276Y-91500327D01*
X75044990Y-91492564D01*
X75058239Y-91489737D01*
X75068260Y-91488342D01*
X75081585Y-91480326D01*
X75087727Y-91475208D01*
X75105796Y-91470916D01*
X75116634Y-91469897D01*
X75140531Y-91462660D01*
X75152500Y-91457209D01*
X75185056Y-91445620D01*
X75218578Y-91436786D01*
X75244036Y-91433272D01*
X75256644Y-91431529D01*
X75269803Y-91423861D01*
X75278329Y-91418003D01*
X75298036Y-91414450D01*
X75313263Y-91412391D01*
X75326269Y-91405039D01*
X75337681Y-91398587D01*
X75359207Y-91395628D01*
X75379396Y-91393052D01*
X75392145Y-91386218D01*
X75403985Y-91379695D01*
X75425766Y-91376807D01*
X75448452Y-91374698D01*
X75469912Y-91368551D01*
X75481881Y-91363100D01*
X75514438Y-91351511D01*
X75547959Y-91342677D01*
X75573417Y-91339163D01*
X75586025Y-91337420D01*
X75599184Y-91329752D01*
X75599705Y-91329052D01*
X75613584Y-91322877D01*
X75636828Y-91320341D01*
X75639315Y-91320316D01*
X75661769Y-91317662D01*
X75673829Y-91311970D01*
X75674131Y-91311538D01*
X75687102Y-91304344D01*
X75709675Y-91298534D01*
X75715117Y-91297590D01*
X75746918Y-91291165D01*
X75780344Y-91283378D01*
X75791752Y-91280510D01*
X75814392Y-91274909D01*
X75839001Y-91268977D01*
X75868857Y-91261949D01*
X75907237Y-91253055D01*
X75957417Y-91241529D01*
X76022675Y-91226602D01*
X76038008Y-91223102D01*
X76145631Y-91198805D01*
X76239581Y-91178085D01*
X76318940Y-91161133D01*
X76382789Y-91148143D01*
X76430209Y-91139307D01*
X76460281Y-91134818D01*
X76472034Y-91133284D01*
X76497340Y-91127908D01*
X76511570Y-91121800D01*
X76516379Y-91119227D01*
X76536825Y-91114980D01*
X76565128Y-91113302D01*
X76579365Y-91112828D01*
X76603451Y-91109450D01*
X76615561Y-91103891D01*
X76621273Y-91100394D01*
X76641783Y-91096140D01*
X76670699Y-91094480D01*
X76689240Y-91093890D01*
X76715051Y-91090781D01*
X76728962Y-91085897D01*
X76736619Y-91082130D01*
X76759326Y-91076533D01*
X76789662Y-91072252D01*
X76815355Y-91069388D01*
X76860005Y-91063486D01*
X76902593Y-91056978D01*
X76956677Y-91048316D01*
X77058681Y-91033575D01*
X77156687Y-91021273D01*
X77187107Y-91017140D01*
X77213959Y-91012114D01*
X77228143Y-91007690D01*
X77242223Y-91004151D01*
X77269273Y-91001215D01*
X77303430Y-90999519D01*
X77337656Y-90997732D01*
X77366637Y-90994428D01*
X77383149Y-90990357D01*
X77385053Y-90989556D01*
X77404189Y-90985419D01*
X77435263Y-90981553D01*
X77472552Y-90978705D01*
X77480415Y-90978254D01*
X77516761Y-90975541D01*
X77545629Y-90972413D01*
X77561356Y-90969458D01*
X77575176Y-90966387D01*
X77602716Y-90962441D01*
X77636643Y-90958863D01*
X77703988Y-90952989D01*
X77843945Y-90941349D01*
X77968278Y-90931843D01*
X78075970Y-90924549D01*
X78166005Y-90919540D01*
X78189294Y-90918320D01*
X78234918Y-90915199D01*
X78271565Y-90911691D01*
X78295957Y-90908143D01*
X78304816Y-90904900D01*
X78305278Y-90904581D01*
X78318392Y-90903189D01*
X78348388Y-90901879D01*
X78393678Y-90900675D01*
X78452675Y-90899596D01*
X78523791Y-90898665D01*
X78605439Y-90897904D01*
X78696032Y-90897333D01*
X78793982Y-90896975D01*
X78897702Y-90896851D01*
X78921174Y-90896857D01*
G37*
G36*
X81824129Y-94181253D02*
G01*
X81833183Y-94198819D01*
X81864750Y-94259552D01*
X81893405Y-94313905D01*
X81918023Y-94359800D01*
X81937480Y-94395156D01*
X81950651Y-94417894D01*
X81956413Y-94425936D01*
X81961781Y-94419424D01*
X81973532Y-94398942D01*
X81989603Y-94367820D01*
X82008159Y-94329474D01*
X82046425Y-94248211D01*
X82083584Y-94169723D01*
X82114168Y-94105729D01*
X82138871Y-94054841D01*
X82158386Y-94015668D01*
X82173408Y-93986821D01*
X82184631Y-93966909D01*
X82192748Y-93954543D01*
X82198454Y-93948333D01*
X82203603Y-93946183D01*
X82218133Y-93943667D01*
X82242507Y-93941591D01*
X82278008Y-93939923D01*
X82325919Y-93938630D01*
X82387521Y-93937680D01*
X82464097Y-93937042D01*
X82556930Y-93936682D01*
X82667300Y-93936570D01*
X83120666Y-93936570D01*
X83114155Y-93972176D01*
X83112866Y-93977694D01*
X83102532Y-94005633D01*
X83085556Y-94041193D01*
X83064885Y-94078049D01*
X83050903Y-94101003D01*
X83025882Y-94142028D01*
X82995660Y-94191544D01*
X82962855Y-94245261D01*
X82930085Y-94298889D01*
X82904762Y-94340365D01*
X82872320Y-94393635D01*
X82842142Y-94443325D01*
X82816750Y-94485278D01*
X82798668Y-94515339D01*
X82796172Y-94519506D01*
X82779189Y-94547701D01*
X82754410Y-94588663D01*
X82723483Y-94639678D01*
X82688054Y-94698031D01*
X82649769Y-94761010D01*
X82610276Y-94825899D01*
X82598786Y-94844772D01*
X82560805Y-94907273D01*
X82525400Y-94965695D01*
X82494018Y-95017641D01*
X82468105Y-95060714D01*
X82449108Y-95092517D01*
X82438472Y-95110652D01*
X82415685Y-95150723D01*
X82822998Y-95792942D01*
X82849031Y-95834032D01*
X82911319Y-95932696D01*
X82970377Y-96026729D01*
X83025437Y-96114885D01*
X83075733Y-96195916D01*
X83120498Y-96268573D01*
X83158965Y-96331608D01*
X83190366Y-96383774D01*
X83213936Y-96423823D01*
X83228906Y-96450505D01*
X83234511Y-96462575D01*
X83234331Y-96483946D01*
X83221502Y-96502571D01*
X83216684Y-96504226D01*
X83194289Y-96507116D01*
X83156537Y-96509617D01*
X83105709Y-96511727D01*
X83044081Y-96513445D01*
X82973932Y-96514769D01*
X82897541Y-96515699D01*
X82817185Y-96516233D01*
X82735143Y-96516370D01*
X82653693Y-96516109D01*
X82575113Y-96515450D01*
X82501681Y-96514390D01*
X82435676Y-96512928D01*
X82379375Y-96511064D01*
X82335057Y-96508796D01*
X82305000Y-96506123D01*
X82291482Y-96503044D01*
X82284436Y-96493583D01*
X82269611Y-96468953D01*
X82248387Y-96431318D01*
X82221845Y-96382662D01*
X82191065Y-96324969D01*
X82157129Y-96260224D01*
X82121118Y-96190409D01*
X82087349Y-96124745D01*
X82054045Y-96060644D01*
X82024183Y-96003846D01*
X81998777Y-95956249D01*
X81978840Y-95919749D01*
X81965385Y-95896243D01*
X81959426Y-95887630D01*
X81954632Y-95893606D01*
X81942356Y-95914675D01*
X81923746Y-95949108D01*
X81899789Y-95995009D01*
X81871474Y-96050483D01*
X81839789Y-96113636D01*
X81805720Y-96182570D01*
X81788994Y-96216515D01*
X81751315Y-96291848D01*
X81717505Y-96357829D01*
X81688387Y-96412919D01*
X81664783Y-96455580D01*
X81647516Y-96484273D01*
X81637407Y-96497459D01*
X81635922Y-96498594D01*
X81629570Y-96502510D01*
X81620959Y-96505756D01*
X81608434Y-96508396D01*
X81590338Y-96510490D01*
X81565014Y-96512103D01*
X81530807Y-96513295D01*
X81486060Y-96514131D01*
X81429117Y-96514673D01*
X81358321Y-96514982D01*
X81272016Y-96515122D01*
X81168545Y-96515154D01*
X81057452Y-96514966D01*
X80955536Y-96514361D01*
X80870233Y-96513349D01*
X80801984Y-96511939D01*
X80751231Y-96510140D01*
X80718415Y-96507961D01*
X80703975Y-96505412D01*
X80693306Y-96496534D01*
X80685772Y-96479086D01*
X80686906Y-96474152D01*
X80696028Y-96453609D01*
X80712842Y-96421774D01*
X80735602Y-96381685D01*
X80762560Y-96336375D01*
X80791970Y-96288881D01*
X80822083Y-96242238D01*
X80823740Y-96239689D01*
X80835449Y-96221226D01*
X80855699Y-96188978D01*
X80883428Y-96144656D01*
X80917571Y-96089970D01*
X80957064Y-96026631D01*
X81000842Y-95956350D01*
X81047841Y-95880838D01*
X81096998Y-95801805D01*
X81147248Y-95720963D01*
X81197527Y-95640021D01*
X81246771Y-95560692D01*
X81293915Y-95484685D01*
X81337896Y-95413712D01*
X81377649Y-95349483D01*
X81412110Y-95293709D01*
X81433013Y-95259717D01*
X81457741Y-95219147D01*
X81477417Y-95186443D01*
X81490415Y-95164314D01*
X81495109Y-95155467D01*
X81491325Y-95148778D01*
X81478414Y-95127229D01*
X81457089Y-95092055D01*
X81428126Y-95044527D01*
X81392303Y-94985915D01*
X81350397Y-94917490D01*
X81303186Y-94840522D01*
X81251447Y-94756281D01*
X81195957Y-94666038D01*
X81137495Y-94571064D01*
X81086558Y-94488184D01*
X81030532Y-94396602D01*
X80978170Y-94310562D01*
X80930253Y-94231371D01*
X80887564Y-94160336D01*
X80850883Y-94098763D01*
X80820992Y-94047960D01*
X80798674Y-94009233D01*
X80784709Y-93983889D01*
X80779881Y-93973235D01*
X80783348Y-93961323D01*
X80798084Y-93946312D01*
X80810401Y-93943975D01*
X80841522Y-93941753D01*
X80890593Y-93939912D01*
X80957158Y-93938464D01*
X81040762Y-93937418D01*
X81140950Y-93936783D01*
X81257266Y-93936570D01*
X81698245Y-93936570D01*
X81824129Y-94181253D01*
G37*
G36*
X78069544Y-97691516D02*
G01*
X78069544Y-97667908D01*
X78113541Y-97667908D01*
X78124537Y-97669287D01*
X78149536Y-97669778D01*
X78149952Y-97669777D01*
X78173916Y-97669198D01*
X78181759Y-97667989D01*
X78210707Y-97667989D01*
X78215413Y-97672694D01*
X78220118Y-97667989D01*
X78215413Y-97663283D01*
X78210707Y-97667989D01*
X78181759Y-97667989D01*
X78183005Y-97667797D01*
X78175248Y-97665874D01*
X78147397Y-97664332D01*
X78118782Y-97665970D01*
X78113541Y-97667908D01*
X78069544Y-97667908D01*
X78069544Y-97240585D01*
X77996609Y-97237836D01*
X77923675Y-97235087D01*
X77920951Y-97152441D01*
X77920330Y-97124972D01*
X77921233Y-97090132D01*
X77925000Y-97068329D01*
X77932043Y-97055979D01*
X77938140Y-97052062D01*
X77950731Y-97048532D01*
X77971364Y-97045916D01*
X78002194Y-97044093D01*
X78045378Y-97042940D01*
X78103070Y-97042338D01*
X78177426Y-97042164D01*
X78408994Y-97042164D01*
X78406312Y-97138626D01*
X78403631Y-97235087D01*
X78330696Y-97237836D01*
X78257762Y-97240585D01*
X78257762Y-97691516D01*
X78069544Y-97691516D01*
G37*
G36*
X76542626Y-97689516D02*
G01*
X76455576Y-97686810D01*
X76455436Y-97669729D01*
X76484565Y-97669729D01*
X76497925Y-97671208D01*
X76510871Y-97669896D01*
X76510053Y-97667520D01*
X76537859Y-97667520D01*
X76543447Y-97669397D01*
X76557284Y-97669896D01*
X76563801Y-97670131D01*
X76577611Y-97669856D01*
X76589435Y-97668380D01*
X76584975Y-97666052D01*
X76570050Y-97664495D01*
X76542626Y-97666052D01*
X76537859Y-97667520D01*
X76510053Y-97667520D01*
X76509688Y-97666461D01*
X76505428Y-97665218D01*
X76486161Y-97666461D01*
X76484565Y-97669729D01*
X76455436Y-97669729D01*
X76453092Y-97382935D01*
X76452703Y-97319413D01*
X76452726Y-97232468D01*
X76453524Y-97162711D01*
X76455089Y-97110546D01*
X76457411Y-97076378D01*
X76460481Y-97060612D01*
X76463757Y-97055476D01*
X76471286Y-97049460D01*
X76484582Y-97045580D01*
X76506907Y-97043376D01*
X76541524Y-97042391D01*
X76591698Y-97042164D01*
X76713041Y-97042164D01*
X76722731Y-97091571D01*
X76726917Y-97112977D01*
X76734674Y-97152765D01*
X76743883Y-97200105D01*
X76753337Y-97248791D01*
X76753360Y-97248907D01*
X76761672Y-97290016D01*
X76768853Y-97322325D01*
X76774138Y-97342600D01*
X76776759Y-97347605D01*
X76777441Y-97344581D01*
X76781129Y-97325785D01*
X76787201Y-97293476D01*
X76794997Y-97251179D01*
X76803860Y-97202421D01*
X76807648Y-97181931D01*
X76817043Y-97134884D01*
X76825873Y-97095489D01*
X76833290Y-97067381D01*
X76838444Y-97054200D01*
X76849619Y-97048708D01*
X76873978Y-97044958D01*
X76913351Y-97042834D01*
X76969622Y-97042164D01*
X77090811Y-97042164D01*
X77090811Y-97692222D01*
X76916709Y-97686810D01*
X76916113Y-97667727D01*
X76980342Y-97667727D01*
X76988500Y-97669404D01*
X77010818Y-97670002D01*
X77028223Y-97669579D01*
X77038394Y-97668097D01*
X77031863Y-97665941D01*
X77010627Y-97664375D01*
X76984809Y-97666069D01*
X76980342Y-97667727D01*
X76916113Y-97667727D01*
X76907299Y-97385662D01*
X76880011Y-97526825D01*
X76875072Y-97552210D01*
X76865689Y-97599479D01*
X76857634Y-97638845D01*
X76851634Y-97666780D01*
X76851308Y-97668097D01*
X76848419Y-97679752D01*
X76839877Y-97685823D01*
X76814338Y-97690117D01*
X76771130Y-97691516D01*
X76698146Y-97691516D01*
X76693326Y-97667989D01*
X76723786Y-97667989D01*
X76728492Y-97672694D01*
X76733197Y-97667989D01*
X76732935Y-97667727D01*
X76754481Y-97667727D01*
X76755756Y-97667989D01*
X76762639Y-97669404D01*
X76784957Y-97670002D01*
X76802361Y-97669579D01*
X76812533Y-97668097D01*
X76806002Y-97665941D01*
X76784766Y-97664375D01*
X76758948Y-97666069D01*
X76754481Y-97667727D01*
X76732935Y-97667727D01*
X76728492Y-97663283D01*
X76723786Y-97667989D01*
X76693326Y-97667989D01*
X76664891Y-97529178D01*
X76631635Y-97366840D01*
X76629820Y-97668380D01*
X76629677Y-97692222D01*
X76542626Y-97689516D01*
G37*
G36*
X73881696Y-97691516D02*
G01*
X73881579Y-97669251D01*
X73902183Y-97669251D01*
X73909929Y-97672694D01*
X73914911Y-97672015D01*
X73915841Y-97667989D01*
X73928751Y-97667989D01*
X73933456Y-97672694D01*
X73938162Y-97667989D01*
X73937181Y-97667008D01*
X73959532Y-97667008D01*
X73959577Y-97667989D01*
X73959678Y-97670221D01*
X73971884Y-97671951D01*
X73981135Y-97670444D01*
X73980525Y-97669729D01*
X74000089Y-97669729D01*
X74006548Y-97670444D01*
X74013449Y-97671208D01*
X74026395Y-97669896D01*
X74025213Y-97666461D01*
X74020953Y-97665218D01*
X74001685Y-97666461D01*
X74000089Y-97669729D01*
X73980525Y-97669729D01*
X73977570Y-97666265D01*
X73972128Y-97664762D01*
X73959532Y-97667008D01*
X73937181Y-97667008D01*
X73933456Y-97663283D01*
X73930320Y-97666420D01*
X73928751Y-97667989D01*
X73915841Y-97667989D01*
X73916203Y-97666420D01*
X73914824Y-97665294D01*
X73903655Y-97666420D01*
X73902183Y-97669251D01*
X73881579Y-97669251D01*
X73880893Y-97538589D01*
X73880089Y-97385662D01*
X73805967Y-97538589D01*
X73743247Y-97667989D01*
X73731844Y-97691516D01*
X73533493Y-97691516D01*
X73533493Y-97667989D01*
X73552315Y-97667989D01*
X73557021Y-97672694D01*
X73561726Y-97667989D01*
X73561508Y-97667771D01*
X73586250Y-97667771D01*
X73587500Y-97667989D01*
X73594958Y-97669290D01*
X73618191Y-97669874D01*
X73639222Y-97669424D01*
X73649910Y-97668005D01*
X73649864Y-97667989D01*
X73674657Y-97667989D01*
X73679362Y-97672694D01*
X73684068Y-97667989D01*
X73702889Y-97667989D01*
X73707595Y-97672694D01*
X73712300Y-97667989D01*
X73707595Y-97663283D01*
X73702889Y-97667989D01*
X73684068Y-97667989D01*
X73679362Y-97663283D01*
X73674657Y-97667989D01*
X73649864Y-97667989D01*
X73644071Y-97665953D01*
X73622710Y-97664378D01*
X73592312Y-97665953D01*
X73586250Y-97667771D01*
X73561508Y-97667771D01*
X73557021Y-97663283D01*
X73552315Y-97667989D01*
X73533493Y-97667989D01*
X73533493Y-97378133D01*
X73533627Y-97300658D01*
X73534174Y-97222730D01*
X73535186Y-97161236D01*
X73536707Y-97114869D01*
X73538784Y-97082322D01*
X73541462Y-97062287D01*
X73544786Y-97053457D01*
X73559575Y-97047597D01*
X73590441Y-97043588D01*
X73633951Y-97042164D01*
X73711822Y-97042164D01*
X73714414Y-97190386D01*
X73717006Y-97338607D01*
X73777519Y-97202149D01*
X73789975Y-97174234D01*
X73810205Y-97129647D01*
X73827448Y-97092570D01*
X73840186Y-97066249D01*
X73846901Y-97053928D01*
X73849179Y-97051874D01*
X73867067Y-97046398D01*
X73901448Y-97043202D01*
X73953430Y-97042164D01*
X74051093Y-97042164D01*
X74051093Y-97691516D01*
X73881696Y-97691516D01*
G37*
G36*
X85111034Y-91760474D02*
G01*
X85118303Y-91772571D01*
X85118405Y-91773305D01*
X85125309Y-91787241D01*
X85142795Y-91815869D01*
X85170517Y-91858663D01*
X85208129Y-91915094D01*
X85255285Y-91984638D01*
X85311640Y-92066767D01*
X85316799Y-92074271D01*
X85342232Y-92111880D01*
X85362881Y-92143432D01*
X85376742Y-92165807D01*
X85381808Y-92175886D01*
X85386632Y-92185146D01*
X85400629Y-92200260D01*
X85413050Y-92214302D01*
X85419451Y-92228492D01*
X85424161Y-92240145D01*
X85438273Y-92256725D01*
X85450693Y-92270768D01*
X85457095Y-92284958D01*
X85461804Y-92296610D01*
X85475917Y-92313190D01*
X85488449Y-92326537D01*
X85494738Y-92338069D01*
X85497483Y-92346165D01*
X85508240Y-92362490D01*
X85542059Y-92406538D01*
X85582738Y-92464600D01*
X85620890Y-92524010D01*
X85630909Y-92540071D01*
X85653901Y-92575720D01*
X85682853Y-92619667D01*
X85715443Y-92668477D01*
X85749346Y-92718714D01*
X85782240Y-92766942D01*
X85811800Y-92809725D01*
X85835705Y-92843629D01*
X85851629Y-92865216D01*
X85865374Y-92890080D01*
X85871174Y-92915242D01*
X85871170Y-92918326D01*
X85870763Y-92929225D01*
X85868819Y-92939903D01*
X85864127Y-92952277D01*
X85855476Y-92968262D01*
X85841654Y-92989773D01*
X85821449Y-93018726D01*
X85793650Y-93057037D01*
X85757044Y-93106622D01*
X85710420Y-93169395D01*
X85682236Y-93207460D01*
X85656989Y-93241827D01*
X85637488Y-93268657D01*
X85626491Y-93284177D01*
X85625153Y-93286148D01*
X85605062Y-93314794D01*
X85577923Y-93352285D01*
X85545558Y-93396222D01*
X85509788Y-93444206D01*
X85472436Y-93493836D01*
X85435321Y-93542712D01*
X85400267Y-93588436D01*
X85369093Y-93628607D01*
X85343623Y-93660826D01*
X85325676Y-93682693D01*
X85317075Y-93691809D01*
X85307590Y-93696662D01*
X85284254Y-93699427D01*
X85263406Y-93684828D01*
X85262699Y-93684024D01*
X85250364Y-93667362D01*
X85231145Y-93638698D01*
X85206939Y-93601124D01*
X85179641Y-93557732D01*
X85151147Y-93511614D01*
X85123354Y-93465864D01*
X85098159Y-93423574D01*
X85077456Y-93387837D01*
X85063143Y-93361744D01*
X85057116Y-93348389D01*
X85056762Y-93346679D01*
X85052226Y-93319842D01*
X85048269Y-93285838D01*
X85044860Y-93243502D01*
X85041969Y-93191669D01*
X85039564Y-93129175D01*
X85037614Y-93054852D01*
X85036088Y-92967536D01*
X85034955Y-92866062D01*
X85034184Y-92749265D01*
X85033744Y-92615978D01*
X85033605Y-92465036D01*
X85033605Y-91794167D01*
X85056331Y-91772816D01*
X85071901Y-91762506D01*
X85093453Y-91757128D01*
X85111034Y-91760474D01*
G37*
G36*
X77808753Y-97446751D02*
G01*
X77802499Y-97499913D01*
X77792920Y-97540392D01*
X77769636Y-97587747D01*
X77732630Y-97634381D01*
X77687872Y-97671698D01*
X77640030Y-97694979D01*
X77607720Y-97702641D01*
X77544345Y-97708889D01*
X77478603Y-97706446D01*
X77419548Y-97695301D01*
X77398436Y-97688061D01*
X77361333Y-97667707D01*
X77324900Y-97635376D01*
X77308227Y-97617158D01*
X77282739Y-97582124D01*
X77264965Y-97543883D01*
X77253765Y-97498597D01*
X77247999Y-97442431D01*
X77246526Y-97371545D01*
X77247568Y-97342106D01*
X77440949Y-97342106D01*
X77442354Y-97389419D01*
X77451184Y-97434830D01*
X77466896Y-97473005D01*
X77488947Y-97498608D01*
X77500078Y-97504719D01*
X77530304Y-97511847D01*
X77560898Y-97509836D01*
X77583452Y-97498679D01*
X77592929Y-97486215D01*
X77606989Y-97451221D01*
X77614942Y-97406757D01*
X77616415Y-97358450D01*
X77611036Y-97311928D01*
X77598431Y-97272817D01*
X77586912Y-97254558D01*
X77559008Y-97232315D01*
X77526377Y-97225546D01*
X77493461Y-97234674D01*
X77464705Y-97260120D01*
X77462580Y-97263117D01*
X77447510Y-97298227D01*
X77440949Y-97342106D01*
X77247568Y-97342106D01*
X77249140Y-97297701D01*
X77257131Y-97238122D01*
X77269284Y-97197444D01*
X77533123Y-97197444D01*
X77537828Y-97202149D01*
X77542534Y-97197444D01*
X77537828Y-97192738D01*
X77533123Y-97197444D01*
X77269284Y-97197444D01*
X77271549Y-97189861D01*
X77293446Y-97149407D01*
X77323873Y-97113250D01*
X77331332Y-97105867D01*
X77364725Y-97076614D01*
X77397174Y-97056882D01*
X77433576Y-97044935D01*
X77478829Y-97039039D01*
X77537828Y-97037459D01*
X77572789Y-97037687D01*
X77610962Y-97039166D01*
X77638428Y-97042636D01*
X77659986Y-97048800D01*
X77680434Y-97058360D01*
X77724449Y-97090015D01*
X77765341Y-97138632D01*
X77794201Y-97197146D01*
X77794282Y-97197444D01*
X77800106Y-97218815D01*
X77807359Y-97266937D01*
X77811204Y-97324685D01*
X77811454Y-97358450D01*
X77811662Y-97386482D01*
X77808753Y-97446751D01*
G37*
G36*
X84240050Y-90540548D02*
G01*
X84261620Y-90543689D01*
X84275737Y-90549984D01*
X84287089Y-90560412D01*
X84287591Y-90560975D01*
X84294807Y-90569805D01*
X84305464Y-90584029D01*
X84320343Y-90604785D01*
X84340226Y-90633211D01*
X84365894Y-90670446D01*
X84398127Y-90717629D01*
X84437707Y-90775897D01*
X84485416Y-90846391D01*
X84542034Y-90930246D01*
X84608343Y-91028604D01*
X84622991Y-91050293D01*
X84657220Y-91100580D01*
X84688139Y-91145471D01*
X84713961Y-91182403D01*
X84732900Y-91208812D01*
X84743171Y-91222133D01*
X84754912Y-91237672D01*
X84760689Y-91251260D01*
X84765443Y-91261989D01*
X84779510Y-91277992D01*
X84792074Y-91291143D01*
X84798332Y-91301955D01*
X84801099Y-91308369D01*
X84812698Y-91328270D01*
X84831431Y-91358208D01*
X84855222Y-91395062D01*
X84881992Y-91435708D01*
X84909662Y-91477026D01*
X84936155Y-91515893D01*
X84959392Y-91549186D01*
X84977295Y-91573785D01*
X84987786Y-91586566D01*
X84989116Y-91587914D01*
X84992231Y-91592185D01*
X84994921Y-91598622D01*
X84997217Y-91608506D01*
X84999151Y-91623120D01*
X85000753Y-91643744D01*
X85002054Y-91671659D01*
X85003086Y-91708146D01*
X85003879Y-91754487D01*
X85004466Y-91811963D01*
X85004876Y-91881855D01*
X85005141Y-91965444D01*
X85005292Y-92064011D01*
X85005360Y-92178837D01*
X85005377Y-92311204D01*
X85005384Y-92345918D01*
X85005490Y-92463614D01*
X85005715Y-92596757D01*
X85006052Y-92742805D01*
X85006489Y-92899215D01*
X85007020Y-93063446D01*
X85007633Y-93232954D01*
X85008321Y-93405198D01*
X85009075Y-93577634D01*
X85009884Y-93747720D01*
X85010741Y-93912915D01*
X85011637Y-94070675D01*
X85017892Y-95122342D01*
X86171460Y-95122342D01*
X86204452Y-95167044D01*
X86212938Y-95178556D01*
X86237262Y-95211567D01*
X86252741Y-95231960D01*
X86261364Y-95241594D01*
X86265123Y-95242331D01*
X86266008Y-95236030D01*
X86266012Y-95224551D01*
X86268288Y-95215393D01*
X86281307Y-95189865D01*
X86306030Y-95150919D01*
X86342643Y-95098269D01*
X86391332Y-95031627D01*
X86402730Y-95016282D01*
X86441594Y-94963881D01*
X86478418Y-94914115D01*
X86510902Y-94870099D01*
X86536745Y-94834950D01*
X86553647Y-94811783D01*
X86573101Y-94785049D01*
X86591160Y-94760583D01*
X86602301Y-94745906D01*
X86608313Y-94738069D01*
X86624408Y-94716562D01*
X86646677Y-94686500D01*
X86672211Y-94651797D01*
X86704785Y-94607451D01*
X86746366Y-94551241D01*
X86779316Y-94507500D01*
X86805078Y-94474541D01*
X86825091Y-94450673D01*
X86840796Y-94434209D01*
X86853634Y-94423460D01*
X86865044Y-94416736D01*
X86876468Y-94412350D01*
X86878964Y-94411606D01*
X86895162Y-94412171D01*
X86905385Y-94428044D01*
X86913539Y-94443965D01*
X86928919Y-94462766D01*
X86937427Y-94471842D01*
X86944016Y-94486801D01*
X86948716Y-94498640D01*
X86962838Y-94515339D01*
X86975338Y-94528892D01*
X86981659Y-94541194D01*
X86986114Y-94553046D01*
X86998128Y-94571584D01*
X87011620Y-94589768D01*
X87028714Y-94613942D01*
X87040487Y-94630302D01*
X87059299Y-94654115D01*
X87063884Y-94660648D01*
X87073779Y-94690464D01*
X87074671Y-94725323D01*
X87065961Y-94756058D01*
X87063971Y-94759353D01*
X87051816Y-94777331D01*
X87030949Y-94807002D01*
X87003144Y-94845879D01*
X86970174Y-94891476D01*
X86933814Y-94941305D01*
X86928478Y-94948586D01*
X86887685Y-95004368D01*
X86846689Y-95060595D01*
X86808329Y-95113366D01*
X86775442Y-95158776D01*
X86750866Y-95192924D01*
X86736052Y-95213569D01*
X86701833Y-95260949D01*
X86667324Y-95308395D01*
X86638119Y-95348203D01*
X86631441Y-95357266D01*
X86601827Y-95397847D01*
X86572520Y-95438528D01*
X86548998Y-95471718D01*
X86546622Y-95475102D01*
X86520929Y-95508483D01*
X86500413Y-95526967D01*
X86482191Y-95532405D01*
X86463379Y-95526646D01*
X86456617Y-95523312D01*
X86448337Y-95521708D01*
X86447959Y-95528470D01*
X86456230Y-95545343D01*
X86473897Y-95574075D01*
X86501704Y-95616414D01*
X86520094Y-95643226D01*
X86540453Y-95670207D01*
X86553500Y-95683674D01*
X86558091Y-95682290D01*
X86554422Y-95662478D01*
X86544553Y-95637588D01*
X86543732Y-95635982D01*
X86537456Y-95618785D01*
X86539670Y-95611708D01*
X86540494Y-95611559D01*
X86544050Y-95601691D01*
X86542230Y-95581123D01*
X86542013Y-95580021D01*
X86538959Y-95560652D01*
X86542303Y-95556529D01*
X86554229Y-95564654D01*
X86566629Y-95575598D01*
X86580153Y-95591144D01*
X86580966Y-95592486D01*
X86582682Y-95594869D01*
X86585059Y-95595613D01*
X86588975Y-95593594D01*
X86595307Y-95587686D01*
X86604934Y-95576767D01*
X86618734Y-95559712D01*
X86637584Y-95535397D01*
X86662364Y-95502699D01*
X86693950Y-95460492D01*
X86733222Y-95407653D01*
X86781058Y-95343058D01*
X86838334Y-95265582D01*
X86905930Y-95174102D01*
X86929731Y-95141897D01*
X86973281Y-95082988D01*
X87013241Y-95028965D01*
X87048091Y-94981876D01*
X87076314Y-94943774D01*
X87096391Y-94916709D01*
X87106803Y-94902733D01*
X87107027Y-94902438D01*
X87128145Y-94880325D01*
X87150728Y-94864399D01*
X87156991Y-94861674D01*
X87180852Y-94856496D01*
X87199801Y-94859219D01*
X87207521Y-94869299D01*
X87210573Y-94876699D01*
X87223338Y-94898420D01*
X87244836Y-94931902D01*
X87273758Y-94975158D01*
X87308792Y-95026201D01*
X87348626Y-95083045D01*
X87354204Y-95091056D01*
X87368236Y-95114829D01*
X87372494Y-95133458D01*
X87369033Y-95154100D01*
X87363704Y-95165419D01*
X87347997Y-95191263D01*
X87323806Y-95227743D01*
X87292777Y-95272450D01*
X87256556Y-95322976D01*
X87216790Y-95376909D01*
X87195685Y-95405151D01*
X87149292Y-95467283D01*
X87102530Y-95529969D01*
X87058312Y-95589302D01*
X87019547Y-95641378D01*
X86989149Y-95682290D01*
X86975955Y-95700058D01*
X86946720Y-95739306D01*
X86921759Y-95772653D01*
X86903378Y-95797022D01*
X86893886Y-95809337D01*
X86892239Y-95811414D01*
X86879497Y-95828390D01*
X86860178Y-95854851D01*
X86837775Y-95886027D01*
X86825885Y-95902406D01*
X86800987Y-95933336D01*
X86781187Y-95950916D01*
X86763530Y-95957335D01*
X86745061Y-95954785D01*
X86742199Y-95953952D01*
X86729506Y-95954825D01*
X86730911Y-95967317D01*
X86746387Y-95990712D01*
X86755392Y-96004226D01*
X86764667Y-96038746D01*
X86755218Y-96073926D01*
X86754912Y-96074490D01*
X86752763Y-96077638D01*
X86749241Y-96080392D01*
X86743183Y-96082775D01*
X86733425Y-96084807D01*
X86718804Y-96086511D01*
X86698157Y-96087909D01*
X86670320Y-96089021D01*
X86634131Y-96089870D01*
X86588426Y-96090477D01*
X86532042Y-96090864D01*
X86463815Y-96091052D01*
X86382584Y-96091064D01*
X86287183Y-96090921D01*
X86176450Y-96090644D01*
X86049222Y-96090255D01*
X85904336Y-96089777D01*
X85783534Y-96089451D01*
X85664511Y-96089293D01*
X85552167Y-96089305D01*
X85447851Y-96089480D01*
X85352913Y-96089810D01*
X85268701Y-96090288D01*
X85196565Y-96090906D01*
X85137854Y-96091656D01*
X85093917Y-96092531D01*
X85066103Y-96093522D01*
X85055761Y-96094623D01*
X85054789Y-96100907D01*
X85053558Y-96124620D01*
X85052400Y-96164479D01*
X85051333Y-96218964D01*
X85050376Y-96286553D01*
X85049545Y-96365724D01*
X85048860Y-96454957D01*
X85048337Y-96552730D01*
X85047995Y-96657521D01*
X85047852Y-96767810D01*
X85047626Y-97433333D01*
X85011249Y-97477726D01*
X84974872Y-97522120D01*
X84128124Y-97522120D01*
X84038332Y-97431854D01*
X84031903Y-97032322D01*
X84031655Y-97014496D01*
X84031165Y-96964207D01*
X84030705Y-96896334D01*
X84030275Y-96811713D01*
X84029876Y-96711176D01*
X84029509Y-96595558D01*
X84029174Y-96465692D01*
X84028873Y-96322413D01*
X84028607Y-96166554D01*
X84028376Y-95998949D01*
X84028181Y-95820433D01*
X84028023Y-95631839D01*
X84027903Y-95434000D01*
X84027822Y-95227751D01*
X84027780Y-95013927D01*
X84027779Y-94793359D01*
X84027819Y-94566883D01*
X84027901Y-94335333D01*
X84028026Y-94099542D01*
X84028195Y-93860344D01*
X84028409Y-93618573D01*
X84031344Y-90604356D01*
X84068988Y-90572150D01*
X84085892Y-90558247D01*
X84102508Y-90547945D01*
X84121243Y-90542423D01*
X84147663Y-90540149D01*
X84187336Y-90539591D01*
X84206341Y-90539582D01*
X84240050Y-90540548D01*
G37*
G36*
X87483096Y-95283532D02*
G01*
X87496634Y-95303142D01*
X87511162Y-95326003D01*
X87522755Y-95345889D01*
X87527491Y-95356574D01*
X87532310Y-95365956D01*
X87546313Y-95381142D01*
X87558711Y-95395320D01*
X87565135Y-95410049D01*
X87565637Y-95414254D01*
X87573599Y-95425059D01*
X87575563Y-95426447D01*
X87587133Y-95439683D01*
X87604959Y-95463512D01*
X87626073Y-95494031D01*
X87638578Y-95512800D01*
X87653591Y-95537285D01*
X87662682Y-95558535D01*
X87665142Y-95579204D01*
X87660259Y-95601948D01*
X87647324Y-95629420D01*
X87625626Y-95664277D01*
X87594454Y-95709172D01*
X87553099Y-95766762D01*
X87552685Y-95767337D01*
X87529603Y-95799461D01*
X87498451Y-95842918D01*
X87462023Y-95893805D01*
X87423112Y-95948220D01*
X87384512Y-96002261D01*
X87350083Y-96050440D01*
X87304582Y-96113997D01*
X87258536Y-96178206D01*
X87215767Y-96237738D01*
X87180097Y-96287267D01*
X87152245Y-96325869D01*
X87121057Y-96367323D01*
X87095887Y-96395136D01*
X87074338Y-96409048D01*
X87054016Y-96408801D01*
X87032525Y-96394138D01*
X87007471Y-96364798D01*
X86976458Y-96320525D01*
X86937091Y-96261060D01*
X86916448Y-96229377D01*
X86885085Y-96179173D01*
X86861264Y-96138130D01*
X86846141Y-96108282D01*
X86840872Y-96091664D01*
X86842792Y-96082766D01*
X86855140Y-96057139D01*
X86877681Y-96021188D01*
X86908967Y-95977350D01*
X86935091Y-95942292D01*
X86960350Y-95908046D01*
X86979955Y-95881087D01*
X86991070Y-95865287D01*
X86992854Y-95862649D01*
X87009667Y-95839770D01*
X87029497Y-95814910D01*
X87033532Y-95809906D01*
X87049745Y-95789011D01*
X87074878Y-95756076D01*
X87107347Y-95713196D01*
X87145570Y-95662466D01*
X87187962Y-95605980D01*
X87232940Y-95545832D01*
X87277040Y-95487239D01*
X87326439Y-95422989D01*
X87368518Y-95369926D01*
X87402414Y-95329110D01*
X87427263Y-95301603D01*
X87442201Y-95288468D01*
X87447175Y-95285673D01*
X87466305Y-95276504D01*
X87475844Y-95274597D01*
X87483096Y-95283532D01*
G37*
G36*
X87786553Y-95740952D02*
G01*
X87801030Y-95755877D01*
X87816811Y-95778752D01*
X87819257Y-95782546D01*
X87837141Y-95809667D01*
X87862167Y-95846970D01*
X87891358Y-95890038D01*
X87921737Y-95934454D01*
X87941646Y-95963845D01*
X87971117Y-96010760D01*
X87989566Y-96047694D01*
X87997580Y-96077661D01*
X87995746Y-96103679D01*
X87984653Y-96128764D01*
X87964889Y-96155932D01*
X87960377Y-96161711D01*
X87944547Y-96182758D01*
X87920034Y-96215807D01*
X87888353Y-96258787D01*
X87851023Y-96309627D01*
X87809559Y-96366257D01*
X87765481Y-96426606D01*
X87720304Y-96488604D01*
X87675546Y-96550180D01*
X87632724Y-96609263D01*
X87611669Y-96638316D01*
X87572747Y-96691818D01*
X87534269Y-96744485D01*
X87499755Y-96791505D01*
X87472723Y-96828066D01*
X87443730Y-96866034D01*
X87417168Y-96895776D01*
X87395129Y-96910449D01*
X87374790Y-96909829D01*
X87353329Y-96893689D01*
X87327922Y-96861804D01*
X87295747Y-96813950D01*
X87262727Y-96763280D01*
X87224788Y-96704625D01*
X87195533Y-96658543D01*
X87173954Y-96623223D01*
X87159044Y-96596854D01*
X87149796Y-96577626D01*
X87145201Y-96563727D01*
X87144252Y-96553345D01*
X87145942Y-96544671D01*
X87151242Y-96535261D01*
X87165792Y-96513039D01*
X87187272Y-96481572D01*
X87213452Y-96444013D01*
X87242099Y-96403513D01*
X87270981Y-96363227D01*
X87297867Y-96326307D01*
X87320524Y-96295906D01*
X87336721Y-96275176D01*
X87344557Y-96265051D01*
X87361516Y-96242510D01*
X87384385Y-96211823D01*
X87410395Y-96176737D01*
X87436775Y-96140997D01*
X87460756Y-96108349D01*
X87479568Y-96082538D01*
X87490440Y-96067309D01*
X87490747Y-96066867D01*
X87501144Y-96052528D01*
X87520738Y-96026031D01*
X87547521Y-95990072D01*
X87579484Y-95947348D01*
X87614621Y-95900555D01*
X87634643Y-95874019D01*
X87675957Y-95820368D01*
X87708672Y-95780632D01*
X87734439Y-95753817D01*
X87754908Y-95738928D01*
X87771729Y-95734971D01*
X87786553Y-95740952D01*
G37*
G36*
X75396850Y-97691516D02*
G01*
X75396850Y-97667929D01*
X75453593Y-97667929D01*
X75465105Y-97669200D01*
X75490959Y-97669682D01*
X75494830Y-97669674D01*
X75519039Y-97669081D01*
X75528647Y-97667731D01*
X75521545Y-97665886D01*
X75493373Y-97664329D01*
X75460374Y-97665886D01*
X75458533Y-97666130D01*
X75453593Y-97667929D01*
X75396850Y-97667929D01*
X75396850Y-97240585D01*
X75323916Y-97237836D01*
X75250981Y-97235087D01*
X75248249Y-97151812D01*
X75247969Y-97107459D01*
X75250701Y-97073038D01*
X75256459Y-97055350D01*
X75260305Y-97052410D01*
X75271653Y-97048808D01*
X75291499Y-97046115D01*
X75321907Y-97044217D01*
X75364942Y-97043001D01*
X75422667Y-97042355D01*
X75497146Y-97042164D01*
X75726890Y-97042164D01*
X75724208Y-97138626D01*
X75721526Y-97235087D01*
X75648592Y-97237836D01*
X75575657Y-97240585D01*
X75575657Y-97691516D01*
X75396850Y-97691516D01*
G37*
G36*
X78720579Y-97242146D02*
G01*
X78721542Y-97295587D01*
X78723254Y-97355515D01*
X78725553Y-97400600D01*
X78728614Y-97433160D01*
X78732611Y-97455508D01*
X78737717Y-97469962D01*
X78744427Y-97480673D01*
X78768094Y-97500258D01*
X78796221Y-97507215D01*
X78823262Y-97500970D01*
X78843672Y-97480948D01*
X78845776Y-97475319D01*
X78850095Y-97449080D01*
X78853661Y-97404694D01*
X78856443Y-97342621D01*
X78858409Y-97263320D01*
X78858473Y-97259765D01*
X78860097Y-97195314D01*
X78862367Y-97140111D01*
X78865130Y-97096551D01*
X78868238Y-97067025D01*
X78871540Y-97053928D01*
X78882700Y-97048256D01*
X78912810Y-97043706D01*
X78960026Y-97042164D01*
X79038866Y-97042164D01*
X79038866Y-97265975D01*
X79038670Y-97326494D01*
X79037537Y-97399633D01*
X79035102Y-97458176D01*
X79031034Y-97504612D01*
X79025000Y-97541428D01*
X79016668Y-97571113D01*
X79005708Y-97596154D01*
X78991787Y-97619041D01*
X78971880Y-97643210D01*
X78929277Y-97678216D01*
X78882189Y-97701212D01*
X78877950Y-97702321D01*
X78852170Y-97705676D01*
X78815767Y-97707448D01*
X78775195Y-97707271D01*
X78707908Y-97700159D01*
X78653299Y-97682070D01*
X78610693Y-97651475D01*
X78577915Y-97606803D01*
X78552789Y-97546479D01*
X78548977Y-97530000D01*
X78544108Y-97494519D01*
X78539861Y-97447570D01*
X78536330Y-97392512D01*
X78533606Y-97332705D01*
X78531782Y-97271507D01*
X78530952Y-97212278D01*
X78531208Y-97158378D01*
X78532642Y-97113165D01*
X78535348Y-97079998D01*
X78539418Y-97062238D01*
X78543449Y-97055771D01*
X78552262Y-97048504D01*
X78567519Y-97044397D01*
X78593344Y-97042576D01*
X78633859Y-97042164D01*
X78717556Y-97042164D01*
X78720579Y-97242146D01*
G37*
G36*
X75993154Y-93874908D02*
G01*
X76081678Y-93876948D01*
X76163009Y-93880515D01*
X76233292Y-93885610D01*
X76288671Y-93892234D01*
X76416747Y-93917490D01*
X76541926Y-93954299D01*
X76651489Y-94000868D01*
X76745827Y-94057433D01*
X76825329Y-94124232D01*
X76890384Y-94201501D01*
X76941381Y-94289478D01*
X76965460Y-94348330D01*
X76993533Y-94446561D01*
X77012159Y-94553644D01*
X77021038Y-94664971D01*
X77019872Y-94775936D01*
X77008359Y-94881934D01*
X76986201Y-94978357D01*
X76961949Y-95045331D01*
X76910743Y-95143363D01*
X76844524Y-95230611D01*
X76763901Y-95306536D01*
X76669481Y-95370599D01*
X76561875Y-95422260D01*
X76441689Y-95460980D01*
X76422152Y-95465419D01*
X76383184Y-95473305D01*
X76330512Y-95483343D01*
X76266835Y-95495038D01*
X76194856Y-95507895D01*
X76117274Y-95521421D01*
X76036791Y-95535120D01*
X75969648Y-95546625D01*
X75893073Y-95560286D01*
X75822373Y-95573466D01*
X75760090Y-95585664D01*
X75708765Y-95596380D01*
X75670941Y-95605114D01*
X75649159Y-95611367D01*
X75612988Y-95627688D01*
X75571090Y-95658709D01*
X75546221Y-95697022D01*
X75538014Y-95743066D01*
X75540816Y-95772719D01*
X75556262Y-95809717D01*
X75586807Y-95840083D01*
X75634258Y-95866129D01*
X75659586Y-95875073D01*
X75713306Y-95886404D01*
X75775304Y-95892747D01*
X75839311Y-95893840D01*
X75899056Y-95889421D01*
X75948269Y-95879229D01*
X75962770Y-95874039D01*
X76005899Y-95851605D01*
X76044300Y-95822119D01*
X76073469Y-95789476D01*
X76088901Y-95757575D01*
X76096564Y-95733635D01*
X76108709Y-95708170D01*
X76121923Y-95686996D01*
X76577127Y-95686996D01*
X76606086Y-95686989D01*
X76707518Y-95686900D01*
X76792051Y-95686883D01*
X76861213Y-95687167D01*
X76916533Y-95687985D01*
X76959540Y-95689565D01*
X76991763Y-95692138D01*
X77014729Y-95695935D01*
X77029968Y-95701185D01*
X77039008Y-95708120D01*
X77043379Y-95716969D01*
X77044608Y-95727963D01*
X77044224Y-95741333D01*
X77043756Y-95757307D01*
X77043635Y-95763900D01*
X77040233Y-95803403D01*
X77032997Y-95853305D01*
X77023064Y-95907291D01*
X77011571Y-95959048D01*
X76999655Y-96002261D01*
X76998553Y-96005621D01*
X76985853Y-96038931D01*
X76968152Y-96079709D01*
X76948926Y-96119897D01*
X76918644Y-96173853D01*
X76850479Y-96266094D01*
X76767340Y-96347060D01*
X76669339Y-96416689D01*
X76556584Y-96474919D01*
X76429186Y-96521689D01*
X76287255Y-96556937D01*
X76130900Y-96580600D01*
X76126790Y-96581027D01*
X76079677Y-96584143D01*
X76018225Y-96585883D01*
X75946421Y-96586336D01*
X75868254Y-96585591D01*
X75787711Y-96583737D01*
X75708781Y-96580863D01*
X75635452Y-96577058D01*
X75571712Y-96572412D01*
X75521549Y-96567012D01*
X75382045Y-96543835D01*
X75239442Y-96509581D01*
X75112708Y-96466469D01*
X75001257Y-96414116D01*
X74904502Y-96352140D01*
X74821859Y-96280159D01*
X74752741Y-96197792D01*
X74696563Y-96104656D01*
X74652739Y-96000369D01*
X74640269Y-95958979D01*
X74622220Y-95871291D01*
X74611099Y-95774510D01*
X74607032Y-95673902D01*
X74610145Y-95574732D01*
X74620563Y-95482268D01*
X74638413Y-95401775D01*
X74642208Y-95389327D01*
X74656908Y-95345360D01*
X74672253Y-95304623D01*
X74685480Y-95274590D01*
X74696384Y-95254072D01*
X74755511Y-95166996D01*
X74829757Y-95090531D01*
X74918427Y-95025210D01*
X75020823Y-94971565D01*
X75136249Y-94930127D01*
X75136291Y-94930115D01*
X75164676Y-94922876D01*
X75208896Y-94912827D01*
X75266276Y-94900520D01*
X75334139Y-94886509D01*
X75409807Y-94871345D01*
X75490605Y-94855582D01*
X75573856Y-94839773D01*
X75640085Y-94827355D01*
X75750237Y-94806513D01*
X75843920Y-94788316D01*
X75922467Y-94772286D01*
X75987209Y-94757941D01*
X76039480Y-94744801D01*
X76080610Y-94732386D01*
X76111934Y-94720217D01*
X76134783Y-94707812D01*
X76150490Y-94694691D01*
X76160387Y-94680376D01*
X76165807Y-94664384D01*
X76168081Y-94646236D01*
X76168543Y-94625453D01*
X76168509Y-94622544D01*
X76159384Y-94582091D01*
X76133514Y-94547459D01*
X76090014Y-94517430D01*
X76083253Y-94513927D01*
X76065068Y-94506227D01*
X76044654Y-94501174D01*
X76017863Y-94498229D01*
X75980549Y-94496856D01*
X75928566Y-94496518D01*
X75901654Y-94496631D01*
X75851653Y-94497905D01*
X75814155Y-94500959D01*
X75784785Y-94506253D01*
X75759170Y-94514244D01*
X75713542Y-94534857D01*
X75662583Y-94571194D01*
X75626234Y-94617435D01*
X75602801Y-94675325D01*
X75600393Y-94683414D01*
X75590874Y-94707010D01*
X75581741Y-94719882D01*
X75573487Y-94721072D01*
X75547901Y-94722418D01*
X75507025Y-94723646D01*
X75452787Y-94724726D01*
X75387113Y-94725626D01*
X75311929Y-94726315D01*
X75229160Y-94726764D01*
X75140735Y-94726940D01*
X75107774Y-94726950D01*
X75012034Y-94726934D01*
X74932970Y-94726795D01*
X74868938Y-94726465D01*
X74818297Y-94725878D01*
X74779404Y-94724965D01*
X74750617Y-94723660D01*
X74730292Y-94721894D01*
X74716789Y-94719601D01*
X74708463Y-94716712D01*
X74703672Y-94713162D01*
X74700775Y-94708881D01*
X74700321Y-94708020D01*
X74694112Y-94691339D01*
X74691819Y-94670153D01*
X74693644Y-94641034D01*
X74699792Y-94600553D01*
X74710465Y-94545283D01*
X74722381Y-94493570D01*
X74758042Y-94384842D01*
X74806153Y-94287660D01*
X74867294Y-94201568D01*
X74942044Y-94126111D01*
X75030981Y-94060833D01*
X75134685Y-94005279D01*
X75253736Y-93958992D01*
X75388711Y-93921518D01*
X75540190Y-93892399D01*
X75577589Y-93887586D01*
X75644243Y-93882003D01*
X75722982Y-93877943D01*
X75809950Y-93875406D01*
X75901293Y-93874395D01*
X75993154Y-93874908D01*
G37*
G36*
X76338153Y-97675423D02*
G01*
X76336058Y-97683427D01*
X76328794Y-97688169D01*
X76312951Y-97690317D01*
X76285118Y-97690536D01*
X76241883Y-97689492D01*
X76222613Y-97688937D01*
X76185779Y-97687438D01*
X76162733Y-97685051D01*
X76149873Y-97680850D01*
X76143601Y-97673903D01*
X76141772Y-97667989D01*
X76168543Y-97667989D01*
X76173249Y-97672694D01*
X76177954Y-97667989D01*
X76177873Y-97667908D01*
X76221951Y-97667908D01*
X76222597Y-97667989D01*
X76232947Y-97669287D01*
X76257947Y-97669778D01*
X76258362Y-97669777D01*
X76282326Y-97669198D01*
X76291416Y-97667797D01*
X76283658Y-97665874D01*
X76255808Y-97664332D01*
X76227193Y-97665970D01*
X76221951Y-97667908D01*
X76177873Y-97667908D01*
X76173249Y-97663283D01*
X76168543Y-97667989D01*
X76141772Y-97667989D01*
X76140317Y-97663283D01*
X76137874Y-97654715D01*
X76131901Y-97646257D01*
X76119394Y-97641365D01*
X76096256Y-97638729D01*
X76058395Y-97637036D01*
X75981982Y-97634316D01*
X75975701Y-97662916D01*
X75974643Y-97667731D01*
X75969419Y-97691516D01*
X75871353Y-97691516D01*
X75840431Y-97691154D01*
X75805680Y-97689692D01*
X75781920Y-97687366D01*
X75773066Y-97684458D01*
X75775109Y-97672495D01*
X75776174Y-97667989D01*
X75810930Y-97667989D01*
X75815635Y-97672694D01*
X75820340Y-97667989D01*
X75820280Y-97667929D01*
X75848850Y-97667929D01*
X75849393Y-97667989D01*
X75860362Y-97669200D01*
X75886217Y-97669682D01*
X75890087Y-97669674D01*
X75914297Y-97669081D01*
X75923905Y-97667731D01*
X75916802Y-97665886D01*
X75888631Y-97664329D01*
X75855631Y-97665886D01*
X75853790Y-97666130D01*
X75848850Y-97667929D01*
X75820280Y-97667929D01*
X75815635Y-97663283D01*
X75810930Y-97667989D01*
X75776174Y-97667989D01*
X75781629Y-97644898D01*
X75791923Y-97604503D01*
X75805273Y-97553892D01*
X75820959Y-97495647D01*
X75836768Y-97437823D01*
X76028938Y-97437823D01*
X76035198Y-97445367D01*
X76055613Y-97446833D01*
X76074537Y-97445745D01*
X76082146Y-97439112D01*
X76079705Y-97422207D01*
X76074535Y-97400346D01*
X76068098Y-97370448D01*
X76062250Y-97351412D01*
X76055613Y-97343313D01*
X76049093Y-97351156D01*
X76043128Y-97370448D01*
X76038264Y-97393328D01*
X76031520Y-97422207D01*
X76028938Y-97437823D01*
X75836768Y-97437823D01*
X75838264Y-97432350D01*
X75856468Y-97366583D01*
X75874851Y-97300927D01*
X75892695Y-97237965D01*
X75909280Y-97180279D01*
X75923889Y-97130450D01*
X75935801Y-97091061D01*
X75944297Y-97064693D01*
X75948660Y-97053928D01*
X75950902Y-97052203D01*
X75970526Y-97046577D01*
X76007425Y-97043255D01*
X76062309Y-97042164D01*
X76164459Y-97042164D01*
X76251577Y-97345665D01*
X76265926Y-97395968D01*
X76278043Y-97439112D01*
X76285579Y-97465945D01*
X76303010Y-97529296D01*
X76317611Y-97583732D01*
X76328769Y-97626965D01*
X76335875Y-97656708D01*
X76337814Y-97667797D01*
X76338317Y-97670671D01*
X76338153Y-97675423D01*
G37*
G36*
X86595331Y-93980971D02*
G01*
X86613435Y-94000941D01*
X86636958Y-94031420D01*
X86663884Y-94069317D01*
X86692197Y-94111539D01*
X86719882Y-94154995D01*
X86744924Y-94196594D01*
X86765306Y-94233244D01*
X86779014Y-94261853D01*
X86784031Y-94279330D01*
X86780354Y-94294594D01*
X86766736Y-94323902D01*
X86745154Y-94361353D01*
X86717814Y-94403402D01*
X86686925Y-94446502D01*
X86654694Y-94487107D01*
X86651877Y-94490551D01*
X86636573Y-94510399D01*
X86615162Y-94539139D01*
X86591357Y-94571805D01*
X86581835Y-94584958D01*
X86551105Y-94626937D01*
X86516947Y-94673096D01*
X86485148Y-94715598D01*
X86467337Y-94739621D01*
X86446210Y-94769367D01*
X86431767Y-94791295D01*
X86426417Y-94801864D01*
X86426366Y-94802832D01*
X86418465Y-94813351D01*
X86416014Y-94815421D01*
X86403618Y-94829797D01*
X86383344Y-94855425D01*
X86357345Y-94889551D01*
X86327774Y-94929419D01*
X86316952Y-94944186D01*
X86286074Y-94986284D01*
X86258208Y-95024227D01*
X86236054Y-95054336D01*
X86222316Y-95072935D01*
X86213234Y-95084473D01*
X86198158Y-95098747D01*
X86183300Y-95103758D01*
X86167084Y-95098317D01*
X86147933Y-95081234D01*
X86124273Y-95051320D01*
X86094527Y-95007385D01*
X86057121Y-94948241D01*
X86047541Y-94932831D01*
X86017100Y-94883600D01*
X85995116Y-94847162D01*
X85980362Y-94821027D01*
X85971609Y-94802706D01*
X85967629Y-94789709D01*
X85967194Y-94779544D01*
X85969075Y-94769722D01*
X85971381Y-94764112D01*
X85983553Y-94743108D01*
X86003977Y-94711920D01*
X86030522Y-94673747D01*
X86061053Y-94631788D01*
X86093919Y-94587559D01*
X86135147Y-94532033D01*
X86180551Y-94470848D01*
X86226579Y-94408791D01*
X86269680Y-94350649D01*
X86306396Y-94301124D01*
X86363917Y-94223723D01*
X86411902Y-94159562D01*
X86451384Y-94107409D01*
X86483399Y-94066032D01*
X86508981Y-94034197D01*
X86529164Y-94010672D01*
X86544983Y-93994223D01*
X86557474Y-93983618D01*
X86567670Y-93977624D01*
X86576607Y-93975008D01*
X86585318Y-93974537D01*
X86595331Y-93980971D01*
G37*
G36*
X79706123Y-97684449D02*
G01*
X79689141Y-97688623D01*
X79659041Y-97690855D01*
X79612990Y-97691516D01*
X79518351Y-97691516D01*
X79513638Y-97667955D01*
X79569454Y-97667955D01*
X79581516Y-97669135D01*
X79608225Y-97669606D01*
X79615591Y-97669590D01*
X79640095Y-97668983D01*
X79650212Y-97667677D01*
X79643726Y-97665902D01*
X79642644Y-97665772D01*
X79611083Y-97664320D01*
X79577849Y-97665826D01*
X79573891Y-97666295D01*
X79569454Y-97667955D01*
X79513638Y-97667955D01*
X79512632Y-97662923D01*
X79506914Y-97634330D01*
X79430921Y-97637043D01*
X79403759Y-97638141D01*
X79376351Y-97640336D01*
X79360896Y-97644376D01*
X79353288Y-97651584D01*
X79349419Y-97663283D01*
X79348293Y-97667797D01*
X79348241Y-97668004D01*
X79344200Y-97677053D01*
X79335741Y-97682797D01*
X79319263Y-97686166D01*
X79291167Y-97688088D01*
X79247853Y-97689492D01*
X79236961Y-97689790D01*
X79197294Y-97690533D01*
X79172322Y-97689828D01*
X79158667Y-97687107D01*
X79152951Y-97681802D01*
X79151797Y-97673346D01*
X79151950Y-97671086D01*
X79152289Y-97669251D01*
X79191105Y-97669251D01*
X79198851Y-97672694D01*
X79203833Y-97672015D01*
X79204781Y-97667908D01*
X79233437Y-97667908D01*
X79244433Y-97669287D01*
X79269433Y-97669778D01*
X79269848Y-97669777D01*
X79293812Y-97669198D01*
X79302902Y-97667797D01*
X79295144Y-97665874D01*
X79267294Y-97664332D01*
X79238679Y-97665970D01*
X79237462Y-97666420D01*
X79233437Y-97667908D01*
X79204781Y-97667908D01*
X79205125Y-97666420D01*
X79203746Y-97665294D01*
X79192577Y-97666420D01*
X79191105Y-97669251D01*
X79152289Y-97669251D01*
X79155563Y-97651539D01*
X79163417Y-97617441D01*
X79174770Y-97571523D01*
X79188879Y-97516517D01*
X79205003Y-97455155D01*
X79207231Y-97446833D01*
X79398999Y-97446833D01*
X79459789Y-97446833D01*
X79445198Y-97385851D01*
X79445134Y-97385586D01*
X79437505Y-97355301D01*
X79431487Y-97334295D01*
X79428376Y-97327101D01*
X79425616Y-97335472D01*
X79419880Y-97357517D01*
X79412572Y-97388083D01*
X79398999Y-97446833D01*
X79207231Y-97446833D01*
X79222400Y-97390171D01*
X79240328Y-97324295D01*
X79258044Y-97260261D01*
X79274806Y-97200801D01*
X79289873Y-97148646D01*
X79302501Y-97106529D01*
X79311950Y-97077183D01*
X79317477Y-97063339D01*
X79319794Y-97059867D01*
X79327449Y-97051679D01*
X79338948Y-97046495D01*
X79358033Y-97043635D01*
X79388450Y-97042418D01*
X79433942Y-97042164D01*
X79536846Y-97042164D01*
X79555494Y-97105688D01*
X79592869Y-97233536D01*
X79626293Y-97349082D01*
X79654151Y-97446833D01*
X79654200Y-97447004D01*
X79676639Y-97527479D01*
X79693657Y-97590681D01*
X79705302Y-97636784D01*
X79711622Y-97665963D01*
X79711766Y-97667677D01*
X79712665Y-97678394D01*
X79706123Y-97684449D01*
G37*
G36*
X78590672Y-93965979D02*
G01*
X78591568Y-93978553D01*
X78592480Y-94008779D01*
X78593332Y-94054827D01*
X78594111Y-94115146D01*
X78594805Y-94188187D01*
X78595401Y-94272398D01*
X78595886Y-94366229D01*
X78596249Y-94468129D01*
X78596475Y-94576549D01*
X78596554Y-94689936D01*
X78596557Y-94727737D01*
X78596662Y-94869633D01*
X78596980Y-94994375D01*
X78597596Y-95103300D01*
X78598600Y-95197745D01*
X78600079Y-95279049D01*
X78602119Y-95348547D01*
X78604809Y-95407578D01*
X78608235Y-95457478D01*
X78612485Y-95499585D01*
X78617647Y-95535237D01*
X78623808Y-95565771D01*
X78631055Y-95592523D01*
X78639476Y-95616832D01*
X78649158Y-95640035D01*
X78660188Y-95663468D01*
X78698837Y-95725448D01*
X78749460Y-95774955D01*
X78811458Y-95809943D01*
X78885372Y-95830714D01*
X78971745Y-95837570D01*
X79034967Y-95832212D01*
X79102393Y-95811304D01*
X79159581Y-95774605D01*
X79206525Y-95722118D01*
X79243224Y-95653845D01*
X79269674Y-95569791D01*
X79272879Y-95555160D01*
X79278416Y-95524846D01*
X79283239Y-95490224D01*
X79287394Y-95449975D01*
X79290926Y-95402780D01*
X79293881Y-95347320D01*
X79296302Y-95282275D01*
X79298236Y-95206326D01*
X79299726Y-95118153D01*
X79300819Y-95016437D01*
X79301558Y-94899859D01*
X79301989Y-94767099D01*
X79302157Y-94616838D01*
X79302163Y-94599611D01*
X79302221Y-94474439D01*
X79302328Y-94366607D01*
X79302520Y-94274798D01*
X79302833Y-94197698D01*
X79303303Y-94133992D01*
X79303967Y-94082363D01*
X79304860Y-94041498D01*
X79306019Y-94010079D01*
X79307479Y-93986793D01*
X79309278Y-93970324D01*
X79311451Y-93959357D01*
X79314033Y-93952576D01*
X79317062Y-93948666D01*
X79320574Y-93946312D01*
X79324172Y-93945191D01*
X79346147Y-93942629D01*
X79385974Y-93940494D01*
X79442960Y-93938803D01*
X79516414Y-93937574D01*
X79605641Y-93936823D01*
X79709950Y-93936570D01*
X80081122Y-93936570D01*
X80087004Y-93965979D01*
X80087692Y-93971739D01*
X80088961Y-93996670D01*
X80090043Y-94037762D01*
X80090945Y-94093229D01*
X80091669Y-94161282D01*
X80092222Y-94240134D01*
X80092607Y-94327999D01*
X80092830Y-94423088D01*
X80092894Y-94523615D01*
X80092805Y-94627792D01*
X80092568Y-94733832D01*
X80092185Y-94839948D01*
X80091664Y-94944352D01*
X80091007Y-95045256D01*
X80090220Y-95140875D01*
X80089307Y-95229420D01*
X80088273Y-95309103D01*
X80087123Y-95378139D01*
X80085861Y-95434739D01*
X80084492Y-95477116D01*
X80083020Y-95503483D01*
X80064444Y-95659275D01*
X80033551Y-95814042D01*
X79991345Y-95953922D01*
X79937663Y-96079117D01*
X79872342Y-96189828D01*
X79795220Y-96286253D01*
X79706136Y-96368596D01*
X79604925Y-96437055D01*
X79491427Y-96491832D01*
X79365477Y-96533128D01*
X79226915Y-96561143D01*
X79224110Y-96561558D01*
X79186425Y-96567218D01*
X79153783Y-96572250D01*
X79132975Y-96575608D01*
X79129718Y-96575987D01*
X79108212Y-96576905D01*
X79072044Y-96577400D01*
X79024370Y-96577465D01*
X78968341Y-96577089D01*
X78907113Y-96576264D01*
X78876561Y-96575668D01*
X78786244Y-96572527D01*
X78709290Y-96567137D01*
X78641552Y-96558907D01*
X78578884Y-96547243D01*
X78517137Y-96531554D01*
X78452165Y-96511245D01*
X78352547Y-96471729D01*
X78243879Y-96411723D01*
X78147495Y-96337996D01*
X78063272Y-96250374D01*
X77991089Y-96148679D01*
X77930823Y-96032736D01*
X77882352Y-95902368D01*
X77845555Y-95757398D01*
X77820309Y-95597650D01*
X77820152Y-95596296D01*
X77817460Y-95569777D01*
X77815116Y-95539204D01*
X77813098Y-95503234D01*
X77811385Y-95460525D01*
X77809955Y-95409734D01*
X77808786Y-95349520D01*
X77807856Y-95278538D01*
X77807144Y-95195448D01*
X77806628Y-95098906D01*
X77806286Y-94987570D01*
X77806097Y-94860097D01*
X77806039Y-94715146D01*
X77806039Y-93954925D01*
X77830179Y-93945747D01*
X77841739Y-93943850D01*
X77871442Y-93941797D01*
X77916773Y-93940024D01*
X77975991Y-93938574D01*
X78047355Y-93937488D01*
X78129123Y-93936806D01*
X78219554Y-93936570D01*
X78584790Y-93936570D01*
X78590672Y-93965979D01*
G37*
G36*
X86291868Y-93526753D02*
G01*
X86309999Y-93546000D01*
X86331545Y-93579235D01*
X86332029Y-93580080D01*
X86349121Y-93607991D01*
X86363300Y-93627855D01*
X86371541Y-93635421D01*
X86373719Y-93635822D01*
X86379362Y-93645527D01*
X86381091Y-93650609D01*
X86391370Y-93669315D01*
X86408840Y-93697196D01*
X86431122Y-93730351D01*
X86443825Y-93749243D01*
X86463897Y-93781777D01*
X86477729Y-93807871D01*
X86482882Y-93823152D01*
X86482468Y-93831805D01*
X86479086Y-93848082D01*
X86471126Y-93867369D01*
X86457189Y-93892032D01*
X86435879Y-93924441D01*
X86405797Y-93966962D01*
X86365546Y-94021964D01*
X86337638Y-94059828D01*
X86306362Y-94102427D01*
X86279786Y-94138803D01*
X86260076Y-94165989D01*
X86249400Y-94181017D01*
X86241063Y-94192801D01*
X86222648Y-94218280D01*
X86197019Y-94253445D01*
X86166332Y-94295337D01*
X86132744Y-94341002D01*
X86104942Y-94378793D01*
X86072594Y-94422938D01*
X86044517Y-94461443D01*
X86023018Y-94491144D01*
X86010403Y-94508876D01*
X85995981Y-94528881D01*
X85972855Y-94559618D01*
X85948297Y-94591221D01*
X85927584Y-94615080D01*
X85905439Y-94635018D01*
X85889776Y-94642386D01*
X85879866Y-94638899D01*
X85859568Y-94621765D01*
X85835733Y-94592979D01*
X85818717Y-94568825D01*
X85791618Y-94527839D01*
X85763468Y-94482893D01*
X85736169Y-94437266D01*
X85711625Y-94394237D01*
X85691738Y-94357083D01*
X85678411Y-94329083D01*
X85673545Y-94313515D01*
X85677080Y-94300299D01*
X85689890Y-94275640D01*
X85708836Y-94248029D01*
X85724678Y-94227396D01*
X85745463Y-94199868D01*
X85759994Y-94180077D01*
X85769370Y-94167146D01*
X85788770Y-94140650D01*
X85816651Y-94102690D01*
X85851634Y-94055139D01*
X85892340Y-93999869D01*
X85937392Y-93938751D01*
X85985410Y-93873657D01*
X86035016Y-93806460D01*
X86084830Y-93739031D01*
X86111667Y-93702390D01*
X86144554Y-93656913D01*
X86173721Y-93616044D01*
X86189021Y-93595174D01*
X86224445Y-93554220D01*
X86255368Y-93530308D01*
X86282570Y-93522770D01*
X86291868Y-93526753D01*
G37*
%TD*%
M02*
