%TF.GenerationSoftware,KiCad,Pcbnew,6.0.11-2627ca5db0~126~ubuntu22.04.1*%
%TF.CreationDate,2023-09-22T10:59:18+02:00*%
%TF.ProjectId,nucleo_f302r8_extension,6e75636c-656f-45f6-9633-303272385f65,0.1*%
%TF.SameCoordinates,Original*%
%TF.FileFunction,Paste,Top*%
%TF.FilePolarity,Positive*%
%FSLAX46Y46*%
G04 Gerber Fmt 4.6, Leading zero omitted, Abs format (unit mm)*
G04 Created by KiCad (PCBNEW 6.0.11-2627ca5db0~126~ubuntu22.04.1) date 2023-09-22 10:59:18*
%MOMM*%
%LPD*%
G01*
G04 APERTURE LIST*
G04 Aperture macros list*
%AMRoundRect*
0 Rectangle with rounded corners*
0 $1 Rounding radius*
0 $2 $3 $4 $5 $6 $7 $8 $9 X,Y pos of 4 corners*
0 Add a 4 corners polygon primitive as box body*
4,1,4,$2,$3,$4,$5,$6,$7,$8,$9,$2,$3,0*
0 Add four circle primitives for the rounded corners*
1,1,$1+$1,$2,$3*
1,1,$1+$1,$4,$5*
1,1,$1+$1,$6,$7*
1,1,$1+$1,$8,$9*
0 Add four rect primitives between the rounded corners*
20,1,$1+$1,$2,$3,$4,$5,0*
20,1,$1+$1,$4,$5,$6,$7,0*
20,1,$1+$1,$6,$7,$8,$9,0*
20,1,$1+$1,$8,$9,$2,$3,0*%
G04 Aperture macros list end*
%ADD10RoundRect,0.200000X0.275000X-0.200000X0.275000X0.200000X-0.275000X0.200000X-0.275000X-0.200000X0*%
%ADD11RoundRect,0.200000X-0.200000X-0.275000X0.200000X-0.275000X0.200000X0.275000X-0.200000X0.275000X0*%
%ADD12RoundRect,0.200000X0.200000X0.275000X-0.200000X0.275000X-0.200000X-0.275000X0.200000X-0.275000X0*%
%ADD13RoundRect,0.250000X-0.625000X0.312500X-0.625000X-0.312500X0.625000X-0.312500X0.625000X0.312500X0*%
%ADD14RoundRect,0.225000X-0.250000X0.225000X-0.250000X-0.225000X0.250000X-0.225000X0.250000X0.225000X0*%
%ADD15RoundRect,0.250000X0.625000X-0.312500X0.625000X0.312500X-0.625000X0.312500X-0.625000X-0.312500X0*%
%ADD16RoundRect,0.243750X-0.243750X-0.456250X0.243750X-0.456250X0.243750X0.456250X-0.243750X0.456250X0*%
%ADD17RoundRect,0.250000X0.312500X0.625000X-0.312500X0.625000X-0.312500X-0.625000X0.312500X-0.625000X0*%
%ADD18R,1.200000X2.200000*%
%ADD19R,2.750000X3.050000*%
%ADD20RoundRect,0.150000X-0.825000X-0.150000X0.825000X-0.150000X0.825000X0.150000X-0.825000X0.150000X0*%
%ADD21RoundRect,0.250000X-0.312500X-0.625000X0.312500X-0.625000X0.312500X0.625000X-0.312500X0.625000X0*%
%ADD22RoundRect,0.243750X-0.456250X0.243750X-0.456250X-0.243750X0.456250X-0.243750X0.456250X0.243750X0*%
%ADD23RoundRect,0.250000X0.787500X0.925000X-0.787500X0.925000X-0.787500X-0.925000X0.787500X-0.925000X0*%
%ADD24RoundRect,0.250000X-0.475000X0.250000X-0.475000X-0.250000X0.475000X-0.250000X0.475000X0.250000X0*%
%ADD25RoundRect,0.250000X-0.787500X-1.025000X0.787500X-1.025000X0.787500X1.025000X-0.787500X1.025000X0*%
G04 APERTURE END LIST*
D10*
%TO.C,R27*%
X98300000Y-108925000D03*
X98300000Y-107275000D03*
%TD*%
%TO.C,R26*%
X98300000Y-113025000D03*
X98300000Y-111375000D03*
%TD*%
%TO.C,R25*%
X70200000Y-108925000D03*
X70200000Y-107275000D03*
%TD*%
%TO.C,R24*%
X70200000Y-113225000D03*
X70200000Y-111575000D03*
%TD*%
%TO.C,R23*%
X86200000Y-113025000D03*
X86200000Y-111375000D03*
%TD*%
%TO.C,R22*%
X58500000Y-113225000D03*
X58500000Y-111575000D03*
%TD*%
D11*
%TO.C,R21*%
X86075000Y-85200000D03*
X87725000Y-85200000D03*
%TD*%
%TO.C,R20*%
X88075000Y-90200000D03*
X89725000Y-90200000D03*
%TD*%
%TO.C,R19*%
X88075000Y-96200000D03*
X89725000Y-96200000D03*
%TD*%
%TO.C,R18*%
X88075000Y-93200000D03*
X89725000Y-93200000D03*
%TD*%
%TO.C,R17*%
X88075000Y-99200000D03*
X89725000Y-99200000D03*
%TD*%
D12*
%TO.C,R16*%
X66675000Y-90200000D03*
X65025000Y-90200000D03*
%TD*%
%TO.C,R15*%
X66675000Y-96200000D03*
X65025000Y-96200000D03*
%TD*%
%TO.C,R14*%
X66675000Y-93200000D03*
X65025000Y-93200000D03*
%TD*%
%TO.C,R13*%
X66675000Y-99200000D03*
X65025000Y-99200000D03*
%TD*%
D13*
%TO.C,R2*%
X73500000Y-108637500D03*
X73500000Y-111562500D03*
%TD*%
D14*
%TO.C,C2*%
X93737500Y-104125000D03*
X93737500Y-105675000D03*
%TD*%
D15*
%TO.C,R7*%
X87600000Y-80162500D03*
X87600000Y-77237500D03*
%TD*%
D16*
%TO.C,LED2*%
X66962500Y-84800000D03*
X68837500Y-84800000D03*
%TD*%
D17*
%TO.C,R9*%
X55462500Y-108900000D03*
X52537500Y-108900000D03*
%TD*%
D18*
%TO.C,U3*%
X78020000Y-72100000D03*
X82580000Y-72100000D03*
D19*
X81825000Y-76725000D03*
X78775000Y-76725000D03*
X78775000Y-80075000D03*
X81825000Y-80075000D03*
%TD*%
D17*
%TO.C,R3*%
X70262500Y-115800000D03*
X67337500Y-115800000D03*
%TD*%
D20*
%TO.C,U2*%
X89562500Y-107995000D03*
X89562500Y-109265000D03*
X89562500Y-110535000D03*
X89562500Y-111805000D03*
X94512500Y-111805000D03*
X94512500Y-110535000D03*
X94512500Y-109265000D03*
X94512500Y-107995000D03*
%TD*%
D21*
%TO.C,R1*%
X67737500Y-104600000D03*
X70662500Y-104600000D03*
%TD*%
D22*
%TO.C,LED1*%
X92900000Y-77962500D03*
X92900000Y-79837500D03*
%TD*%
D13*
%TO.C,R5*%
X101600000Y-108237500D03*
X101600000Y-111162500D03*
%TD*%
D17*
%TO.C,R10*%
X55462500Y-111300000D03*
X52537500Y-111300000D03*
%TD*%
D23*
%TO.C,C5*%
X74262500Y-73700000D03*
X69337500Y-73700000D03*
%TD*%
D21*
%TO.C,R4*%
X95837500Y-104500000D03*
X98762500Y-104500000D03*
%TD*%
D24*
%TO.C,C3*%
X52600000Y-98150000D03*
X52600000Y-100050000D03*
%TD*%
D17*
%TO.C,R8*%
X74362500Y-84800000D03*
X71437500Y-84800000D03*
%TD*%
%TO.C,R11*%
X83262500Y-108600000D03*
X80337500Y-108600000D03*
%TD*%
D25*
%TO.C,C4*%
X87587500Y-73700000D03*
X93812500Y-73700000D03*
%TD*%
D17*
%TO.C,R6*%
X98262500Y-115800000D03*
X95337500Y-115800000D03*
%TD*%
D20*
%TO.C,U1*%
X61725000Y-108195000D03*
X61725000Y-109465000D03*
X61725000Y-110735000D03*
X61725000Y-112005000D03*
X66675000Y-112005000D03*
X66675000Y-110735000D03*
X66675000Y-109465000D03*
X66675000Y-108195000D03*
%TD*%
D17*
%TO.C,R12*%
X83262500Y-111000000D03*
X80337500Y-111000000D03*
%TD*%
D14*
%TO.C,C1*%
X65600000Y-104325000D03*
X65600000Y-105875000D03*
%TD*%
M02*
