%TF.GenerationSoftware,KiCad,Pcbnew,6.0.11-2627ca5db0~126~ubuntu22.04.1*%
%TF.CreationDate,2023-09-22T10:59:18+02:00*%
%TF.ProjectId,nucleo_f302r8_extension,6e75636c-656f-45f6-9633-303272385f65,0.1*%
%TF.SameCoordinates,Original*%
%TF.FileFunction,Soldermask,Bot*%
%TF.FilePolarity,Negative*%
%FSLAX46Y46*%
G04 Gerber Fmt 4.6, Leading zero omitted, Abs format (unit mm)*
G04 Created by KiCad (PCBNEW 6.0.11-2627ca5db0~126~ubuntu22.04.1) date 2023-09-22 10:59:18*
%MOMM*%
%LPD*%
G01*
G04 APERTURE LIST*
%ADD10R,1.700000X1.700000*%
%ADD11O,1.700000X1.700000*%
%ADD12R,1.524000X1.524000*%
%ADD13C,1.524000*%
%ADD14C,2.000000*%
%ADD15R,2.300000X2.300000*%
%ADD16C,2.300000*%
%ADD17R,2.200000X2.200000*%
%ADD18O,2.200000X2.200000*%
G04 APERTURE END LIST*
D10*
%TO.C,J5*%
X60900000Y-82200000D03*
D11*
X63440000Y-82200000D03*
%TD*%
D12*
%TO.C,JP17*%
X60900000Y-82200000D03*
D13*
X63440000Y-82200000D03*
%TD*%
D14*
%TO.C,TP2*%
X76000000Y-104900000D03*
%TD*%
D15*
%TO.C,J1*%
X47939200Y-124100000D03*
D16*
X51749200Y-124100000D03*
X55559200Y-124100000D03*
X59369200Y-124100000D03*
%TD*%
D14*
%TO.C,TP9*%
X90137500Y-114900000D03*
%TD*%
D10*
%TO.C,J10*%
X107950000Y-72272200D03*
D11*
X110490000Y-72272200D03*
X107950000Y-74812200D03*
X110490000Y-74812200D03*
X107950000Y-77352200D03*
X110490000Y-77352200D03*
X107950000Y-79892200D03*
X110490000Y-79892200D03*
X107950000Y-82432200D03*
X110490000Y-82432200D03*
X107950000Y-84972200D03*
X110490000Y-84972200D03*
X107950000Y-87512200D03*
X110490000Y-87512200D03*
X107950000Y-90052200D03*
X110490000Y-90052200D03*
X107950000Y-92592200D03*
X110490000Y-92592200D03*
X107950000Y-95132200D03*
X110490000Y-95132200D03*
X107950000Y-97672200D03*
X110490000Y-97672200D03*
X107950000Y-100212200D03*
X110490000Y-100212200D03*
X107950000Y-102752200D03*
X110490000Y-102752200D03*
X107950000Y-105292200D03*
X110490000Y-105292200D03*
X107950000Y-107832200D03*
X110490000Y-107832200D03*
X107950000Y-110372200D03*
X110490000Y-110372200D03*
X107950000Y-112912200D03*
X110490000Y-112912200D03*
X107950000Y-115452200D03*
X110490000Y-115452200D03*
X107950000Y-117992200D03*
X110490000Y-117992200D03*
%TD*%
D15*
%TO.C,J2*%
X64639200Y-124100000D03*
D16*
X68449200Y-124100000D03*
X72259200Y-124100000D03*
X76069200Y-124100000D03*
%TD*%
D14*
%TO.C,TP13*%
X80200000Y-85100000D03*
%TD*%
D15*
%TO.C,J3*%
X81339200Y-124100000D03*
D16*
X85149200Y-124100000D03*
X88959200Y-124100000D03*
X92769200Y-124100000D03*
%TD*%
D14*
%TO.C,TP7*%
X104300000Y-114400000D03*
%TD*%
D10*
%TO.C,J7*%
X46990000Y-72272200D03*
D11*
X49530000Y-72272200D03*
X46990000Y-74812200D03*
X49530000Y-74812200D03*
X46990000Y-77352200D03*
X49530000Y-77352200D03*
X46990000Y-79892200D03*
X49530000Y-79892200D03*
X46990000Y-82432200D03*
X49530000Y-82432200D03*
X46990000Y-84972200D03*
X49530000Y-84972200D03*
X46990000Y-87512200D03*
X49530000Y-87512200D03*
X46990000Y-90052200D03*
X49530000Y-90052200D03*
X46990000Y-92592200D03*
X49530000Y-92592200D03*
X46990000Y-95132200D03*
X49530000Y-95132200D03*
X46990000Y-97672200D03*
X49530000Y-97672200D03*
X46990000Y-100212200D03*
X49530000Y-100212200D03*
X46990000Y-102752200D03*
X49530000Y-102752200D03*
X46990000Y-105292200D03*
X49530000Y-105292200D03*
X46990000Y-107832200D03*
X49530000Y-107832200D03*
X46990000Y-110372200D03*
X49530000Y-110372200D03*
X46990000Y-112912200D03*
X49530000Y-112912200D03*
X46990000Y-115452200D03*
X49530000Y-115452200D03*
X46990000Y-117992200D03*
X49530000Y-117992200D03*
%TD*%
D14*
%TO.C,TP4*%
X62200000Y-104900000D03*
%TD*%
%TO.C,TP5*%
X54900000Y-114800000D03*
%TD*%
%TO.C,TP1*%
X76100000Y-114800000D03*
%TD*%
%TO.C,TP10*%
X90137500Y-104850000D03*
%TD*%
%TO.C,TP3*%
X62200000Y-114900000D03*
%TD*%
%TO.C,TP11*%
X82537500Y-114800000D03*
%TD*%
%TO.C,TP8*%
X104400000Y-105000000D03*
%TD*%
D15*
%TO.C,J4*%
X98039200Y-124100000D03*
D16*
X101849200Y-124100000D03*
X105659200Y-124100000D03*
X109469200Y-124100000D03*
%TD*%
D14*
%TO.C,TP12*%
X82500000Y-104950000D03*
%TD*%
%TO.C,TP6*%
X54800000Y-105000000D03*
%TD*%
D17*
%TO.C,D1*%
X66990000Y-79100000D03*
D18*
X74610000Y-79100000D03*
%TD*%
M02*
