M48
; DRILL file {KiCad 6.0.11-2627ca5db0~126~ubuntu22.04.1} date Fri 22 Sep 2023 10:59:22 AM CEST
; FORMAT={-:-/ absolute / inch / decimal}
; #@! TF.CreationDate,2023-09-22T10:59:22+02:00
; #@! TF.GenerationSoftware,Kicad,Pcbnew,6.0.11-2627ca5db0~126~ubuntu22.04.1
; #@! TF.FileFunction,Plated,1,2,PTH
FMAT,2
INCH
; #@! TA.AperFunction,Plated,PTH,ViaDrill
T1C0.0157
; #@! TA.AperFunction,Plated,PTH,ComponentDrill
T2C0.0300
; #@! TA.AperFunction,Plated,PTH,ComponentDrill
T3C0.0394
; #@! TA.AperFunction,Plated,PTH,ComponentDrill
T4C0.0433
; #@! TA.AperFunction,Plated,PTH,ComponentDrill
T5C0.0472
%
G90
G05
T1
X2.0669Y-4.2126
X2.4921Y-3.7244
X2.4921Y-3.8031
X2.563Y-3.9803
X2.5709Y-3.3386
X2.6024Y-4.4646
X2.6181Y-4.0591
X2.6299Y-2.9016
X2.6519Y-4.6946
X2.6693Y-4.2205
X2.6693Y-4.4567
X2.9291Y-4.689
X3.0748Y-4.689
X3.1614Y-2.9173
X3.1625Y-4.4643
X3.2313Y-3.8425
X3.2598Y-3.7244
X3.3071Y-3.9803
X3.3819Y-4.0787
X3.4173Y-3.4961
X3.5866Y-3.7283
X3.5906Y-3.9055
X3.6575Y-3.0197
X3.6772Y-4.4646
X3.7126Y-4.6929
X3.7244Y-4.0512
X3.7598Y-3.7874
X3.7717Y-4.2087
X3.7756Y-4.4409
X3.9646Y-3.439
X4.4016Y-4.9291
T2
X2.3976Y-3.2362
X2.4976Y-3.2362
T3
X1.85Y-2.8454
X1.85Y-2.9454
X1.85Y-3.0454
X1.85Y-3.1454
X1.85Y-3.2454
X1.85Y-3.3454
X1.85Y-3.4454
X1.85Y-3.5454
X1.85Y-3.6454
X1.85Y-3.7454
X1.85Y-3.8454
X1.85Y-3.9454
X1.85Y-4.0454
X1.85Y-4.1454
X1.85Y-4.2454
X1.85Y-4.3454
X1.85Y-4.4454
X1.85Y-4.5454
X1.85Y-4.6454
X1.95Y-2.8454
X1.95Y-2.9454
X1.95Y-3.0454
X1.95Y-3.1454
X1.95Y-3.2454
X1.95Y-3.3454
X1.95Y-3.4454
X1.95Y-3.5454
X1.95Y-3.6454
X1.95Y-3.7454
X1.95Y-3.8454
X1.95Y-3.9454
X1.95Y-4.0454
X1.95Y-4.1454
X1.95Y-4.2454
X1.95Y-4.3454
X1.95Y-4.4454
X1.95Y-4.5454
X1.95Y-4.6454
X2.1575Y-4.1339
X2.1614Y-4.5197
X2.3976Y-3.2362
X2.4488Y-4.1299
X2.4488Y-4.5236
X2.4976Y-3.2362
X2.9921Y-4.1299
X2.9961Y-4.5197
X3.1575Y-3.3504
X3.248Y-4.1319
X3.2495Y-4.5197
X3.5487Y-4.128
X3.5487Y-4.5236
X4.1063Y-4.5039
X4.1102Y-4.1339
X4.25Y-2.8454
X4.25Y-2.9454
X4.25Y-3.0454
X4.25Y-3.1454
X4.25Y-3.2454
X4.25Y-3.3454
X4.25Y-3.4454
X4.25Y-3.5454
X4.25Y-3.6454
X4.25Y-3.7454
X4.25Y-3.8454
X4.25Y-3.9454
X4.25Y-4.0454
X4.25Y-4.1454
X4.25Y-4.2454
X4.25Y-4.3454
X4.25Y-4.4454
X4.25Y-4.5454
X4.25Y-4.6454
X4.35Y-2.8454
X4.35Y-2.9454
X4.35Y-3.0454
X4.35Y-3.1454
X4.35Y-3.2454
X4.35Y-3.3454
X4.35Y-3.4454
X4.35Y-3.5454
X4.35Y-3.6454
X4.35Y-3.7454
X4.35Y-3.8454
X4.35Y-3.9454
X4.35Y-4.0454
X4.35Y-4.1454
X4.35Y-4.2454
X4.35Y-4.3454
X4.35Y-4.4454
X4.35Y-4.5454
X4.35Y-4.6454
T4
X2.6374Y-3.1142
X2.9374Y-3.1142
T5
X1.8874Y-4.8858
X2.0374Y-4.8858
X2.1874Y-4.8858
X2.3374Y-4.8858
X2.5449Y-4.8858
X2.6949Y-4.8858
X2.8449Y-4.8858
X2.9949Y-4.8858
X3.2023Y-4.8858
X3.3523Y-4.8858
X3.5023Y-4.8858
X3.6523Y-4.8858
X3.8598Y-4.8858
X4.0098Y-4.8858
X4.1598Y-4.8858
X4.3098Y-4.8858
T0
M30
