%TF.GenerationSoftware,KiCad,Pcbnew,6.0.11-2627ca5db0~126~ubuntu22.04.1*%
%TF.CreationDate,2023-09-22T10:59:18+02:00*%
%TF.ProjectId,nucleo_f302r8_extension,6e75636c-656f-45f6-9633-303272385f65,0.1*%
%TF.SameCoordinates,Original*%
%TF.FileFunction,Soldermask,Top*%
%TF.FilePolarity,Negative*%
%FSLAX46Y46*%
G04 Gerber Fmt 4.6, Leading zero omitted, Abs format (unit mm)*
G04 Created by KiCad (PCBNEW 6.0.11-2627ca5db0~126~ubuntu22.04.1) date 2023-09-22 10:59:18*
%MOMM*%
%LPD*%
G01*
G04 APERTURE LIST*
G04 Aperture macros list*
%AMRoundRect*
0 Rectangle with rounded corners*
0 $1 Rounding radius*
0 $2 $3 $4 $5 $6 $7 $8 $9 X,Y pos of 4 corners*
0 Add a 4 corners polygon primitive as box body*
4,1,4,$2,$3,$4,$5,$6,$7,$8,$9,$2,$3,0*
0 Add four circle primitives for the rounded corners*
1,1,$1+$1,$2,$3*
1,1,$1+$1,$4,$5*
1,1,$1+$1,$6,$7*
1,1,$1+$1,$8,$9*
0 Add four rect primitives between the rounded corners*
20,1,$1+$1,$2,$3,$4,$5,0*
20,1,$1+$1,$4,$5,$6,$7,0*
20,1,$1+$1,$6,$7,$8,$9,0*
20,1,$1+$1,$8,$9,$2,$3,0*%
%AMFreePoly0*
4,1,6,1.000000,0.000000,0.500000,-0.750000,-0.500000,-0.750000,-0.500000,0.750000,0.500000,0.750000,1.000000,0.000000,1.000000,0.000000,$1*%
%AMFreePoly1*
4,1,6,0.500000,-0.750000,-0.650000,-0.750000,-0.150000,0.000000,-0.650000,0.750000,0.500000,0.750000,0.500000,-0.750000,0.500000,-0.750000,$1*%
G04 Aperture macros list end*
%ADD10R,1.700000X1.700000*%
%ADD11O,1.700000X1.700000*%
%ADD12R,1.524000X1.524000*%
%ADD13C,1.524000*%
%ADD14RoundRect,0.200000X0.275000X-0.200000X0.275000X0.200000X-0.275000X0.200000X-0.275000X-0.200000X0*%
%ADD15RoundRect,0.200000X-0.200000X-0.275000X0.200000X-0.275000X0.200000X0.275000X-0.200000X0.275000X0*%
%ADD16RoundRect,0.200000X0.200000X0.275000X-0.200000X0.275000X-0.200000X-0.275000X0.200000X-0.275000X0*%
%ADD17C,2.000000*%
%ADD18R,2.300000X2.300000*%
%ADD19C,2.300000*%
%ADD20RoundRect,0.250000X-0.625000X0.312500X-0.625000X-0.312500X0.625000X-0.312500X0.625000X0.312500X0*%
%ADD21RoundRect,0.225000X-0.250000X0.225000X-0.250000X-0.225000X0.250000X-0.225000X0.250000X0.225000X0*%
%ADD22FreePoly0,0.000000*%
%ADD23FreePoly1,0.000000*%
%ADD24RoundRect,0.250000X0.625000X-0.312500X0.625000X0.312500X-0.625000X0.312500X-0.625000X-0.312500X0*%
%ADD25FreePoly0,90.000000*%
%ADD26FreePoly1,90.000000*%
%ADD27RoundRect,0.243750X-0.243750X-0.456250X0.243750X-0.456250X0.243750X0.456250X-0.243750X0.456250X0*%
%ADD28RoundRect,0.250000X0.312500X0.625000X-0.312500X0.625000X-0.312500X-0.625000X0.312500X-0.625000X0*%
%ADD29R,1.200000X2.200000*%
%ADD30R,5.800000X6.400000*%
%ADD31RoundRect,0.150000X-0.825000X-0.150000X0.825000X-0.150000X0.825000X0.150000X-0.825000X0.150000X0*%
%ADD32FreePoly0,180.000000*%
%ADD33FreePoly1,180.000000*%
%ADD34RoundRect,0.250000X-0.312500X-0.625000X0.312500X-0.625000X0.312500X0.625000X-0.312500X0.625000X0*%
%ADD35RoundRect,0.243750X-0.456250X0.243750X-0.456250X-0.243750X0.456250X-0.243750X0.456250X0.243750X0*%
%ADD36FreePoly0,270.000000*%
%ADD37FreePoly1,270.000000*%
%ADD38RoundRect,0.250000X0.787500X0.925000X-0.787500X0.925000X-0.787500X-0.925000X0.787500X-0.925000X0*%
%ADD39RoundRect,0.250000X-0.475000X0.250000X-0.475000X-0.250000X0.475000X-0.250000X0.475000X0.250000X0*%
%ADD40RoundRect,0.250000X-0.787500X-1.025000X0.787500X-1.025000X0.787500X1.025000X-0.787500X1.025000X0*%
%ADD41R,2.200000X2.200000*%
%ADD42O,2.200000X2.200000*%
G04 APERTURE END LIST*
D10*
%TO.C,J5*%
X60900000Y-82200000D03*
D11*
X63440000Y-82200000D03*
%TD*%
D12*
%TO.C,JP17*%
X60900000Y-82200000D03*
D13*
X63440000Y-82200000D03*
%TD*%
D14*
%TO.C,R27*%
X98300000Y-108925000D03*
X98300000Y-107275000D03*
%TD*%
%TO.C,R26*%
X98300000Y-113025000D03*
X98300000Y-111375000D03*
%TD*%
%TO.C,R25*%
X70200000Y-108925000D03*
X70200000Y-107275000D03*
%TD*%
%TO.C,R24*%
X70200000Y-113225000D03*
X70200000Y-111575000D03*
%TD*%
%TO.C,R23*%
X86200000Y-113025000D03*
X86200000Y-111375000D03*
%TD*%
%TO.C,R22*%
X58500000Y-113225000D03*
X58500000Y-111575000D03*
%TD*%
D15*
%TO.C,R21*%
X86075000Y-85200000D03*
X87725000Y-85200000D03*
%TD*%
%TO.C,R20*%
X88075000Y-90200000D03*
X89725000Y-90200000D03*
%TD*%
%TO.C,R19*%
X88075000Y-96200000D03*
X89725000Y-96200000D03*
%TD*%
%TO.C,R18*%
X88075000Y-93200000D03*
X89725000Y-93200000D03*
%TD*%
%TO.C,R17*%
X88075000Y-99200000D03*
X89725000Y-99200000D03*
%TD*%
D16*
%TO.C,R16*%
X66675000Y-90200000D03*
X65025000Y-90200000D03*
%TD*%
%TO.C,R15*%
X66675000Y-96200000D03*
X65025000Y-96200000D03*
%TD*%
%TO.C,R14*%
X66675000Y-93200000D03*
X65025000Y-93200000D03*
%TD*%
%TO.C,R13*%
X66675000Y-99200000D03*
X65025000Y-99200000D03*
%TD*%
D17*
%TO.C,TP2*%
X76000000Y-104900000D03*
%TD*%
D18*
%TO.C,J1*%
X47939200Y-124100000D03*
D19*
X51749200Y-124100000D03*
X55559200Y-124100000D03*
X59369200Y-124100000D03*
%TD*%
D20*
%TO.C,R2*%
X73500000Y-108637500D03*
X73500000Y-111562500D03*
%TD*%
D21*
%TO.C,C2*%
X93737500Y-104125000D03*
X93737500Y-105675000D03*
%TD*%
D22*
%TO.C,JP9*%
X84075000Y-99200000D03*
D23*
X85525000Y-99200000D03*
%TD*%
D17*
%TO.C,TP9*%
X90137500Y-114900000D03*
%TD*%
D10*
%TO.C,J10*%
X107950000Y-72272200D03*
D11*
X110490000Y-72272200D03*
X107950000Y-74812200D03*
X110490000Y-74812200D03*
X107950000Y-77352200D03*
X110490000Y-77352200D03*
X107950000Y-79892200D03*
X110490000Y-79892200D03*
X107950000Y-82432200D03*
X110490000Y-82432200D03*
X107950000Y-84972200D03*
X110490000Y-84972200D03*
X107950000Y-87512200D03*
X110490000Y-87512200D03*
X107950000Y-90052200D03*
X110490000Y-90052200D03*
X107950000Y-92592200D03*
X110490000Y-92592200D03*
X107950000Y-95132200D03*
X110490000Y-95132200D03*
X107950000Y-97672200D03*
X110490000Y-97672200D03*
X107950000Y-100212200D03*
X110490000Y-100212200D03*
X107950000Y-102752200D03*
X110490000Y-102752200D03*
X107950000Y-105292200D03*
X110490000Y-105292200D03*
X107950000Y-107832200D03*
X110490000Y-107832200D03*
X107950000Y-110372200D03*
X110490000Y-110372200D03*
X107950000Y-112912200D03*
X110490000Y-112912200D03*
X107950000Y-115452200D03*
X110490000Y-115452200D03*
X107950000Y-117992200D03*
X110490000Y-117992200D03*
%TD*%
D18*
%TO.C,J2*%
X64639200Y-124100000D03*
D19*
X68449200Y-124100000D03*
X72259200Y-124100000D03*
X76069200Y-124100000D03*
%TD*%
D24*
%TO.C,R7*%
X87600000Y-80162500D03*
X87600000Y-77237500D03*
%TD*%
D25*
%TO.C,JP20*%
X58500000Y-113125000D03*
D26*
X58500000Y-111675000D03*
%TD*%
D17*
%TO.C,TP13*%
X80200000Y-85100000D03*
%TD*%
D27*
%TO.C,LED2*%
X66962500Y-84800000D03*
X68837500Y-84800000D03*
%TD*%
D22*
%TO.C,JP4*%
X65125000Y-90200000D03*
D23*
X66575000Y-90200000D03*
%TD*%
D28*
%TO.C,R9*%
X55462500Y-108900000D03*
X52537500Y-108900000D03*
%TD*%
D29*
%TO.C,U3*%
X78020000Y-72100000D03*
D30*
X80300000Y-78400000D03*
D29*
X82580000Y-72100000D03*
%TD*%
D28*
%TO.C,R3*%
X70262500Y-115800000D03*
X67337500Y-115800000D03*
%TD*%
D18*
%TO.C,J3*%
X81339200Y-124100000D03*
D19*
X85149200Y-124100000D03*
X88959200Y-124100000D03*
X92769200Y-124100000D03*
%TD*%
D22*
%TO.C,JP3*%
X65125000Y-96200000D03*
D23*
X66575000Y-96200000D03*
%TD*%
D31*
%TO.C,U2*%
X89562500Y-107995000D03*
X89562500Y-109265000D03*
X89562500Y-110535000D03*
X89562500Y-111805000D03*
X94512500Y-111805000D03*
X94512500Y-110535000D03*
X94512500Y-109265000D03*
X94512500Y-107995000D03*
%TD*%
D32*
%TO.C,JP6*%
X70725000Y-93200000D03*
D33*
X69275000Y-93200000D03*
%TD*%
D22*
%TO.C,JP11*%
X84075000Y-96200000D03*
D23*
X85525000Y-96200000D03*
%TD*%
D25*
%TO.C,JP25*%
X98300000Y-112925000D03*
D26*
X98300000Y-111475000D03*
%TD*%
D34*
%TO.C,R1*%
X67737500Y-104600000D03*
X70662500Y-104600000D03*
%TD*%
D25*
%TO.C,JP23*%
X70200000Y-113125000D03*
D26*
X70200000Y-111675000D03*
%TD*%
D25*
%TO.C,JP24*%
X70200000Y-108825000D03*
D26*
X70200000Y-107375000D03*
%TD*%
D32*
%TO.C,JP16*%
X89625000Y-90200000D03*
D33*
X88175000Y-90200000D03*
%TD*%
D35*
%TO.C,LED1*%
X92900000Y-77962500D03*
X92900000Y-79837500D03*
%TD*%
D25*
%TO.C,JP22*%
X86200000Y-112925000D03*
D26*
X86200000Y-111475000D03*
%TD*%
D32*
%TO.C,JP8*%
X70725000Y-90200000D03*
D33*
X69275000Y-90200000D03*
%TD*%
D20*
%TO.C,R5*%
X101600000Y-108237500D03*
X101600000Y-111162500D03*
%TD*%
D28*
%TO.C,R10*%
X55462500Y-111300000D03*
X52537500Y-111300000D03*
%TD*%
D17*
%TO.C,TP7*%
X104300000Y-114400000D03*
%TD*%
D32*
%TO.C,JP15*%
X89625000Y-96200000D03*
D33*
X88175000Y-96200000D03*
%TD*%
D32*
%TO.C,JP7*%
X70725000Y-96200000D03*
D33*
X69275000Y-96200000D03*
%TD*%
D36*
%TO.C,JP21*%
X86200000Y-107375000D03*
D37*
X86200000Y-108825000D03*
%TD*%
D10*
%TO.C,J7*%
X46990000Y-72272200D03*
D11*
X49530000Y-72272200D03*
X46990000Y-74812200D03*
X49530000Y-74812200D03*
X46990000Y-77352200D03*
X49530000Y-77352200D03*
X46990000Y-79892200D03*
X49530000Y-79892200D03*
X46990000Y-82432200D03*
X49530000Y-82432200D03*
X46990000Y-84972200D03*
X49530000Y-84972200D03*
X46990000Y-87512200D03*
X49530000Y-87512200D03*
X46990000Y-90052200D03*
X49530000Y-90052200D03*
X46990000Y-92592200D03*
X49530000Y-92592200D03*
X46990000Y-95132200D03*
X49530000Y-95132200D03*
X46990000Y-97672200D03*
X49530000Y-97672200D03*
X46990000Y-100212200D03*
X49530000Y-100212200D03*
X46990000Y-102752200D03*
X49530000Y-102752200D03*
X46990000Y-105292200D03*
X49530000Y-105292200D03*
X46990000Y-107832200D03*
X49530000Y-107832200D03*
X46990000Y-110372200D03*
X49530000Y-110372200D03*
X46990000Y-112912200D03*
X49530000Y-112912200D03*
X46990000Y-115452200D03*
X49530000Y-115452200D03*
X46990000Y-117992200D03*
X49530000Y-117992200D03*
%TD*%
D17*
%TO.C,TP4*%
X62200000Y-104900000D03*
%TD*%
D22*
%TO.C,JP12*%
X84075000Y-90200000D03*
D23*
X85525000Y-90200000D03*
%TD*%
D38*
%TO.C,C5*%
X74262500Y-73700000D03*
X69337500Y-73700000D03*
%TD*%
D17*
%TO.C,TP5*%
X54900000Y-114800000D03*
%TD*%
D34*
%TO.C,R4*%
X95837500Y-104500000D03*
X98762500Y-104500000D03*
%TD*%
D32*
%TO.C,JP13*%
X89625000Y-99200000D03*
D33*
X88175000Y-99200000D03*
%TD*%
D39*
%TO.C,C3*%
X52600000Y-98150000D03*
X52600000Y-100050000D03*
%TD*%
D22*
%TO.C,JP2*%
X65125000Y-93200000D03*
D23*
X66575000Y-93200000D03*
%TD*%
D17*
%TO.C,TP1*%
X76100000Y-114800000D03*
%TD*%
D28*
%TO.C,R8*%
X74362500Y-84800000D03*
X71437500Y-84800000D03*
%TD*%
D36*
%TO.C,JP19*%
X58500000Y-107375000D03*
D37*
X58500000Y-108825000D03*
%TD*%
D32*
%TO.C,JP5*%
X70725000Y-99200000D03*
D33*
X69275000Y-99200000D03*
%TD*%
D22*
%TO.C,JP1*%
X65125000Y-99200000D03*
D23*
X66575000Y-99200000D03*
%TD*%
D17*
%TO.C,TP10*%
X90137500Y-104850000D03*
%TD*%
D28*
%TO.C,R11*%
X83262500Y-108600000D03*
X80337500Y-108600000D03*
%TD*%
D17*
%TO.C,TP3*%
X62200000Y-114900000D03*
%TD*%
D40*
%TO.C,C4*%
X87587500Y-73700000D03*
X93812500Y-73700000D03*
%TD*%
D28*
%TO.C,R6*%
X98262500Y-115800000D03*
X95337500Y-115800000D03*
%TD*%
D22*
%TO.C,JP10*%
X84075000Y-93200000D03*
D23*
X85525000Y-93200000D03*
%TD*%
D31*
%TO.C,U1*%
X61725000Y-108195000D03*
X61725000Y-109465000D03*
X61725000Y-110735000D03*
X61725000Y-112005000D03*
X66675000Y-112005000D03*
X66675000Y-110735000D03*
X66675000Y-109465000D03*
X66675000Y-108195000D03*
%TD*%
D17*
%TO.C,TP11*%
X82537500Y-114800000D03*
%TD*%
D26*
%TO.C,JP26*%
X98300000Y-107375000D03*
D25*
X98300000Y-108825000D03*
%TD*%
D17*
%TO.C,TP8*%
X104400000Y-105000000D03*
%TD*%
D18*
%TO.C,J4*%
X98039200Y-124100000D03*
D19*
X101849200Y-124100000D03*
X105659200Y-124100000D03*
X109469200Y-124100000D03*
%TD*%
D28*
%TO.C,R12*%
X83262500Y-111000000D03*
X80337500Y-111000000D03*
%TD*%
D17*
%TO.C,TP12*%
X82500000Y-104950000D03*
%TD*%
D22*
%TO.C,JP18*%
X86175000Y-85200000D03*
D23*
X87625000Y-85200000D03*
%TD*%
D17*
%TO.C,TP6*%
X54800000Y-105000000D03*
%TD*%
D21*
%TO.C,C1*%
X65600000Y-104325000D03*
X65600000Y-105875000D03*
%TD*%
D32*
%TO.C,JP14*%
X89625000Y-93200000D03*
D33*
X88175000Y-93200000D03*
%TD*%
D41*
%TO.C,D1*%
X66990000Y-79100000D03*
D42*
X74610000Y-79100000D03*
%TD*%
M02*
