%TF.GenerationSoftware,KiCad,Pcbnew,6.0.11-2627ca5db0~126~ubuntu22.04.1*%
%TF.CreationDate,2023-09-22T10:59:18+02:00*%
%TF.ProjectId,nucleo_f302r8_extension,6e75636c-656f-45f6-9633-303272385f65,0.1*%
%TF.SameCoordinates,Original*%
%TF.FileFunction,Legend,Top*%
%TF.FilePolarity,Positive*%
%FSLAX46Y46*%
G04 Gerber Fmt 4.6, Leading zero omitted, Abs format (unit mm)*
G04 Created by KiCad (PCBNEW 6.0.11-2627ca5db0~126~ubuntu22.04.1) date 2023-09-22 10:59:18*
%MOMM*%
%LPD*%
G01*
G04 APERTURE LIST*
%ADD10C,0.080000*%
%ADD11C,0.050000*%
%ADD12C,0.150000*%
%ADD13C,0.120000*%
%ADD14C,0.300000*%
%ADD15C,0.200000*%
%ADD16C,0.250000*%
%ADD17C,0.100000*%
G04 APERTURE END LIST*
D10*
X111678400Y-121698800D02*
X111678400Y-120682800D01*
X78302800Y-120682800D02*
X45740000Y-120682800D01*
X78302800Y-121698800D02*
X78302800Y-120682800D01*
X79115600Y-120682800D02*
X79115600Y-121698800D01*
X111678400Y-120682800D02*
X79115600Y-120682800D01*
D11*
X86600000Y-100600000D02*
X79500000Y-100600000D01*
X79500000Y-100600000D02*
X79500000Y-88800000D01*
X79500000Y-88800000D02*
X86600000Y-88800000D01*
X86600000Y-88800000D02*
X86600000Y-100600000D01*
X94200000Y-100600000D02*
X87100000Y-100600000D01*
X87100000Y-100600000D02*
X87100000Y-88800000D01*
X87100000Y-88800000D02*
X94200000Y-88800000D01*
X94200000Y-88800000D02*
X94200000Y-100600000D01*
X67600000Y-100600000D02*
X61400000Y-100600000D01*
X61400000Y-100600000D02*
X61400000Y-88800000D01*
X61400000Y-88800000D02*
X67600000Y-88800000D01*
X67600000Y-88800000D02*
X67600000Y-100600000D01*
D10*
X45740000Y-120682800D02*
X45740000Y-121698800D01*
D11*
X74400000Y-100600000D02*
X68200000Y-100600000D01*
X68200000Y-100600000D02*
X68200000Y-88800000D01*
X68200000Y-88800000D02*
X74400000Y-88800000D01*
X74400000Y-88800000D02*
X74400000Y-100600000D01*
D12*
X63875695Y-120995600D02*
X63780457Y-120947980D01*
X63637600Y-120947980D01*
X63494742Y-120995600D01*
X63399504Y-121090838D01*
X63351885Y-121186076D01*
X63304266Y-121376552D01*
X63304266Y-121519409D01*
X63351885Y-121709885D01*
X63399504Y-121805123D01*
X63494742Y-121900361D01*
X63637600Y-121947980D01*
X63732838Y-121947980D01*
X63875695Y-121900361D01*
X63923314Y-121852742D01*
X63923314Y-121519409D01*
X63732838Y-121519409D01*
X64351885Y-121947980D02*
X64351885Y-120947980D01*
X64923314Y-121947980D01*
X64923314Y-120947980D01*
X65399504Y-121947980D02*
X65399504Y-120947980D01*
X65637600Y-120947980D01*
X65780457Y-120995600D01*
X65875695Y-121090838D01*
X65923314Y-121186076D01*
X65970933Y-121376552D01*
X65970933Y-121519409D01*
X65923314Y-121709885D01*
X65875695Y-121805123D01*
X65780457Y-121900361D01*
X65637600Y-121947980D01*
X65399504Y-121947980D01*
X75778704Y-121662266D02*
X76254895Y-121662266D01*
X75683466Y-121947980D02*
X76016800Y-120947980D01*
X76350133Y-121947980D01*
X47162495Y-120944800D02*
X47067257Y-120897180D01*
X46924400Y-120897180D01*
X46781542Y-120944800D01*
X46686304Y-121040038D01*
X46638685Y-121135276D01*
X46591066Y-121325752D01*
X46591066Y-121468609D01*
X46638685Y-121659085D01*
X46686304Y-121754323D01*
X46781542Y-121849561D01*
X46924400Y-121897180D01*
X47019638Y-121897180D01*
X47162495Y-121849561D01*
X47210114Y-121801942D01*
X47210114Y-121468609D01*
X47019638Y-121468609D01*
X47638685Y-121897180D02*
X47638685Y-120897180D01*
X48210114Y-121897180D01*
X48210114Y-120897180D01*
X48686304Y-121897180D02*
X48686304Y-120897180D01*
X48924400Y-120897180D01*
X49067257Y-120944800D01*
X49162495Y-121040038D01*
X49210114Y-121135276D01*
X49257733Y-121325752D01*
X49257733Y-121468609D01*
X49210114Y-121659085D01*
X49162495Y-121754323D01*
X49067257Y-121849561D01*
X48924400Y-121897180D01*
X48686304Y-121897180D01*
X109205104Y-121611466D02*
X109681295Y-121611466D01*
X109109866Y-121897180D02*
X109443200Y-120897180D01*
X109776533Y-121897180D01*
D13*
X78407142Y-97092857D02*
X79135714Y-97092857D01*
X79221428Y-97050000D01*
X79264285Y-97007142D01*
X79307142Y-96921428D01*
X79307142Y-96750000D01*
X79264285Y-96664285D01*
X79221428Y-96621428D01*
X79135714Y-96578571D01*
X78407142Y-96578571D01*
X79264285Y-96192857D02*
X79307142Y-96064285D01*
X79307142Y-95850000D01*
X79264285Y-95764285D01*
X79221428Y-95721428D01*
X79135714Y-95678571D01*
X79050000Y-95678571D01*
X78964285Y-95721428D01*
X78921428Y-95764285D01*
X78878571Y-95850000D01*
X78835714Y-96021428D01*
X78792857Y-96107142D01*
X78750000Y-96150000D01*
X78664285Y-96192857D01*
X78578571Y-96192857D01*
X78492857Y-96150000D01*
X78450000Y-96107142D01*
X78407142Y-96021428D01*
X78407142Y-95807142D01*
X78450000Y-95678571D01*
X79050000Y-95335714D02*
X79050000Y-94907142D01*
X79307142Y-95421428D02*
X78407142Y-95121428D01*
X79307142Y-94821428D01*
X79307142Y-94007142D02*
X78878571Y-94307142D01*
X79307142Y-94521428D02*
X78407142Y-94521428D01*
X78407142Y-94178571D01*
X78450000Y-94092857D01*
X78492857Y-94050000D01*
X78578571Y-94007142D01*
X78707142Y-94007142D01*
X78792857Y-94050000D01*
X78835714Y-94092857D01*
X78878571Y-94178571D01*
X78878571Y-94521428D01*
X78407142Y-93750000D02*
X78407142Y-93235714D01*
X79307142Y-93492857D02*
X78407142Y-93492857D01*
X78407142Y-93021428D02*
X78407142Y-92464285D01*
X78750000Y-92764285D01*
X78750000Y-92635714D01*
X78792857Y-92550000D01*
X78835714Y-92507142D01*
X78921428Y-92464285D01*
X79135714Y-92464285D01*
X79221428Y-92507142D01*
X79264285Y-92550000D01*
X79307142Y-92635714D01*
X79307142Y-92892857D01*
X79264285Y-92978571D01*
X79221428Y-93021428D01*
D12*
X55615828Y-121424171D02*
X55758685Y-121471790D01*
X55806304Y-121519409D01*
X55853923Y-121614647D01*
X55853923Y-121757504D01*
X55806304Y-121852742D01*
X55758685Y-121900361D01*
X55663447Y-121947980D01*
X55282495Y-121947980D01*
X55282495Y-120947980D01*
X55615828Y-120947980D01*
X55711066Y-120995600D01*
X55758685Y-121043219D01*
X55806304Y-121138457D01*
X55806304Y-121233695D01*
X55758685Y-121328933D01*
X55711066Y-121376552D01*
X55615828Y-121424171D01*
X55282495Y-121424171D01*
X67206323Y-120992419D02*
X67253942Y-120944800D01*
X67349180Y-120897180D01*
X67587276Y-120897180D01*
X67682514Y-120944800D01*
X67730133Y-120992419D01*
X67777752Y-121087657D01*
X67777752Y-121182895D01*
X67730133Y-121325752D01*
X67158704Y-121897180D01*
X67777752Y-121897180D01*
X68634895Y-121230514D02*
X68634895Y-121897180D01*
X68396800Y-120849561D02*
X68158704Y-121563847D01*
X68777752Y-121563847D01*
X69015847Y-120897180D02*
X69349180Y-121897180D01*
X69682514Y-120897180D01*
D14*
X61471428Y-85978571D02*
X60614285Y-85978571D01*
X61042857Y-85978571D02*
X61042857Y-84478571D01*
X60900000Y-84692857D01*
X60757142Y-84835714D01*
X60614285Y-84907142D01*
X62042857Y-84621428D02*
X62114285Y-84550000D01*
X62257142Y-84478571D01*
X62614285Y-84478571D01*
X62757142Y-84550000D01*
X62828571Y-84621428D01*
X62900000Y-84764285D01*
X62900000Y-84907142D01*
X62828571Y-85121428D01*
X61971428Y-85978571D01*
X62900000Y-85978571D01*
X63328571Y-84478571D02*
X63828571Y-85978571D01*
X64328571Y-84478571D01*
D12*
X59065504Y-121611466D02*
X59541695Y-121611466D01*
X58970266Y-121897180D02*
X59303600Y-120897180D01*
X59636933Y-121897180D01*
X72329028Y-121474971D02*
X72471885Y-121522590D01*
X72519504Y-121570209D01*
X72567123Y-121665447D01*
X72567123Y-121808304D01*
X72519504Y-121903542D01*
X72471885Y-121951161D01*
X72376647Y-121998780D01*
X71995695Y-121998780D01*
X71995695Y-120998780D01*
X72329028Y-120998780D01*
X72424266Y-121046400D01*
X72471885Y-121094019D01*
X72519504Y-121189257D01*
X72519504Y-121284495D01*
X72471885Y-121379733D01*
X72424266Y-121427352D01*
X72329028Y-121474971D01*
X71995695Y-121474971D01*
X50493123Y-120941619D02*
X50540742Y-120894000D01*
X50635980Y-120846380D01*
X50874076Y-120846380D01*
X50969314Y-120894000D01*
X51016933Y-120941619D01*
X51064552Y-121036857D01*
X51064552Y-121132095D01*
X51016933Y-121274952D01*
X50445504Y-121846380D01*
X51064552Y-121846380D01*
X51921695Y-121179714D02*
X51921695Y-121846380D01*
X51683600Y-120798761D02*
X51445504Y-121513047D01*
X52064552Y-121513047D01*
X52302647Y-120846380D02*
X52635980Y-121846380D01*
X52969314Y-120846380D01*
D14*
X89014285Y-81121428D02*
X89085714Y-81050000D01*
X89228571Y-80978571D01*
X89585714Y-80978571D01*
X89728571Y-81050000D01*
X89800000Y-81121428D01*
X89871428Y-81264285D01*
X89871428Y-81407142D01*
X89800000Y-81621428D01*
X88942857Y-82478571D01*
X89871428Y-82478571D01*
X91157142Y-81478571D02*
X91157142Y-82478571D01*
X90800000Y-80907142D02*
X90442857Y-81978571D01*
X91371428Y-81978571D01*
X91728571Y-80978571D02*
X92228571Y-82478571D01*
X92728571Y-80978571D01*
D15*
X89642857Y-85542857D02*
X89242857Y-84971428D01*
X88957142Y-85542857D02*
X88957142Y-84342857D01*
X89414285Y-84342857D01*
X89528571Y-84400000D01*
X89585714Y-84457142D01*
X89642857Y-84571428D01*
X89642857Y-84742857D01*
X89585714Y-84857142D01*
X89528571Y-84914285D01*
X89414285Y-84971428D01*
X88957142Y-84971428D01*
X90100000Y-85485714D02*
X90271428Y-85542857D01*
X90557142Y-85542857D01*
X90671428Y-85485714D01*
X90728571Y-85428571D01*
X90785714Y-85314285D01*
X90785714Y-85200000D01*
X90728571Y-85085714D01*
X90671428Y-85028571D01*
X90557142Y-84971428D01*
X90328571Y-84914285D01*
X90214285Y-84857142D01*
X90157142Y-84800000D01*
X90100000Y-84685714D01*
X90100000Y-84571428D01*
X90157142Y-84457142D01*
X90214285Y-84400000D01*
X90328571Y-84342857D01*
X90614285Y-84342857D01*
X90785714Y-84400000D01*
X91128571Y-84342857D02*
X91814285Y-84342857D01*
X91471428Y-85542857D02*
X91471428Y-84342857D01*
D13*
X94607142Y-97092857D02*
X95335714Y-97092857D01*
X95421428Y-97050000D01*
X95464285Y-97007142D01*
X95507142Y-96921428D01*
X95507142Y-96750000D01*
X95464285Y-96664285D01*
X95421428Y-96621428D01*
X95335714Y-96578571D01*
X94607142Y-96578571D01*
X95464285Y-96192857D02*
X95507142Y-96064285D01*
X95507142Y-95850000D01*
X95464285Y-95764285D01*
X95421428Y-95721428D01*
X95335714Y-95678571D01*
X95250000Y-95678571D01*
X95164285Y-95721428D01*
X95121428Y-95764285D01*
X95078571Y-95850000D01*
X95035714Y-96021428D01*
X94992857Y-96107142D01*
X94950000Y-96150000D01*
X94864285Y-96192857D01*
X94778571Y-96192857D01*
X94692857Y-96150000D01*
X94650000Y-96107142D01*
X94607142Y-96021428D01*
X94607142Y-95807142D01*
X94650000Y-95678571D01*
X95250000Y-95335714D02*
X95250000Y-94907142D01*
X95507142Y-95421428D02*
X94607142Y-95121428D01*
X95507142Y-94821428D01*
X95507142Y-94007142D02*
X95078571Y-94307142D01*
X95507142Y-94521428D02*
X94607142Y-94521428D01*
X94607142Y-94178571D01*
X94650000Y-94092857D01*
X94692857Y-94050000D01*
X94778571Y-94007142D01*
X94907142Y-94007142D01*
X94992857Y-94050000D01*
X95035714Y-94092857D01*
X95078571Y-94178571D01*
X95078571Y-94521428D01*
X94607142Y-93750000D02*
X94607142Y-93235714D01*
X95507142Y-93492857D02*
X94607142Y-93492857D01*
X95507142Y-92464285D02*
X95507142Y-92978571D01*
X95507142Y-92721428D02*
X94607142Y-92721428D01*
X94735714Y-92807142D01*
X94821428Y-92892857D01*
X94864285Y-92978571D01*
D12*
X89042228Y-121474971D02*
X89185085Y-121522590D01*
X89232704Y-121570209D01*
X89280323Y-121665447D01*
X89280323Y-121808304D01*
X89232704Y-121903542D01*
X89185085Y-121951161D01*
X89089847Y-121998780D01*
X88708895Y-121998780D01*
X88708895Y-120998780D01*
X89042228Y-120998780D01*
X89137466Y-121046400D01*
X89185085Y-121094019D01*
X89232704Y-121189257D01*
X89232704Y-121284495D01*
X89185085Y-121379733D01*
X89137466Y-121427352D01*
X89042228Y-121474971D01*
X88708895Y-121474971D01*
X83919523Y-120992419D02*
X83967142Y-120944800D01*
X84062380Y-120897180D01*
X84300476Y-120897180D01*
X84395714Y-120944800D01*
X84443333Y-120992419D01*
X84490952Y-121087657D01*
X84490952Y-121182895D01*
X84443333Y-121325752D01*
X83871904Y-121897180D01*
X84490952Y-121897180D01*
X85348095Y-121230514D02*
X85348095Y-121897180D01*
X85110000Y-120849561D02*
X84871904Y-121563847D01*
X85490952Y-121563847D01*
X85729047Y-120897180D02*
X86062380Y-121897180D01*
X86395714Y-120897180D01*
D16*
X91585714Y-119907142D02*
X91800000Y-119978571D01*
X92157142Y-119978571D01*
X92300000Y-119907142D01*
X92371428Y-119835714D01*
X92442857Y-119692857D01*
X92442857Y-119550000D01*
X92371428Y-119407142D01*
X92300000Y-119335714D01*
X92157142Y-119264285D01*
X91871428Y-119192857D01*
X91728571Y-119121428D01*
X91657142Y-119050000D01*
X91585714Y-118907142D01*
X91585714Y-118764285D01*
X91657142Y-118621428D01*
X91728571Y-118550000D01*
X91871428Y-118478571D01*
X92228571Y-118478571D01*
X92442857Y-118550000D01*
X93800000Y-119978571D02*
X93085714Y-119978571D01*
X93085714Y-118478571D01*
X94228571Y-119550000D02*
X94942857Y-119550000D01*
X94085714Y-119978571D02*
X94585714Y-118478571D01*
X95085714Y-119978571D01*
X95371428Y-118478571D02*
X95871428Y-119978571D01*
X96371428Y-118478571D01*
X96871428Y-119192857D02*
X97371428Y-119192857D01*
X97585714Y-119978571D02*
X96871428Y-119978571D01*
X96871428Y-118478571D01*
X97585714Y-118478571D01*
X98157142Y-119907142D02*
X98371428Y-119978571D01*
X98728571Y-119978571D01*
X98871428Y-119907142D01*
X98942857Y-119835714D01*
X99014285Y-119692857D01*
X99014285Y-119550000D01*
X98942857Y-119407142D01*
X98871428Y-119335714D01*
X98728571Y-119264285D01*
X98442857Y-119192857D01*
X98300000Y-119121428D01*
X98228571Y-119050000D01*
X98157142Y-118907142D01*
X98157142Y-118764285D01*
X98228571Y-118621428D01*
X98300000Y-118550000D01*
X98442857Y-118478571D01*
X98800000Y-118478571D01*
X99014285Y-118550000D01*
D13*
X74707142Y-97092857D02*
X75435714Y-97092857D01*
X75521428Y-97050000D01*
X75564285Y-97007142D01*
X75607142Y-96921428D01*
X75607142Y-96750000D01*
X75564285Y-96664285D01*
X75521428Y-96621428D01*
X75435714Y-96578571D01*
X74707142Y-96578571D01*
X75564285Y-96192857D02*
X75607142Y-96064285D01*
X75607142Y-95850000D01*
X75564285Y-95764285D01*
X75521428Y-95721428D01*
X75435714Y-95678571D01*
X75350000Y-95678571D01*
X75264285Y-95721428D01*
X75221428Y-95764285D01*
X75178571Y-95850000D01*
X75135714Y-96021428D01*
X75092857Y-96107142D01*
X75050000Y-96150000D01*
X74964285Y-96192857D01*
X74878571Y-96192857D01*
X74792857Y-96150000D01*
X74750000Y-96107142D01*
X74707142Y-96021428D01*
X74707142Y-95807142D01*
X74750000Y-95678571D01*
X75350000Y-95335714D02*
X75350000Y-94907142D01*
X75607142Y-95421428D02*
X74707142Y-95121428D01*
X75607142Y-94821428D01*
X75607142Y-94007142D02*
X75178571Y-94307142D01*
X75607142Y-94521428D02*
X74707142Y-94521428D01*
X74707142Y-94178571D01*
X74750000Y-94092857D01*
X74792857Y-94050000D01*
X74878571Y-94007142D01*
X75007142Y-94007142D01*
X75092857Y-94050000D01*
X75135714Y-94092857D01*
X75178571Y-94178571D01*
X75178571Y-94521428D01*
X74707142Y-93750000D02*
X74707142Y-93235714D01*
X75607142Y-93492857D02*
X74707142Y-93492857D01*
X74707142Y-93021428D02*
X74707142Y-92464285D01*
X75050000Y-92764285D01*
X75050000Y-92635714D01*
X75092857Y-92550000D01*
X75135714Y-92507142D01*
X75221428Y-92464285D01*
X75435714Y-92464285D01*
X75521428Y-92507142D01*
X75564285Y-92550000D01*
X75607142Y-92635714D01*
X75607142Y-92892857D01*
X75564285Y-92978571D01*
X75521428Y-93021428D01*
D12*
X92491904Y-121662266D02*
X92968095Y-121662266D01*
X92396666Y-121947980D02*
X92730000Y-120947980D01*
X93063333Y-121947980D01*
X97302095Y-120944800D02*
X97206857Y-120897180D01*
X97064000Y-120897180D01*
X96921142Y-120944800D01*
X96825904Y-121040038D01*
X96778285Y-121135276D01*
X96730666Y-121325752D01*
X96730666Y-121468609D01*
X96778285Y-121659085D01*
X96825904Y-121754323D01*
X96921142Y-121849561D01*
X97064000Y-121897180D01*
X97159238Y-121897180D01*
X97302095Y-121849561D01*
X97349714Y-121801942D01*
X97349714Y-121468609D01*
X97159238Y-121468609D01*
X97778285Y-121897180D02*
X97778285Y-120897180D01*
X98349714Y-121897180D01*
X98349714Y-120897180D01*
X98825904Y-121897180D02*
X98825904Y-120897180D01*
X99064000Y-120897180D01*
X99206857Y-120944800D01*
X99302095Y-121040038D01*
X99349714Y-121135276D01*
X99397333Y-121325752D01*
X99397333Y-121468609D01*
X99349714Y-121659085D01*
X99302095Y-121754323D01*
X99206857Y-121849561D01*
X99064000Y-121897180D01*
X98825904Y-121897180D01*
X105755428Y-121424171D02*
X105898285Y-121471790D01*
X105945904Y-121519409D01*
X105993523Y-121614647D01*
X105993523Y-121757504D01*
X105945904Y-121852742D01*
X105898285Y-121900361D01*
X105803047Y-121947980D01*
X105422095Y-121947980D01*
X105422095Y-120947980D01*
X105755428Y-120947980D01*
X105850666Y-120995600D01*
X105898285Y-121043219D01*
X105945904Y-121138457D01*
X105945904Y-121233695D01*
X105898285Y-121328933D01*
X105850666Y-121376552D01*
X105755428Y-121424171D01*
X105422095Y-121424171D01*
D16*
X58142857Y-119978571D02*
X58142857Y-118478571D01*
X58642857Y-119550000D01*
X59142857Y-118478571D01*
X59142857Y-119978571D01*
X59785714Y-119550000D02*
X60500000Y-119550000D01*
X59642857Y-119978571D02*
X60142857Y-118478571D01*
X60642857Y-119978571D01*
X61071428Y-119907142D02*
X61285714Y-119978571D01*
X61642857Y-119978571D01*
X61785714Y-119907142D01*
X61857142Y-119835714D01*
X61928571Y-119692857D01*
X61928571Y-119550000D01*
X61857142Y-119407142D01*
X61785714Y-119335714D01*
X61642857Y-119264285D01*
X61357142Y-119192857D01*
X61214285Y-119121428D01*
X61142857Y-119050000D01*
X61071428Y-118907142D01*
X61071428Y-118764285D01*
X61142857Y-118621428D01*
X61214285Y-118550000D01*
X61357142Y-118478571D01*
X61714285Y-118478571D01*
X61928571Y-118550000D01*
X62357142Y-118478571D02*
X63214285Y-118478571D01*
X62785714Y-119978571D02*
X62785714Y-118478571D01*
X63714285Y-119192857D02*
X64214285Y-119192857D01*
X64428571Y-119978571D02*
X63714285Y-119978571D01*
X63714285Y-118478571D01*
X64428571Y-118478571D01*
X65928571Y-119978571D02*
X65428571Y-119264285D01*
X65071428Y-119978571D02*
X65071428Y-118478571D01*
X65642857Y-118478571D01*
X65785714Y-118550000D01*
X65857142Y-118621428D01*
X65928571Y-118764285D01*
X65928571Y-118978571D01*
X65857142Y-119121428D01*
X65785714Y-119192857D01*
X65642857Y-119264285D01*
X65071428Y-119264285D01*
D13*
X60207142Y-97092857D02*
X60935714Y-97092857D01*
X61021428Y-97050000D01*
X61064285Y-97007142D01*
X61107142Y-96921428D01*
X61107142Y-96750000D01*
X61064285Y-96664285D01*
X61021428Y-96621428D01*
X60935714Y-96578571D01*
X60207142Y-96578571D01*
X61064285Y-96192857D02*
X61107142Y-96064285D01*
X61107142Y-95850000D01*
X61064285Y-95764285D01*
X61021428Y-95721428D01*
X60935714Y-95678571D01*
X60850000Y-95678571D01*
X60764285Y-95721428D01*
X60721428Y-95764285D01*
X60678571Y-95850000D01*
X60635714Y-96021428D01*
X60592857Y-96107142D01*
X60550000Y-96150000D01*
X60464285Y-96192857D01*
X60378571Y-96192857D01*
X60292857Y-96150000D01*
X60250000Y-96107142D01*
X60207142Y-96021428D01*
X60207142Y-95807142D01*
X60250000Y-95678571D01*
X60850000Y-95335714D02*
X60850000Y-94907142D01*
X61107142Y-95421428D02*
X60207142Y-95121428D01*
X61107142Y-94821428D01*
X61107142Y-94007142D02*
X60678571Y-94307142D01*
X61107142Y-94521428D02*
X60207142Y-94521428D01*
X60207142Y-94178571D01*
X60250000Y-94092857D01*
X60292857Y-94050000D01*
X60378571Y-94007142D01*
X60507142Y-94007142D01*
X60592857Y-94050000D01*
X60635714Y-94092857D01*
X60678571Y-94178571D01*
X60678571Y-94521428D01*
X60207142Y-93750000D02*
X60207142Y-93235714D01*
X61107142Y-93492857D02*
X60207142Y-93492857D01*
X60292857Y-92978571D02*
X60250000Y-92935714D01*
X60207142Y-92850000D01*
X60207142Y-92635714D01*
X60250000Y-92550000D01*
X60292857Y-92507142D01*
X60378571Y-92464285D01*
X60464285Y-92464285D01*
X60592857Y-92507142D01*
X61107142Y-93021428D01*
X61107142Y-92464285D01*
D12*
X100632723Y-120941619D02*
X100680342Y-120894000D01*
X100775580Y-120846380D01*
X101013676Y-120846380D01*
X101108914Y-120894000D01*
X101156533Y-120941619D01*
X101204152Y-121036857D01*
X101204152Y-121132095D01*
X101156533Y-121274952D01*
X100585104Y-121846380D01*
X101204152Y-121846380D01*
X102061295Y-121179714D02*
X102061295Y-121846380D01*
X101823200Y-120798761D02*
X101585104Y-121513047D01*
X102204152Y-121513047D01*
X102442247Y-120846380D02*
X102775580Y-121846380D01*
X103108914Y-120846380D01*
X80588895Y-120995600D02*
X80493657Y-120947980D01*
X80350800Y-120947980D01*
X80207942Y-120995600D01*
X80112704Y-121090838D01*
X80065085Y-121186076D01*
X80017466Y-121376552D01*
X80017466Y-121519409D01*
X80065085Y-121709885D01*
X80112704Y-121805123D01*
X80207942Y-121900361D01*
X80350800Y-121947980D01*
X80446038Y-121947980D01*
X80588895Y-121900361D01*
X80636514Y-121852742D01*
X80636514Y-121519409D01*
X80446038Y-121519409D01*
X81065085Y-121947980D02*
X81065085Y-120947980D01*
X81636514Y-121947980D01*
X81636514Y-120947980D01*
X82112704Y-121947980D02*
X82112704Y-120947980D01*
X82350800Y-120947980D01*
X82493657Y-120995600D01*
X82588895Y-121090838D01*
X82636514Y-121186076D01*
X82684133Y-121376552D01*
X82684133Y-121519409D01*
X82636514Y-121709885D01*
X82588895Y-121805123D01*
X82493657Y-121900361D01*
X82350800Y-121947980D01*
X82112704Y-121947980D01*
%TO.C,JP17*%
X57652380Y-81509523D02*
X58366666Y-81509523D01*
X58509523Y-81557142D01*
X58604761Y-81652380D01*
X58652380Y-81795238D01*
X58652380Y-81890476D01*
X58652380Y-81033333D02*
X57652380Y-81033333D01*
X57652380Y-80652380D01*
X57700000Y-80557142D01*
X57747619Y-80509523D01*
X57842857Y-80461904D01*
X57985714Y-80461904D01*
X58080952Y-80509523D01*
X58128571Y-80557142D01*
X58176190Y-80652380D01*
X58176190Y-81033333D01*
X58652380Y-79509523D02*
X58652380Y-80080952D01*
X58652380Y-79795238D02*
X57652380Y-79795238D01*
X57795238Y-79890476D01*
X57890476Y-79985714D01*
X57938095Y-80080952D01*
X57652380Y-79176190D02*
X57652380Y-78509523D01*
X58652380Y-78938095D01*
%TO.C,TP2*%
X74738095Y-101852380D02*
X75309523Y-101852380D01*
X75023809Y-102852380D02*
X75023809Y-101852380D01*
X75642857Y-102852380D02*
X75642857Y-101852380D01*
X76023809Y-101852380D01*
X76119047Y-101900000D01*
X76166666Y-101947619D01*
X76214285Y-102042857D01*
X76214285Y-102185714D01*
X76166666Y-102280952D01*
X76119047Y-102328571D01*
X76023809Y-102376190D01*
X75642857Y-102376190D01*
X76595238Y-101947619D02*
X76642857Y-101900000D01*
X76738095Y-101852380D01*
X76976190Y-101852380D01*
X77071428Y-101900000D01*
X77119047Y-101947619D01*
X77166666Y-102042857D01*
X77166666Y-102138095D01*
X77119047Y-102280952D01*
X76547619Y-102852380D01*
X77166666Y-102852380D01*
%TO.C,J1*%
X44252380Y-124433333D02*
X44966666Y-124433333D01*
X45109523Y-124480952D01*
X45204761Y-124576190D01*
X45252380Y-124719047D01*
X45252380Y-124814285D01*
X45252380Y-123433333D02*
X45252380Y-124004761D01*
X45252380Y-123719047D02*
X44252380Y-123719047D01*
X44395238Y-123814285D01*
X44490476Y-123909523D01*
X44538095Y-124004761D01*
%TO.C,R2*%
X75752380Y-110266666D02*
X75276190Y-110600000D01*
X75752380Y-110838095D02*
X74752380Y-110838095D01*
X74752380Y-110457142D01*
X74800000Y-110361904D01*
X74847619Y-110314285D01*
X74942857Y-110266666D01*
X75085714Y-110266666D01*
X75180952Y-110314285D01*
X75228571Y-110361904D01*
X75276190Y-110457142D01*
X75276190Y-110838095D01*
X74847619Y-109885714D02*
X74800000Y-109838095D01*
X74752380Y-109742857D01*
X74752380Y-109504761D01*
X74800000Y-109409523D01*
X74847619Y-109361904D01*
X74942857Y-109314285D01*
X75038095Y-109314285D01*
X75180952Y-109361904D01*
X75752380Y-109933333D01*
X75752380Y-109314285D01*
%TO.C,C2*%
X93570833Y-102920342D02*
X93523214Y-102967961D01*
X93380357Y-103015580D01*
X93285119Y-103015580D01*
X93142261Y-102967961D01*
X93047023Y-102872723D01*
X92999404Y-102777485D01*
X92951785Y-102587009D01*
X92951785Y-102444152D01*
X92999404Y-102253676D01*
X93047023Y-102158438D01*
X93142261Y-102063200D01*
X93285119Y-102015580D01*
X93380357Y-102015580D01*
X93523214Y-102063200D01*
X93570833Y-102110819D01*
X93951785Y-102110819D02*
X93999404Y-102063200D01*
X94094642Y-102015580D01*
X94332738Y-102015580D01*
X94427976Y-102063200D01*
X94475595Y-102110819D01*
X94523214Y-102206057D01*
X94523214Y-102301295D01*
X94475595Y-102444152D01*
X93904166Y-103015580D01*
X94523214Y-103015580D01*
%TO.C,JP9*%
X80866666Y-98652380D02*
X80866666Y-99366666D01*
X80819047Y-99509523D01*
X80723809Y-99604761D01*
X80580952Y-99652380D01*
X80485714Y-99652380D01*
X81342857Y-99652380D02*
X81342857Y-98652380D01*
X81723809Y-98652380D01*
X81819047Y-98700000D01*
X81866666Y-98747619D01*
X81914285Y-98842857D01*
X81914285Y-98985714D01*
X81866666Y-99080952D01*
X81819047Y-99128571D01*
X81723809Y-99176190D01*
X81342857Y-99176190D01*
X82390476Y-99652380D02*
X82580952Y-99652380D01*
X82676190Y-99604761D01*
X82723809Y-99557142D01*
X82819047Y-99414285D01*
X82866666Y-99223809D01*
X82866666Y-98842857D01*
X82819047Y-98747619D01*
X82771428Y-98700000D01*
X82676190Y-98652380D01*
X82485714Y-98652380D01*
X82390476Y-98700000D01*
X82342857Y-98747619D01*
X82295238Y-98842857D01*
X82295238Y-99080952D01*
X82342857Y-99176190D01*
X82390476Y-99223809D01*
X82485714Y-99271428D01*
X82676190Y-99271428D01*
X82771428Y-99223809D01*
X82819047Y-99176190D01*
X82866666Y-99080952D01*
%TO.C,TP9*%
X88875595Y-116752380D02*
X89447023Y-116752380D01*
X89161309Y-117752380D02*
X89161309Y-116752380D01*
X89780357Y-117752380D02*
X89780357Y-116752380D01*
X90161309Y-116752380D01*
X90256547Y-116800000D01*
X90304166Y-116847619D01*
X90351785Y-116942857D01*
X90351785Y-117085714D01*
X90304166Y-117180952D01*
X90256547Y-117228571D01*
X90161309Y-117276190D01*
X89780357Y-117276190D01*
X90827976Y-117752380D02*
X91018452Y-117752380D01*
X91113690Y-117704761D01*
X91161309Y-117657142D01*
X91256547Y-117514285D01*
X91304166Y-117323809D01*
X91304166Y-116942857D01*
X91256547Y-116847619D01*
X91208928Y-116800000D01*
X91113690Y-116752380D01*
X90923214Y-116752380D01*
X90827976Y-116800000D01*
X90780357Y-116847619D01*
X90732738Y-116942857D01*
X90732738Y-117180952D01*
X90780357Y-117276190D01*
X90827976Y-117323809D01*
X90923214Y-117371428D01*
X91113690Y-117371428D01*
X91208928Y-117323809D01*
X91256547Y-117276190D01*
X91304166Y-117180952D01*
%TO.C,J10*%
X103690476Y-70252380D02*
X103690476Y-70966666D01*
X103642857Y-71109523D01*
X103547619Y-71204761D01*
X103404761Y-71252380D01*
X103309523Y-71252380D01*
X104690476Y-71252380D02*
X104119047Y-71252380D01*
X104404761Y-71252380D02*
X104404761Y-70252380D01*
X104309523Y-70395238D01*
X104214285Y-70490476D01*
X104119047Y-70538095D01*
X105309523Y-70252380D02*
X105404761Y-70252380D01*
X105500000Y-70300000D01*
X105547619Y-70347619D01*
X105595238Y-70442857D01*
X105642857Y-70633333D01*
X105642857Y-70871428D01*
X105595238Y-71061904D01*
X105547619Y-71157142D01*
X105500000Y-71204761D01*
X105404761Y-71252380D01*
X105309523Y-71252380D01*
X105214285Y-71204761D01*
X105166666Y-71157142D01*
X105119047Y-71061904D01*
X105071428Y-70871428D01*
X105071428Y-70633333D01*
X105119047Y-70442857D01*
X105166666Y-70347619D01*
X105214285Y-70300000D01*
X105309523Y-70252380D01*
D17*
%TO.C,J2*%
X77416666Y-121933333D02*
X77916666Y-121933333D01*
X78016666Y-121966666D01*
X78083333Y-122033333D01*
X78116666Y-122133333D01*
X78116666Y-122200000D01*
X77483333Y-121633333D02*
X77450000Y-121600000D01*
X77416666Y-121533333D01*
X77416666Y-121366666D01*
X77450000Y-121300000D01*
X77483333Y-121266666D01*
X77550000Y-121233333D01*
X77616666Y-121233333D01*
X77716666Y-121266666D01*
X78116666Y-121666666D01*
X78116666Y-121233333D01*
D12*
%TO.C,R7*%
X89852380Y-78866666D02*
X89376190Y-79200000D01*
X89852380Y-79438095D02*
X88852380Y-79438095D01*
X88852380Y-79057142D01*
X88900000Y-78961904D01*
X88947619Y-78914285D01*
X89042857Y-78866666D01*
X89185714Y-78866666D01*
X89280952Y-78914285D01*
X89328571Y-78961904D01*
X89376190Y-79057142D01*
X89376190Y-79438095D01*
X88852380Y-78533333D02*
X88852380Y-77866666D01*
X89852380Y-78295238D01*
%TO.C,JP20*%
X57090476Y-114252380D02*
X57090476Y-114966666D01*
X57042857Y-115109523D01*
X56947619Y-115204761D01*
X56804761Y-115252380D01*
X56709523Y-115252380D01*
X57566666Y-115252380D02*
X57566666Y-114252380D01*
X57947619Y-114252380D01*
X58042857Y-114300000D01*
X58090476Y-114347619D01*
X58138095Y-114442857D01*
X58138095Y-114585714D01*
X58090476Y-114680952D01*
X58042857Y-114728571D01*
X57947619Y-114776190D01*
X57566666Y-114776190D01*
X58519047Y-114347619D02*
X58566666Y-114300000D01*
X58661904Y-114252380D01*
X58900000Y-114252380D01*
X58995238Y-114300000D01*
X59042857Y-114347619D01*
X59090476Y-114442857D01*
X59090476Y-114538095D01*
X59042857Y-114680952D01*
X58471428Y-115252380D01*
X59090476Y-115252380D01*
X59709523Y-114252380D02*
X59804761Y-114252380D01*
X59900000Y-114300000D01*
X59947619Y-114347619D01*
X59995238Y-114442857D01*
X60042857Y-114633333D01*
X60042857Y-114871428D01*
X59995238Y-115061904D01*
X59947619Y-115157142D01*
X59900000Y-115204761D01*
X59804761Y-115252380D01*
X59709523Y-115252380D01*
X59614285Y-115204761D01*
X59566666Y-115157142D01*
X59519047Y-115061904D01*
X59471428Y-114871428D01*
X59471428Y-114633333D01*
X59519047Y-114442857D01*
X59566666Y-114347619D01*
X59614285Y-114300000D01*
X59709523Y-114252380D01*
%TO.C,TP13*%
X78461904Y-87052380D02*
X79033333Y-87052380D01*
X78747619Y-88052380D02*
X78747619Y-87052380D01*
X79366666Y-88052380D02*
X79366666Y-87052380D01*
X79747619Y-87052380D01*
X79842857Y-87100000D01*
X79890476Y-87147619D01*
X79938095Y-87242857D01*
X79938095Y-87385714D01*
X79890476Y-87480952D01*
X79842857Y-87528571D01*
X79747619Y-87576190D01*
X79366666Y-87576190D01*
X80890476Y-88052380D02*
X80319047Y-88052380D01*
X80604761Y-88052380D02*
X80604761Y-87052380D01*
X80509523Y-87195238D01*
X80414285Y-87290476D01*
X80319047Y-87338095D01*
X81223809Y-87052380D02*
X81842857Y-87052380D01*
X81509523Y-87433333D01*
X81652380Y-87433333D01*
X81747619Y-87480952D01*
X81795238Y-87528571D01*
X81842857Y-87623809D01*
X81842857Y-87861904D01*
X81795238Y-87957142D01*
X81747619Y-88004761D01*
X81652380Y-88052380D01*
X81366666Y-88052380D01*
X81271428Y-88004761D01*
X81223809Y-87957142D01*
%TO.C,LED2*%
X66780952Y-83552380D02*
X66304761Y-83552380D01*
X66304761Y-82552380D01*
X67114285Y-83028571D02*
X67447619Y-83028571D01*
X67590476Y-83552380D02*
X67114285Y-83552380D01*
X67114285Y-82552380D01*
X67590476Y-82552380D01*
X68019047Y-83552380D02*
X68019047Y-82552380D01*
X68257142Y-82552380D01*
X68400000Y-82600000D01*
X68495238Y-82695238D01*
X68542857Y-82790476D01*
X68590476Y-82980952D01*
X68590476Y-83123809D01*
X68542857Y-83314285D01*
X68495238Y-83409523D01*
X68400000Y-83504761D01*
X68257142Y-83552380D01*
X68019047Y-83552380D01*
X68971428Y-82647619D02*
X69019047Y-82600000D01*
X69114285Y-82552380D01*
X69352380Y-82552380D01*
X69447619Y-82600000D01*
X69495238Y-82647619D01*
X69542857Y-82742857D01*
X69542857Y-82838095D01*
X69495238Y-82980952D01*
X68923809Y-83552380D01*
X69542857Y-83552380D01*
%TO.C,JP4*%
X62016666Y-89652380D02*
X62016666Y-90366666D01*
X61969047Y-90509523D01*
X61873809Y-90604761D01*
X61730952Y-90652380D01*
X61635714Y-90652380D01*
X62492857Y-90652380D02*
X62492857Y-89652380D01*
X62873809Y-89652380D01*
X62969047Y-89700000D01*
X63016666Y-89747619D01*
X63064285Y-89842857D01*
X63064285Y-89985714D01*
X63016666Y-90080952D01*
X62969047Y-90128571D01*
X62873809Y-90176190D01*
X62492857Y-90176190D01*
X63921428Y-89985714D02*
X63921428Y-90652380D01*
X63683333Y-89604761D02*
X63445238Y-90319047D01*
X64064285Y-90319047D01*
%TO.C,R9*%
X53833333Y-107652380D02*
X53500000Y-107176190D01*
X53261904Y-107652380D02*
X53261904Y-106652380D01*
X53642857Y-106652380D01*
X53738095Y-106700000D01*
X53785714Y-106747619D01*
X53833333Y-106842857D01*
X53833333Y-106985714D01*
X53785714Y-107080952D01*
X53738095Y-107128571D01*
X53642857Y-107176190D01*
X53261904Y-107176190D01*
X54309523Y-107652380D02*
X54500000Y-107652380D01*
X54595238Y-107604761D01*
X54642857Y-107557142D01*
X54738095Y-107414285D01*
X54785714Y-107223809D01*
X54785714Y-106842857D01*
X54738095Y-106747619D01*
X54690476Y-106700000D01*
X54595238Y-106652380D01*
X54404761Y-106652380D01*
X54309523Y-106700000D01*
X54261904Y-106747619D01*
X54214285Y-106842857D01*
X54214285Y-107080952D01*
X54261904Y-107176190D01*
X54309523Y-107223809D01*
X54404761Y-107271428D01*
X54595238Y-107271428D01*
X54690476Y-107223809D01*
X54738095Y-107176190D01*
X54785714Y-107080952D01*
%TO.C,U3*%
X79538095Y-82356380D02*
X79538095Y-83165904D01*
X79585714Y-83261142D01*
X79633333Y-83308761D01*
X79728571Y-83356380D01*
X79919047Y-83356380D01*
X80014285Y-83308761D01*
X80061904Y-83261142D01*
X80109523Y-83165904D01*
X80109523Y-82356380D01*
X80490476Y-82356380D02*
X81109523Y-82356380D01*
X80776190Y-82737333D01*
X80919047Y-82737333D01*
X81014285Y-82784952D01*
X81061904Y-82832571D01*
X81109523Y-82927809D01*
X81109523Y-83165904D01*
X81061904Y-83261142D01*
X81014285Y-83308761D01*
X80919047Y-83356380D01*
X80633333Y-83356380D01*
X80538095Y-83308761D01*
X80490476Y-83261142D01*
%TO.C,R3*%
X68633333Y-118152380D02*
X68300000Y-117676190D01*
X68061904Y-118152380D02*
X68061904Y-117152380D01*
X68442857Y-117152380D01*
X68538095Y-117200000D01*
X68585714Y-117247619D01*
X68633333Y-117342857D01*
X68633333Y-117485714D01*
X68585714Y-117580952D01*
X68538095Y-117628571D01*
X68442857Y-117676190D01*
X68061904Y-117676190D01*
X68966666Y-117152380D02*
X69585714Y-117152380D01*
X69252380Y-117533333D01*
X69395238Y-117533333D01*
X69490476Y-117580952D01*
X69538095Y-117628571D01*
X69585714Y-117723809D01*
X69585714Y-117961904D01*
X69538095Y-118057142D01*
X69490476Y-118104761D01*
X69395238Y-118152380D01*
X69109523Y-118152380D01*
X69014285Y-118104761D01*
X68966666Y-118057142D01*
D17*
%TO.C,J3*%
X94060666Y-121932133D02*
X94560666Y-121932133D01*
X94660666Y-121965466D01*
X94727333Y-122032133D01*
X94760666Y-122132133D01*
X94760666Y-122198800D01*
X94060666Y-121665466D02*
X94060666Y-121232133D01*
X94327333Y-121465466D01*
X94327333Y-121365466D01*
X94360666Y-121298800D01*
X94394000Y-121265466D01*
X94460666Y-121232133D01*
X94627333Y-121232133D01*
X94694000Y-121265466D01*
X94727333Y-121298800D01*
X94760666Y-121365466D01*
X94760666Y-121565466D01*
X94727333Y-121632133D01*
X94694000Y-121665466D01*
D12*
%TO.C,JP3*%
X62016666Y-95652380D02*
X62016666Y-96366666D01*
X61969047Y-96509523D01*
X61873809Y-96604761D01*
X61730952Y-96652380D01*
X61635714Y-96652380D01*
X62492857Y-96652380D02*
X62492857Y-95652380D01*
X62873809Y-95652380D01*
X62969047Y-95700000D01*
X63016666Y-95747619D01*
X63064285Y-95842857D01*
X63064285Y-95985714D01*
X63016666Y-96080952D01*
X62969047Y-96128571D01*
X62873809Y-96176190D01*
X62492857Y-96176190D01*
X63397619Y-95652380D02*
X64016666Y-95652380D01*
X63683333Y-96033333D01*
X63826190Y-96033333D01*
X63921428Y-96080952D01*
X63969047Y-96128571D01*
X64016666Y-96223809D01*
X64016666Y-96461904D01*
X63969047Y-96557142D01*
X63921428Y-96604761D01*
X63826190Y-96652380D01*
X63540476Y-96652380D01*
X63445238Y-96604761D01*
X63397619Y-96557142D01*
%TO.C,U2*%
X91275595Y-106052380D02*
X91275595Y-106861904D01*
X91323214Y-106957142D01*
X91370833Y-107004761D01*
X91466071Y-107052380D01*
X91656547Y-107052380D01*
X91751785Y-107004761D01*
X91799404Y-106957142D01*
X91847023Y-106861904D01*
X91847023Y-106052380D01*
X92275595Y-106147619D02*
X92323214Y-106100000D01*
X92418452Y-106052380D01*
X92656547Y-106052380D01*
X92751785Y-106100000D01*
X92799404Y-106147619D01*
X92847023Y-106242857D01*
X92847023Y-106338095D01*
X92799404Y-106480952D01*
X92227976Y-107052380D01*
X92847023Y-107052380D01*
%TO.C,JP6*%
X72166666Y-92652380D02*
X72166666Y-93366666D01*
X72119047Y-93509523D01*
X72023809Y-93604761D01*
X71880952Y-93652380D01*
X71785714Y-93652380D01*
X72642857Y-93652380D02*
X72642857Y-92652380D01*
X73023809Y-92652380D01*
X73119047Y-92700000D01*
X73166666Y-92747619D01*
X73214285Y-92842857D01*
X73214285Y-92985714D01*
X73166666Y-93080952D01*
X73119047Y-93128571D01*
X73023809Y-93176190D01*
X72642857Y-93176190D01*
X74071428Y-92652380D02*
X73880952Y-92652380D01*
X73785714Y-92700000D01*
X73738095Y-92747619D01*
X73642857Y-92890476D01*
X73595238Y-93080952D01*
X73595238Y-93461904D01*
X73642857Y-93557142D01*
X73690476Y-93604761D01*
X73785714Y-93652380D01*
X73976190Y-93652380D01*
X74071428Y-93604761D01*
X74119047Y-93557142D01*
X74166666Y-93461904D01*
X74166666Y-93223809D01*
X74119047Y-93128571D01*
X74071428Y-93080952D01*
X73976190Y-93033333D01*
X73785714Y-93033333D01*
X73690476Y-93080952D01*
X73642857Y-93128571D01*
X73595238Y-93223809D01*
%TO.C,JP11*%
X79990476Y-95652380D02*
X79990476Y-96366666D01*
X79942857Y-96509523D01*
X79847619Y-96604761D01*
X79704761Y-96652380D01*
X79609523Y-96652380D01*
X80466666Y-96652380D02*
X80466666Y-95652380D01*
X80847619Y-95652380D01*
X80942857Y-95700000D01*
X80990476Y-95747619D01*
X81038095Y-95842857D01*
X81038095Y-95985714D01*
X80990476Y-96080952D01*
X80942857Y-96128571D01*
X80847619Y-96176190D01*
X80466666Y-96176190D01*
X81990476Y-96652380D02*
X81419047Y-96652380D01*
X81704761Y-96652380D02*
X81704761Y-95652380D01*
X81609523Y-95795238D01*
X81514285Y-95890476D01*
X81419047Y-95938095D01*
X82942857Y-96652380D02*
X82371428Y-96652380D01*
X82657142Y-96652380D02*
X82657142Y-95652380D01*
X82561904Y-95795238D01*
X82466666Y-95890476D01*
X82371428Y-95938095D01*
%TO.C,JP25*%
X99590476Y-113552380D02*
X99590476Y-114266666D01*
X99542857Y-114409523D01*
X99447619Y-114504761D01*
X99304761Y-114552380D01*
X99209523Y-114552380D01*
X100066666Y-114552380D02*
X100066666Y-113552380D01*
X100447619Y-113552380D01*
X100542857Y-113600000D01*
X100590476Y-113647619D01*
X100638095Y-113742857D01*
X100638095Y-113885714D01*
X100590476Y-113980952D01*
X100542857Y-114028571D01*
X100447619Y-114076190D01*
X100066666Y-114076190D01*
X101019047Y-113647619D02*
X101066666Y-113600000D01*
X101161904Y-113552380D01*
X101400000Y-113552380D01*
X101495238Y-113600000D01*
X101542857Y-113647619D01*
X101590476Y-113742857D01*
X101590476Y-113838095D01*
X101542857Y-113980952D01*
X100971428Y-114552380D01*
X101590476Y-114552380D01*
X102495238Y-113552380D02*
X102019047Y-113552380D01*
X101971428Y-114028571D01*
X102019047Y-113980952D01*
X102114285Y-113933333D01*
X102352380Y-113933333D01*
X102447619Y-113980952D01*
X102495238Y-114028571D01*
X102542857Y-114123809D01*
X102542857Y-114361904D01*
X102495238Y-114457142D01*
X102447619Y-114504761D01*
X102352380Y-114552380D01*
X102114285Y-114552380D01*
X102019047Y-114504761D01*
X101971428Y-114457142D01*
%TO.C,R1*%
X69033333Y-103252380D02*
X68700000Y-102776190D01*
X68461904Y-103252380D02*
X68461904Y-102252380D01*
X68842857Y-102252380D01*
X68938095Y-102300000D01*
X68985714Y-102347619D01*
X69033333Y-102442857D01*
X69033333Y-102585714D01*
X68985714Y-102680952D01*
X68938095Y-102728571D01*
X68842857Y-102776190D01*
X68461904Y-102776190D01*
X69985714Y-103252380D02*
X69414285Y-103252380D01*
X69700000Y-103252380D02*
X69700000Y-102252380D01*
X69604761Y-102395238D01*
X69509523Y-102490476D01*
X69414285Y-102538095D01*
%TO.C,JP23*%
X71490476Y-113652380D02*
X71490476Y-114366666D01*
X71442857Y-114509523D01*
X71347619Y-114604761D01*
X71204761Y-114652380D01*
X71109523Y-114652380D01*
X71966666Y-114652380D02*
X71966666Y-113652380D01*
X72347619Y-113652380D01*
X72442857Y-113700000D01*
X72490476Y-113747619D01*
X72538095Y-113842857D01*
X72538095Y-113985714D01*
X72490476Y-114080952D01*
X72442857Y-114128571D01*
X72347619Y-114176190D01*
X71966666Y-114176190D01*
X72919047Y-113747619D02*
X72966666Y-113700000D01*
X73061904Y-113652380D01*
X73300000Y-113652380D01*
X73395238Y-113700000D01*
X73442857Y-113747619D01*
X73490476Y-113842857D01*
X73490476Y-113938095D01*
X73442857Y-114080952D01*
X72871428Y-114652380D01*
X73490476Y-114652380D01*
X73823809Y-113652380D02*
X74442857Y-113652380D01*
X74109523Y-114033333D01*
X74252380Y-114033333D01*
X74347619Y-114080952D01*
X74395238Y-114128571D01*
X74442857Y-114223809D01*
X74442857Y-114461904D01*
X74395238Y-114557142D01*
X74347619Y-114604761D01*
X74252380Y-114652380D01*
X73966666Y-114652380D01*
X73871428Y-114604761D01*
X73823809Y-114557142D01*
%TO.C,JP24*%
X71890476Y-106152380D02*
X71890476Y-106866666D01*
X71842857Y-107009523D01*
X71747619Y-107104761D01*
X71604761Y-107152380D01*
X71509523Y-107152380D01*
X72366666Y-107152380D02*
X72366666Y-106152380D01*
X72747619Y-106152380D01*
X72842857Y-106200000D01*
X72890476Y-106247619D01*
X72938095Y-106342857D01*
X72938095Y-106485714D01*
X72890476Y-106580952D01*
X72842857Y-106628571D01*
X72747619Y-106676190D01*
X72366666Y-106676190D01*
X73319047Y-106247619D02*
X73366666Y-106200000D01*
X73461904Y-106152380D01*
X73700000Y-106152380D01*
X73795238Y-106200000D01*
X73842857Y-106247619D01*
X73890476Y-106342857D01*
X73890476Y-106438095D01*
X73842857Y-106580952D01*
X73271428Y-107152380D01*
X73890476Y-107152380D01*
X74747619Y-106485714D02*
X74747619Y-107152380D01*
X74509523Y-106104761D02*
X74271428Y-106819047D01*
X74890476Y-106819047D01*
%TO.C,JP16*%
X91090476Y-89652380D02*
X91090476Y-90366666D01*
X91042857Y-90509523D01*
X90947619Y-90604761D01*
X90804761Y-90652380D01*
X90709523Y-90652380D01*
X91566666Y-90652380D02*
X91566666Y-89652380D01*
X91947619Y-89652380D01*
X92042857Y-89700000D01*
X92090476Y-89747619D01*
X92138095Y-89842857D01*
X92138095Y-89985714D01*
X92090476Y-90080952D01*
X92042857Y-90128571D01*
X91947619Y-90176190D01*
X91566666Y-90176190D01*
X93090476Y-90652380D02*
X92519047Y-90652380D01*
X92804761Y-90652380D02*
X92804761Y-89652380D01*
X92709523Y-89795238D01*
X92614285Y-89890476D01*
X92519047Y-89938095D01*
X93947619Y-89652380D02*
X93757142Y-89652380D01*
X93661904Y-89700000D01*
X93614285Y-89747619D01*
X93519047Y-89890476D01*
X93471428Y-90080952D01*
X93471428Y-90461904D01*
X93519047Y-90557142D01*
X93566666Y-90604761D01*
X93661904Y-90652380D01*
X93852380Y-90652380D01*
X93947619Y-90604761D01*
X93995238Y-90557142D01*
X94042857Y-90461904D01*
X94042857Y-90223809D01*
X93995238Y-90128571D01*
X93947619Y-90080952D01*
X93852380Y-90033333D01*
X93661904Y-90033333D01*
X93566666Y-90080952D01*
X93519047Y-90128571D01*
X93471428Y-90223809D01*
%TO.C,LED1*%
X95333580Y-80019047D02*
X95333580Y-80495238D01*
X94333580Y-80495238D01*
X94809771Y-79685714D02*
X94809771Y-79352380D01*
X95333580Y-79209523D02*
X95333580Y-79685714D01*
X94333580Y-79685714D01*
X94333580Y-79209523D01*
X95333580Y-78780952D02*
X94333580Y-78780952D01*
X94333580Y-78542857D01*
X94381200Y-78400000D01*
X94476438Y-78304761D01*
X94571676Y-78257142D01*
X94762152Y-78209523D01*
X94905009Y-78209523D01*
X95095485Y-78257142D01*
X95190723Y-78304761D01*
X95285961Y-78400000D01*
X95333580Y-78542857D01*
X95333580Y-78780952D01*
X95333580Y-77257142D02*
X95333580Y-77828571D01*
X95333580Y-77542857D02*
X94333580Y-77542857D01*
X94476438Y-77638095D01*
X94571676Y-77733333D01*
X94619295Y-77828571D01*
%TO.C,JP22*%
X84890476Y-114152380D02*
X84890476Y-114866666D01*
X84842857Y-115009523D01*
X84747619Y-115104761D01*
X84604761Y-115152380D01*
X84509523Y-115152380D01*
X85366666Y-115152380D02*
X85366666Y-114152380D01*
X85747619Y-114152380D01*
X85842857Y-114200000D01*
X85890476Y-114247619D01*
X85938095Y-114342857D01*
X85938095Y-114485714D01*
X85890476Y-114580952D01*
X85842857Y-114628571D01*
X85747619Y-114676190D01*
X85366666Y-114676190D01*
X86319047Y-114247619D02*
X86366666Y-114200000D01*
X86461904Y-114152380D01*
X86700000Y-114152380D01*
X86795238Y-114200000D01*
X86842857Y-114247619D01*
X86890476Y-114342857D01*
X86890476Y-114438095D01*
X86842857Y-114580952D01*
X86271428Y-115152380D01*
X86890476Y-115152380D01*
X87271428Y-114247619D02*
X87319047Y-114200000D01*
X87414285Y-114152380D01*
X87652380Y-114152380D01*
X87747619Y-114200000D01*
X87795238Y-114247619D01*
X87842857Y-114342857D01*
X87842857Y-114438095D01*
X87795238Y-114580952D01*
X87223809Y-115152380D01*
X87842857Y-115152380D01*
%TO.C,JP8*%
X72166666Y-89652380D02*
X72166666Y-90366666D01*
X72119047Y-90509523D01*
X72023809Y-90604761D01*
X71880952Y-90652380D01*
X71785714Y-90652380D01*
X72642857Y-90652380D02*
X72642857Y-89652380D01*
X73023809Y-89652380D01*
X73119047Y-89700000D01*
X73166666Y-89747619D01*
X73214285Y-89842857D01*
X73214285Y-89985714D01*
X73166666Y-90080952D01*
X73119047Y-90128571D01*
X73023809Y-90176190D01*
X72642857Y-90176190D01*
X73785714Y-90080952D02*
X73690476Y-90033333D01*
X73642857Y-89985714D01*
X73595238Y-89890476D01*
X73595238Y-89842857D01*
X73642857Y-89747619D01*
X73690476Y-89700000D01*
X73785714Y-89652380D01*
X73976190Y-89652380D01*
X74071428Y-89700000D01*
X74119047Y-89747619D01*
X74166666Y-89842857D01*
X74166666Y-89890476D01*
X74119047Y-89985714D01*
X74071428Y-90033333D01*
X73976190Y-90080952D01*
X73785714Y-90080952D01*
X73690476Y-90128571D01*
X73642857Y-90176190D01*
X73595238Y-90271428D01*
X73595238Y-90461904D01*
X73642857Y-90557142D01*
X73690476Y-90604761D01*
X73785714Y-90652380D01*
X73976190Y-90652380D01*
X74071428Y-90604761D01*
X74119047Y-90557142D01*
X74166666Y-90461904D01*
X74166666Y-90271428D01*
X74119047Y-90176190D01*
X74071428Y-90128571D01*
X73976190Y-90080952D01*
%TO.C,R5*%
X103533333Y-110152380D02*
X103200000Y-109676190D01*
X102961904Y-110152380D02*
X102961904Y-109152380D01*
X103342857Y-109152380D01*
X103438095Y-109200000D01*
X103485714Y-109247619D01*
X103533333Y-109342857D01*
X103533333Y-109485714D01*
X103485714Y-109580952D01*
X103438095Y-109628571D01*
X103342857Y-109676190D01*
X102961904Y-109676190D01*
X104438095Y-109152380D02*
X103961904Y-109152380D01*
X103914285Y-109628571D01*
X103961904Y-109580952D01*
X104057142Y-109533333D01*
X104295238Y-109533333D01*
X104390476Y-109580952D01*
X104438095Y-109628571D01*
X104485714Y-109723809D01*
X104485714Y-109961904D01*
X104438095Y-110057142D01*
X104390476Y-110104761D01*
X104295238Y-110152380D01*
X104057142Y-110152380D01*
X103961904Y-110104761D01*
X103914285Y-110057142D01*
%TO.C,R10*%
X52157142Y-113552380D02*
X51823809Y-113076190D01*
X51585714Y-113552380D02*
X51585714Y-112552380D01*
X51966666Y-112552380D01*
X52061904Y-112600000D01*
X52109523Y-112647619D01*
X52157142Y-112742857D01*
X52157142Y-112885714D01*
X52109523Y-112980952D01*
X52061904Y-113028571D01*
X51966666Y-113076190D01*
X51585714Y-113076190D01*
X53109523Y-113552380D02*
X52538095Y-113552380D01*
X52823809Y-113552380D02*
X52823809Y-112552380D01*
X52728571Y-112695238D01*
X52633333Y-112790476D01*
X52538095Y-112838095D01*
X53728571Y-112552380D02*
X53823809Y-112552380D01*
X53919047Y-112600000D01*
X53966666Y-112647619D01*
X54014285Y-112742857D01*
X54061904Y-112933333D01*
X54061904Y-113171428D01*
X54014285Y-113361904D01*
X53966666Y-113457142D01*
X53919047Y-113504761D01*
X53823809Y-113552380D01*
X53728571Y-113552380D01*
X53633333Y-113504761D01*
X53585714Y-113457142D01*
X53538095Y-113361904D01*
X53490476Y-113171428D01*
X53490476Y-112933333D01*
X53538095Y-112742857D01*
X53585714Y-112647619D01*
X53633333Y-112600000D01*
X53728571Y-112552380D01*
%TO.C,TP7*%
X103038095Y-116352380D02*
X103609523Y-116352380D01*
X103323809Y-117352380D02*
X103323809Y-116352380D01*
X103942857Y-117352380D02*
X103942857Y-116352380D01*
X104323809Y-116352380D01*
X104419047Y-116400000D01*
X104466666Y-116447619D01*
X104514285Y-116542857D01*
X104514285Y-116685714D01*
X104466666Y-116780952D01*
X104419047Y-116828571D01*
X104323809Y-116876190D01*
X103942857Y-116876190D01*
X104847619Y-116352380D02*
X105514285Y-116352380D01*
X105085714Y-117352380D01*
%TO.C,JP15*%
X91090476Y-95652380D02*
X91090476Y-96366666D01*
X91042857Y-96509523D01*
X90947619Y-96604761D01*
X90804761Y-96652380D01*
X90709523Y-96652380D01*
X91566666Y-96652380D02*
X91566666Y-95652380D01*
X91947619Y-95652380D01*
X92042857Y-95700000D01*
X92090476Y-95747619D01*
X92138095Y-95842857D01*
X92138095Y-95985714D01*
X92090476Y-96080952D01*
X92042857Y-96128571D01*
X91947619Y-96176190D01*
X91566666Y-96176190D01*
X93090476Y-96652380D02*
X92519047Y-96652380D01*
X92804761Y-96652380D02*
X92804761Y-95652380D01*
X92709523Y-95795238D01*
X92614285Y-95890476D01*
X92519047Y-95938095D01*
X93995238Y-95652380D02*
X93519047Y-95652380D01*
X93471428Y-96128571D01*
X93519047Y-96080952D01*
X93614285Y-96033333D01*
X93852380Y-96033333D01*
X93947619Y-96080952D01*
X93995238Y-96128571D01*
X94042857Y-96223809D01*
X94042857Y-96461904D01*
X93995238Y-96557142D01*
X93947619Y-96604761D01*
X93852380Y-96652380D01*
X93614285Y-96652380D01*
X93519047Y-96604761D01*
X93471428Y-96557142D01*
%TO.C,JP7*%
X72166666Y-95652380D02*
X72166666Y-96366666D01*
X72119047Y-96509523D01*
X72023809Y-96604761D01*
X71880952Y-96652380D01*
X71785714Y-96652380D01*
X72642857Y-96652380D02*
X72642857Y-95652380D01*
X73023809Y-95652380D01*
X73119047Y-95700000D01*
X73166666Y-95747619D01*
X73214285Y-95842857D01*
X73214285Y-95985714D01*
X73166666Y-96080952D01*
X73119047Y-96128571D01*
X73023809Y-96176190D01*
X72642857Y-96176190D01*
X73547619Y-95652380D02*
X74214285Y-95652380D01*
X73785714Y-96652380D01*
%TO.C,JP21*%
X84890476Y-105152380D02*
X84890476Y-105866666D01*
X84842857Y-106009523D01*
X84747619Y-106104761D01*
X84604761Y-106152380D01*
X84509523Y-106152380D01*
X85366666Y-106152380D02*
X85366666Y-105152380D01*
X85747619Y-105152380D01*
X85842857Y-105200000D01*
X85890476Y-105247619D01*
X85938095Y-105342857D01*
X85938095Y-105485714D01*
X85890476Y-105580952D01*
X85842857Y-105628571D01*
X85747619Y-105676190D01*
X85366666Y-105676190D01*
X86319047Y-105247619D02*
X86366666Y-105200000D01*
X86461904Y-105152380D01*
X86700000Y-105152380D01*
X86795238Y-105200000D01*
X86842857Y-105247619D01*
X86890476Y-105342857D01*
X86890476Y-105438095D01*
X86842857Y-105580952D01*
X86271428Y-106152380D01*
X86890476Y-106152380D01*
X87842857Y-106152380D02*
X87271428Y-106152380D01*
X87557142Y-106152380D02*
X87557142Y-105152380D01*
X87461904Y-105295238D01*
X87366666Y-105390476D01*
X87271428Y-105438095D01*
%TO.C,J7*%
X51866666Y-70252380D02*
X51866666Y-70966666D01*
X51819047Y-71109523D01*
X51723809Y-71204761D01*
X51580952Y-71252380D01*
X51485714Y-71252380D01*
X52247619Y-70252380D02*
X52914285Y-70252380D01*
X52485714Y-71252380D01*
%TO.C,TP4*%
X60938095Y-101852380D02*
X61509523Y-101852380D01*
X61223809Y-102852380D02*
X61223809Y-101852380D01*
X61842857Y-102852380D02*
X61842857Y-101852380D01*
X62223809Y-101852380D01*
X62319047Y-101900000D01*
X62366666Y-101947619D01*
X62414285Y-102042857D01*
X62414285Y-102185714D01*
X62366666Y-102280952D01*
X62319047Y-102328571D01*
X62223809Y-102376190D01*
X61842857Y-102376190D01*
X63271428Y-102185714D02*
X63271428Y-102852380D01*
X63033333Y-101804761D02*
X62795238Y-102519047D01*
X63414285Y-102519047D01*
%TO.C,JP12*%
X79990476Y-89652380D02*
X79990476Y-90366666D01*
X79942857Y-90509523D01*
X79847619Y-90604761D01*
X79704761Y-90652380D01*
X79609523Y-90652380D01*
X80466666Y-90652380D02*
X80466666Y-89652380D01*
X80847619Y-89652380D01*
X80942857Y-89700000D01*
X80990476Y-89747619D01*
X81038095Y-89842857D01*
X81038095Y-89985714D01*
X80990476Y-90080952D01*
X80942857Y-90128571D01*
X80847619Y-90176190D01*
X80466666Y-90176190D01*
X81990476Y-90652380D02*
X81419047Y-90652380D01*
X81704761Y-90652380D02*
X81704761Y-89652380D01*
X81609523Y-89795238D01*
X81514285Y-89890476D01*
X81419047Y-89938095D01*
X82371428Y-89747619D02*
X82419047Y-89700000D01*
X82514285Y-89652380D01*
X82752380Y-89652380D01*
X82847619Y-89700000D01*
X82895238Y-89747619D01*
X82942857Y-89842857D01*
X82942857Y-89938095D01*
X82895238Y-90080952D01*
X82323809Y-90652380D01*
X82942857Y-90652380D01*
%TO.C,C5*%
X71633333Y-71457142D02*
X71585714Y-71504761D01*
X71442857Y-71552380D01*
X71347619Y-71552380D01*
X71204761Y-71504761D01*
X71109523Y-71409523D01*
X71061904Y-71314285D01*
X71014285Y-71123809D01*
X71014285Y-70980952D01*
X71061904Y-70790476D01*
X71109523Y-70695238D01*
X71204761Y-70600000D01*
X71347619Y-70552380D01*
X71442857Y-70552380D01*
X71585714Y-70600000D01*
X71633333Y-70647619D01*
X72538095Y-70552380D02*
X72061904Y-70552380D01*
X72014285Y-71028571D01*
X72061904Y-70980952D01*
X72157142Y-70933333D01*
X72395238Y-70933333D01*
X72490476Y-70980952D01*
X72538095Y-71028571D01*
X72585714Y-71123809D01*
X72585714Y-71361904D01*
X72538095Y-71457142D01*
X72490476Y-71504761D01*
X72395238Y-71552380D01*
X72157142Y-71552380D01*
X72061904Y-71504761D01*
X72014285Y-71457142D01*
%TO.C,TP5*%
X53638095Y-116652380D02*
X54209523Y-116652380D01*
X53923809Y-117652380D02*
X53923809Y-116652380D01*
X54542857Y-117652380D02*
X54542857Y-116652380D01*
X54923809Y-116652380D01*
X55019047Y-116700000D01*
X55066666Y-116747619D01*
X55114285Y-116842857D01*
X55114285Y-116985714D01*
X55066666Y-117080952D01*
X55019047Y-117128571D01*
X54923809Y-117176190D01*
X54542857Y-117176190D01*
X56019047Y-116652380D02*
X55542857Y-116652380D01*
X55495238Y-117128571D01*
X55542857Y-117080952D01*
X55638095Y-117033333D01*
X55876190Y-117033333D01*
X55971428Y-117080952D01*
X56019047Y-117128571D01*
X56066666Y-117223809D01*
X56066666Y-117461904D01*
X56019047Y-117557142D01*
X55971428Y-117604761D01*
X55876190Y-117652380D01*
X55638095Y-117652380D01*
X55542857Y-117604761D01*
X55495238Y-117557142D01*
%TO.C,R4*%
X97133333Y-103152380D02*
X96800000Y-102676190D01*
X96561904Y-103152380D02*
X96561904Y-102152380D01*
X96942857Y-102152380D01*
X97038095Y-102200000D01*
X97085714Y-102247619D01*
X97133333Y-102342857D01*
X97133333Y-102485714D01*
X97085714Y-102580952D01*
X97038095Y-102628571D01*
X96942857Y-102676190D01*
X96561904Y-102676190D01*
X97990476Y-102485714D02*
X97990476Y-103152380D01*
X97752380Y-102104761D02*
X97514285Y-102819047D01*
X98133333Y-102819047D01*
%TO.C,JP13*%
X91090476Y-98752380D02*
X91090476Y-99466666D01*
X91042857Y-99609523D01*
X90947619Y-99704761D01*
X90804761Y-99752380D01*
X90709523Y-99752380D01*
X91566666Y-99752380D02*
X91566666Y-98752380D01*
X91947619Y-98752380D01*
X92042857Y-98800000D01*
X92090476Y-98847619D01*
X92138095Y-98942857D01*
X92138095Y-99085714D01*
X92090476Y-99180952D01*
X92042857Y-99228571D01*
X91947619Y-99276190D01*
X91566666Y-99276190D01*
X93090476Y-99752380D02*
X92519047Y-99752380D01*
X92804761Y-99752380D02*
X92804761Y-98752380D01*
X92709523Y-98895238D01*
X92614285Y-98990476D01*
X92519047Y-99038095D01*
X93423809Y-98752380D02*
X94042857Y-98752380D01*
X93709523Y-99133333D01*
X93852380Y-99133333D01*
X93947619Y-99180952D01*
X93995238Y-99228571D01*
X94042857Y-99323809D01*
X94042857Y-99561904D01*
X93995238Y-99657142D01*
X93947619Y-99704761D01*
X93852380Y-99752380D01*
X93566666Y-99752380D01*
X93471428Y-99704761D01*
X93423809Y-99657142D01*
%TO.C,C3*%
X54657142Y-99366666D02*
X54704761Y-99414285D01*
X54752380Y-99557142D01*
X54752380Y-99652380D01*
X54704761Y-99795238D01*
X54609523Y-99890476D01*
X54514285Y-99938095D01*
X54323809Y-99985714D01*
X54180952Y-99985714D01*
X53990476Y-99938095D01*
X53895238Y-99890476D01*
X53800000Y-99795238D01*
X53752380Y-99652380D01*
X53752380Y-99557142D01*
X53800000Y-99414285D01*
X53847619Y-99366666D01*
X53752380Y-99033333D02*
X53752380Y-98414285D01*
X54133333Y-98747619D01*
X54133333Y-98604761D01*
X54180952Y-98509523D01*
X54228571Y-98461904D01*
X54323809Y-98414285D01*
X54561904Y-98414285D01*
X54657142Y-98461904D01*
X54704761Y-98509523D01*
X54752380Y-98604761D01*
X54752380Y-98890476D01*
X54704761Y-98985714D01*
X54657142Y-99033333D01*
%TO.C,JP2*%
X62016666Y-92652380D02*
X62016666Y-93366666D01*
X61969047Y-93509523D01*
X61873809Y-93604761D01*
X61730952Y-93652380D01*
X61635714Y-93652380D01*
X62492857Y-93652380D02*
X62492857Y-92652380D01*
X62873809Y-92652380D01*
X62969047Y-92700000D01*
X63016666Y-92747619D01*
X63064285Y-92842857D01*
X63064285Y-92985714D01*
X63016666Y-93080952D01*
X62969047Y-93128571D01*
X62873809Y-93176190D01*
X62492857Y-93176190D01*
X63445238Y-92747619D02*
X63492857Y-92700000D01*
X63588095Y-92652380D01*
X63826190Y-92652380D01*
X63921428Y-92700000D01*
X63969047Y-92747619D01*
X64016666Y-92842857D01*
X64016666Y-92938095D01*
X63969047Y-93080952D01*
X63397619Y-93652380D01*
X64016666Y-93652380D01*
%TO.C,TP1*%
X74838095Y-116752380D02*
X75409523Y-116752380D01*
X75123809Y-117752380D02*
X75123809Y-116752380D01*
X75742857Y-117752380D02*
X75742857Y-116752380D01*
X76123809Y-116752380D01*
X76219047Y-116800000D01*
X76266666Y-116847619D01*
X76314285Y-116942857D01*
X76314285Y-117085714D01*
X76266666Y-117180952D01*
X76219047Y-117228571D01*
X76123809Y-117276190D01*
X75742857Y-117276190D01*
X77266666Y-117752380D02*
X76695238Y-117752380D01*
X76980952Y-117752380D02*
X76980952Y-116752380D01*
X76885714Y-116895238D01*
X76790476Y-116990476D01*
X76695238Y-117038095D01*
%TO.C,R8*%
X72733333Y-83352380D02*
X72400000Y-82876190D01*
X72161904Y-83352380D02*
X72161904Y-82352380D01*
X72542857Y-82352380D01*
X72638095Y-82400000D01*
X72685714Y-82447619D01*
X72733333Y-82542857D01*
X72733333Y-82685714D01*
X72685714Y-82780952D01*
X72638095Y-82828571D01*
X72542857Y-82876190D01*
X72161904Y-82876190D01*
X73304761Y-82780952D02*
X73209523Y-82733333D01*
X73161904Y-82685714D01*
X73114285Y-82590476D01*
X73114285Y-82542857D01*
X73161904Y-82447619D01*
X73209523Y-82400000D01*
X73304761Y-82352380D01*
X73495238Y-82352380D01*
X73590476Y-82400000D01*
X73638095Y-82447619D01*
X73685714Y-82542857D01*
X73685714Y-82590476D01*
X73638095Y-82685714D01*
X73590476Y-82733333D01*
X73495238Y-82780952D01*
X73304761Y-82780952D01*
X73209523Y-82828571D01*
X73161904Y-82876190D01*
X73114285Y-82971428D01*
X73114285Y-83161904D01*
X73161904Y-83257142D01*
X73209523Y-83304761D01*
X73304761Y-83352380D01*
X73495238Y-83352380D01*
X73590476Y-83304761D01*
X73638095Y-83257142D01*
X73685714Y-83161904D01*
X73685714Y-82971428D01*
X73638095Y-82876190D01*
X73590476Y-82828571D01*
X73495238Y-82780952D01*
%TO.C,JP19*%
X57290476Y-105252380D02*
X57290476Y-105966666D01*
X57242857Y-106109523D01*
X57147619Y-106204761D01*
X57004761Y-106252380D01*
X56909523Y-106252380D01*
X57766666Y-106252380D02*
X57766666Y-105252380D01*
X58147619Y-105252380D01*
X58242857Y-105300000D01*
X58290476Y-105347619D01*
X58338095Y-105442857D01*
X58338095Y-105585714D01*
X58290476Y-105680952D01*
X58242857Y-105728571D01*
X58147619Y-105776190D01*
X57766666Y-105776190D01*
X59290476Y-106252380D02*
X58719047Y-106252380D01*
X59004761Y-106252380D02*
X59004761Y-105252380D01*
X58909523Y-105395238D01*
X58814285Y-105490476D01*
X58719047Y-105538095D01*
X59766666Y-106252380D02*
X59957142Y-106252380D01*
X60052380Y-106204761D01*
X60100000Y-106157142D01*
X60195238Y-106014285D01*
X60242857Y-105823809D01*
X60242857Y-105442857D01*
X60195238Y-105347619D01*
X60147619Y-105300000D01*
X60052380Y-105252380D01*
X59861904Y-105252380D01*
X59766666Y-105300000D01*
X59719047Y-105347619D01*
X59671428Y-105442857D01*
X59671428Y-105680952D01*
X59719047Y-105776190D01*
X59766666Y-105823809D01*
X59861904Y-105871428D01*
X60052380Y-105871428D01*
X60147619Y-105823809D01*
X60195238Y-105776190D01*
X60242857Y-105680952D01*
%TO.C,JP5*%
X72166666Y-98652380D02*
X72166666Y-99366666D01*
X72119047Y-99509523D01*
X72023809Y-99604761D01*
X71880952Y-99652380D01*
X71785714Y-99652380D01*
X72642857Y-99652380D02*
X72642857Y-98652380D01*
X73023809Y-98652380D01*
X73119047Y-98700000D01*
X73166666Y-98747619D01*
X73214285Y-98842857D01*
X73214285Y-98985714D01*
X73166666Y-99080952D01*
X73119047Y-99128571D01*
X73023809Y-99176190D01*
X72642857Y-99176190D01*
X74119047Y-98652380D02*
X73642857Y-98652380D01*
X73595238Y-99128571D01*
X73642857Y-99080952D01*
X73738095Y-99033333D01*
X73976190Y-99033333D01*
X74071428Y-99080952D01*
X74119047Y-99128571D01*
X74166666Y-99223809D01*
X74166666Y-99461904D01*
X74119047Y-99557142D01*
X74071428Y-99604761D01*
X73976190Y-99652380D01*
X73738095Y-99652380D01*
X73642857Y-99604761D01*
X73595238Y-99557142D01*
%TO.C,JP1*%
X62016666Y-98652380D02*
X62016666Y-99366666D01*
X61969047Y-99509523D01*
X61873809Y-99604761D01*
X61730952Y-99652380D01*
X61635714Y-99652380D01*
X62492857Y-99652380D02*
X62492857Y-98652380D01*
X62873809Y-98652380D01*
X62969047Y-98700000D01*
X63016666Y-98747619D01*
X63064285Y-98842857D01*
X63064285Y-98985714D01*
X63016666Y-99080952D01*
X62969047Y-99128571D01*
X62873809Y-99176190D01*
X62492857Y-99176190D01*
X64016666Y-99652380D02*
X63445238Y-99652380D01*
X63730952Y-99652380D02*
X63730952Y-98652380D01*
X63635714Y-98795238D01*
X63540476Y-98890476D01*
X63445238Y-98938095D01*
%TO.C,TP10*%
X88399404Y-101802380D02*
X88970833Y-101802380D01*
X88685119Y-102802380D02*
X88685119Y-101802380D01*
X89304166Y-102802380D02*
X89304166Y-101802380D01*
X89685119Y-101802380D01*
X89780357Y-101850000D01*
X89827976Y-101897619D01*
X89875595Y-101992857D01*
X89875595Y-102135714D01*
X89827976Y-102230952D01*
X89780357Y-102278571D01*
X89685119Y-102326190D01*
X89304166Y-102326190D01*
X90827976Y-102802380D02*
X90256547Y-102802380D01*
X90542261Y-102802380D02*
X90542261Y-101802380D01*
X90447023Y-101945238D01*
X90351785Y-102040476D01*
X90256547Y-102088095D01*
X91447023Y-101802380D02*
X91542261Y-101802380D01*
X91637500Y-101850000D01*
X91685119Y-101897619D01*
X91732738Y-101992857D01*
X91780357Y-102183333D01*
X91780357Y-102421428D01*
X91732738Y-102611904D01*
X91685119Y-102707142D01*
X91637500Y-102754761D01*
X91542261Y-102802380D01*
X91447023Y-102802380D01*
X91351785Y-102754761D01*
X91304166Y-102707142D01*
X91256547Y-102611904D01*
X91208928Y-102421428D01*
X91208928Y-102183333D01*
X91256547Y-101992857D01*
X91304166Y-101897619D01*
X91351785Y-101850000D01*
X91447023Y-101802380D01*
%TO.C,R11*%
X77457142Y-109052380D02*
X77123809Y-108576190D01*
X76885714Y-109052380D02*
X76885714Y-108052380D01*
X77266666Y-108052380D01*
X77361904Y-108100000D01*
X77409523Y-108147619D01*
X77457142Y-108242857D01*
X77457142Y-108385714D01*
X77409523Y-108480952D01*
X77361904Y-108528571D01*
X77266666Y-108576190D01*
X76885714Y-108576190D01*
X78409523Y-109052380D02*
X77838095Y-109052380D01*
X78123809Y-109052380D02*
X78123809Y-108052380D01*
X78028571Y-108195238D01*
X77933333Y-108290476D01*
X77838095Y-108338095D01*
X79361904Y-109052380D02*
X78790476Y-109052380D01*
X79076190Y-109052380D02*
X79076190Y-108052380D01*
X78980952Y-108195238D01*
X78885714Y-108290476D01*
X78790476Y-108338095D01*
%TO.C,TP3*%
X60938095Y-116752380D02*
X61509523Y-116752380D01*
X61223809Y-117752380D02*
X61223809Y-116752380D01*
X61842857Y-117752380D02*
X61842857Y-116752380D01*
X62223809Y-116752380D01*
X62319047Y-116800000D01*
X62366666Y-116847619D01*
X62414285Y-116942857D01*
X62414285Y-117085714D01*
X62366666Y-117180952D01*
X62319047Y-117228571D01*
X62223809Y-117276190D01*
X61842857Y-117276190D01*
X62747619Y-116752380D02*
X63366666Y-116752380D01*
X63033333Y-117133333D01*
X63176190Y-117133333D01*
X63271428Y-117180952D01*
X63319047Y-117228571D01*
X63366666Y-117323809D01*
X63366666Y-117561904D01*
X63319047Y-117657142D01*
X63271428Y-117704761D01*
X63176190Y-117752380D01*
X62890476Y-117752380D01*
X62795238Y-117704761D01*
X62747619Y-117657142D01*
%TO.C,C4*%
X90533333Y-70957142D02*
X90485714Y-71004761D01*
X90342857Y-71052380D01*
X90247619Y-71052380D01*
X90104761Y-71004761D01*
X90009523Y-70909523D01*
X89961904Y-70814285D01*
X89914285Y-70623809D01*
X89914285Y-70480952D01*
X89961904Y-70290476D01*
X90009523Y-70195238D01*
X90104761Y-70100000D01*
X90247619Y-70052380D01*
X90342857Y-70052380D01*
X90485714Y-70100000D01*
X90533333Y-70147619D01*
X91390476Y-70385714D02*
X91390476Y-71052380D01*
X91152380Y-70004761D02*
X90914285Y-70719047D01*
X91533333Y-70719047D01*
%TO.C,R6*%
X96633333Y-118152380D02*
X96300000Y-117676190D01*
X96061904Y-118152380D02*
X96061904Y-117152380D01*
X96442857Y-117152380D01*
X96538095Y-117200000D01*
X96585714Y-117247619D01*
X96633333Y-117342857D01*
X96633333Y-117485714D01*
X96585714Y-117580952D01*
X96538095Y-117628571D01*
X96442857Y-117676190D01*
X96061904Y-117676190D01*
X97490476Y-117152380D02*
X97300000Y-117152380D01*
X97204761Y-117200000D01*
X97157142Y-117247619D01*
X97061904Y-117390476D01*
X97014285Y-117580952D01*
X97014285Y-117961904D01*
X97061904Y-118057142D01*
X97109523Y-118104761D01*
X97204761Y-118152380D01*
X97395238Y-118152380D01*
X97490476Y-118104761D01*
X97538095Y-118057142D01*
X97585714Y-117961904D01*
X97585714Y-117723809D01*
X97538095Y-117628571D01*
X97490476Y-117580952D01*
X97395238Y-117533333D01*
X97204761Y-117533333D01*
X97109523Y-117580952D01*
X97061904Y-117628571D01*
X97014285Y-117723809D01*
%TO.C,JP10*%
X79990476Y-92652380D02*
X79990476Y-93366666D01*
X79942857Y-93509523D01*
X79847619Y-93604761D01*
X79704761Y-93652380D01*
X79609523Y-93652380D01*
X80466666Y-93652380D02*
X80466666Y-92652380D01*
X80847619Y-92652380D01*
X80942857Y-92700000D01*
X80990476Y-92747619D01*
X81038095Y-92842857D01*
X81038095Y-92985714D01*
X80990476Y-93080952D01*
X80942857Y-93128571D01*
X80847619Y-93176190D01*
X80466666Y-93176190D01*
X81990476Y-93652380D02*
X81419047Y-93652380D01*
X81704761Y-93652380D02*
X81704761Y-92652380D01*
X81609523Y-92795238D01*
X81514285Y-92890476D01*
X81419047Y-92938095D01*
X82609523Y-92652380D02*
X82704761Y-92652380D01*
X82800000Y-92700000D01*
X82847619Y-92747619D01*
X82895238Y-92842857D01*
X82942857Y-93033333D01*
X82942857Y-93271428D01*
X82895238Y-93461904D01*
X82847619Y-93557142D01*
X82800000Y-93604761D01*
X82704761Y-93652380D01*
X82609523Y-93652380D01*
X82514285Y-93604761D01*
X82466666Y-93557142D01*
X82419047Y-93461904D01*
X82371428Y-93271428D01*
X82371428Y-93033333D01*
X82419047Y-92842857D01*
X82466666Y-92747619D01*
X82514285Y-92700000D01*
X82609523Y-92652380D01*
%TO.C,U1*%
X63438095Y-106250380D02*
X63438095Y-107059904D01*
X63485714Y-107155142D01*
X63533333Y-107202761D01*
X63628571Y-107250380D01*
X63819047Y-107250380D01*
X63914285Y-107202761D01*
X63961904Y-107155142D01*
X64009523Y-107059904D01*
X64009523Y-106250380D01*
X65009523Y-107250380D02*
X64438095Y-107250380D01*
X64723809Y-107250380D02*
X64723809Y-106250380D01*
X64628571Y-106393238D01*
X64533333Y-106488476D01*
X64438095Y-106536095D01*
%TO.C,TP11*%
X80799404Y-116652380D02*
X81370833Y-116652380D01*
X81085119Y-117652380D02*
X81085119Y-116652380D01*
X81704166Y-117652380D02*
X81704166Y-116652380D01*
X82085119Y-116652380D01*
X82180357Y-116700000D01*
X82227976Y-116747619D01*
X82275595Y-116842857D01*
X82275595Y-116985714D01*
X82227976Y-117080952D01*
X82180357Y-117128571D01*
X82085119Y-117176190D01*
X81704166Y-117176190D01*
X83227976Y-117652380D02*
X82656547Y-117652380D01*
X82942261Y-117652380D02*
X82942261Y-116652380D01*
X82847023Y-116795238D01*
X82751785Y-116890476D01*
X82656547Y-116938095D01*
X84180357Y-117652380D02*
X83608928Y-117652380D01*
X83894642Y-117652380D02*
X83894642Y-116652380D01*
X83799404Y-116795238D01*
X83704166Y-116890476D01*
X83608928Y-116938095D01*
%TO.C,JP26*%
X99990476Y-105852380D02*
X99990476Y-106566666D01*
X99942857Y-106709523D01*
X99847619Y-106804761D01*
X99704761Y-106852380D01*
X99609523Y-106852380D01*
X100466666Y-106852380D02*
X100466666Y-105852380D01*
X100847619Y-105852380D01*
X100942857Y-105900000D01*
X100990476Y-105947619D01*
X101038095Y-106042857D01*
X101038095Y-106185714D01*
X100990476Y-106280952D01*
X100942857Y-106328571D01*
X100847619Y-106376190D01*
X100466666Y-106376190D01*
X101419047Y-105947619D02*
X101466666Y-105900000D01*
X101561904Y-105852380D01*
X101800000Y-105852380D01*
X101895238Y-105900000D01*
X101942857Y-105947619D01*
X101990476Y-106042857D01*
X101990476Y-106138095D01*
X101942857Y-106280952D01*
X101371428Y-106852380D01*
X101990476Y-106852380D01*
X102847619Y-105852380D02*
X102657142Y-105852380D01*
X102561904Y-105900000D01*
X102514285Y-105947619D01*
X102419047Y-106090476D01*
X102371428Y-106280952D01*
X102371428Y-106661904D01*
X102419047Y-106757142D01*
X102466666Y-106804761D01*
X102561904Y-106852380D01*
X102752380Y-106852380D01*
X102847619Y-106804761D01*
X102895238Y-106757142D01*
X102942857Y-106661904D01*
X102942857Y-106423809D01*
X102895238Y-106328571D01*
X102847619Y-106280952D01*
X102752380Y-106233333D01*
X102561904Y-106233333D01*
X102466666Y-106280952D01*
X102419047Y-106328571D01*
X102371428Y-106423809D01*
%TO.C,TP8*%
X103138095Y-101952380D02*
X103709523Y-101952380D01*
X103423809Y-102952380D02*
X103423809Y-101952380D01*
X104042857Y-102952380D02*
X104042857Y-101952380D01*
X104423809Y-101952380D01*
X104519047Y-102000000D01*
X104566666Y-102047619D01*
X104614285Y-102142857D01*
X104614285Y-102285714D01*
X104566666Y-102380952D01*
X104519047Y-102428571D01*
X104423809Y-102476190D01*
X104042857Y-102476190D01*
X105185714Y-102380952D02*
X105090476Y-102333333D01*
X105042857Y-102285714D01*
X104995238Y-102190476D01*
X104995238Y-102142857D01*
X105042857Y-102047619D01*
X105090476Y-102000000D01*
X105185714Y-101952380D01*
X105376190Y-101952380D01*
X105471428Y-102000000D01*
X105519047Y-102047619D01*
X105566666Y-102142857D01*
X105566666Y-102190476D01*
X105519047Y-102285714D01*
X105471428Y-102333333D01*
X105376190Y-102380952D01*
X105185714Y-102380952D01*
X105090476Y-102428571D01*
X105042857Y-102476190D01*
X104995238Y-102571428D01*
X104995238Y-102761904D01*
X105042857Y-102857142D01*
X105090476Y-102904761D01*
X105185714Y-102952380D01*
X105376190Y-102952380D01*
X105471428Y-102904761D01*
X105519047Y-102857142D01*
X105566666Y-102761904D01*
X105566666Y-102571428D01*
X105519047Y-102476190D01*
X105471428Y-102428571D01*
X105376190Y-102380952D01*
%TO.C,J4*%
X112052380Y-124333333D02*
X112766666Y-124333333D01*
X112909523Y-124380952D01*
X113004761Y-124476190D01*
X113052380Y-124619047D01*
X113052380Y-124714285D01*
X112385714Y-123428571D02*
X113052380Y-123428571D01*
X112004761Y-123666666D02*
X112719047Y-123904761D01*
X112719047Y-123285714D01*
%TO.C,R12*%
X77357142Y-111452380D02*
X77023809Y-110976190D01*
X76785714Y-111452380D02*
X76785714Y-110452380D01*
X77166666Y-110452380D01*
X77261904Y-110500000D01*
X77309523Y-110547619D01*
X77357142Y-110642857D01*
X77357142Y-110785714D01*
X77309523Y-110880952D01*
X77261904Y-110928571D01*
X77166666Y-110976190D01*
X76785714Y-110976190D01*
X78309523Y-111452380D02*
X77738095Y-111452380D01*
X78023809Y-111452380D02*
X78023809Y-110452380D01*
X77928571Y-110595238D01*
X77833333Y-110690476D01*
X77738095Y-110738095D01*
X78690476Y-110547619D02*
X78738095Y-110500000D01*
X78833333Y-110452380D01*
X79071428Y-110452380D01*
X79166666Y-110500000D01*
X79214285Y-110547619D01*
X79261904Y-110642857D01*
X79261904Y-110738095D01*
X79214285Y-110880952D01*
X78642857Y-111452380D01*
X79261904Y-111452380D01*
%TO.C,TP12*%
X80761904Y-101902380D02*
X81333333Y-101902380D01*
X81047619Y-102902380D02*
X81047619Y-101902380D01*
X81666666Y-102902380D02*
X81666666Y-101902380D01*
X82047619Y-101902380D01*
X82142857Y-101950000D01*
X82190476Y-101997619D01*
X82238095Y-102092857D01*
X82238095Y-102235714D01*
X82190476Y-102330952D01*
X82142857Y-102378571D01*
X82047619Y-102426190D01*
X81666666Y-102426190D01*
X83190476Y-102902380D02*
X82619047Y-102902380D01*
X82904761Y-102902380D02*
X82904761Y-101902380D01*
X82809523Y-102045238D01*
X82714285Y-102140476D01*
X82619047Y-102188095D01*
X83571428Y-101997619D02*
X83619047Y-101950000D01*
X83714285Y-101902380D01*
X83952380Y-101902380D01*
X84047619Y-101950000D01*
X84095238Y-101997619D01*
X84142857Y-102092857D01*
X84142857Y-102188095D01*
X84095238Y-102330952D01*
X83523809Y-102902380D01*
X84142857Y-102902380D01*
%TO.C,JP18*%
X85590476Y-82852380D02*
X85590476Y-83566666D01*
X85542857Y-83709523D01*
X85447619Y-83804761D01*
X85304761Y-83852380D01*
X85209523Y-83852380D01*
X86066666Y-83852380D02*
X86066666Y-82852380D01*
X86447619Y-82852380D01*
X86542857Y-82900000D01*
X86590476Y-82947619D01*
X86638095Y-83042857D01*
X86638095Y-83185714D01*
X86590476Y-83280952D01*
X86542857Y-83328571D01*
X86447619Y-83376190D01*
X86066666Y-83376190D01*
X87590476Y-83852380D02*
X87019047Y-83852380D01*
X87304761Y-83852380D02*
X87304761Y-82852380D01*
X87209523Y-82995238D01*
X87114285Y-83090476D01*
X87019047Y-83138095D01*
X88161904Y-83280952D02*
X88066666Y-83233333D01*
X88019047Y-83185714D01*
X87971428Y-83090476D01*
X87971428Y-83042857D01*
X88019047Y-82947619D01*
X88066666Y-82900000D01*
X88161904Y-82852380D01*
X88352380Y-82852380D01*
X88447619Y-82900000D01*
X88495238Y-82947619D01*
X88542857Y-83042857D01*
X88542857Y-83090476D01*
X88495238Y-83185714D01*
X88447619Y-83233333D01*
X88352380Y-83280952D01*
X88161904Y-83280952D01*
X88066666Y-83328571D01*
X88019047Y-83376190D01*
X87971428Y-83471428D01*
X87971428Y-83661904D01*
X88019047Y-83757142D01*
X88066666Y-83804761D01*
X88161904Y-83852380D01*
X88352380Y-83852380D01*
X88447619Y-83804761D01*
X88495238Y-83757142D01*
X88542857Y-83661904D01*
X88542857Y-83471428D01*
X88495238Y-83376190D01*
X88447619Y-83328571D01*
X88352380Y-83280952D01*
%TO.C,TP6*%
X53538095Y-101952380D02*
X54109523Y-101952380D01*
X53823809Y-102952380D02*
X53823809Y-101952380D01*
X54442857Y-102952380D02*
X54442857Y-101952380D01*
X54823809Y-101952380D01*
X54919047Y-102000000D01*
X54966666Y-102047619D01*
X55014285Y-102142857D01*
X55014285Y-102285714D01*
X54966666Y-102380952D01*
X54919047Y-102428571D01*
X54823809Y-102476190D01*
X54442857Y-102476190D01*
X55871428Y-101952380D02*
X55680952Y-101952380D01*
X55585714Y-102000000D01*
X55538095Y-102047619D01*
X55442857Y-102190476D01*
X55395238Y-102380952D01*
X55395238Y-102761904D01*
X55442857Y-102857142D01*
X55490476Y-102904761D01*
X55585714Y-102952380D01*
X55776190Y-102952380D01*
X55871428Y-102904761D01*
X55919047Y-102857142D01*
X55966666Y-102761904D01*
X55966666Y-102523809D01*
X55919047Y-102428571D01*
X55871428Y-102380952D01*
X55776190Y-102333333D01*
X55585714Y-102333333D01*
X55490476Y-102380952D01*
X55442857Y-102428571D01*
X55395238Y-102523809D01*
%TO.C,C1*%
X65433333Y-103257142D02*
X65385714Y-103304761D01*
X65242857Y-103352380D01*
X65147619Y-103352380D01*
X65004761Y-103304761D01*
X64909523Y-103209523D01*
X64861904Y-103114285D01*
X64814285Y-102923809D01*
X64814285Y-102780952D01*
X64861904Y-102590476D01*
X64909523Y-102495238D01*
X65004761Y-102400000D01*
X65147619Y-102352380D01*
X65242857Y-102352380D01*
X65385714Y-102400000D01*
X65433333Y-102447619D01*
X66385714Y-103352380D02*
X65814285Y-103352380D01*
X66100000Y-103352380D02*
X66100000Y-102352380D01*
X66004761Y-102495238D01*
X65909523Y-102590476D01*
X65814285Y-102638095D01*
%TO.C,JP14*%
X91090476Y-92652380D02*
X91090476Y-93366666D01*
X91042857Y-93509523D01*
X90947619Y-93604761D01*
X90804761Y-93652380D01*
X90709523Y-93652380D01*
X91566666Y-93652380D02*
X91566666Y-92652380D01*
X91947619Y-92652380D01*
X92042857Y-92700000D01*
X92090476Y-92747619D01*
X92138095Y-92842857D01*
X92138095Y-92985714D01*
X92090476Y-93080952D01*
X92042857Y-93128571D01*
X91947619Y-93176190D01*
X91566666Y-93176190D01*
X93090476Y-93652380D02*
X92519047Y-93652380D01*
X92804761Y-93652380D02*
X92804761Y-92652380D01*
X92709523Y-92795238D01*
X92614285Y-92890476D01*
X92519047Y-92938095D01*
X93947619Y-92985714D02*
X93947619Y-93652380D01*
X93709523Y-92604761D02*
X93471428Y-93319047D01*
X94090476Y-93319047D01*
%TO.C,D1*%
X70061904Y-77082380D02*
X70061904Y-76082380D01*
X70300000Y-76082380D01*
X70442857Y-76130000D01*
X70538095Y-76225238D01*
X70585714Y-76320476D01*
X70633333Y-76510952D01*
X70633333Y-76653809D01*
X70585714Y-76844285D01*
X70538095Y-76939523D01*
X70442857Y-77034761D01*
X70300000Y-77082380D01*
X70061904Y-77082380D01*
X71585714Y-77082380D02*
X71014285Y-77082380D01*
X71300000Y-77082380D02*
X71300000Y-76082380D01*
X71204761Y-76225238D01*
X71109523Y-76320476D01*
X71014285Y-76368095D01*
X66728095Y-77452380D02*
X66728095Y-76452380D01*
X67299523Y-77452380D02*
X66870952Y-76880952D01*
X67299523Y-76452380D02*
X66728095Y-77023809D01*
D13*
%TO.C,J5*%
X61060000Y-78100000D02*
X61060000Y-72100000D01*
X63820000Y-72100000D02*
X63820000Y-78100000D01*
X59630000Y-83470000D02*
X59630000Y-82200000D01*
X60820000Y-78100000D02*
X60820000Y-72100000D01*
X60520000Y-78100000D02*
X60520000Y-72100000D01*
X61280000Y-72100000D02*
X61280000Y-78100000D01*
X59570000Y-78100000D02*
X59570000Y-80760000D01*
X59570000Y-80760000D02*
X64770000Y-80760000D01*
X60700000Y-78100000D02*
X60700000Y-72100000D01*
X60520000Y-72100000D02*
X61280000Y-72100000D01*
X61180000Y-78100000D02*
X61180000Y-72100000D01*
X60580000Y-78100000D02*
X60580000Y-72100000D01*
X60900000Y-83470000D02*
X59630000Y-83470000D01*
X62170000Y-80760000D02*
X62170000Y-78100000D01*
X60940000Y-78100000D02*
X60940000Y-72100000D01*
X64770000Y-80760000D02*
X64770000Y-78100000D01*
X61280000Y-81090000D02*
X61280000Y-80760000D01*
X64770000Y-78100000D02*
X59570000Y-78100000D01*
X63060000Y-78100000D02*
X63060000Y-72100000D01*
X63820000Y-81157071D02*
X63820000Y-80760000D01*
X60520000Y-81090000D02*
X60520000Y-80760000D01*
X63060000Y-72100000D02*
X63820000Y-72100000D01*
X63060000Y-81157071D02*
X63060000Y-80760000D01*
%TO.C,JP17*%
X61600000Y-83050000D02*
G75*
G03*
X63000000Y-83050000I700000J1200003D01*
G01*
%TO.C,R27*%
X98822500Y-108337258D02*
X98822500Y-107862742D01*
X97777500Y-108337258D02*
X97777500Y-107862742D01*
%TO.C,R26*%
X98822500Y-112437258D02*
X98822500Y-111962742D01*
X97777500Y-112437258D02*
X97777500Y-111962742D01*
%TO.C,R25*%
X70722500Y-108337258D02*
X70722500Y-107862742D01*
X69677500Y-108337258D02*
X69677500Y-107862742D01*
%TO.C,R24*%
X70722500Y-112637258D02*
X70722500Y-112162742D01*
X69677500Y-112637258D02*
X69677500Y-112162742D01*
%TO.C,R23*%
X86722500Y-112437258D02*
X86722500Y-111962742D01*
X85677500Y-112437258D02*
X85677500Y-111962742D01*
%TO.C,R22*%
X59022500Y-112637258D02*
X59022500Y-112162742D01*
X57977500Y-112637258D02*
X57977500Y-112162742D01*
%TO.C,R21*%
X86662742Y-85722500D02*
X87137258Y-85722500D01*
X86662742Y-84677500D02*
X87137258Y-84677500D01*
%TO.C,R20*%
X88662742Y-90722500D02*
X89137258Y-90722500D01*
X88662742Y-89677500D02*
X89137258Y-89677500D01*
%TO.C,R19*%
X88662742Y-96722500D02*
X89137258Y-96722500D01*
X88662742Y-95677500D02*
X89137258Y-95677500D01*
%TO.C,R18*%
X88662742Y-93722500D02*
X89137258Y-93722500D01*
X88662742Y-92677500D02*
X89137258Y-92677500D01*
%TO.C,R17*%
X88662742Y-99722500D02*
X89137258Y-99722500D01*
X88662742Y-98677500D02*
X89137258Y-98677500D01*
%TO.C,R16*%
X66087258Y-89677500D02*
X65612742Y-89677500D01*
X66087258Y-90722500D02*
X65612742Y-90722500D01*
%TO.C,R15*%
X66087258Y-95677500D02*
X65612742Y-95677500D01*
X66087258Y-96722500D02*
X65612742Y-96722500D01*
%TO.C,R14*%
X66087258Y-92677500D02*
X65612742Y-92677500D01*
X66087258Y-93722500D02*
X65612742Y-93722500D01*
%TO.C,R13*%
X66087258Y-98677500D02*
X65612742Y-98677500D01*
X66087258Y-99722500D02*
X65612742Y-99722500D01*
D12*
%TO.C,TP2*%
X77400000Y-104900000D02*
G75*
G03*
X77400000Y-104900000I-1400000J0D01*
G01*
D13*
%TO.C,J1*%
X45594200Y-131650000D02*
X61714200Y-131650000D01*
X45594200Y-122500000D02*
X61714200Y-122500000D01*
X61714200Y-131650000D02*
X61714200Y-122500000D01*
X45594200Y-122500000D02*
X45594200Y-131650000D01*
%TO.C,R2*%
X72590000Y-109372936D02*
X72590000Y-110827064D01*
X74410000Y-109372936D02*
X74410000Y-110827064D01*
%TO.C,C2*%
X94247500Y-104759420D02*
X94247500Y-105040580D01*
X93227500Y-104759420D02*
X93227500Y-105040580D01*
%TO.C,JP9*%
X83400000Y-98200000D02*
X86200000Y-98200000D01*
X83400000Y-100200000D02*
X83400000Y-98200000D01*
X86200000Y-100200000D02*
X83400000Y-100200000D01*
X86200000Y-98200000D02*
X86200000Y-100200000D01*
D12*
%TO.C,TP9*%
X91537500Y-114900000D02*
G75*
G03*
X91537500Y-114900000I-1400000J0D01*
G01*
D13*
%TO.C,J10*%
X109220000Y-73542200D02*
X106620000Y-73542200D01*
X107950000Y-70942200D02*
X106620000Y-70942200D01*
X106620000Y-73542200D02*
X106620000Y-119322200D01*
X111820000Y-119322200D02*
X106620000Y-119322200D01*
X106620000Y-70942200D02*
X106620000Y-72272200D01*
X109220000Y-70942200D02*
X109220000Y-73542200D01*
X111820000Y-70942200D02*
X109220000Y-70942200D01*
X111820000Y-70942200D02*
X111820000Y-119322200D01*
%TO.C,J2*%
X62294200Y-122500000D02*
X62294200Y-131650000D01*
X62294200Y-122500000D02*
X78414200Y-122500000D01*
X78414200Y-131650000D02*
X78414200Y-122500000D01*
X62294200Y-131650000D02*
X78414200Y-131650000D01*
%TO.C,R7*%
X88510000Y-79427064D02*
X88510000Y-77972936D01*
X86690000Y-79427064D02*
X86690000Y-77972936D01*
%TO.C,JP20*%
X59500000Y-113800000D02*
X57500000Y-113800000D01*
X57500000Y-113800000D02*
X57500000Y-111000000D01*
X57500000Y-111000000D02*
X59500000Y-111000000D01*
X59500000Y-111000000D02*
X59500000Y-113800000D01*
D12*
%TO.C,TP13*%
X81600000Y-85100000D02*
G75*
G03*
X81600000Y-85100000I-1400000J0D01*
G01*
D13*
%TO.C,LED2*%
X66215000Y-85760000D02*
X68900000Y-85760000D01*
X68900000Y-83840000D02*
X66215000Y-83840000D01*
X66215000Y-83840000D02*
X66215000Y-85760000D01*
%TO.C,JP4*%
X67250000Y-91200000D02*
X64450000Y-91200000D01*
X67250000Y-89200000D02*
X67250000Y-91200000D01*
X64450000Y-89200000D02*
X67250000Y-89200000D01*
X64450000Y-91200000D02*
X64450000Y-89200000D01*
%TO.C,R9*%
X54727064Y-109810000D02*
X53272936Y-109810000D01*
X54727064Y-107990000D02*
X53272936Y-107990000D01*
%TO.C,U3*%
X83480000Y-73830000D02*
X83480000Y-71000000D01*
X83750000Y-73830000D02*
X83480000Y-73830000D01*
X83750000Y-75330000D02*
X83750000Y-73830000D01*
X76850000Y-73830000D02*
X77120000Y-73830000D01*
X76850000Y-75330000D02*
X76850000Y-73830000D01*
X77120000Y-73830000D02*
X77120000Y-72730000D01*
%TO.C,R3*%
X69527064Y-114890000D02*
X68072936Y-114890000D01*
X69527064Y-116710000D02*
X68072936Y-116710000D01*
%TO.C,J3*%
X95114200Y-131650000D02*
X95114200Y-122500000D01*
X78994200Y-122500000D02*
X78994200Y-131650000D01*
X78994200Y-122500000D02*
X95114200Y-122500000D01*
X78994200Y-131650000D02*
X95114200Y-131650000D01*
%TO.C,JP3*%
X67250000Y-95200000D02*
X67250000Y-97200000D01*
X67250000Y-97200000D02*
X64450000Y-97200000D01*
X64450000Y-95200000D02*
X67250000Y-95200000D01*
X64450000Y-97200000D02*
X64450000Y-95200000D01*
%TO.C,U2*%
X92037500Y-107340000D02*
X93987500Y-107340000D01*
X92037500Y-107340000D02*
X88587500Y-107340000D01*
X92037500Y-112460000D02*
X90087500Y-112460000D01*
X92037500Y-112460000D02*
X93987500Y-112460000D01*
%TO.C,JP6*%
X68600000Y-94200000D02*
X68600000Y-92200000D01*
X71400000Y-92200000D02*
X71400000Y-94200000D01*
X71400000Y-94200000D02*
X68600000Y-94200000D01*
X68600000Y-92200000D02*
X71400000Y-92200000D01*
%TO.C,JP11*%
X86200000Y-95200000D02*
X86200000Y-97200000D01*
X86200000Y-97200000D02*
X83400000Y-97200000D01*
X83400000Y-95200000D02*
X86200000Y-95200000D01*
X83400000Y-97200000D02*
X83400000Y-95200000D01*
%TO.C,JP25*%
X99300000Y-110800000D02*
X99300000Y-113600000D01*
X99300000Y-113600000D02*
X97300000Y-113600000D01*
X97300000Y-113600000D02*
X97300000Y-110800000D01*
X97300000Y-110800000D02*
X99300000Y-110800000D01*
%TO.C,R1*%
X68472936Y-105510000D02*
X69927064Y-105510000D01*
X68472936Y-103690000D02*
X69927064Y-103690000D01*
%TO.C,JP23*%
X71200000Y-111000000D02*
X71200000Y-113800000D01*
X69200000Y-111000000D02*
X71200000Y-111000000D01*
X69200000Y-113800000D02*
X69200000Y-111000000D01*
X71200000Y-113800000D02*
X69200000Y-113800000D01*
%TO.C,JP24*%
X69200000Y-106700000D02*
X71200000Y-106700000D01*
X71200000Y-109500000D02*
X69200000Y-109500000D01*
X71200000Y-106700000D02*
X71200000Y-109500000D01*
X69200000Y-109500000D02*
X69200000Y-106700000D01*
%TO.C,JP16*%
X90300000Y-89200000D02*
X90300000Y-91200000D01*
X87500000Y-91200000D02*
X87500000Y-89200000D01*
X87500000Y-89200000D02*
X90300000Y-89200000D01*
X90300000Y-91200000D02*
X87500000Y-91200000D01*
%TO.C,LED1*%
X93860000Y-79900000D02*
X93860000Y-77215000D01*
X91940000Y-77215000D02*
X91940000Y-79900000D01*
X93860000Y-77215000D02*
X91940000Y-77215000D01*
%TO.C,JP22*%
X85200000Y-113600000D02*
X85200000Y-110800000D01*
X87200000Y-113600000D02*
X85200000Y-113600000D01*
X87200000Y-110800000D02*
X87200000Y-113600000D01*
X85200000Y-110800000D02*
X87200000Y-110800000D01*
%TO.C,JP8*%
X68600000Y-91200000D02*
X68600000Y-89200000D01*
X71400000Y-91200000D02*
X68600000Y-91200000D01*
X71400000Y-89200000D02*
X71400000Y-91200000D01*
X68600000Y-89200000D02*
X71400000Y-89200000D01*
%TO.C,R5*%
X100690000Y-108972936D02*
X100690000Y-110427064D01*
X102510000Y-108972936D02*
X102510000Y-110427064D01*
%TO.C,R10*%
X54727064Y-110390000D02*
X53272936Y-110390000D01*
X54727064Y-112210000D02*
X53272936Y-112210000D01*
D12*
%TO.C,TP7*%
X105700000Y-114400000D02*
G75*
G03*
X105700000Y-114400000I-1400000J0D01*
G01*
D13*
%TO.C,JP15*%
X90300000Y-95200000D02*
X90300000Y-97200000D01*
X87500000Y-95200000D02*
X90300000Y-95200000D01*
X90300000Y-97200000D02*
X87500000Y-97200000D01*
X87500000Y-97200000D02*
X87500000Y-95200000D01*
%TO.C,JP7*%
X71400000Y-95200000D02*
X71400000Y-97200000D01*
X68600000Y-95200000D02*
X71400000Y-95200000D01*
X68600000Y-97200000D02*
X68600000Y-95200000D01*
X71400000Y-97200000D02*
X68600000Y-97200000D01*
%TO.C,JP21*%
X87200000Y-109500000D02*
X85200000Y-109500000D01*
X85200000Y-109500000D02*
X85200000Y-106700000D01*
X85200000Y-106700000D02*
X87200000Y-106700000D01*
X87200000Y-106700000D02*
X87200000Y-109500000D01*
%TO.C,J7*%
X45660000Y-73542200D02*
X45660000Y-119322200D01*
X48260000Y-73542200D02*
X45660000Y-73542200D01*
X46990000Y-70942200D02*
X45660000Y-70942200D01*
X50860000Y-119322200D02*
X45660000Y-119322200D01*
X48260000Y-70942200D02*
X48260000Y-73542200D01*
X45660000Y-70942200D02*
X45660000Y-72272200D01*
X50860000Y-70942200D02*
X50860000Y-119322200D01*
X50860000Y-70942200D02*
X48260000Y-70942200D01*
D12*
%TO.C,TP4*%
X63600000Y-104900000D02*
G75*
G03*
X63600000Y-104900000I-1400000J0D01*
G01*
D13*
%TO.C,JP12*%
X86200000Y-91200000D02*
X83400000Y-91200000D01*
X86200000Y-89200000D02*
X86200000Y-91200000D01*
X83400000Y-89200000D02*
X86200000Y-89200000D01*
X83400000Y-91200000D02*
X83400000Y-89200000D01*
%TO.C,C5*%
X68800000Y-75410000D02*
X75560000Y-75410000D01*
X75560000Y-71990000D02*
X68800000Y-71990000D01*
X75560000Y-75410000D02*
X75560000Y-71990000D01*
D12*
%TO.C,TP5*%
X56300000Y-114800000D02*
G75*
G03*
X56300000Y-114800000I-1400000J0D01*
G01*
D13*
%TO.C,R4*%
X96572936Y-103590000D02*
X98027064Y-103590000D01*
X96572936Y-105410000D02*
X98027064Y-105410000D01*
%TO.C,JP13*%
X87500000Y-98200000D02*
X90300000Y-98200000D01*
X87500000Y-100200000D02*
X87500000Y-98200000D01*
X90300000Y-100200000D02*
X87500000Y-100200000D01*
X90300000Y-98200000D02*
X90300000Y-100200000D01*
%TO.C,C3*%
X51865000Y-98838748D02*
X51865000Y-99361252D01*
X53335000Y-98838748D02*
X53335000Y-99361252D01*
%TO.C,JP2*%
X64450000Y-92200000D02*
X67250000Y-92200000D01*
X67250000Y-92200000D02*
X67250000Y-94200000D01*
X67250000Y-94200000D02*
X64450000Y-94200000D01*
X64450000Y-94200000D02*
X64450000Y-92200000D01*
D12*
%TO.C,TP1*%
X77500000Y-114800000D02*
G75*
G03*
X77500000Y-114800000I-1400000J0D01*
G01*
D13*
%TO.C,R8*%
X73627064Y-83890000D02*
X72172936Y-83890000D01*
X73627064Y-85710000D02*
X72172936Y-85710000D01*
%TO.C,JP19*%
X57500000Y-109500000D02*
X57500000Y-106700000D01*
X57500000Y-106700000D02*
X59500000Y-106700000D01*
X59500000Y-106700000D02*
X59500000Y-109500000D01*
X59500000Y-109500000D02*
X57500000Y-109500000D01*
%TO.C,JP5*%
X71400000Y-100200000D02*
X68600000Y-100200000D01*
X68600000Y-98200000D02*
X71400000Y-98200000D01*
X68600000Y-100200000D02*
X68600000Y-98200000D01*
X71400000Y-98200000D02*
X71400000Y-100200000D01*
%TO.C,JP1*%
X64450000Y-98200000D02*
X67250000Y-98200000D01*
X67250000Y-100200000D02*
X64450000Y-100200000D01*
X67250000Y-98200000D02*
X67250000Y-100200000D01*
X64450000Y-100200000D02*
X64450000Y-98200000D01*
D12*
%TO.C,TP10*%
X91537500Y-104850000D02*
G75*
G03*
X91537500Y-104850000I-1400000J0D01*
G01*
D13*
%TO.C,R11*%
X82527064Y-109510000D02*
X81072936Y-109510000D01*
X82527064Y-107690000D02*
X81072936Y-107690000D01*
D12*
%TO.C,TP3*%
X63600000Y-114900000D02*
G75*
G03*
X63600000Y-114900000I-1400000J0D01*
G01*
D13*
%TO.C,C4*%
X86290000Y-75960000D02*
X94350000Y-75960000D01*
X86290000Y-71440000D02*
X86290000Y-75960000D01*
X94350000Y-71440000D02*
X86290000Y-71440000D01*
%TO.C,R6*%
X97527064Y-114890000D02*
X96072936Y-114890000D01*
X97527064Y-116710000D02*
X96072936Y-116710000D01*
%TO.C,JP10*%
X83400000Y-94200000D02*
X83400000Y-92200000D01*
X86200000Y-92200000D02*
X86200000Y-94200000D01*
X86200000Y-94200000D02*
X83400000Y-94200000D01*
X83400000Y-92200000D02*
X86200000Y-92200000D01*
%TO.C,U1*%
X64200000Y-107540000D02*
X66150000Y-107540000D01*
X64200000Y-112660000D02*
X62250000Y-112660000D01*
X64200000Y-107540000D02*
X60750000Y-107540000D01*
X64200000Y-112660000D02*
X66150000Y-112660000D01*
D12*
%TO.C,TP11*%
X83937500Y-114800000D02*
G75*
G03*
X83937500Y-114800000I-1400000J0D01*
G01*
D13*
%TO.C,JP26*%
X99300000Y-106700000D02*
X99300000Y-109500000D01*
X97300000Y-109500000D02*
X97300000Y-106700000D01*
X99300000Y-109500000D02*
X97300000Y-109500000D01*
X97300000Y-106700000D02*
X99300000Y-106700000D01*
%TO.C,G\u002A\u002A\u002A*%
G36*
X103242164Y-82731416D02*
G01*
X103242268Y-82720461D01*
X103864316Y-82720461D01*
X103865838Y-82755705D01*
X103867522Y-82763983D01*
X103868803Y-82755403D01*
X103869476Y-82731930D01*
X103869530Y-82720415D01*
X103869121Y-82692138D01*
X103868032Y-82678059D01*
X103866468Y-82680141D01*
X103865838Y-82685124D01*
X103864316Y-82720461D01*
X103242268Y-82720461D01*
X103242546Y-82691211D01*
X103244318Y-82665646D01*
X103248416Y-82650545D01*
X103255779Y-82641731D01*
X103263339Y-82637086D01*
X103275827Y-82633714D01*
X103299900Y-82631139D01*
X103336875Y-82629323D01*
X103388069Y-82628233D01*
X103454799Y-82627833D01*
X103538381Y-82628087D01*
X103585662Y-82628437D01*
X103886810Y-82631011D01*
X103889504Y-82722767D01*
X103892197Y-82814523D01*
X103242164Y-82814523D01*
X103242164Y-82731416D01*
G37*
G36*
X103700441Y-95524891D02*
G01*
X103712378Y-95537432D01*
X103714922Y-95551862D01*
X103717097Y-95584676D01*
X103718895Y-95635438D01*
X103720304Y-95703713D01*
X103721318Y-95789067D01*
X103721926Y-95891065D01*
X103722120Y-96004292D01*
X103722120Y-96452948D01*
X103677418Y-96494176D01*
X103632716Y-96535405D01*
X103553761Y-96535505D01*
X103508421Y-96534307D01*
X103479558Y-96530367D01*
X103464981Y-96523370D01*
X103464358Y-96522658D01*
X103454322Y-96514563D01*
X103430458Y-96497337D01*
X103394620Y-96472258D01*
X103348662Y-96440602D01*
X103294437Y-96403649D01*
X103233800Y-96362676D01*
X103176288Y-96324095D01*
X103099870Y-96272786D01*
X103037943Y-96230664D01*
X102989165Y-96196734D01*
X102952197Y-96170003D01*
X102925699Y-96149475D01*
X102908331Y-96134157D01*
X102898752Y-96123055D01*
X102895689Y-96115887D01*
X102896929Y-96098788D01*
X102902747Y-96093293D01*
X102912471Y-96085823D01*
X102913387Y-96081530D01*
X102920830Y-96072724D01*
X102941322Y-96054663D01*
X102972662Y-96029121D01*
X103012650Y-95997873D01*
X103059084Y-95962696D01*
X103079643Y-95947425D01*
X103138252Y-95904051D01*
X103206771Y-95853202D01*
X103280056Y-95798702D01*
X103352965Y-95744377D01*
X103420357Y-95694052D01*
X103436478Y-95681992D01*
X103489553Y-95642417D01*
X103538432Y-95606257D01*
X103580855Y-95575159D01*
X103614562Y-95550773D01*
X103637293Y-95534748D01*
X103646039Y-95529065D01*
X103675929Y-95519805D01*
X103700441Y-95524891D01*
G37*
G36*
X103257219Y-95163413D02*
G01*
X103273003Y-95169545D01*
X103295227Y-95181120D01*
X103325780Y-95199244D01*
X103366546Y-95225025D01*
X103419412Y-95259570D01*
X103470342Y-95293367D01*
X103515016Y-95323773D01*
X103545892Y-95346582D01*
X103565322Y-95363862D01*
X103575659Y-95377680D01*
X103579144Y-95388953D01*
X103575862Y-95413479D01*
X103567054Y-95426597D01*
X103548741Y-95442255D01*
X103540627Y-95449325D01*
X103527563Y-95459512D01*
X103503971Y-95476810D01*
X103474789Y-95497602D01*
X103472725Y-95499052D01*
X103437758Y-95523629D01*
X103405343Y-95546491D01*
X103373080Y-95569354D01*
X103338566Y-95593932D01*
X103299398Y-95621943D01*
X103253176Y-95655102D01*
X103197497Y-95695125D01*
X103129959Y-95743728D01*
X103097675Y-95766971D01*
X103038079Y-95809958D01*
X102981271Y-95851076D01*
X102929678Y-95888560D01*
X102885723Y-95920642D01*
X102851834Y-95945556D01*
X102830435Y-95961536D01*
X102828397Y-95963096D01*
X102797286Y-95984076D01*
X102765561Y-96000865D01*
X102748708Y-96007224D01*
X102726654Y-96011821D01*
X102709238Y-96009451D01*
X102689054Y-95998109D01*
X102673453Y-95986847D01*
X102650123Y-95970269D01*
X102615406Y-95946557D01*
X102573770Y-95918723D01*
X102529679Y-95889777D01*
X102524254Y-95886254D01*
X102484130Y-95859620D01*
X102449872Y-95835721D01*
X102424552Y-95816789D01*
X102411244Y-95805052D01*
X102410103Y-95803395D01*
X102409163Y-95792869D01*
X102415250Y-95779278D01*
X102429577Y-95761529D01*
X102453360Y-95738530D01*
X102487810Y-95709186D01*
X102534144Y-95672406D01*
X102593574Y-95627097D01*
X102665236Y-95573702D01*
X102722469Y-95531433D01*
X102775647Y-95492271D01*
X102822641Y-95457774D01*
X102861325Y-95429500D01*
X102889570Y-95409009D01*
X102905247Y-95397857D01*
X102906684Y-95396887D01*
X102923746Y-95384995D01*
X102951046Y-95365251D01*
X102983796Y-95341133D01*
X102998102Y-95330478D01*
X103064443Y-95281048D01*
X103117483Y-95241949D01*
X103158861Y-95212064D01*
X103190216Y-95190276D01*
X103213189Y-95175468D01*
X103229418Y-95166524D01*
X103240542Y-95162327D01*
X103245992Y-95161615D01*
X103257219Y-95163413D01*
G37*
G36*
X100079175Y-93082019D02*
G01*
X100090599Y-93089813D01*
X100109742Y-93103567D01*
X100122453Y-93110988D01*
X100134733Y-93117803D01*
X100157546Y-93131903D01*
X100183624Y-93148719D01*
X100217626Y-93170920D01*
X100259091Y-93197826D01*
X100299628Y-93223996D01*
X100303613Y-93226559D01*
X100337455Y-93249159D01*
X100358020Y-93265723D01*
X100368414Y-93279478D01*
X100371747Y-93293647D01*
X100371842Y-93297359D01*
X100367623Y-93317728D01*
X100352576Y-93337009D01*
X100331846Y-93353940D01*
X100312812Y-93367933D01*
X100280640Y-93391455D01*
X100237425Y-93422981D01*
X100185264Y-93460987D01*
X100126251Y-93503948D01*
X100062483Y-93550340D01*
X99996057Y-93598638D01*
X99929067Y-93647319D01*
X99863610Y-93694857D01*
X99801781Y-93739729D01*
X99745677Y-93780411D01*
X99697394Y-93815376D01*
X99697216Y-93815505D01*
X99656915Y-93844196D01*
X99625005Y-93863966D01*
X99597872Y-93874565D01*
X99571904Y-93875740D01*
X99543488Y-93867238D01*
X99509010Y-93848807D01*
X99464859Y-93820196D01*
X99430523Y-93796879D01*
X99386706Y-93767146D01*
X99347488Y-93740786D01*
X99315881Y-93719806D01*
X99294899Y-93706210D01*
X99288513Y-93702351D01*
X99269780Y-93683905D01*
X99268252Y-93659305D01*
X99276702Y-93641200D01*
X99287307Y-93630757D01*
X99311388Y-93610413D01*
X99347291Y-93581463D01*
X99393363Y-93545201D01*
X99447952Y-93502922D01*
X99509403Y-93455923D01*
X99576063Y-93405497D01*
X99613036Y-93377753D01*
X99681622Y-93326410D01*
X99745858Y-93278284D01*
X99804104Y-93234607D01*
X99854723Y-93196607D01*
X99896078Y-93165514D01*
X99926531Y-93142558D01*
X99944445Y-93128970D01*
X99948352Y-93125940D01*
X99990907Y-93094457D01*
X100024931Y-93077141D01*
X100053371Y-93073245D01*
X100079175Y-93082019D01*
G37*
G36*
X103469673Y-82469703D02*
G01*
X103439575Y-82467376D01*
X103416605Y-82463341D01*
X103397444Y-82457329D01*
X103396868Y-82457148D01*
X103378622Y-82449347D01*
X103323001Y-82417377D01*
X103282343Y-82378386D01*
X103255018Y-82329776D01*
X103239394Y-82268953D01*
X103234672Y-82220324D01*
X103234741Y-82207521D01*
X103392738Y-82207521D01*
X103397444Y-82212226D01*
X103402149Y-82207521D01*
X103397767Y-82203138D01*
X103427236Y-82203138D01*
X103441604Y-82234994D01*
X103470144Y-82259731D01*
X103488848Y-82269462D01*
X103509801Y-82274919D01*
X103538456Y-82276910D01*
X103580267Y-82276244D01*
X103581395Y-82276205D01*
X103635330Y-82272297D01*
X103673054Y-82264067D01*
X103696941Y-82250178D01*
X103709364Y-82229290D01*
X103712709Y-82202149D01*
X103708359Y-82170013D01*
X103692906Y-82146115D01*
X103688694Y-82142017D01*
X103653666Y-82119393D01*
X103610896Y-82106359D01*
X103564647Y-82102498D01*
X103519178Y-82107389D01*
X103478751Y-82120612D01*
X103447626Y-82141747D01*
X103431017Y-82167394D01*
X103427236Y-82203138D01*
X103397767Y-82203138D01*
X103397444Y-82202815D01*
X103392738Y-82207521D01*
X103234741Y-82207521D01*
X103235045Y-82151576D01*
X103244840Y-82095609D01*
X103265429Y-82048190D01*
X103298184Y-82005086D01*
X103307599Y-81995321D01*
X103348381Y-81960192D01*
X103392129Y-81935131D01*
X103442739Y-81918843D01*
X103504102Y-81910029D01*
X103571545Y-81907419D01*
X103658467Y-81911444D01*
X103730339Y-81925085D01*
X103788678Y-81949019D01*
X103835000Y-81983927D01*
X103870820Y-82030486D01*
X103878863Y-82045095D01*
X103898093Y-82098498D01*
X103908008Y-82161388D01*
X103908225Y-82226683D01*
X103898360Y-82287299D01*
X103892955Y-82304709D01*
X103863151Y-82361400D01*
X103818477Y-82409793D01*
X103762269Y-82446365D01*
X103756069Y-82449270D01*
X103735483Y-82457827D01*
X103715276Y-82463811D01*
X103691522Y-82467671D01*
X103660297Y-82469859D01*
X103617680Y-82470826D01*
X103566840Y-82471026D01*
X103538456Y-82470896D01*
X103510795Y-82470770D01*
X103469673Y-82469703D01*
G37*
G36*
X102223478Y-77883315D02*
G01*
X102283509Y-77883948D01*
X102339197Y-77884958D01*
X102387668Y-77886333D01*
X102426050Y-77888061D01*
X102451467Y-77890131D01*
X102461047Y-77892530D01*
X102461060Y-77892626D01*
X102469211Y-77899339D01*
X102488155Y-77902037D01*
X102517482Y-77904210D01*
X102560507Y-77910134D01*
X102612760Y-77918916D01*
X102669773Y-77929666D01*
X102727078Y-77941492D01*
X102780206Y-77953501D01*
X102824689Y-77964803D01*
X102856059Y-77974505D01*
X102861023Y-77976448D01*
X102877658Y-77982528D01*
X102907484Y-77992628D01*
X102945729Y-78005152D01*
X102973954Y-78014189D01*
X103015527Y-78027591D01*
X103052236Y-78039808D01*
X103079163Y-78049185D01*
X103089237Y-78053034D01*
X103116063Y-78064162D01*
X103131586Y-78070421D01*
X103153413Y-78080083D01*
X103188076Y-78096572D01*
X103231749Y-78117962D01*
X103280607Y-78142324D01*
X103330825Y-78167731D01*
X103378575Y-78192257D01*
X103420034Y-78213973D01*
X103451375Y-78230953D01*
X103460199Y-78235974D01*
X103585049Y-78314795D01*
X103714088Y-78407538D01*
X103843519Y-78511085D01*
X103969543Y-78622314D01*
X104088364Y-78738105D01*
X104147596Y-78800778D01*
X104197513Y-78856407D01*
X104250774Y-78917762D01*
X104304471Y-78981328D01*
X104355695Y-79043592D01*
X104401539Y-79101040D01*
X104439093Y-79150158D01*
X104455273Y-79172508D01*
X104496059Y-79231026D01*
X104533016Y-79285024D01*
X104564799Y-79332461D01*
X104590067Y-79371299D01*
X104607477Y-79399499D01*
X104615686Y-79415021D01*
X104616155Y-79416877D01*
X104623126Y-79426269D01*
X104625565Y-79426602D01*
X104634598Y-79433849D01*
X104634976Y-79436670D01*
X104639966Y-79449621D01*
X104652748Y-79471848D01*
X104663209Y-79487773D01*
X104679090Y-79511948D01*
X104689332Y-79529634D01*
X104691442Y-79535070D01*
X104696382Y-79546361D01*
X104708353Y-79565166D01*
X104709162Y-79566313D01*
X104733525Y-79603970D01*
X104763937Y-79656264D01*
X104799051Y-79720525D01*
X104837522Y-79794082D01*
X104878003Y-79874263D01*
X104919147Y-79958399D01*
X104959609Y-80043818D01*
X104998041Y-80127849D01*
X105033097Y-80207822D01*
X105036056Y-80214764D01*
X105049671Y-80246544D01*
X105062399Y-80275935D01*
X105074323Y-80304361D01*
X105087960Y-80338362D01*
X105092047Y-80348869D01*
X105103294Y-80375759D01*
X105113116Y-80395386D01*
X105116347Y-80400159D01*
X105122815Y-80416119D01*
X105124343Y-80430189D01*
X105128109Y-80449363D01*
X105133754Y-80457095D01*
X105142335Y-80470678D01*
X105143165Y-80476927D01*
X105147069Y-80493530D01*
X105156900Y-80518849D01*
X105161986Y-80529899D01*
X105173395Y-80556082D01*
X105180080Y-80576396D01*
X105180808Y-80581332D01*
X105185254Y-80599688D01*
X105190178Y-80610149D01*
X105197034Y-80626194D01*
X105208145Y-80656940D01*
X105222589Y-80699431D01*
X105239442Y-80750711D01*
X105257780Y-80807822D01*
X105276682Y-80867808D01*
X105295222Y-80927712D01*
X105312479Y-80984578D01*
X105327529Y-81035448D01*
X105339449Y-81077367D01*
X105347314Y-81107377D01*
X105350203Y-81122522D01*
X105350204Y-81122626D01*
X105354629Y-81139148D01*
X105358575Y-81143447D01*
X105365748Y-81155512D01*
X105371743Y-81177727D01*
X105372012Y-81179294D01*
X105381925Y-81227932D01*
X105397618Y-81290052D01*
X105406754Y-81322897D01*
X105416278Y-81358676D01*
X105425047Y-81395275D01*
X105425687Y-81398184D01*
X105433446Y-81432520D01*
X105442365Y-81470206D01*
X105444313Y-81478177D01*
X105458684Y-81538211D01*
X105468761Y-81584839D01*
X105475494Y-81622731D01*
X105478847Y-81647573D01*
X105483611Y-81675179D01*
X105489800Y-81694868D01*
X105492280Y-81698862D01*
X105497586Y-81713237D01*
X105500552Y-81738341D01*
X105500778Y-81747714D01*
X105502816Y-81773705D01*
X105507922Y-81790861D01*
X105510189Y-81793442D01*
X105515940Y-81805648D01*
X105519269Y-81829461D01*
X105519600Y-81840496D01*
X105521575Y-81866916D01*
X105526540Y-81884571D01*
X105529011Y-81887550D01*
X105535589Y-81900165D01*
X105538470Y-81922595D01*
X105538475Y-81923397D01*
X105541132Y-81954383D01*
X105547399Y-81986365D01*
X105556132Y-82025121D01*
X105566097Y-82080233D01*
X105577007Y-82149297D01*
X105588574Y-82229908D01*
X105600511Y-82319664D01*
X105612531Y-82416160D01*
X105624346Y-82516991D01*
X105635669Y-82619753D01*
X105646212Y-82722043D01*
X105655687Y-82821456D01*
X105663807Y-82915588D01*
X105670286Y-83002035D01*
X105672024Y-83028621D01*
X105675903Y-83084649D01*
X105680002Y-83133635D01*
X105684023Y-83172714D01*
X105687667Y-83199019D01*
X105690636Y-83209685D01*
X105690888Y-83209781D01*
X105692300Y-83218886D01*
X105693560Y-83244978D01*
X105694670Y-83286223D01*
X105695628Y-83340787D01*
X105696437Y-83406836D01*
X105697098Y-83482537D01*
X105697609Y-83566054D01*
X105697973Y-83655554D01*
X105698191Y-83749203D01*
X105698261Y-83845166D01*
X105698187Y-83941611D01*
X105697967Y-84036702D01*
X105697604Y-84128606D01*
X105697097Y-84215489D01*
X105696447Y-84295516D01*
X105695655Y-84366854D01*
X105694722Y-84427668D01*
X105693648Y-84476125D01*
X105692434Y-84510391D01*
X105691080Y-84528631D01*
X105690388Y-84531151D01*
X105686894Y-84541912D01*
X105683095Y-84567765D01*
X105679419Y-84604993D01*
X105676295Y-84649881D01*
X105675935Y-84656401D01*
X105667777Y-84785289D01*
X105656447Y-84928517D01*
X105642352Y-85081949D01*
X105625897Y-85241446D01*
X105607489Y-85402872D01*
X105587534Y-85562087D01*
X105585616Y-85576621D01*
X105576256Y-85646247D01*
X105568026Y-85704744D01*
X105559850Y-85759252D01*
X105550651Y-85816913D01*
X105539352Y-85884866D01*
X105537375Y-85896591D01*
X105531018Y-85937417D01*
X105525261Y-85979620D01*
X105522854Y-86000111D01*
X105518359Y-86029106D01*
X105512488Y-86050342D01*
X105509322Y-86056106D01*
X105504460Y-86070016D01*
X105501366Y-86095828D01*
X105500778Y-86114368D01*
X105499118Y-86143285D01*
X105494865Y-86163795D01*
X105491368Y-86169507D01*
X105485617Y-86181713D01*
X105482288Y-86205526D01*
X105481957Y-86216561D01*
X105479982Y-86242981D01*
X105475017Y-86260636D01*
X105472546Y-86263616D01*
X105466987Y-86275726D01*
X105463608Y-86299812D01*
X105463135Y-86314049D01*
X105461457Y-86342351D01*
X105457209Y-86362798D01*
X105454636Y-86367606D01*
X105448445Y-86381829D01*
X105442853Y-86407123D01*
X105441204Y-86418895D01*
X105435844Y-86455235D01*
X105428326Y-86495541D01*
X105425566Y-86508299D01*
X105417951Y-86545020D01*
X105411490Y-86581569D01*
X105409802Y-86592997D01*
X105404599Y-86619156D01*
X105397983Y-86637211D01*
X105396295Y-86639581D01*
X105390337Y-86654643D01*
X105387848Y-86678341D01*
X105387848Y-86678428D01*
X105384591Y-86706030D01*
X105376330Y-86734502D01*
X105365328Y-86758483D01*
X105353848Y-86772616D01*
X105347453Y-86774071D01*
X105336126Y-86760668D01*
X105332707Y-86731210D01*
X105337280Y-86686761D01*
X105339668Y-86673503D01*
X105345034Y-86643617D01*
X105352211Y-86600811D01*
X105360262Y-86550784D01*
X105368254Y-86499236D01*
X105368307Y-86498888D01*
X105375804Y-86449802D01*
X105382801Y-86404570D01*
X105388553Y-86367975D01*
X105392314Y-86344803D01*
X105392517Y-86343608D01*
X105396377Y-86316223D01*
X105400556Y-86279233D01*
X105403367Y-86249499D01*
X105407340Y-86215193D01*
X105412490Y-86186936D01*
X105417031Y-86172478D01*
X105421166Y-86155657D01*
X105424180Y-86126097D01*
X105425479Y-86089874D01*
X105425491Y-86085983D01*
X105426663Y-86051228D01*
X105429758Y-86024268D01*
X105434147Y-86010215D01*
X105434902Y-86009522D01*
X105439132Y-85998077D01*
X105442376Y-85972487D01*
X105444136Y-85937422D01*
X105444313Y-85921445D01*
X105445271Y-85883364D01*
X105447827Y-85852372D01*
X105451507Y-85833366D01*
X105453161Y-85830244D01*
X105457100Y-85817748D01*
X105461110Y-85790572D01*
X105464698Y-85752848D01*
X105467167Y-85713078D01*
X105469763Y-85662996D01*
X105473282Y-85601141D01*
X105477311Y-85534516D01*
X105481434Y-85470123D01*
X105482493Y-85454279D01*
X105484266Y-85417850D01*
X105485885Y-85364706D01*
X105487343Y-85296950D01*
X105488634Y-85216689D01*
X105489752Y-85126026D01*
X105490689Y-85027068D01*
X105491440Y-84921919D01*
X105491998Y-84812685D01*
X105492356Y-84701470D01*
X105492508Y-84590380D01*
X105492448Y-84481519D01*
X105492170Y-84376994D01*
X105491666Y-84278908D01*
X105490930Y-84189367D01*
X105489956Y-84110476D01*
X105488737Y-84044340D01*
X105487267Y-83993064D01*
X105487000Y-83986180D01*
X105484420Y-83936814D01*
X105481071Y-83893029D01*
X105477339Y-83858859D01*
X105473609Y-83838343D01*
X105472622Y-83835605D01*
X105468320Y-83818406D01*
X105464104Y-83787507D01*
X105460589Y-83748025D01*
X105459086Y-83722675D01*
X105455875Y-83669229D01*
X105451337Y-83610417D01*
X105446312Y-83556810D01*
X105444897Y-83543868D01*
X105439172Y-83492295D01*
X105433077Y-83435144D01*
X105427836Y-83383921D01*
X105427367Y-83379177D01*
X105423093Y-83340840D01*
X105418590Y-83308765D01*
X105414645Y-83288321D01*
X105413609Y-83285068D01*
X105409561Y-83268111D01*
X105405546Y-83239854D01*
X105403515Y-83219192D01*
X105400230Y-83187628D01*
X105396333Y-83162543D01*
X105394006Y-83153316D01*
X105389697Y-83135619D01*
X105385210Y-83108014D01*
X105383801Y-83096850D01*
X105380416Y-83072990D01*
X105374250Y-83034558D01*
X105365994Y-82985480D01*
X105356341Y-82929684D01*
X105345981Y-82871097D01*
X105335607Y-82813645D01*
X105325910Y-82761254D01*
X105317582Y-82717852D01*
X105313348Y-82696887D01*
X105287918Y-82579225D01*
X105260394Y-82459603D01*
X105232465Y-82345170D01*
X105208929Y-82254575D01*
X105198816Y-82216243D01*
X105190221Y-82182317D01*
X105184699Y-82158966D01*
X105184031Y-82155761D01*
X105177201Y-82129204D01*
X105171761Y-82113412D01*
X105164564Y-82092855D01*
X105155570Y-82063634D01*
X105152311Y-82052241D01*
X105143754Y-82023329D01*
X105131434Y-81983835D01*
X105117624Y-81941005D01*
X105113595Y-81928783D01*
X105101588Y-81890934D01*
X105092344Y-81858678D01*
X105087260Y-81837025D01*
X105086699Y-81832193D01*
X105082493Y-81810478D01*
X105078386Y-81800372D01*
X105064106Y-81769601D01*
X105049301Y-81731562D01*
X105031946Y-81681012D01*
X105030234Y-81675805D01*
X105018810Y-81641654D01*
X105008672Y-81612534D01*
X105002428Y-81595813D01*
X104996316Y-81580524D01*
X104984832Y-81551422D01*
X104969442Y-81512230D01*
X104951609Y-81466670D01*
X104945075Y-81449944D01*
X104925807Y-81400924D01*
X104907502Y-81354946D01*
X104891941Y-81316445D01*
X104880906Y-81289854D01*
X104878917Y-81285253D01*
X104858918Y-81240382D01*
X104836032Y-81190010D01*
X104811773Y-81137360D01*
X104787653Y-81085655D01*
X104765185Y-81038118D01*
X104745883Y-80997971D01*
X104731260Y-80968438D01*
X104722829Y-80952740D01*
X104722692Y-80952524D01*
X104712378Y-80934828D01*
X104696107Y-80905184D01*
X104676493Y-80868400D01*
X104663893Y-80844299D01*
X104639309Y-80798199D01*
X104612151Y-80749308D01*
X104587027Y-80705862D01*
X104578895Y-80692367D01*
X104557198Y-80656698D01*
X104536982Y-80623014D01*
X104522155Y-80597834D01*
X104520621Y-80595165D01*
X104507901Y-80574228D01*
X104487762Y-80542545D01*
X104463317Y-80504970D01*
X104445157Y-80477529D01*
X104323314Y-80305553D01*
X104191877Y-80139998D01*
X104053292Y-79983534D01*
X103910008Y-79838832D01*
X103764470Y-79708565D01*
X103675065Y-79636897D01*
X103640374Y-79611083D01*
X103600539Y-79582583D01*
X103559303Y-79553944D01*
X103520404Y-79527709D01*
X103487582Y-79506423D01*
X103464577Y-79492630D01*
X103458615Y-79489628D01*
X103443074Y-79481602D01*
X103417872Y-79467367D01*
X103397444Y-79455350D01*
X103364904Y-79437036D01*
X103320418Y-79413549D01*
X103269176Y-79387506D01*
X103216369Y-79361519D01*
X103167186Y-79338205D01*
X103144167Y-79327739D01*
X103076059Y-79300067D01*
X102996896Y-79272290D01*
X102911319Y-79245685D01*
X102823969Y-79221528D01*
X102739486Y-79201096D01*
X102662512Y-79185666D01*
X102597687Y-79176514D01*
X102592813Y-79176060D01*
X102559840Y-79172183D01*
X102534187Y-79167409D01*
X102522231Y-79163188D01*
X102510065Y-79160813D01*
X102482236Y-79158891D01*
X102441897Y-79157420D01*
X102392200Y-79156396D01*
X102336298Y-79155817D01*
X102277345Y-79155681D01*
X102218493Y-79155984D01*
X102162895Y-79156724D01*
X102113703Y-79157899D01*
X102074072Y-79159505D01*
X102047153Y-79161539D01*
X102036620Y-79163605D01*
X102019244Y-79168405D01*
X101990070Y-79172351D01*
X101962765Y-79174222D01*
X101931514Y-79176535D01*
X101908621Y-79180246D01*
X101899870Y-79183928D01*
X101888393Y-79188639D01*
X101865517Y-79191184D01*
X101858080Y-79191330D01*
X101829636Y-79193417D01*
X101807286Y-79198563D01*
X101804523Y-79199790D01*
X101787909Y-79205686D01*
X101758507Y-79213733D01*
X101721988Y-79222410D01*
X101712894Y-79224395D01*
X101657247Y-79238035D01*
X101590228Y-79257135D01*
X101517804Y-79279823D01*
X101445939Y-79304228D01*
X101380599Y-79328480D01*
X101378807Y-79329183D01*
X101315237Y-79355435D01*
X101245424Y-79386389D01*
X101172864Y-79420306D01*
X101101053Y-79455444D01*
X101033486Y-79490063D01*
X100973659Y-79522423D01*
X100925069Y-79550783D01*
X100897399Y-79568877D01*
X100878363Y-79581118D01*
X100866382Y-79586569D01*
X100866071Y-79586587D01*
X100861915Y-79588085D01*
X100852795Y-79593313D01*
X100837066Y-79603372D01*
X100813084Y-79619366D01*
X100779205Y-79642394D01*
X100733785Y-79673559D01*
X100675180Y-79713962D01*
X100649427Y-79731748D01*
X100605315Y-79763211D01*
X100558559Y-79798132D01*
X100518165Y-79829780D01*
X100516701Y-79830970D01*
X100487483Y-79854686D01*
X100461291Y-79875672D01*
X100431128Y-79899512D01*
X100410011Y-79916098D01*
X100381607Y-79939488D01*
X100347042Y-79969512D01*
X100313710Y-79999745D01*
X100313141Y-80000276D01*
X100283448Y-80027129D01*
X100255761Y-80050708D01*
X100235468Y-80066445D01*
X100233488Y-80067787D01*
X100220068Y-80078976D01*
X100196032Y-80101339D01*
X100163780Y-80132455D01*
X100125712Y-80169905D01*
X100084230Y-80211267D01*
X100041734Y-80254123D01*
X100000626Y-80296050D01*
X99963305Y-80334630D01*
X99932173Y-80367442D01*
X99909631Y-80392066D01*
X99898454Y-80405531D01*
X99886017Y-80420928D01*
X99864330Y-80445580D01*
X99837209Y-80475195D01*
X99824573Y-80488653D01*
X99795483Y-80519906D01*
X99769377Y-80548867D01*
X99750442Y-80570857D01*
X99745759Y-80576726D01*
X99733353Y-80592596D01*
X99711737Y-80619799D01*
X99683541Y-80655040D01*
X99651399Y-80695026D01*
X99637204Y-80712629D01*
X99601005Y-80757777D01*
X99564647Y-80803646D01*
X99531829Y-80845536D01*
X99506253Y-80878744D01*
X99501310Y-80885290D01*
X99475725Y-80919376D01*
X99451012Y-80952285D01*
X99432117Y-80977432D01*
X99430638Y-80979399D01*
X99414096Y-81002249D01*
X99391137Y-81035058D01*
X99365748Y-81072103D01*
X99355683Y-81087005D01*
X99328480Y-81126789D01*
X99300110Y-81167160D01*
X99275543Y-81201078D01*
X99269351Y-81209347D01*
X99250597Y-81235007D01*
X99237516Y-81254673D01*
X99233164Y-81263412D01*
X99228249Y-81273407D01*
X99214970Y-81295528D01*
X99195478Y-81326290D01*
X99176658Y-81355073D01*
X99153721Y-81390255D01*
X99135266Y-81419596D01*
X99123439Y-81439617D01*
X99120193Y-81446608D01*
X99115000Y-81457469D01*
X99102118Y-81476571D01*
X99098080Y-81481994D01*
X99082911Y-81504023D01*
X99062477Y-81536376D01*
X99040631Y-81572909D01*
X99035561Y-81581696D01*
X99011497Y-81623567D01*
X98985851Y-81667934D01*
X98963824Y-81705801D01*
X98962103Y-81708744D01*
X98942944Y-81742385D01*
X98918994Y-81785741D01*
X98894101Y-81831804D01*
X98882002Y-81854612D01*
X98860861Y-81894195D01*
X98841300Y-81929773D01*
X98825949Y-81956617D01*
X98819207Y-81967543D01*
X98807930Y-81986804D01*
X98791676Y-82017510D01*
X98773392Y-82054036D01*
X98767439Y-82066357D01*
X98751084Y-82100522D01*
X98728832Y-82146980D01*
X98702925Y-82201051D01*
X98675603Y-82258056D01*
X98656970Y-82296924D01*
X98631364Y-82350389D01*
X98606944Y-82401484D01*
X98585541Y-82446368D01*
X98568987Y-82481200D01*
X98560461Y-82499259D01*
X98547405Y-82527974D01*
X98530324Y-82566792D01*
X98510522Y-82612614D01*
X98489300Y-82662345D01*
X98467960Y-82712885D01*
X98447804Y-82761138D01*
X98430135Y-82804008D01*
X98416254Y-82838396D01*
X98407463Y-82861205D01*
X98404965Y-82869145D01*
X98401170Y-82881635D01*
X98391584Y-82904229D01*
X98386143Y-82915821D01*
X98374792Y-82941352D01*
X98368090Y-82960358D01*
X98367322Y-82964771D01*
X98363355Y-82981078D01*
X98359009Y-82991105D01*
X98349441Y-83011582D01*
X98339089Y-83035679D01*
X98328164Y-83061058D01*
X98319169Y-83080253D01*
X98311907Y-83103318D01*
X98310856Y-83113662D01*
X98306610Y-83133097D01*
X98302541Y-83139670D01*
X98295490Y-83152664D01*
X98285052Y-83178064D01*
X98273691Y-83209781D01*
X98261971Y-83243900D01*
X98251507Y-83273004D01*
X98244980Y-83289774D01*
X98237900Y-83308223D01*
X98227440Y-83337919D01*
X98216747Y-83369766D01*
X98205260Y-83403925D01*
X98194962Y-83433050D01*
X98188519Y-83449759D01*
X98180160Y-83471772D01*
X98170964Y-83499651D01*
X98170396Y-83501519D01*
X98164402Y-83521076D01*
X98153918Y-83554992D01*
X98140063Y-83599657D01*
X98123956Y-83651462D01*
X98109104Y-83699147D01*
X98081150Y-83789114D01*
X98058521Y-83862662D01*
X98040780Y-83921291D01*
X98027489Y-83966499D01*
X98018212Y-83999788D01*
X98012512Y-84022656D01*
X98009952Y-84036603D01*
X98009708Y-84040269D01*
X98004618Y-84057068D01*
X98000297Y-84061467D01*
X97993887Y-84074004D01*
X97990912Y-84096725D01*
X97990886Y-84099110D01*
X97988350Y-84122354D01*
X97982176Y-84136233D01*
X97981475Y-84136754D01*
X97973807Y-84149914D01*
X97972064Y-84162521D01*
X97969314Y-84186053D01*
X97963291Y-84211373D01*
X97955254Y-84239135D01*
X97945967Y-84272937D01*
X97943396Y-84282623D01*
X97934897Y-84312704D01*
X97926829Y-84337697D01*
X97924521Y-84343794D01*
X97917809Y-84366264D01*
X97912295Y-84394585D01*
X97912157Y-84395553D01*
X97909587Y-84412277D01*
X97906153Y-84430215D01*
X97900935Y-84453398D01*
X97893016Y-84485855D01*
X97881477Y-84531618D01*
X97878385Y-84543775D01*
X97865961Y-84595110D01*
X97851065Y-84660674D01*
X97834522Y-84736455D01*
X97817160Y-84818439D01*
X97799803Y-84902615D01*
X97783279Y-84984970D01*
X97768413Y-85061491D01*
X97756031Y-85128167D01*
X97746959Y-85180984D01*
X97746153Y-85186068D01*
X97740546Y-85220921D01*
X97733175Y-85265532D01*
X97725493Y-85311115D01*
X97724347Y-85317821D01*
X97716035Y-85367778D01*
X97707222Y-85422929D01*
X97699769Y-85471620D01*
X97699550Y-85473101D01*
X97693749Y-85511080D01*
X97688420Y-85543632D01*
X97684550Y-85564779D01*
X97684015Y-85567210D01*
X97680896Y-85586247D01*
X97677225Y-85616897D01*
X97674280Y-85647202D01*
X97670320Y-85680085D01*
X97665217Y-85705553D01*
X97660534Y-85717313D01*
X97656345Y-85730622D01*
X97653324Y-85757139D01*
X97652097Y-85791258D01*
X97652094Y-85793071D01*
X97650935Y-85827423D01*
X97647890Y-85854456D01*
X97643603Y-85868562D01*
X97643367Y-85868829D01*
X97639663Y-85876621D01*
X97636180Y-85893277D01*
X97632742Y-85920620D01*
X97629172Y-85960476D01*
X97625293Y-86014669D01*
X97620927Y-86085024D01*
X97618755Y-86122452D01*
X97615613Y-86162639D01*
X97611370Y-86197292D01*
X97606763Y-86220879D01*
X97604984Y-86225972D01*
X97600984Y-86242646D01*
X97596951Y-86273509D01*
X97593393Y-86313938D01*
X97591089Y-86353019D01*
X97588687Y-86401719D01*
X97585425Y-86462681D01*
X97581665Y-86529384D01*
X97577770Y-86595309D01*
X97576178Y-86621230D01*
X97574266Y-86662492D01*
X97572543Y-86720294D01*
X97571017Y-86792357D01*
X97569697Y-86876399D01*
X97568588Y-86970140D01*
X97567698Y-87071299D01*
X97567036Y-87177597D01*
X97566607Y-87286753D01*
X97566421Y-87396485D01*
X97566483Y-87504515D01*
X97566802Y-87608560D01*
X97567384Y-87706342D01*
X97568238Y-87795579D01*
X97569370Y-87873991D01*
X97570789Y-87939297D01*
X97571797Y-87971693D01*
X97574196Y-88023541D01*
X97577313Y-88069810D01*
X97580818Y-88106729D01*
X97584384Y-88130524D01*
X97586117Y-88136383D01*
X97590459Y-88153582D01*
X97594764Y-88184478D01*
X97598401Y-88223957D01*
X97599986Y-88249314D01*
X97604361Y-88331807D01*
X97608193Y-88397268D01*
X97611637Y-88447474D01*
X97614845Y-88484201D01*
X97617974Y-88509226D01*
X97621177Y-88524325D01*
X97624504Y-88531170D01*
X97628856Y-88544479D01*
X97631994Y-88570995D01*
X97633269Y-88605113D01*
X97633272Y-88606928D01*
X97634441Y-88641280D01*
X97637515Y-88668312D01*
X97641841Y-88682419D01*
X97642080Y-88682686D01*
X97647172Y-88696325D01*
X97651332Y-88722499D01*
X97653262Y-88748091D01*
X97655606Y-88780883D01*
X97659211Y-88807225D01*
X97662268Y-88818673D01*
X97666939Y-88835612D01*
X97671767Y-88863839D01*
X97674325Y-88884549D01*
X97678331Y-88918438D01*
X97682598Y-88948061D01*
X97684726Y-88959837D01*
X97687993Y-88976677D01*
X97693897Y-89008450D01*
X97701779Y-89051555D01*
X97710979Y-89102393D01*
X97718333Y-89143349D01*
X97730145Y-89207461D01*
X97743503Y-89276815D01*
X97757664Y-89347829D01*
X97771882Y-89416920D01*
X97785413Y-89480505D01*
X97797512Y-89535001D01*
X97807433Y-89576825D01*
X97812235Y-89595072D01*
X97819810Y-89622936D01*
X97828464Y-89656191D01*
X97830263Y-89663301D01*
X97839711Y-89700256D01*
X97849714Y-89738482D01*
X97850995Y-89743293D01*
X97859686Y-89775869D01*
X97867734Y-89806088D01*
X97869179Y-89811522D01*
X97882571Y-89861710D01*
X97892611Y-89898640D01*
X97900691Y-89927264D01*
X97908208Y-89952538D01*
X97915549Y-89976213D01*
X97925381Y-90007686D01*
X97938687Y-90050483D01*
X97953395Y-90097938D01*
X97962315Y-90126787D01*
X97975553Y-90168685D01*
X97987585Y-90205027D01*
X97996893Y-90231323D01*
X98001269Y-90241943D01*
X98008666Y-90265835D01*
X98009708Y-90276678D01*
X98014000Y-90294747D01*
X98019119Y-90300889D01*
X98027006Y-90314154D01*
X98028530Y-90325099D01*
X98032855Y-90349726D01*
X98036842Y-90359835D01*
X98042161Y-90370716D01*
X98048253Y-90384351D01*
X98056274Y-90403582D01*
X98067378Y-90431255D01*
X98082721Y-90470213D01*
X98103459Y-90523300D01*
X98108471Y-90536161D01*
X98126562Y-90582270D01*
X98143551Y-90625002D01*
X98157564Y-90659678D01*
X98166725Y-90681617D01*
X98166906Y-90682030D01*
X98181180Y-90714889D01*
X98195297Y-90747787D01*
X98195348Y-90747906D01*
X98225405Y-90815859D01*
X98261644Y-90893464D01*
X98301879Y-90976371D01*
X98343920Y-91060231D01*
X98385582Y-91140695D01*
X98424676Y-91213413D01*
X98459016Y-91274035D01*
X98465122Y-91284327D01*
X98480790Y-91311869D01*
X98492498Y-91334944D01*
X98495880Y-91343145D01*
X98504299Y-91357047D01*
X98509583Y-91359614D01*
X98517589Y-91366873D01*
X98517896Y-91369541D01*
X98522869Y-91381781D01*
X98535947Y-91404589D01*
X98554364Y-91433165D01*
X98555540Y-91434901D01*
X98574156Y-91463273D01*
X98587674Y-91485700D01*
X98593342Y-91497598D01*
X98593373Y-91497909D01*
X98598753Y-91508227D01*
X98613090Y-91529921D01*
X98633941Y-91559391D01*
X98649648Y-91580770D01*
X98673483Y-91613860D01*
X98692325Y-91642104D01*
X98703703Y-91661676D01*
X98705924Y-91667821D01*
X98697761Y-91676406D01*
X98677881Y-91679585D01*
X98658062Y-91676640D01*
X98649651Y-91669543D01*
X98649648Y-91669413D01*
X98643776Y-91658908D01*
X98627689Y-91637266D01*
X98603685Y-91607415D01*
X98574061Y-91572278D01*
X98566507Y-91563540D01*
X98486635Y-91469186D01*
X98413889Y-91377745D01*
X98365607Y-91313736D01*
X98350098Y-91292036D01*
X98327947Y-91260054D01*
X98300933Y-91220457D01*
X98270833Y-91175913D01*
X98239427Y-91129088D01*
X98208494Y-91082650D01*
X98179811Y-91039267D01*
X98155158Y-91001604D01*
X98136312Y-90972330D01*
X98125054Y-90954111D01*
X98122638Y-90949382D01*
X98117700Y-90938576D01*
X98105699Y-90919957D01*
X98104583Y-90918379D01*
X98090507Y-90896647D01*
X98072016Y-90865574D01*
X98055905Y-90836934D01*
X98036080Y-90800908D01*
X98016186Y-90765212D01*
X98003736Y-90743201D01*
X97986070Y-90710735D01*
X97962365Y-90664888D01*
X97934433Y-90609386D01*
X97904088Y-90547951D01*
X97873143Y-90484310D01*
X97843412Y-90422186D01*
X97816707Y-90365304D01*
X97794842Y-90317389D01*
X97781533Y-90286772D01*
X97769962Y-90259040D01*
X97755235Y-90223733D01*
X97746203Y-90202074D01*
X97732056Y-90168242D01*
X97718910Y-90136959D01*
X97712618Y-90122082D01*
X97696722Y-90083783D01*
X97680198Y-90042512D01*
X97665375Y-90004225D01*
X97654585Y-89974878D01*
X97651864Y-89966802D01*
X97645231Y-89947460D01*
X97633988Y-89916106D01*
X97620157Y-89878345D01*
X97614568Y-89863282D01*
X97598982Y-89820467D01*
X97584085Y-89777893D01*
X97572537Y-89743208D01*
X97570354Y-89736235D01*
X97560576Y-89705248D01*
X97551893Y-89679249D01*
X97548675Y-89670359D01*
X97542995Y-89653885D01*
X97533302Y-89624029D01*
X97521081Y-89585411D01*
X97510914Y-89552723D01*
X97494455Y-89499382D01*
X97482495Y-89460513D01*
X97473981Y-89432601D01*
X97467859Y-89412134D01*
X97463074Y-89395598D01*
X97458574Y-89379480D01*
X97454465Y-89364505D01*
X97445599Y-89333064D01*
X97437378Y-89305400D01*
X97435243Y-89298629D01*
X97428897Y-89276022D01*
X97420988Y-89243866D01*
X97416345Y-89223342D01*
X97408631Y-89189730D01*
X97401195Y-89160239D01*
X97397732Y-89148054D01*
X97391226Y-89124829D01*
X97383162Y-89092956D01*
X97379483Y-89077473D01*
X97371177Y-89042153D01*
X97363033Y-89008334D01*
X97360356Y-88997480D01*
X97349528Y-88952219D01*
X97337794Y-88900305D01*
X97327822Y-88853565D01*
X97327424Y-88851611D01*
X97321683Y-88824229D01*
X97314395Y-88790618D01*
X97312274Y-88781030D01*
X97305155Y-88746384D01*
X97299178Y-88712906D01*
X97298079Y-88705742D01*
X97292391Y-88677452D01*
X97285223Y-88654547D01*
X97284977Y-88653982D01*
X97278750Y-88633009D01*
X97273232Y-88603253D01*
X97271887Y-88592812D01*
X97267395Y-88558842D01*
X97261062Y-88517905D01*
X97256960Y-88493997D01*
X97234638Y-88363837D01*
X97216689Y-88244643D01*
X97202053Y-88129361D01*
X97201779Y-88126972D01*
X97197162Y-88091937D01*
X97192306Y-88063233D01*
X97188258Y-88047038D01*
X97188234Y-88046980D01*
X97184314Y-88030623D01*
X97180055Y-88002049D01*
X97176790Y-87971693D01*
X97172813Y-87930345D01*
X97167665Y-87881078D01*
X97162538Y-87835235D01*
X97154512Y-87761198D01*
X97146173Y-87674993D01*
X97138023Y-87582624D01*
X97130566Y-87490096D01*
X97124306Y-87403413D01*
X97119747Y-87328579D01*
X97119279Y-87319499D01*
X97116384Y-87272710D01*
X97112915Y-87233501D01*
X97109255Y-87205274D01*
X97105783Y-87191429D01*
X97104830Y-87190589D01*
X97103434Y-87181442D01*
X97102116Y-87155062D01*
X97100897Y-87113034D01*
X97099798Y-87056947D01*
X97098841Y-86988387D01*
X97098047Y-86908943D01*
X97097438Y-86820201D01*
X97097034Y-86723749D01*
X97096857Y-86621174D01*
X97096851Y-86597702D01*
X97096975Y-86493982D01*
X97097333Y-86396032D01*
X97097904Y-86305439D01*
X97098665Y-86223791D01*
X97099596Y-86152675D01*
X97100675Y-86093678D01*
X97101879Y-86048388D01*
X97103189Y-86018392D01*
X97104581Y-86005278D01*
X97104900Y-86004816D01*
X97108143Y-85995957D01*
X97111691Y-85971565D01*
X97115199Y-85934918D01*
X97118320Y-85889294D01*
X97119540Y-85866005D01*
X97124549Y-85775970D01*
X97131843Y-85668278D01*
X97141349Y-85543945D01*
X97152989Y-85403988D01*
X97158863Y-85336643D01*
X97162441Y-85302716D01*
X97166387Y-85275176D01*
X97169458Y-85261356D01*
X97172413Y-85245629D01*
X97175541Y-85216761D01*
X97178254Y-85180415D01*
X97178705Y-85172552D01*
X97181553Y-85135263D01*
X97185419Y-85104189D01*
X97189556Y-85085053D01*
X97190357Y-85083149D01*
X97194428Y-85066637D01*
X97197732Y-85037656D01*
X97199519Y-85003430D01*
X97201215Y-84969273D01*
X97204151Y-84942223D01*
X97207690Y-84928143D01*
X97212114Y-84913959D01*
X97217140Y-84887107D01*
X97221273Y-84856687D01*
X97233575Y-84758681D01*
X97248316Y-84656677D01*
X97256978Y-84602593D01*
X97263486Y-84560005D01*
X97269388Y-84515355D01*
X97272252Y-84489662D01*
X97276533Y-84459326D01*
X97282130Y-84436619D01*
X97285897Y-84428962D01*
X97290781Y-84415051D01*
X97293890Y-84389240D01*
X97294480Y-84370699D01*
X97296140Y-84341783D01*
X97300394Y-84321273D01*
X97303891Y-84315561D01*
X97309450Y-84303451D01*
X97312828Y-84279365D01*
X97313302Y-84265128D01*
X97314980Y-84236825D01*
X97319227Y-84216379D01*
X97321800Y-84211570D01*
X97327908Y-84197340D01*
X97333284Y-84172034D01*
X97334818Y-84160281D01*
X97339307Y-84130209D01*
X97348143Y-84082789D01*
X97361133Y-84018940D01*
X97378085Y-83939581D01*
X97398805Y-83845631D01*
X97423102Y-83738008D01*
X97426602Y-83722675D01*
X97441529Y-83657417D01*
X97453055Y-83607237D01*
X97461949Y-83568857D01*
X97468977Y-83539001D01*
X97474909Y-83514392D01*
X97480510Y-83491752D01*
X97483378Y-83480344D01*
X97491165Y-83446918D01*
X97497590Y-83415117D01*
X97498534Y-83409675D01*
X97504344Y-83387102D01*
X97511538Y-83374131D01*
X97511970Y-83373829D01*
X97517662Y-83361769D01*
X97520316Y-83339315D01*
X97520341Y-83336828D01*
X97522877Y-83313584D01*
X97529052Y-83299705D01*
X97529752Y-83299184D01*
X97537420Y-83286025D01*
X97539163Y-83273417D01*
X97542677Y-83247959D01*
X97551511Y-83214438D01*
X97563100Y-83181881D01*
X97568551Y-83169912D01*
X97574698Y-83148452D01*
X97576807Y-83125766D01*
X97579695Y-83103985D01*
X97586218Y-83092145D01*
X97593052Y-83079396D01*
X97595628Y-83059207D01*
X97598587Y-83037681D01*
X97605039Y-83026269D01*
X97612391Y-83013263D01*
X97614450Y-82998036D01*
X97618003Y-82978329D01*
X97623861Y-82969803D01*
X97631529Y-82956644D01*
X97633272Y-82944036D01*
X97636786Y-82918578D01*
X97645620Y-82885056D01*
X97657209Y-82852500D01*
X97662660Y-82840531D01*
X97669897Y-82816634D01*
X97670916Y-82805796D01*
X97675208Y-82787727D01*
X97680326Y-82781585D01*
X97688342Y-82768260D01*
X97689737Y-82758239D01*
X97692564Y-82744990D01*
X97700327Y-82717276D01*
X97711946Y-82678468D01*
X97726343Y-82631937D01*
X97742441Y-82581053D01*
X97759160Y-82529187D01*
X97775423Y-82479710D01*
X97790151Y-82435991D01*
X97802265Y-82401403D01*
X97810688Y-82379315D01*
X97811733Y-82376917D01*
X97819050Y-82358493D01*
X97829800Y-82328840D01*
X97840790Y-82296924D01*
X97852334Y-82264727D01*
X97862736Y-82239484D01*
X97869640Y-82226813D01*
X97876366Y-82210856D01*
X97877955Y-82196783D01*
X97881183Y-82177985D01*
X97886075Y-82170675D01*
X97893245Y-82159292D01*
X97902119Y-82136197D01*
X97906188Y-82122823D01*
X97914895Y-82096429D01*
X97923231Y-82078580D01*
X97926301Y-82074971D01*
X97933088Y-82062448D01*
X97934421Y-82051558D01*
X97938886Y-82027027D01*
X97943062Y-82016823D01*
X97957784Y-81986714D01*
X97972093Y-81953773D01*
X97983673Y-81923777D01*
X97990205Y-81902501D01*
X97990886Y-81897619D01*
X97995913Y-81881992D01*
X97999254Y-81878784D01*
X98007629Y-81866555D01*
X98013769Y-81849125D01*
X98021361Y-81826725D01*
X98034102Y-81796056D01*
X98043044Y-81776693D01*
X98055711Y-81749246D01*
X98064113Y-81728766D01*
X98066173Y-81721521D01*
X98069843Y-81710011D01*
X98079534Y-81686277D01*
X98093265Y-81655132D01*
X98095446Y-81650348D01*
X98112684Y-81612497D01*
X98129322Y-81575642D01*
X98141316Y-81548758D01*
X98168702Y-81486967D01*
X98193316Y-81432296D01*
X98216974Y-81380916D01*
X98241486Y-81328999D01*
X98268666Y-81272717D01*
X98300328Y-81208240D01*
X98338284Y-81131740D01*
X98348538Y-81111152D01*
X98394064Y-81020210D01*
X98433141Y-80943156D01*
X98467408Y-80876882D01*
X98498502Y-80818280D01*
X98528063Y-80764241D01*
X98557729Y-80711659D01*
X98574264Y-80682956D01*
X98590207Y-80654806D01*
X98610392Y-80618292D01*
X98628927Y-80584142D01*
X98646877Y-80551883D01*
X98663057Y-80524843D01*
X98674116Y-80508606D01*
X98674529Y-80508114D01*
X98685002Y-80492780D01*
X98687292Y-80485951D01*
X98692172Y-80474628D01*
X98704698Y-80453416D01*
X98715525Y-80436813D01*
X98731273Y-80412700D01*
X98741522Y-80395515D01*
X98743757Y-80390433D01*
X98748704Y-80381335D01*
X98762211Y-80359780D01*
X98782276Y-80328888D01*
X98806897Y-80291781D01*
X98809634Y-80287699D01*
X98834629Y-80250034D01*
X98855269Y-80218153D01*
X98869547Y-80195213D01*
X98875456Y-80184367D01*
X98875510Y-80184068D01*
X98880809Y-80173837D01*
X98895668Y-80150607D01*
X98918534Y-80116566D01*
X98947851Y-80073902D01*
X98982064Y-80024804D01*
X99019618Y-79971461D01*
X99058958Y-79916061D01*
X99098529Y-79860794D01*
X99136777Y-79807848D01*
X99172147Y-79759412D01*
X99203083Y-79717674D01*
X99228030Y-79684824D01*
X99245434Y-79663049D01*
X99246763Y-79661492D01*
X99270789Y-79632628D01*
X99294327Y-79602880D01*
X99299000Y-79596714D01*
X99318508Y-79571132D01*
X99336348Y-79548514D01*
X99338942Y-79545336D01*
X99380300Y-79495620D01*
X99411643Y-79459049D01*
X99434474Y-79433878D01*
X99437811Y-79430408D01*
X99452460Y-79413626D01*
X99458966Y-79402774D01*
X99458985Y-79402489D01*
X99465239Y-79392862D01*
X99482757Y-79371754D01*
X99509672Y-79341168D01*
X99544117Y-79303111D01*
X99584226Y-79259585D01*
X99628132Y-79212594D01*
X99673968Y-79164144D01*
X99719867Y-79116238D01*
X99763964Y-79070881D01*
X99804390Y-79030077D01*
X99822955Y-79011703D01*
X99884900Y-78952062D01*
X99951015Y-78890444D01*
X100018348Y-78829453D01*
X100083948Y-78771692D01*
X100144862Y-78719763D01*
X100198138Y-78676271D01*
X100237044Y-78646546D01*
X100261706Y-78627310D01*
X100281240Y-78609802D01*
X100285943Y-78604718D01*
X100300652Y-78591981D01*
X100308956Y-78589033D01*
X100321817Y-78583018D01*
X100340708Y-78568167D01*
X100344847Y-78564320D01*
X100367299Y-78544786D01*
X100387729Y-78530039D01*
X100389457Y-78529029D01*
X100404203Y-78519766D01*
X100430718Y-78502205D01*
X100465330Y-78478809D01*
X100504366Y-78452040D01*
X100506999Y-78450222D01*
X100544664Y-78424502D01*
X100576691Y-78403217D01*
X100599957Y-78388399D01*
X100611338Y-78382083D01*
X100611782Y-78381993D01*
X100622393Y-78377081D01*
X100642827Y-78364533D01*
X100657178Y-78354934D01*
X100690941Y-78332780D01*
X100727893Y-78310039D01*
X100738867Y-78303631D01*
X100760120Y-78292106D01*
X100793913Y-78274527D01*
X100837020Y-78252503D01*
X100886215Y-78227645D01*
X100938274Y-78201561D01*
X100989970Y-78175860D01*
X101038078Y-78152153D01*
X101079373Y-78132048D01*
X101110628Y-78117155D01*
X101128618Y-78109084D01*
X101129419Y-78108769D01*
X101148937Y-78100772D01*
X101177312Y-78088601D01*
X101192840Y-78081782D01*
X101221045Y-78070399D01*
X101243573Y-78063257D01*
X101251102Y-78062023D01*
X101267169Y-78056328D01*
X101270582Y-78052612D01*
X101283587Y-78045260D01*
X101298815Y-78043201D01*
X101318521Y-78039648D01*
X101327047Y-78033790D01*
X101340053Y-78026438D01*
X101355280Y-78024379D01*
X101374987Y-78020827D01*
X101383513Y-78014968D01*
X101396518Y-78007617D01*
X101411746Y-78005557D01*
X101431152Y-78002431D01*
X101439308Y-77997231D01*
X101451532Y-77989547D01*
X101470448Y-77984106D01*
X101495997Y-77978640D01*
X101535613Y-77969242D01*
X101585199Y-77956913D01*
X101640660Y-77942656D01*
X101651723Y-77939759D01*
X101673825Y-77935074D01*
X101709626Y-77928718D01*
X101754168Y-77921528D01*
X101802298Y-77914368D01*
X101847048Y-77907494D01*
X101884481Y-77900786D01*
X101910951Y-77894968D01*
X101922811Y-77890762D01*
X101923071Y-77890421D01*
X101933033Y-77888087D01*
X101958770Y-77886212D01*
X101997407Y-77884785D01*
X102046070Y-77883793D01*
X102101885Y-77883225D01*
X102161979Y-77883070D01*
X102223478Y-77883315D01*
G37*
G36*
X102696534Y-88393306D02*
G01*
X102705412Y-88403975D01*
X102707961Y-88418415D01*
X102710140Y-88451231D01*
X102711939Y-88501984D01*
X102713349Y-88570233D01*
X102714361Y-88655536D01*
X102714966Y-88757452D01*
X102715154Y-88868545D01*
X102715122Y-88972016D01*
X102714982Y-89058321D01*
X102714673Y-89129117D01*
X102714131Y-89186060D01*
X102713295Y-89230807D01*
X102712103Y-89265014D01*
X102710490Y-89290338D01*
X102708396Y-89308434D01*
X102705756Y-89320959D01*
X102702510Y-89329570D01*
X102698594Y-89335922D01*
X102697459Y-89337407D01*
X102684273Y-89347516D01*
X102655580Y-89364783D01*
X102612919Y-89388387D01*
X102557829Y-89417505D01*
X102491848Y-89451315D01*
X102416515Y-89488994D01*
X102382570Y-89505720D01*
X102313636Y-89539789D01*
X102250483Y-89571474D01*
X102195009Y-89599789D01*
X102149108Y-89623746D01*
X102114675Y-89642356D01*
X102093606Y-89654632D01*
X102087630Y-89659426D01*
X102096243Y-89665385D01*
X102119749Y-89678840D01*
X102156249Y-89698777D01*
X102203846Y-89724183D01*
X102260644Y-89754045D01*
X102324745Y-89787349D01*
X102390409Y-89821118D01*
X102460224Y-89857129D01*
X102524969Y-89891065D01*
X102582662Y-89921845D01*
X102631318Y-89948387D01*
X102668953Y-89969611D01*
X102693583Y-89984436D01*
X102703044Y-89991482D01*
X102706123Y-90005000D01*
X102708796Y-90035057D01*
X102711064Y-90079375D01*
X102712928Y-90135676D01*
X102714390Y-90201681D01*
X102715450Y-90275113D01*
X102716109Y-90353693D01*
X102716370Y-90435143D01*
X102716233Y-90517185D01*
X102715699Y-90597541D01*
X102714769Y-90673932D01*
X102713445Y-90744081D01*
X102711727Y-90805709D01*
X102709617Y-90856537D01*
X102707116Y-90894289D01*
X102704226Y-90916684D01*
X102702571Y-90921502D01*
X102683946Y-90934331D01*
X102662575Y-90934511D01*
X102650505Y-90928906D01*
X102623823Y-90913936D01*
X102583774Y-90890366D01*
X102531608Y-90858965D01*
X102468573Y-90820498D01*
X102395916Y-90775733D01*
X102314885Y-90725437D01*
X102226729Y-90670377D01*
X102132696Y-90611319D01*
X102034032Y-90549031D01*
X101992942Y-90522998D01*
X101350723Y-90115685D01*
X101310652Y-90138472D01*
X101292517Y-90149108D01*
X101260714Y-90168105D01*
X101217641Y-90194018D01*
X101165695Y-90225400D01*
X101107273Y-90260805D01*
X101044772Y-90298786D01*
X101025899Y-90310276D01*
X100961010Y-90349769D01*
X100898031Y-90388054D01*
X100839678Y-90423483D01*
X100788663Y-90454410D01*
X100747701Y-90479189D01*
X100719506Y-90496172D01*
X100715339Y-90498668D01*
X100685278Y-90516750D01*
X100643325Y-90542142D01*
X100593635Y-90572320D01*
X100540365Y-90604762D01*
X100498889Y-90630085D01*
X100445261Y-90662855D01*
X100391544Y-90695660D01*
X100342028Y-90725882D01*
X100301003Y-90750903D01*
X100278049Y-90764885D01*
X100241193Y-90785556D01*
X100205633Y-90802532D01*
X100177694Y-90812866D01*
X100172176Y-90814155D01*
X100136570Y-90820666D01*
X100136570Y-90367300D01*
X100136682Y-90256930D01*
X100137042Y-90164097D01*
X100137680Y-90087521D01*
X100138630Y-90025919D01*
X100139923Y-89978008D01*
X100141591Y-89942507D01*
X100143667Y-89918133D01*
X100146183Y-89903603D01*
X100148333Y-89898454D01*
X100154543Y-89892748D01*
X100166909Y-89884631D01*
X100186821Y-89873408D01*
X100215668Y-89858386D01*
X100254841Y-89838871D01*
X100305729Y-89814168D01*
X100369723Y-89783584D01*
X100448211Y-89746425D01*
X100529474Y-89708159D01*
X100567820Y-89689603D01*
X100598942Y-89673532D01*
X100619424Y-89661781D01*
X100625936Y-89656413D01*
X100617894Y-89650651D01*
X100595156Y-89637480D01*
X100559800Y-89618023D01*
X100513905Y-89593405D01*
X100459552Y-89564750D01*
X100398819Y-89533183D01*
X100381253Y-89524129D01*
X100136570Y-89398245D01*
X100136570Y-88957266D01*
X100136783Y-88840950D01*
X100137418Y-88740762D01*
X100138464Y-88657158D01*
X100139912Y-88590593D01*
X100141753Y-88541522D01*
X100143975Y-88510401D01*
X100146312Y-88498084D01*
X100161323Y-88483348D01*
X100173235Y-88479881D01*
X100183889Y-88484709D01*
X100209233Y-88498674D01*
X100247960Y-88520992D01*
X100298763Y-88550883D01*
X100360336Y-88587564D01*
X100431371Y-88630253D01*
X100510562Y-88678170D01*
X100596602Y-88730532D01*
X100688184Y-88786558D01*
X100771064Y-88837495D01*
X100866038Y-88895957D01*
X100956281Y-88951447D01*
X101040522Y-89003186D01*
X101117490Y-89050397D01*
X101185915Y-89092303D01*
X101244527Y-89128126D01*
X101292055Y-89157089D01*
X101327229Y-89178414D01*
X101348778Y-89191325D01*
X101355467Y-89195109D01*
X101364314Y-89190415D01*
X101386443Y-89177417D01*
X101419147Y-89157741D01*
X101459717Y-89133013D01*
X101493709Y-89112110D01*
X101549483Y-89077649D01*
X101613712Y-89037896D01*
X101684685Y-88993915D01*
X101760692Y-88946771D01*
X101840021Y-88897527D01*
X101920963Y-88847248D01*
X102001805Y-88796998D01*
X102080838Y-88747841D01*
X102156350Y-88700842D01*
X102226631Y-88657064D01*
X102289970Y-88617571D01*
X102344656Y-88583428D01*
X102388978Y-88555699D01*
X102421226Y-88535449D01*
X102439689Y-88523740D01*
X102442238Y-88522083D01*
X102488881Y-88491970D01*
X102536375Y-88462560D01*
X102581685Y-88435602D01*
X102621774Y-88412842D01*
X102653609Y-88396028D01*
X102674152Y-88386906D01*
X102679086Y-88385772D01*
X102696534Y-88393306D01*
G37*
G36*
X103437836Y-86030696D02*
G01*
X103435087Y-86103631D01*
X103338626Y-86106312D01*
X103242164Y-86108994D01*
X103242164Y-85915413D01*
X103863283Y-85915413D01*
X103867989Y-85920118D01*
X103872694Y-85915413D01*
X103867989Y-85910707D01*
X103863283Y-85915413D01*
X103242164Y-85915413D01*
X103242164Y-85877426D01*
X103242234Y-85847397D01*
X103864332Y-85847397D01*
X103865874Y-85875248D01*
X103867797Y-85883005D01*
X103869198Y-85873916D01*
X103869777Y-85849952D01*
X103869778Y-85849536D01*
X103869287Y-85824537D01*
X103867908Y-85813541D01*
X103865970Y-85818782D01*
X103864332Y-85847397D01*
X103242234Y-85847397D01*
X103242338Y-85803070D01*
X103242940Y-85745378D01*
X103244093Y-85702194D01*
X103245916Y-85671364D01*
X103248532Y-85650731D01*
X103252062Y-85638140D01*
X103255979Y-85632043D01*
X103268329Y-85625000D01*
X103290132Y-85621233D01*
X103324972Y-85620330D01*
X103352441Y-85620951D01*
X103435087Y-85623675D01*
X103437836Y-85696609D01*
X103440585Y-85769544D01*
X103891516Y-85769544D01*
X103891516Y-85957762D01*
X103440585Y-85957762D01*
X103437836Y-86030696D01*
G37*
G36*
X103838845Y-84557634D02*
G01*
X103799479Y-84565689D01*
X103752210Y-84575072D01*
X103726825Y-84580011D01*
X103585662Y-84607299D01*
X103886810Y-84616709D01*
X103892222Y-84790811D01*
X103242164Y-84790811D01*
X103242164Y-84710627D01*
X103864375Y-84710627D01*
X103865941Y-84731863D01*
X103868097Y-84738394D01*
X103869579Y-84728223D01*
X103870002Y-84710818D01*
X103869404Y-84688500D01*
X103867727Y-84680342D01*
X103866069Y-84684809D01*
X103864375Y-84710627D01*
X103242164Y-84710627D01*
X103242164Y-84669622D01*
X103242834Y-84613351D01*
X103244958Y-84573978D01*
X103248708Y-84549619D01*
X103254200Y-84538444D01*
X103267381Y-84533290D01*
X103295489Y-84525873D01*
X103334884Y-84517043D01*
X103381931Y-84507648D01*
X103402421Y-84503860D01*
X103451179Y-84494997D01*
X103493476Y-84487201D01*
X103506433Y-84484766D01*
X103864375Y-84484766D01*
X103865941Y-84506002D01*
X103868097Y-84512533D01*
X103869579Y-84502361D01*
X103870002Y-84484957D01*
X103869404Y-84462639D01*
X103867989Y-84455756D01*
X103867727Y-84454481D01*
X103866069Y-84458948D01*
X103864375Y-84484766D01*
X103506433Y-84484766D01*
X103525785Y-84481129D01*
X103544581Y-84477441D01*
X103547605Y-84476759D01*
X103542600Y-84474138D01*
X103522325Y-84468853D01*
X103490016Y-84461672D01*
X103448907Y-84453360D01*
X103448791Y-84453337D01*
X103400105Y-84443883D01*
X103352765Y-84434674D01*
X103321056Y-84428492D01*
X103863283Y-84428492D01*
X103867989Y-84433197D01*
X103872694Y-84428492D01*
X103867989Y-84423786D01*
X103863283Y-84428492D01*
X103321056Y-84428492D01*
X103312977Y-84426917D01*
X103291571Y-84422731D01*
X103242164Y-84413041D01*
X103242164Y-84291698D01*
X103242262Y-84270050D01*
X103864495Y-84270050D01*
X103866052Y-84284975D01*
X103868380Y-84289435D01*
X103869856Y-84277611D01*
X103870131Y-84263801D01*
X103869896Y-84257284D01*
X103869397Y-84243447D01*
X103867520Y-84237859D01*
X103866052Y-84242626D01*
X103864495Y-84270050D01*
X103242262Y-84270050D01*
X103242391Y-84241524D01*
X103243376Y-84206907D01*
X103243522Y-84205428D01*
X103865218Y-84205428D01*
X103866461Y-84209688D01*
X103869896Y-84210871D01*
X103871208Y-84197925D01*
X103869729Y-84184565D01*
X103866461Y-84186161D01*
X103865218Y-84205428D01*
X103243522Y-84205428D01*
X103245580Y-84184582D01*
X103249460Y-84171286D01*
X103255476Y-84163757D01*
X103260612Y-84160481D01*
X103276378Y-84157411D01*
X103310546Y-84155089D01*
X103362711Y-84153524D01*
X103432468Y-84152726D01*
X103519413Y-84152703D01*
X103582935Y-84153092D01*
X103886810Y-84155576D01*
X103889516Y-84242626D01*
X103892222Y-84329677D01*
X103868380Y-84329820D01*
X103566840Y-84331635D01*
X103729178Y-84364891D01*
X103891516Y-84398146D01*
X103891516Y-84471130D01*
X103890117Y-84514338D01*
X103885823Y-84539877D01*
X103879752Y-84548419D01*
X103868097Y-84551308D01*
X103866780Y-84551634D01*
X103838845Y-84557634D01*
G37*
G36*
X103242164Y-81653430D02*
G01*
X103242563Y-81633456D01*
X103863283Y-81633456D01*
X103867989Y-81638162D01*
X103872694Y-81633456D01*
X103867989Y-81628751D01*
X103866420Y-81630320D01*
X103863283Y-81633456D01*
X103242563Y-81633456D01*
X103242935Y-81614824D01*
X103865294Y-81614824D01*
X103866420Y-81616203D01*
X103872015Y-81614911D01*
X103872694Y-81609929D01*
X103869251Y-81602183D01*
X103866420Y-81603655D01*
X103865294Y-81614824D01*
X103242935Y-81614824D01*
X103243202Y-81601448D01*
X103246398Y-81567067D01*
X103251874Y-81549179D01*
X103253928Y-81546901D01*
X103266249Y-81540186D01*
X103292570Y-81527448D01*
X103329647Y-81510205D01*
X103374234Y-81489975D01*
X103402149Y-81477519D01*
X103538607Y-81417006D01*
X103390386Y-81414414D01*
X103242164Y-81411822D01*
X103242164Y-81407595D01*
X103863283Y-81407595D01*
X103867989Y-81412300D01*
X103872694Y-81407595D01*
X103867989Y-81402889D01*
X103863283Y-81407595D01*
X103242164Y-81407595D01*
X103242164Y-81379362D01*
X103863283Y-81379362D01*
X103867989Y-81384068D01*
X103872694Y-81379362D01*
X103867989Y-81374657D01*
X103863283Y-81379362D01*
X103242164Y-81379362D01*
X103242164Y-81333951D01*
X103242532Y-81322710D01*
X103864378Y-81322710D01*
X103865953Y-81344071D01*
X103868005Y-81349910D01*
X103869424Y-81339222D01*
X103869874Y-81318191D01*
X103869290Y-81294958D01*
X103867989Y-81287500D01*
X103867771Y-81286250D01*
X103865953Y-81292312D01*
X103864378Y-81322710D01*
X103242532Y-81322710D01*
X103243588Y-81290441D01*
X103247597Y-81259575D01*
X103248609Y-81257021D01*
X103863283Y-81257021D01*
X103867989Y-81261726D01*
X103872694Y-81257021D01*
X103867989Y-81252315D01*
X103863283Y-81257021D01*
X103248609Y-81257021D01*
X103253457Y-81244786D01*
X103262287Y-81241462D01*
X103282322Y-81238784D01*
X103314869Y-81236707D01*
X103361236Y-81235186D01*
X103422730Y-81234174D01*
X103500658Y-81233627D01*
X103578133Y-81233493D01*
X103891516Y-81233493D01*
X103891516Y-81431844D01*
X103867989Y-81443247D01*
X103738589Y-81505967D01*
X103585662Y-81580089D01*
X103738589Y-81580893D01*
X103891516Y-81581696D01*
X103891516Y-81751093D01*
X103242164Y-81751093D01*
X103242164Y-81720953D01*
X103865218Y-81720953D01*
X103866461Y-81725213D01*
X103869896Y-81726395D01*
X103871208Y-81713449D01*
X103870444Y-81706548D01*
X103869729Y-81700089D01*
X103866461Y-81701685D01*
X103865218Y-81720953D01*
X103242164Y-81720953D01*
X103242164Y-81672128D01*
X103864762Y-81672128D01*
X103866265Y-81677570D01*
X103870444Y-81681135D01*
X103871951Y-81671884D01*
X103870221Y-81659678D01*
X103867989Y-81659577D01*
X103867008Y-81659532D01*
X103864762Y-81672128D01*
X103242164Y-81672128D01*
X103242164Y-81653430D01*
G37*
G36*
X98815978Y-92733744D02*
G01*
X98949265Y-92734184D01*
X99066062Y-92734955D01*
X99167536Y-92736088D01*
X99254852Y-92737614D01*
X99329175Y-92739564D01*
X99391669Y-92741969D01*
X99443502Y-92744860D01*
X99485838Y-92748269D01*
X99519842Y-92752226D01*
X99546679Y-92756762D01*
X99548389Y-92757116D01*
X99561744Y-92763143D01*
X99587837Y-92777456D01*
X99623574Y-92798159D01*
X99665864Y-92823354D01*
X99711614Y-92851147D01*
X99757732Y-92879641D01*
X99801124Y-92906939D01*
X99838698Y-92931145D01*
X99867362Y-92950364D01*
X99884024Y-92962699D01*
X99884828Y-92963406D01*
X99899427Y-92984254D01*
X99896662Y-93007590D01*
X99891809Y-93017075D01*
X99882693Y-93025676D01*
X99860826Y-93043623D01*
X99828607Y-93069093D01*
X99788436Y-93100267D01*
X99742712Y-93135321D01*
X99693836Y-93172436D01*
X99644206Y-93209788D01*
X99596222Y-93245558D01*
X99552285Y-93277923D01*
X99514794Y-93305062D01*
X99486148Y-93325153D01*
X99484177Y-93326491D01*
X99468657Y-93337488D01*
X99441827Y-93356989D01*
X99407460Y-93382236D01*
X99369395Y-93410420D01*
X99306622Y-93457044D01*
X99257037Y-93493650D01*
X99218726Y-93521449D01*
X99189773Y-93541654D01*
X99168262Y-93555476D01*
X99152277Y-93564127D01*
X99139903Y-93568819D01*
X99129225Y-93570763D01*
X99118326Y-93571170D01*
X99115242Y-93571174D01*
X99090080Y-93565374D01*
X99065216Y-93551629D01*
X99043629Y-93535705D01*
X99009725Y-93511800D01*
X98966942Y-93482240D01*
X98918714Y-93449346D01*
X98868477Y-93415443D01*
X98819667Y-93382853D01*
X98775720Y-93353901D01*
X98740071Y-93330909D01*
X98724010Y-93320890D01*
X98664600Y-93282738D01*
X98606538Y-93242059D01*
X98562490Y-93208240D01*
X98546165Y-93197483D01*
X98538069Y-93194738D01*
X98526537Y-93188449D01*
X98513190Y-93175917D01*
X98496610Y-93161804D01*
X98484958Y-93157095D01*
X98470768Y-93150693D01*
X98456725Y-93138273D01*
X98440145Y-93124161D01*
X98428492Y-93119451D01*
X98414302Y-93113050D01*
X98400260Y-93100629D01*
X98385146Y-93086632D01*
X98375886Y-93081808D01*
X98365807Y-93076742D01*
X98343432Y-93062881D01*
X98311880Y-93042232D01*
X98274271Y-93016799D01*
X98266767Y-93011640D01*
X98184638Y-92955285D01*
X98115094Y-92908129D01*
X98058663Y-92870517D01*
X98015869Y-92842795D01*
X97987241Y-92825309D01*
X97973305Y-92818405D01*
X97972571Y-92818303D01*
X97960474Y-92811034D01*
X97957128Y-92793453D01*
X97962506Y-92771901D01*
X97972816Y-92756331D01*
X97994167Y-92733605D01*
X98665036Y-92733605D01*
X98815978Y-92733744D01*
G37*
G36*
X103466937Y-85507359D02*
G01*
X103418815Y-85500106D01*
X103397444Y-85494282D01*
X103397146Y-85494201D01*
X103338632Y-85465341D01*
X103290015Y-85424449D01*
X103258360Y-85380434D01*
X103248800Y-85359986D01*
X103242636Y-85338428D01*
X103239166Y-85310962D01*
X103237687Y-85272789D01*
X103237459Y-85237828D01*
X103392738Y-85237828D01*
X103397444Y-85242534D01*
X103402149Y-85237828D01*
X103397444Y-85233123D01*
X103392738Y-85237828D01*
X103237459Y-85237828D01*
X103237766Y-85226377D01*
X103425546Y-85226377D01*
X103432315Y-85259008D01*
X103454558Y-85286912D01*
X103472817Y-85298431D01*
X103511928Y-85311036D01*
X103558450Y-85316415D01*
X103606757Y-85314942D01*
X103651221Y-85306989D01*
X103686215Y-85292929D01*
X103698679Y-85283452D01*
X103709836Y-85260898D01*
X103711847Y-85230304D01*
X103704719Y-85200078D01*
X103698608Y-85188947D01*
X103673005Y-85166896D01*
X103634830Y-85151184D01*
X103589419Y-85142354D01*
X103542106Y-85140949D01*
X103498227Y-85147510D01*
X103463117Y-85162580D01*
X103460120Y-85164705D01*
X103434674Y-85193461D01*
X103425546Y-85226377D01*
X103237766Y-85226377D01*
X103239039Y-85178829D01*
X103244935Y-85133576D01*
X103256882Y-85097174D01*
X103276614Y-85064725D01*
X103305867Y-85031332D01*
X103313250Y-85023873D01*
X103349407Y-84993446D01*
X103389861Y-84971549D01*
X103438122Y-84957131D01*
X103497701Y-84949140D01*
X103571545Y-84946526D01*
X103642431Y-84947999D01*
X103698597Y-84953765D01*
X103743883Y-84964965D01*
X103782124Y-84982739D01*
X103817158Y-85008227D01*
X103835376Y-85024900D01*
X103867707Y-85061333D01*
X103888061Y-85098436D01*
X103895301Y-85119548D01*
X103906446Y-85178603D01*
X103908889Y-85244345D01*
X103902641Y-85307720D01*
X103894979Y-85340030D01*
X103871698Y-85387872D01*
X103834381Y-85432630D01*
X103787747Y-85469636D01*
X103740392Y-85492920D01*
X103699913Y-85502499D01*
X103646751Y-85508753D01*
X103586482Y-85511662D01*
X103558450Y-85511454D01*
X103524685Y-85511204D01*
X103466937Y-85507359D01*
G37*
G36*
X101213927Y-91727780D02*
G01*
X101427751Y-91727822D01*
X101634000Y-91727903D01*
X101831839Y-91728023D01*
X102020433Y-91728181D01*
X102198949Y-91728376D01*
X102366554Y-91728607D01*
X102522413Y-91728873D01*
X102665692Y-91729174D01*
X102795558Y-91729509D01*
X102911176Y-91729876D01*
X103011713Y-91730275D01*
X103096334Y-91730705D01*
X103164207Y-91731165D01*
X103214496Y-91731655D01*
X103232322Y-91731903D01*
X103631854Y-91738332D01*
X103722120Y-91828124D01*
X103722120Y-92674872D01*
X103677726Y-92711249D01*
X103633333Y-92747626D01*
X102967810Y-92747852D01*
X102857521Y-92747995D01*
X102752730Y-92748337D01*
X102654957Y-92748860D01*
X102565724Y-92749545D01*
X102486553Y-92750376D01*
X102418964Y-92751333D01*
X102364479Y-92752400D01*
X102324620Y-92753558D01*
X102300907Y-92754789D01*
X102294623Y-92755761D01*
X102293522Y-92766103D01*
X102292531Y-92793917D01*
X102291656Y-92837854D01*
X102290906Y-92896565D01*
X102290288Y-92968701D01*
X102289810Y-93052913D01*
X102289480Y-93147851D01*
X102289305Y-93252167D01*
X102289293Y-93364511D01*
X102289451Y-93483534D01*
X102289777Y-93604336D01*
X102290255Y-93749222D01*
X102290644Y-93876450D01*
X102290921Y-93987183D01*
X102291064Y-94082584D01*
X102291052Y-94163815D01*
X102290864Y-94232042D01*
X102290477Y-94288426D01*
X102289870Y-94334131D01*
X102289021Y-94370320D01*
X102287909Y-94398157D01*
X102286511Y-94418804D01*
X102284807Y-94433425D01*
X102282775Y-94443183D01*
X102280392Y-94449241D01*
X102277638Y-94452763D01*
X102274490Y-94454912D01*
X102273926Y-94455218D01*
X102238746Y-94464667D01*
X102204226Y-94455392D01*
X102190712Y-94446387D01*
X102167317Y-94430911D01*
X102154825Y-94429506D01*
X102153952Y-94442199D01*
X102154785Y-94445061D01*
X102157335Y-94463530D01*
X102150916Y-94481187D01*
X102133336Y-94500987D01*
X102102406Y-94525885D01*
X102086027Y-94537775D01*
X102054851Y-94560178D01*
X102028390Y-94579497D01*
X102011414Y-94592239D01*
X102009337Y-94593886D01*
X101997022Y-94603378D01*
X101972653Y-94621759D01*
X101939306Y-94646720D01*
X101900058Y-94675955D01*
X101882290Y-94689149D01*
X101841378Y-94719547D01*
X101789302Y-94758312D01*
X101729969Y-94802530D01*
X101667283Y-94849292D01*
X101605151Y-94895685D01*
X101576909Y-94916790D01*
X101522976Y-94956556D01*
X101472450Y-94992777D01*
X101427743Y-95023806D01*
X101391263Y-95047997D01*
X101365419Y-95063704D01*
X101354100Y-95069033D01*
X101333458Y-95072494D01*
X101314829Y-95068236D01*
X101291056Y-95054204D01*
X101283045Y-95048626D01*
X101226201Y-95008792D01*
X101175158Y-94973758D01*
X101131902Y-94944836D01*
X101098420Y-94923338D01*
X101076699Y-94910573D01*
X101069299Y-94907521D01*
X101059219Y-94899801D01*
X101056496Y-94880852D01*
X101061674Y-94856991D01*
X101064399Y-94850728D01*
X101080325Y-94828145D01*
X101102438Y-94807027D01*
X101102733Y-94806803D01*
X101116709Y-94796391D01*
X101143774Y-94776314D01*
X101181876Y-94748091D01*
X101228965Y-94713241D01*
X101282988Y-94673281D01*
X101341897Y-94629731D01*
X101374102Y-94605930D01*
X101465582Y-94538334D01*
X101543058Y-94481058D01*
X101607653Y-94433222D01*
X101660492Y-94393950D01*
X101702699Y-94362364D01*
X101735397Y-94337584D01*
X101759712Y-94318734D01*
X101776767Y-94304934D01*
X101787686Y-94295307D01*
X101793594Y-94288975D01*
X101795613Y-94285059D01*
X101794869Y-94282682D01*
X101792486Y-94280966D01*
X101791144Y-94280153D01*
X101775598Y-94266629D01*
X101764654Y-94254229D01*
X101756529Y-94242303D01*
X101760652Y-94238959D01*
X101780021Y-94242013D01*
X101781123Y-94242230D01*
X101801691Y-94244050D01*
X101811559Y-94240494D01*
X101811708Y-94239670D01*
X101818785Y-94237456D01*
X101835982Y-94243732D01*
X101837588Y-94244553D01*
X101862478Y-94254422D01*
X101882290Y-94258091D01*
X101883674Y-94253500D01*
X101870207Y-94240453D01*
X101843226Y-94220094D01*
X101816414Y-94201704D01*
X101774075Y-94173897D01*
X101745343Y-94156230D01*
X101728470Y-94147959D01*
X101721708Y-94148337D01*
X101723312Y-94156617D01*
X101726646Y-94163379D01*
X101732405Y-94182191D01*
X101726967Y-94200413D01*
X101708483Y-94220929D01*
X101675102Y-94246622D01*
X101671718Y-94248998D01*
X101638528Y-94272520D01*
X101597847Y-94301827D01*
X101557266Y-94331441D01*
X101548203Y-94338119D01*
X101508395Y-94367324D01*
X101460949Y-94401833D01*
X101413569Y-94436052D01*
X101392924Y-94450866D01*
X101358776Y-94475442D01*
X101313366Y-94508329D01*
X101260595Y-94546689D01*
X101204368Y-94587685D01*
X101148586Y-94628478D01*
X101141305Y-94633814D01*
X101091476Y-94670174D01*
X101045879Y-94703144D01*
X101007002Y-94730949D01*
X100977331Y-94751816D01*
X100959353Y-94763971D01*
X100956058Y-94765961D01*
X100925323Y-94774671D01*
X100890464Y-94773779D01*
X100860648Y-94763884D01*
X100854115Y-94759299D01*
X100830302Y-94740487D01*
X100813942Y-94728714D01*
X100789768Y-94711620D01*
X100771584Y-94698128D01*
X100753046Y-94686114D01*
X100741194Y-94681659D01*
X100728892Y-94675338D01*
X100715339Y-94662838D01*
X100698640Y-94648716D01*
X100686801Y-94644016D01*
X100671842Y-94637427D01*
X100662766Y-94628919D01*
X100643965Y-94613539D01*
X100628044Y-94605385D01*
X100612171Y-94595162D01*
X100611606Y-94578964D01*
X100612350Y-94576468D01*
X100616736Y-94565044D01*
X100623460Y-94553634D01*
X100634209Y-94540796D01*
X100650673Y-94525091D01*
X100674541Y-94505078D01*
X100707500Y-94479316D01*
X100751241Y-94446366D01*
X100807451Y-94404785D01*
X100851797Y-94372211D01*
X100886500Y-94346677D01*
X100916562Y-94324408D01*
X100938069Y-94308313D01*
X100945906Y-94302301D01*
X100960583Y-94291160D01*
X100985049Y-94273101D01*
X101011783Y-94253647D01*
X101034950Y-94236745D01*
X101070099Y-94210902D01*
X101114115Y-94178418D01*
X101163881Y-94141594D01*
X101216282Y-94102730D01*
X101231627Y-94091332D01*
X101298269Y-94042643D01*
X101350919Y-94006030D01*
X101389865Y-93981307D01*
X101415393Y-93968288D01*
X101424551Y-93966012D01*
X101436030Y-93966008D01*
X101442331Y-93965123D01*
X101441594Y-93961364D01*
X101431960Y-93952741D01*
X101411567Y-93937262D01*
X101378556Y-93912938D01*
X101367044Y-93904452D01*
X101322342Y-93871460D01*
X101322342Y-92717892D01*
X100270675Y-92711637D01*
X100112915Y-92710741D01*
X99947720Y-92709884D01*
X99777634Y-92709075D01*
X99605198Y-92708321D01*
X99432954Y-92707633D01*
X99263446Y-92707020D01*
X99099215Y-92706489D01*
X98942805Y-92706052D01*
X98796757Y-92705715D01*
X98663614Y-92705490D01*
X98545918Y-92705384D01*
X98511204Y-92705377D01*
X98378837Y-92705360D01*
X98264011Y-92705292D01*
X98165444Y-92705141D01*
X98081855Y-92704876D01*
X98011963Y-92704466D01*
X97954487Y-92703879D01*
X97908146Y-92703086D01*
X97871659Y-92702054D01*
X97843744Y-92700753D01*
X97823120Y-92699151D01*
X97808506Y-92697217D01*
X97798622Y-92694921D01*
X97792185Y-92692231D01*
X97787914Y-92689116D01*
X97786566Y-92687786D01*
X97773785Y-92677295D01*
X97749186Y-92659392D01*
X97715893Y-92636155D01*
X97677026Y-92609662D01*
X97635708Y-92581992D01*
X97595062Y-92555222D01*
X97558208Y-92531431D01*
X97528270Y-92512698D01*
X97508369Y-92501099D01*
X97501955Y-92498332D01*
X97491143Y-92492074D01*
X97477992Y-92479510D01*
X97461989Y-92465443D01*
X97451260Y-92460689D01*
X97437672Y-92454912D01*
X97422133Y-92443171D01*
X97408812Y-92432900D01*
X97382403Y-92413961D01*
X97345471Y-92388139D01*
X97300580Y-92357220D01*
X97250293Y-92322991D01*
X97228604Y-92308343D01*
X97130246Y-92242034D01*
X97046391Y-92185416D01*
X96975897Y-92137707D01*
X96917629Y-92098127D01*
X96870446Y-92065894D01*
X96833211Y-92040226D01*
X96804785Y-92020343D01*
X96784029Y-92005464D01*
X96769805Y-91994807D01*
X96760975Y-91987591D01*
X96760412Y-91987089D01*
X96749984Y-91975737D01*
X96743689Y-91961620D01*
X96740548Y-91940050D01*
X96739582Y-91906341D01*
X96739591Y-91887336D01*
X96740149Y-91847663D01*
X96742423Y-91821243D01*
X96747945Y-91802508D01*
X96758247Y-91785892D01*
X96772150Y-91768988D01*
X96804356Y-91731344D01*
X99818573Y-91728409D01*
X100060344Y-91728195D01*
X100299542Y-91728026D01*
X100535333Y-91727901D01*
X100766883Y-91727819D01*
X100993359Y-91727779D01*
X101213927Y-91727780D01*
G37*
G36*
X102308282Y-94546141D02*
G01*
X102338130Y-94561264D01*
X102379173Y-94585085D01*
X102429377Y-94616448D01*
X102461060Y-94637091D01*
X102520525Y-94676458D01*
X102564798Y-94707471D01*
X102594138Y-94732525D01*
X102608801Y-94754016D01*
X102609048Y-94774338D01*
X102595136Y-94795887D01*
X102567323Y-94821057D01*
X102525869Y-94852245D01*
X102487267Y-94880097D01*
X102437738Y-94915767D01*
X102378206Y-94958536D01*
X102313997Y-95004582D01*
X102250440Y-95050083D01*
X102202261Y-95084512D01*
X102148220Y-95123112D01*
X102093805Y-95162023D01*
X102042918Y-95198451D01*
X101999461Y-95229603D01*
X101967337Y-95252685D01*
X101966762Y-95253099D01*
X101909172Y-95294454D01*
X101864277Y-95325626D01*
X101829420Y-95347324D01*
X101801948Y-95360259D01*
X101779204Y-95365142D01*
X101758535Y-95362682D01*
X101737285Y-95353591D01*
X101712800Y-95338578D01*
X101694031Y-95326073D01*
X101663512Y-95304959D01*
X101639683Y-95287133D01*
X101626447Y-95275563D01*
X101625059Y-95273599D01*
X101614254Y-95265637D01*
X101610049Y-95265135D01*
X101595320Y-95258711D01*
X101581142Y-95246313D01*
X101565956Y-95232310D01*
X101556574Y-95227491D01*
X101545889Y-95222755D01*
X101526003Y-95211162D01*
X101503142Y-95196634D01*
X101483532Y-95183096D01*
X101474597Y-95175844D01*
X101476504Y-95166305D01*
X101485673Y-95147175D01*
X101488468Y-95142201D01*
X101501603Y-95127263D01*
X101529110Y-95102414D01*
X101569926Y-95068518D01*
X101622989Y-95026439D01*
X101687239Y-94977040D01*
X101745832Y-94932940D01*
X101805980Y-94887962D01*
X101862466Y-94845570D01*
X101913196Y-94807347D01*
X101956076Y-94774878D01*
X101989011Y-94749745D01*
X102009906Y-94733532D01*
X102014910Y-94729497D01*
X102039770Y-94709667D01*
X102062649Y-94692854D01*
X102065287Y-94691070D01*
X102081087Y-94679955D01*
X102108046Y-94660350D01*
X102142292Y-94635091D01*
X102177350Y-94608967D01*
X102221188Y-94577681D01*
X102257139Y-94555140D01*
X102282766Y-94542792D01*
X102291664Y-94540872D01*
X102308282Y-94546141D01*
G37*
G36*
X102763727Y-94845201D02*
G01*
X102777626Y-94849796D01*
X102796854Y-94859044D01*
X102823223Y-94873954D01*
X102858543Y-94895533D01*
X102904625Y-94924788D01*
X102963280Y-94962727D01*
X103013950Y-94995747D01*
X103061804Y-95027922D01*
X103093689Y-95053329D01*
X103109829Y-95074790D01*
X103110449Y-95095129D01*
X103095776Y-95117168D01*
X103066034Y-95143730D01*
X103028066Y-95172723D01*
X102991505Y-95199755D01*
X102944485Y-95234269D01*
X102891818Y-95272747D01*
X102838316Y-95311669D01*
X102809263Y-95332724D01*
X102750180Y-95375546D01*
X102688604Y-95420304D01*
X102626606Y-95465481D01*
X102566257Y-95509559D01*
X102509627Y-95551023D01*
X102458787Y-95588353D01*
X102415807Y-95620034D01*
X102382758Y-95644547D01*
X102361711Y-95660377D01*
X102355932Y-95664889D01*
X102328764Y-95684653D01*
X102303679Y-95695746D01*
X102277661Y-95697580D01*
X102247694Y-95689566D01*
X102210760Y-95671117D01*
X102163845Y-95641646D01*
X102134454Y-95621737D01*
X102090038Y-95591358D01*
X102046970Y-95562167D01*
X102009667Y-95537141D01*
X101982546Y-95519257D01*
X101978752Y-95516811D01*
X101955877Y-95501030D01*
X101940952Y-95486553D01*
X101934971Y-95471729D01*
X101938928Y-95454908D01*
X101953817Y-95434439D01*
X101980632Y-95408672D01*
X102020368Y-95375957D01*
X102074019Y-95334643D01*
X102100555Y-95314621D01*
X102147348Y-95279484D01*
X102190072Y-95247521D01*
X102226031Y-95220738D01*
X102252528Y-95201144D01*
X102266867Y-95190747D01*
X102267309Y-95190440D01*
X102282538Y-95179568D01*
X102308349Y-95160756D01*
X102340997Y-95136775D01*
X102376737Y-95110395D01*
X102411823Y-95084385D01*
X102442510Y-95061516D01*
X102465051Y-95044557D01*
X102475176Y-95036721D01*
X102495906Y-95020524D01*
X102526307Y-94997867D01*
X102563227Y-94970981D01*
X102603513Y-94942099D01*
X102644013Y-94913452D01*
X102681572Y-94887272D01*
X102713039Y-94865792D01*
X102735261Y-94851242D01*
X102744671Y-94845942D01*
X102753345Y-94844252D01*
X102763727Y-94845201D01*
G37*
G36*
X103437836Y-83348592D02*
G01*
X103435087Y-83421526D01*
X103338626Y-83424208D01*
X103242164Y-83426890D01*
X103242164Y-83197146D01*
X103242174Y-83193373D01*
X103864329Y-83193373D01*
X103865886Y-83221545D01*
X103867731Y-83228647D01*
X103869081Y-83219039D01*
X103869674Y-83194830D01*
X103869682Y-83190959D01*
X103869200Y-83165105D01*
X103867929Y-83153593D01*
X103866130Y-83158533D01*
X103865886Y-83160374D01*
X103864329Y-83193373D01*
X103242174Y-83193373D01*
X103242355Y-83122667D01*
X103243001Y-83064942D01*
X103244217Y-83021907D01*
X103246115Y-82991499D01*
X103248808Y-82971653D01*
X103252410Y-82960305D01*
X103255350Y-82956459D01*
X103273038Y-82950701D01*
X103307459Y-82947969D01*
X103351812Y-82948249D01*
X103435087Y-82950981D01*
X103437836Y-83023916D01*
X103440585Y-83096850D01*
X103891516Y-83096850D01*
X103891516Y-83275657D01*
X103440585Y-83275657D01*
X103437836Y-83348592D01*
G37*
G36*
X103471507Y-86231782D02*
G01*
X103532705Y-86233606D01*
X103592512Y-86236330D01*
X103647570Y-86239861D01*
X103694519Y-86244108D01*
X103730000Y-86248977D01*
X103746479Y-86252789D01*
X103806803Y-86277915D01*
X103851475Y-86310693D01*
X103882070Y-86353299D01*
X103900159Y-86407908D01*
X103907271Y-86475195D01*
X103907448Y-86515767D01*
X103905676Y-86552170D01*
X103902321Y-86577950D01*
X103901212Y-86582189D01*
X103878216Y-86629277D01*
X103843210Y-86671880D01*
X103819041Y-86691787D01*
X103796154Y-86705708D01*
X103771113Y-86716668D01*
X103741428Y-86725000D01*
X103704612Y-86731034D01*
X103658176Y-86735102D01*
X103599633Y-86737537D01*
X103526494Y-86738670D01*
X103465975Y-86738866D01*
X103242164Y-86738866D01*
X103242164Y-86660026D01*
X103243706Y-86612810D01*
X103248256Y-86582700D01*
X103253928Y-86571540D01*
X103267025Y-86568238D01*
X103296551Y-86565130D01*
X103340111Y-86562367D01*
X103395314Y-86560097D01*
X103459765Y-86558473D01*
X103463320Y-86558409D01*
X103542621Y-86556443D01*
X103604694Y-86553661D01*
X103649080Y-86550095D01*
X103675319Y-86545776D01*
X103680948Y-86543672D01*
X103700970Y-86523262D01*
X103707215Y-86496221D01*
X103700258Y-86468094D01*
X103680673Y-86444427D01*
X103669962Y-86437717D01*
X103655508Y-86432611D01*
X103633160Y-86428614D01*
X103600600Y-86425553D01*
X103555515Y-86423254D01*
X103495587Y-86421542D01*
X103442146Y-86420579D01*
X103242164Y-86417556D01*
X103242164Y-86333859D01*
X103242576Y-86293344D01*
X103244397Y-86267519D01*
X103248504Y-86252262D01*
X103255771Y-86243449D01*
X103262238Y-86239418D01*
X103279998Y-86235348D01*
X103313165Y-86232642D01*
X103358378Y-86231208D01*
X103412278Y-86230952D01*
X103471507Y-86231782D01*
G37*
G36*
X101974510Y-82311099D02*
G01*
X102071291Y-82322220D01*
X102158979Y-82340269D01*
X102200369Y-82352739D01*
X102304656Y-82396563D01*
X102397792Y-82452741D01*
X102480159Y-82521859D01*
X102552140Y-82604502D01*
X102614116Y-82701257D01*
X102666469Y-82812708D01*
X102709581Y-82939442D01*
X102743835Y-83082045D01*
X102767012Y-83221549D01*
X102772412Y-83271712D01*
X102777058Y-83335452D01*
X102780863Y-83408781D01*
X102783737Y-83487711D01*
X102785591Y-83568254D01*
X102786336Y-83646421D01*
X102785883Y-83718225D01*
X102784143Y-83779677D01*
X102781027Y-83826790D01*
X102780600Y-83830900D01*
X102756937Y-83987255D01*
X102721689Y-84129186D01*
X102674919Y-84256584D01*
X102616689Y-84369339D01*
X102547060Y-84467340D01*
X102466094Y-84550479D01*
X102373853Y-84618644D01*
X102319897Y-84648926D01*
X102279709Y-84668152D01*
X102238931Y-84685853D01*
X102205621Y-84698553D01*
X102202261Y-84699655D01*
X102159048Y-84711571D01*
X102107291Y-84723064D01*
X102053305Y-84732997D01*
X102003403Y-84740233D01*
X101963900Y-84743635D01*
X101957307Y-84743756D01*
X101941333Y-84744224D01*
X101927963Y-84744608D01*
X101916969Y-84743379D01*
X101908120Y-84739008D01*
X101901185Y-84729968D01*
X101895935Y-84714729D01*
X101892138Y-84691763D01*
X101889565Y-84659540D01*
X101887985Y-84616533D01*
X101887167Y-84561213D01*
X101886883Y-84492051D01*
X101886900Y-84407518D01*
X101886989Y-84306086D01*
X101886996Y-84277127D01*
X101886996Y-83821923D01*
X101908170Y-83808709D01*
X101933635Y-83796564D01*
X101957575Y-83788901D01*
X101989476Y-83773469D01*
X102022119Y-83744300D01*
X102051605Y-83705899D01*
X102074039Y-83662770D01*
X102079229Y-83648269D01*
X102089421Y-83599056D01*
X102093840Y-83539311D01*
X102092747Y-83475304D01*
X102086404Y-83413306D01*
X102075073Y-83359586D01*
X102066129Y-83334258D01*
X102040083Y-83286807D01*
X102009717Y-83256262D01*
X101972719Y-83240816D01*
X101943066Y-83238014D01*
X101897022Y-83246221D01*
X101858709Y-83271090D01*
X101827688Y-83312988D01*
X101811367Y-83349159D01*
X101805114Y-83370941D01*
X101796380Y-83408765D01*
X101785664Y-83460090D01*
X101773466Y-83522373D01*
X101760286Y-83593073D01*
X101746625Y-83669648D01*
X101735120Y-83736791D01*
X101721421Y-83817274D01*
X101707895Y-83894856D01*
X101695038Y-83966835D01*
X101683343Y-84030512D01*
X101673305Y-84083184D01*
X101665419Y-84122152D01*
X101660980Y-84141689D01*
X101622260Y-84261875D01*
X101570599Y-84369481D01*
X101506536Y-84463901D01*
X101430611Y-84544524D01*
X101343363Y-84610743D01*
X101245331Y-84661949D01*
X101178357Y-84686201D01*
X101081934Y-84708359D01*
X100975936Y-84719872D01*
X100864971Y-84721038D01*
X100753644Y-84712159D01*
X100646561Y-84693533D01*
X100548330Y-84665460D01*
X100489478Y-84641381D01*
X100401501Y-84590384D01*
X100324232Y-84525329D01*
X100257433Y-84445827D01*
X100200868Y-84351489D01*
X100154299Y-84241926D01*
X100117490Y-84116747D01*
X100092234Y-83988671D01*
X100085610Y-83933292D01*
X100080515Y-83863009D01*
X100076948Y-83781678D01*
X100074908Y-83693154D01*
X100074395Y-83601293D01*
X100075406Y-83509950D01*
X100077943Y-83422982D01*
X100082003Y-83344243D01*
X100087586Y-83277589D01*
X100092399Y-83240190D01*
X100121518Y-83088711D01*
X100158992Y-82953736D01*
X100205279Y-82834685D01*
X100260833Y-82730981D01*
X100326111Y-82642044D01*
X100401568Y-82567294D01*
X100487660Y-82506153D01*
X100584842Y-82458042D01*
X100693570Y-82422381D01*
X100745283Y-82410465D01*
X100800553Y-82399792D01*
X100841034Y-82393644D01*
X100870153Y-82391819D01*
X100891339Y-82394112D01*
X100908020Y-82400321D01*
X100908881Y-82400775D01*
X100913162Y-82403672D01*
X100916712Y-82408463D01*
X100919601Y-82416789D01*
X100921894Y-82430292D01*
X100923660Y-82450617D01*
X100924965Y-82479404D01*
X100925878Y-82518297D01*
X100926465Y-82568938D01*
X100926795Y-82632970D01*
X100926934Y-82712034D01*
X100926950Y-82807774D01*
X100926940Y-82840735D01*
X100926764Y-82929160D01*
X100926315Y-83011929D01*
X100925626Y-83087113D01*
X100924726Y-83152787D01*
X100923646Y-83207025D01*
X100922418Y-83247901D01*
X100921072Y-83273487D01*
X100919882Y-83281741D01*
X100907010Y-83290874D01*
X100883414Y-83300393D01*
X100875325Y-83302801D01*
X100817435Y-83326234D01*
X100771194Y-83362583D01*
X100734857Y-83413542D01*
X100714244Y-83459170D01*
X100706253Y-83484785D01*
X100700959Y-83514155D01*
X100697905Y-83551653D01*
X100696631Y-83601654D01*
X100696518Y-83628566D01*
X100696856Y-83680549D01*
X100698229Y-83717863D01*
X100701174Y-83744654D01*
X100706227Y-83765068D01*
X100713927Y-83783253D01*
X100717430Y-83790014D01*
X100747459Y-83833514D01*
X100782091Y-83859384D01*
X100822544Y-83868509D01*
X100825453Y-83868543D01*
X100846236Y-83868081D01*
X100864384Y-83865807D01*
X100880376Y-83860387D01*
X100894691Y-83850490D01*
X100907812Y-83834783D01*
X100920217Y-83811934D01*
X100932386Y-83780610D01*
X100944801Y-83739480D01*
X100957941Y-83687209D01*
X100972286Y-83622467D01*
X100988316Y-83543920D01*
X101006513Y-83450237D01*
X101027355Y-83340085D01*
X101039773Y-83273856D01*
X101055582Y-83190605D01*
X101071345Y-83109807D01*
X101086509Y-83034139D01*
X101100520Y-82966276D01*
X101112827Y-82908896D01*
X101122876Y-82864676D01*
X101130115Y-82836291D01*
X101130127Y-82836249D01*
X101171565Y-82720823D01*
X101225210Y-82618427D01*
X101290531Y-82529757D01*
X101366996Y-82455511D01*
X101454072Y-82396384D01*
X101474590Y-82385480D01*
X101504623Y-82372253D01*
X101545360Y-82356908D01*
X101589327Y-82342208D01*
X101601775Y-82338413D01*
X101682268Y-82320563D01*
X101774732Y-82310145D01*
X101873902Y-82307032D01*
X101974510Y-82311099D01*
G37*
G36*
X103826965Y-84028769D02*
G01*
X103783732Y-84017611D01*
X103729296Y-84003010D01*
X103665945Y-83985579D01*
X103639112Y-83978043D01*
X103595968Y-83965926D01*
X103560498Y-83955808D01*
X103864332Y-83955808D01*
X103865874Y-83983658D01*
X103867797Y-83991416D01*
X103869198Y-83982326D01*
X103869777Y-83958362D01*
X103869778Y-83957947D01*
X103869287Y-83932947D01*
X103867989Y-83922597D01*
X103867908Y-83921951D01*
X103865970Y-83927193D01*
X103864332Y-83955808D01*
X103560498Y-83955808D01*
X103545665Y-83951577D01*
X103272787Y-83873249D01*
X103863283Y-83873249D01*
X103867989Y-83877954D01*
X103872694Y-83873249D01*
X103867989Y-83868543D01*
X103863283Y-83873249D01*
X103272787Y-83873249D01*
X103242164Y-83864459D01*
X103242164Y-83762309D01*
X103242297Y-83755613D01*
X103543313Y-83755613D01*
X103551412Y-83762250D01*
X103570448Y-83768098D01*
X103600346Y-83774535D01*
X103622207Y-83779705D01*
X103639112Y-83782146D01*
X103645745Y-83774537D01*
X103646833Y-83755613D01*
X103645367Y-83735198D01*
X103637823Y-83728938D01*
X103622207Y-83731520D01*
X103593328Y-83738264D01*
X103570448Y-83743128D01*
X103551156Y-83749093D01*
X103543313Y-83755613D01*
X103242297Y-83755613D01*
X103243255Y-83707425D01*
X103246577Y-83670526D01*
X103252203Y-83650902D01*
X103253928Y-83648660D01*
X103264693Y-83644297D01*
X103291061Y-83635801D01*
X103330450Y-83623889D01*
X103380279Y-83609280D01*
X103437965Y-83592695D01*
X103452305Y-83588631D01*
X103864329Y-83588631D01*
X103865886Y-83616802D01*
X103867731Y-83623905D01*
X103869081Y-83614297D01*
X103869674Y-83590087D01*
X103869682Y-83586217D01*
X103869200Y-83560362D01*
X103867989Y-83549393D01*
X103867929Y-83548850D01*
X103866130Y-83553790D01*
X103865886Y-83555631D01*
X103864329Y-83588631D01*
X103452305Y-83588631D01*
X103500927Y-83574851D01*
X103566583Y-83556468D01*
X103632350Y-83538264D01*
X103695647Y-83520959D01*
X103715416Y-83515635D01*
X103863283Y-83515635D01*
X103867989Y-83520340D01*
X103872694Y-83515635D01*
X103867989Y-83510930D01*
X103863283Y-83515635D01*
X103715416Y-83515635D01*
X103753892Y-83505273D01*
X103804503Y-83491923D01*
X103844898Y-83481629D01*
X103872495Y-83475109D01*
X103884458Y-83473066D01*
X103887366Y-83481920D01*
X103889692Y-83505680D01*
X103891154Y-83540431D01*
X103891516Y-83571353D01*
X103891516Y-83669419D01*
X103867731Y-83674643D01*
X103862916Y-83675701D01*
X103834316Y-83681982D01*
X103837036Y-83758395D01*
X103838729Y-83796256D01*
X103841365Y-83819394D01*
X103846257Y-83831901D01*
X103854715Y-83837874D01*
X103863283Y-83840317D01*
X103873903Y-83843601D01*
X103880850Y-83849873D01*
X103885051Y-83862733D01*
X103887438Y-83885779D01*
X103888937Y-83922613D01*
X103889492Y-83941883D01*
X103890536Y-83985118D01*
X103890317Y-84012951D01*
X103888169Y-84028794D01*
X103883427Y-84036058D01*
X103875423Y-84038153D01*
X103870671Y-84038317D01*
X103867797Y-84037814D01*
X103856708Y-84035875D01*
X103826965Y-84028769D01*
G37*
G36*
X100989709Y-93667629D02*
G01*
X101002706Y-93671609D01*
X101021027Y-93680362D01*
X101047162Y-93695116D01*
X101083600Y-93717100D01*
X101132831Y-93747541D01*
X101148241Y-93757121D01*
X101207385Y-93794527D01*
X101251320Y-93824273D01*
X101281234Y-93847933D01*
X101298317Y-93867084D01*
X101303758Y-93883300D01*
X101298747Y-93898158D01*
X101284473Y-93913234D01*
X101272935Y-93922316D01*
X101254336Y-93936054D01*
X101224227Y-93958208D01*
X101186284Y-93986074D01*
X101144186Y-94016952D01*
X101129419Y-94027774D01*
X101089551Y-94057345D01*
X101055425Y-94083344D01*
X101029797Y-94103618D01*
X101015421Y-94116014D01*
X101013351Y-94118465D01*
X101002832Y-94126366D01*
X101001864Y-94126417D01*
X100991295Y-94131767D01*
X100969367Y-94146210D01*
X100939621Y-94167337D01*
X100915598Y-94185148D01*
X100873096Y-94216947D01*
X100826937Y-94251105D01*
X100784958Y-94281835D01*
X100771805Y-94291357D01*
X100739139Y-94315162D01*
X100710399Y-94336573D01*
X100690551Y-94351877D01*
X100687107Y-94354694D01*
X100646502Y-94386925D01*
X100603402Y-94417814D01*
X100561353Y-94445154D01*
X100523902Y-94466736D01*
X100494594Y-94480354D01*
X100479330Y-94484031D01*
X100461853Y-94479014D01*
X100433244Y-94465306D01*
X100396594Y-94444924D01*
X100354995Y-94419882D01*
X100311539Y-94392197D01*
X100269317Y-94363884D01*
X100231420Y-94336958D01*
X100200941Y-94313435D01*
X100180971Y-94295331D01*
X100174537Y-94285318D01*
X100175008Y-94276607D01*
X100177624Y-94267670D01*
X100183618Y-94257474D01*
X100194223Y-94244983D01*
X100210672Y-94229164D01*
X100234197Y-94208981D01*
X100266032Y-94183399D01*
X100307409Y-94151384D01*
X100359562Y-94111902D01*
X100423723Y-94063917D01*
X100501124Y-94006396D01*
X100550649Y-93969680D01*
X100608791Y-93926579D01*
X100670848Y-93880551D01*
X100732033Y-93835147D01*
X100787559Y-93793919D01*
X100831788Y-93761053D01*
X100873747Y-93730522D01*
X100911920Y-93703977D01*
X100943108Y-93683553D01*
X100964112Y-93671381D01*
X100969722Y-93669075D01*
X100979544Y-93667194D01*
X100989709Y-93667629D01*
G37*
G36*
X103836784Y-87405302D02*
G01*
X103790681Y-87393657D01*
X103727479Y-87376639D01*
X103647004Y-87354200D01*
X103646833Y-87354151D01*
X103549082Y-87326293D01*
X103496501Y-87311083D01*
X103864320Y-87311083D01*
X103865772Y-87342644D01*
X103865902Y-87343726D01*
X103867677Y-87350212D01*
X103868983Y-87340095D01*
X103869590Y-87315591D01*
X103869606Y-87308225D01*
X103869135Y-87281516D01*
X103867955Y-87269454D01*
X103866295Y-87273891D01*
X103865826Y-87277849D01*
X103864320Y-87311083D01*
X103496501Y-87311083D01*
X103433536Y-87292869D01*
X103305688Y-87255494D01*
X103242164Y-87236846D01*
X103242164Y-87133942D01*
X103242195Y-87128376D01*
X103527101Y-87128376D01*
X103534295Y-87131487D01*
X103555301Y-87137505D01*
X103585586Y-87145134D01*
X103585851Y-87145198D01*
X103646833Y-87159789D01*
X103646833Y-87098999D01*
X103588083Y-87112572D01*
X103557517Y-87119880D01*
X103535472Y-87125616D01*
X103527101Y-87128376D01*
X103242195Y-87128376D01*
X103242418Y-87088450D01*
X103243635Y-87058033D01*
X103246495Y-87038948D01*
X103251679Y-87027449D01*
X103259867Y-87019794D01*
X103263339Y-87017477D01*
X103277183Y-87011950D01*
X103306529Y-87002501D01*
X103348646Y-86989873D01*
X103400801Y-86974806D01*
X103427448Y-86967294D01*
X103864332Y-86967294D01*
X103865874Y-86995144D01*
X103867797Y-87002902D01*
X103869198Y-86993812D01*
X103869777Y-86969848D01*
X103869778Y-86969433D01*
X103869287Y-86944433D01*
X103867908Y-86933437D01*
X103866420Y-86937462D01*
X103865970Y-86938679D01*
X103864332Y-86967294D01*
X103427448Y-86967294D01*
X103460261Y-86958044D01*
X103524295Y-86940328D01*
X103590171Y-86922400D01*
X103655155Y-86905003D01*
X103659939Y-86903746D01*
X103865294Y-86903746D01*
X103866420Y-86905125D01*
X103872015Y-86903833D01*
X103872694Y-86898851D01*
X103869251Y-86891105D01*
X103866420Y-86892577D01*
X103865294Y-86903746D01*
X103659939Y-86903746D01*
X103716517Y-86888879D01*
X103771523Y-86874770D01*
X103817441Y-86863417D01*
X103851539Y-86855563D01*
X103871086Y-86851950D01*
X103873346Y-86851797D01*
X103881802Y-86852951D01*
X103887107Y-86858667D01*
X103889828Y-86872322D01*
X103890533Y-86897294D01*
X103889790Y-86936961D01*
X103889492Y-86947853D01*
X103888088Y-86991167D01*
X103886166Y-87019263D01*
X103882797Y-87035741D01*
X103877053Y-87044200D01*
X103868004Y-87048241D01*
X103867797Y-87048293D01*
X103863283Y-87049419D01*
X103851584Y-87053288D01*
X103844376Y-87060896D01*
X103840336Y-87076351D01*
X103838141Y-87103759D01*
X103837043Y-87130921D01*
X103834330Y-87206914D01*
X103862923Y-87212632D01*
X103891516Y-87218351D01*
X103891516Y-87312990D01*
X103890855Y-87359041D01*
X103888623Y-87389141D01*
X103884449Y-87406123D01*
X103878394Y-87412665D01*
X103867677Y-87411766D01*
X103865963Y-87411622D01*
X103836784Y-87405302D01*
G37*
G36*
X101060097Y-85506097D02*
G01*
X101187570Y-85506286D01*
X101298906Y-85506628D01*
X101395448Y-85507144D01*
X101478538Y-85507856D01*
X101549520Y-85508786D01*
X101609734Y-85509955D01*
X101660525Y-85511385D01*
X101703234Y-85513098D01*
X101739204Y-85515116D01*
X101769777Y-85517460D01*
X101796296Y-85520152D01*
X101797650Y-85520309D01*
X101957398Y-85545555D01*
X102102368Y-85582352D01*
X102232736Y-85630823D01*
X102348679Y-85691089D01*
X102450374Y-85763272D01*
X102537996Y-85847495D01*
X102611723Y-85943879D01*
X102671729Y-86052547D01*
X102711245Y-86152165D01*
X102731554Y-86217137D01*
X102747243Y-86278884D01*
X102758907Y-86341552D01*
X102767137Y-86409290D01*
X102772527Y-86486244D01*
X102775668Y-86576561D01*
X102776264Y-86607113D01*
X102777089Y-86668341D01*
X102777465Y-86724370D01*
X102777400Y-86772044D01*
X102776905Y-86808212D01*
X102775987Y-86829718D01*
X102775608Y-86832975D01*
X102772250Y-86853783D01*
X102767218Y-86886425D01*
X102761558Y-86924110D01*
X102761143Y-86926915D01*
X102733128Y-87065477D01*
X102691832Y-87191427D01*
X102637055Y-87304925D01*
X102568596Y-87406136D01*
X102486253Y-87495220D01*
X102389828Y-87572342D01*
X102279117Y-87637663D01*
X102153922Y-87691345D01*
X102014042Y-87733551D01*
X101859275Y-87764444D01*
X101703483Y-87783020D01*
X101677116Y-87784492D01*
X101634739Y-87785861D01*
X101578139Y-87787123D01*
X101509103Y-87788273D01*
X101429420Y-87789307D01*
X101340875Y-87790220D01*
X101245256Y-87791007D01*
X101144352Y-87791664D01*
X101039948Y-87792185D01*
X100933832Y-87792568D01*
X100827792Y-87792805D01*
X100723615Y-87792894D01*
X100623088Y-87792830D01*
X100527999Y-87792607D01*
X100440134Y-87792222D01*
X100361282Y-87791669D01*
X100293229Y-87790945D01*
X100237762Y-87790043D01*
X100196670Y-87788961D01*
X100171739Y-87787692D01*
X100165979Y-87787004D01*
X100136570Y-87781122D01*
X100136570Y-87409950D01*
X100136823Y-87305641D01*
X100137574Y-87216414D01*
X100138803Y-87142960D01*
X100140494Y-87085974D01*
X100142629Y-87046147D01*
X100145191Y-87024172D01*
X100146312Y-87020574D01*
X100148666Y-87017062D01*
X100152576Y-87014033D01*
X100159357Y-87011451D01*
X100170324Y-87009278D01*
X100186793Y-87007479D01*
X100210079Y-87006019D01*
X100241498Y-87004860D01*
X100282363Y-87003967D01*
X100333992Y-87003303D01*
X100397698Y-87002833D01*
X100474798Y-87002520D01*
X100566607Y-87002328D01*
X100674439Y-87002221D01*
X100799611Y-87002163D01*
X100816838Y-87002157D01*
X100967099Y-87001989D01*
X101099859Y-87001558D01*
X101216437Y-87000819D01*
X101318153Y-86999726D01*
X101406326Y-86998236D01*
X101482275Y-86996302D01*
X101547320Y-86993881D01*
X101602780Y-86990926D01*
X101649975Y-86987394D01*
X101690224Y-86983239D01*
X101724846Y-86978416D01*
X101755160Y-86972879D01*
X101769791Y-86969674D01*
X101853845Y-86943224D01*
X101922118Y-86906525D01*
X101974605Y-86859581D01*
X102011304Y-86802393D01*
X102032212Y-86734967D01*
X102037570Y-86671745D01*
X102030714Y-86585372D01*
X102009943Y-86511458D01*
X101974955Y-86449460D01*
X101925448Y-86398837D01*
X101863468Y-86360188D01*
X101840035Y-86349158D01*
X101816832Y-86339476D01*
X101792523Y-86331055D01*
X101765771Y-86323808D01*
X101735237Y-86317647D01*
X101699585Y-86312485D01*
X101657478Y-86308235D01*
X101607578Y-86304809D01*
X101548547Y-86302119D01*
X101479049Y-86300079D01*
X101397745Y-86298600D01*
X101303300Y-86297596D01*
X101194375Y-86296980D01*
X101069633Y-86296662D01*
X100927737Y-86296557D01*
X100889936Y-86296554D01*
X100776549Y-86296475D01*
X100668129Y-86296249D01*
X100566229Y-86295886D01*
X100472398Y-86295401D01*
X100388187Y-86294805D01*
X100315146Y-86294111D01*
X100254827Y-86293332D01*
X100208779Y-86292480D01*
X100178553Y-86291568D01*
X100165979Y-86290672D01*
X100136570Y-86284790D01*
X100136570Y-85919554D01*
X100136806Y-85829123D01*
X100137488Y-85747355D01*
X100138574Y-85675991D01*
X100140024Y-85616773D01*
X100141797Y-85571442D01*
X100143850Y-85541739D01*
X100145747Y-85530179D01*
X100154925Y-85506039D01*
X100915146Y-85506039D01*
X101060097Y-85506097D01*
G37*
G36*
X100529083Y-93378411D02*
G01*
X100557083Y-93391738D01*
X100594237Y-93411625D01*
X100637266Y-93436169D01*
X100682893Y-93463468D01*
X100727839Y-93491618D01*
X100768825Y-93518717D01*
X100792979Y-93535733D01*
X100821765Y-93559568D01*
X100838899Y-93579866D01*
X100842386Y-93589776D01*
X100835018Y-93605439D01*
X100815080Y-93627584D01*
X100791221Y-93648297D01*
X100759618Y-93672855D01*
X100728881Y-93695981D01*
X100708876Y-93710403D01*
X100691144Y-93723018D01*
X100661443Y-93744517D01*
X100622938Y-93772594D01*
X100578793Y-93804942D01*
X100541002Y-93832744D01*
X100495337Y-93866332D01*
X100453445Y-93897019D01*
X100418280Y-93922648D01*
X100392801Y-93941063D01*
X100381017Y-93949400D01*
X100365989Y-93960076D01*
X100338803Y-93979786D01*
X100302427Y-94006362D01*
X100259828Y-94037638D01*
X100221964Y-94065546D01*
X100166962Y-94105797D01*
X100124441Y-94135879D01*
X100092032Y-94157189D01*
X100067369Y-94171126D01*
X100048082Y-94179086D01*
X100031805Y-94182468D01*
X100023152Y-94182882D01*
X100007871Y-94177729D01*
X99981777Y-94163897D01*
X99949243Y-94143825D01*
X99930351Y-94131122D01*
X99897196Y-94108840D01*
X99869315Y-94091370D01*
X99850609Y-94081091D01*
X99845527Y-94079362D01*
X99835822Y-94073719D01*
X99835421Y-94071541D01*
X99827855Y-94063300D01*
X99807991Y-94049121D01*
X99780080Y-94032029D01*
X99779235Y-94031545D01*
X99746000Y-94009999D01*
X99726753Y-93991868D01*
X99722770Y-93982570D01*
X99730308Y-93955368D01*
X99754220Y-93924445D01*
X99795174Y-93889021D01*
X99816044Y-93873721D01*
X99856913Y-93844554D01*
X99902390Y-93811667D01*
X99939031Y-93784830D01*
X100006460Y-93735016D01*
X100073657Y-93685410D01*
X100138751Y-93637392D01*
X100199869Y-93592340D01*
X100255139Y-93551634D01*
X100302690Y-93516651D01*
X100340650Y-93488770D01*
X100367146Y-93469370D01*
X100380077Y-93459994D01*
X100399868Y-93445463D01*
X100427396Y-93424678D01*
X100448029Y-93408836D01*
X100475640Y-93389890D01*
X100500299Y-93377080D01*
X100513515Y-93373545D01*
X100529083Y-93378411D01*
G37*
D12*
%TO.C,TP8*%
X105800000Y-105000000D02*
G75*
G03*
X105800000Y-105000000I-1400000J0D01*
G01*
D13*
%TO.C,J4*%
X111814200Y-131650000D02*
X111814200Y-122500000D01*
X95694200Y-122500000D02*
X95694200Y-131650000D01*
X95694200Y-122500000D02*
X111814200Y-122500000D01*
X95694200Y-131650000D02*
X111814200Y-131650000D01*
%TO.C,R12*%
X82527064Y-111910000D02*
X81072936Y-111910000D01*
X82527064Y-110090000D02*
X81072936Y-110090000D01*
D12*
%TO.C,TP12*%
X83900000Y-104950000D02*
G75*
G03*
X83900000Y-104950000I-1400000J0D01*
G01*
D13*
%TO.C,JP18*%
X85500000Y-84200000D02*
X88300000Y-84200000D01*
X88300000Y-86200000D02*
X85500000Y-86200000D01*
X88300000Y-84200000D02*
X88300000Y-86200000D01*
X85500000Y-86200000D02*
X85500000Y-84200000D01*
D12*
%TO.C,TP6*%
X56200000Y-105000000D02*
G75*
G03*
X56200000Y-105000000I-1400000J0D01*
G01*
D13*
%TO.C,C1*%
X65090000Y-104959420D02*
X65090000Y-105240580D01*
X66110000Y-104959420D02*
X66110000Y-105240580D01*
%TO.C,JP14*%
X87500000Y-92200000D02*
X90300000Y-92200000D01*
X90300000Y-92200000D02*
X90300000Y-94200000D01*
X90300000Y-94200000D02*
X87500000Y-94200000D01*
X87500000Y-94200000D02*
X87500000Y-92200000D01*
%TO.C,D1*%
X68080000Y-77760000D02*
X68080000Y-77630000D01*
X68860000Y-77630000D02*
X68860000Y-80570000D01*
X68080000Y-80440000D02*
X68080000Y-80570000D01*
X73520000Y-77630000D02*
X73520000Y-77760000D01*
X68080000Y-77630000D02*
X73520000Y-77630000D01*
X68980000Y-77630000D02*
X68980000Y-80570000D01*
X69100000Y-77630000D02*
X69100000Y-80570000D01*
X73520000Y-80570000D02*
X73520000Y-80440000D01*
X68080000Y-80570000D02*
X73520000Y-80570000D01*
%TD*%
M02*
